<?xml version="1.0" encoding="utf-8"?>
<!-- Generator: Adobe Illustrator 24.2.1, SVG Export Plug-In . SVG Version: 6.00 Build 0)  -->
<svg version="1.1" id="Layer_1" xmlns="http://www.w3.org/2000/svg" xmlns:xlink="http://www.w3.org/1999/xlink" x="0px" y="0px"
	 viewBox="0 0 200 200" style="enable-background:new 0 0 200 200;" xml:space="preserve">
<path d="M175,108.2c-0.9-9.2-10.5-11.5-15.2-12.5c-5.6-1.2-9.9-2.3-9.9-6.3c0-2.8,2.5-4.9,7.4-4.5c4.5,0.3,6.3,3,6.8,5.7
	c0.1,0.4,0.3,0.7,0.8,0.7l8,0.1c0.6,0,0.8-0.3,0.7-0.7c-1.6-9.6-9.6-12.3-17-12.3c-7.4,0-16.2,2.1-16.9,11.2c0,0.4,0,0.7,0,1
	c-1.2-2.4-2.9-4.7-5-6.7c-4-3.6-9-5.6-14.5-5.6c-0.1,0-0.1,0-0.2,0c-2.6,0-5.2,0.5-7.6,1.4c-2.4,1-4.7,2.4-6.7,4.2
	c-2.1,1.9-3.7,4-4.9,6.3c-1.7-9.2-9.6-11.9-16.9-11.9c-6.8,0-14.8,1.8-16.6,9.1v-7.3c0-0.4-0.3-0.7-0.7-0.7H59
	c-0.4,0-0.7,0.3-0.7,0.7v0.7v1.3c0,0.3-0.2,0.4-0.5,0.3c-2.7-1.9-6.7-4-11.4-4c-2.7,0-5.2,0.5-7.6,1.4c-2.4,0.9-4.6,2.4-6.7,4.2
	c-2.4,2.1-4.2,4.6-5.3,7.3c-1.2,2.7-1.8,5.7-1.8,8.9c0,3,0.5,5.8,1.6,8.4c1,2.5,2.6,4.9,4.7,7c2.1,2.1,4.4,3.7,6.9,4.7
	c2.5,1,5.3,1.6,8.2,1.6c5.1,0,8.9-2.2,11.4-4.1c0.3-0.2,0.5-0.1,0.5,0.2v1.3v0.7c0,0.4,0.3,0.7,0.7,0.7h7.5c0.4,0,0.7-0.3,0.7-0.7
	v-7c3.6,8.4,12.6,8.8,17,8.8c7.4,0,16-2.4,17.7-9.7c0.8,1.2,1.7,2.3,2.8,3.4c4,4.1,9.3,6.3,15.3,6.3c0.1,0,0.2,0,0.2,0
	c2.8,0,5.6-0.5,8.1-1.6c2.6-1.1,4.9-2.7,6.9-4.7c1.5-1.5,2.8-3.2,3.7-5c2.7,10.8,13,11.3,17.9,11.3
	C165.6,121.7,175.7,118.5,175,108.2z M46.3,113.8c-6.2,0-12-4.9-12-13.7c0-6.9,4.3-13.6,12-13.6c3.3,0,11.8,1.1,11.8,13.6
	C58.2,112.5,49.3,113.8,46.3,113.8z M84.9,114.8c-3.9,0-8.1-1.4-9.1-6.7c-0.1-0.5-0.3-0.7-0.7-0.7l-7.7-0.1V93.5
	c1,4,4.4,6.8,11.7,8.4c4.9,1.2,13.3,1.9,13.3,6.9C92.3,112.4,89.7,114.8,84.9,114.8z M98.5,100c0,0.2,0,0.4,0,0.6
	c-3.5-3.1-8.4-4.3-11.5-4.9c-5.6-1.2-9.9-2.3-9.9-6.3c0-2.8,2.5-4.9,7.4-4.5c4.5,0.3,6.3,3,6.8,5.7c0.1,0.4,0.3,0.7,0.8,0.7l8,0.1
	c0,0,0.1,0,0.1,0C99.1,94,98.5,96.9,98.5,100z M128.7,110.1c-2.3,2.4-5.1,3.6-8.6,3.6c-3.4,0-6.3-1.2-8.6-3.6
	c-2.1-2.3-3.4-6-3.4-10.1c0-4,1.2-7.6,3.4-9.9c2.3-2.4,5.1-3.6,8.5-3.7c3.4,0,6.3,1.2,8.6,3.7c2.2,2.3,3.4,5.9,3.4,9.9
	C132.1,104.1,130.8,107.8,128.7,110.1z M157.6,114.8c-3.9,0-8.1-1.4-9.1-6.7c-0.1-0.5-0.3-0.7-0.7-0.7l-7.2-0.1
	c0.8-2.2,1.1-4.6,1.1-7.2c0-1.2-0.1-2.3-0.2-3.4c1.8,2.4,5,4.1,10.2,5.3c4.9,1.2,13.3,1.9,13.3,6.9
	C165,112.4,162.4,114.8,157.6,114.8z"/>
</svg>
