<?xml version="1.0" encoding="utf-8"?>
<!-- Generator: Adobe Illustrator 24.3.0, SVG Export Plug-In . SVG Version: 6.00 Build 0)  -->
<svg version="1.1" id="Layer_1" xmlns="http://www.w3.org/2000/svg" xmlns:xlink="http://www.w3.org/1999/xlink" x="0px" y="0px"
	 viewBox="0 0 200 200" style="enable-background:new 0 0 200 200;" xml:space="preserve">
<style type="text/css">
	.st0{fill:#FE1251;}
</style>
<g>
	<path class="st0" d="M105,90.2c-3,0.1-4.8,1.4-5.8,2.5c-2.5,2.8-2.4,6.6-2.4,7.5v8.3c0,0.2,0.2,0.4,0.4,0.4h3.8
		c0.2,0,0.4-0.2,0.4-0.4V100c0,0-0.2-2.8,1.2-4.2c0.6-0.6,1.4-1,2.5-1.1c0.2,0,0.4-0.2,0.4-0.4v-3.8C105.4,90.3,105.2,90.2,105,90.2
		z"/>
	<path class="st0" d="M174.6,90.2c-3,0.1-4.8,1.4-5.8,2.5c-2.5,2.8-2.4,6.6-2.4,7.5v8.3c0,0.2,0.2,0.4,0.4,0.4h3.8
		c0.2,0,0.4-0.2,0.4-0.4V100c0,0-0.2-2.8,1.2-4.2c0.6-0.6,1.4-1,2.5-1.1c0.2,0,0.4-0.2,0.4-0.4v-3.8C175,90.3,174.8,90.2,174.6,90.2
		z"/>
	<path class="st0" d="M61.4,83.5c-1.3-1.2-3-2-4.8-2.5c-4.7-1.3-10.2-1.2-14.9-0.2c-4.8,1.1-8.3,4.2-11.1,8.1
		c-2.6,3.6-5.1,8.1-5.5,12.7c-0.4,4.8,2,9.4,5.4,12.7c3.3,3.4,7.9,5.8,12.7,5.4c4.6-0.4,9.1-2.9,12.7-5.5c3.9-2.8,7-6.3,8.1-11.1
		c1.1-4.8,1.2-10.2-0.2-14.9C63.3,86.5,62.6,84.8,61.4,83.5z M45.7,111.5c-6.8,0-12.2-5.5-12.2-12.2c0-6.8,5.5-12.2,12.2-12.2
		c6.8,0,12.2,5.5,12.2,12.2C57.9,106,52.4,111.5,45.7,111.5z"/>
	<path class="st0" d="M145.4,90.2h-3.6c-0.2,0-0.4,0.1-0.5,0.3l-6.2,13.5l-6.2-13.5c-0.1-0.2-0.3-0.3-0.5-0.3h-3.6
		c-0.3,0-0.5,0.3-0.4,0.6l8.2,18c0.1,0.1,0.2,0.2,0.4,0.2h4.2c0.2,0,0.3-0.1,0.4-0.2l8.2-18C145.9,90.5,145.7,90.2,145.4,90.2z"/>
	<path class="st0" d="M154.1,89.7c-5,0.3-9.1,4.3-9.3,9.3c-0.3,5.7,4.2,10.4,9.9,10.4c3.1,0,6.1-1.5,7.9-4c0.1-0.2,0.1-0.4-0.1-0.6
		l-2.9-1.8c-0.2-0.1-0.4-0.1-0.5,0.1c-1.1,1.3-2.7,2.1-4.4,2.1c-2.5,0-4.7-1.6-5.4-4l0-0.1h10.9v0h4c0.2,0,0.4-0.1,0.4-0.3
		c0.1-0.4,0.1-0.8,0.1-1.3C164.5,94,159.8,89.4,154.1,89.7z M149.5,97.3L149.5,97.3c1-2.1,3-3.4,5.2-3.4c2.2,0,4.2,1.3,5.1,3.3
		l0,0.1H149.5z"/>
	<path class="st0" d="M115.5,89.7c-5.4,0-9.9,4.4-9.9,9.9c0,5.4,4.4,9.9,9.9,9.9c5.4,0,9.9-4.4,9.9-9.9
		C125.4,94.1,120.9,89.7,115.5,89.7z M115.5,105.3c-3.1,0-5.7-2.6-5.7-5.7c0-3.1,2.6-5.7,5.7-5.7c3.1,0,5.7,2.6,5.7,5.7
		C121.2,102.7,118.6,105.3,115.5,105.3z"/>
	<path class="st0" d="M94.4,97H83.5c-0.2,0-0.4,0.2-0.4,0.4v3.8c0,0.2,0.2,0.4,0.4,0.4h6.6l0,0.1c-1,3.3-4.1,5.5-7.6,5.4
		c-4.3-0.1-7.7-3.7-7.6-7.9c0.1-4.2,3.5-7.6,7.8-7.6c2.5,0,4.8,1.2,6.3,3.2c0.1,0.2,0.4,0.2,0.5,0.1l3.1-2c0.2-0.1,0.2-0.4,0.1-0.6
		c-2.3-3.3-6-5.2-10-5.2c-6.8,0-12.3,5.5-12.3,12.3c0,6.8,5.5,12.3,12.3,12.3c6.8,0,12.3-5.5,12.3-12.3c0-0.6-0.1-1.3-0.2-1.9
		C94.7,97.1,94.6,97,94.4,97z"/>
</g>
</svg>
