<?xml version="1.0" encoding="utf-8"?>
<!-- Generator: Adobe Illustrator 23.1.0, SVG Export Plug-In . SVG Version: 6.00 Build 0)  -->
<svg version="1.1" id="Layer_1" xmlns="http://www.w3.org/2000/svg" xmlns:xlink="http://www.w3.org/1999/xlink" x="0px" y="0px"
	 viewBox="0 0 200 200" style="enable-background:new 0 0 200 200;" xml:space="preserve">
<g>
	<path d="M200,200c-66.7,0-133.3,0-200,0C0,133.3,0,66.7,0,0c66.7,0,133.3,0,200,0C200,66.7,200,133.3,200,200z M183.4,183.4
		c0-55.7,0-111.3,0-166.8c-55.7,0-111.2,0-166.8,0c0,55.7,0,111.2,0,166.8C72.3,183.4,127.8,183.4,183.4,183.4z"/>
	<path d="M69.5,176.5c1.2-5.2,2.5-10.5,3.6-15.9c1.7-8.3,2.6-16.7,2.6-25.2c0-26,0-52.1,0-78.1c0-11.6,5.6-20,16.5-24
		c12.8-4.7,25.1-3.3,36.8,3.5c2.8,1.6,5.2,4,7.2,6.6c5.9,7.7,1.2,21.8-10.2,22.7c-4.5,0.4-8.5-0.3-11.9-3.4c-1.6-1.4-2.7-3-3-5.1
		c-0.1-0.4-0.1-0.8,0.5-1c5.9-1.2,8.8-7.2,6.4-13.2c-2.2-5.7-8.5-9.2-14.6-8c-2.8,0.6-4.6,2.4-5.6,5c-1.1,3.1-1.7,6.3-1.8,9.5
		c-0.2,5.7-0.2,11.5-0.2,17.2c0,7.1,0,14.2,0,21.3c0,0.4,0,0.7,0,1.3c4.2-2.5,8.4-4.5,12.9-5.7c4.6-1.3,9.2-1.7,14-1.1
		c-4-3.1-12.2-5-21.7-0.7c2-3.4,8-7.6,15.2-7.8c9-0.3,15.7,3.8,20.9,11c-0.3,0-0.4,0.1-0.6,0.1c-4.8-0.4-9.2,0.9-13.4,2.9
		c-3,1.4-6,3-9.1,4.3c-3.4,1.5-6.9,1.8-10.4,0.2c-0.4-0.2-0.8-0.3-1.1-0.6c-0.9-0.9-1.8-0.6-2.7,0c-0.9,0.7-1.8,1.4-2.6,2.2
		c-1.1,1.2-1.6,2.6-1.6,4.4c0.1,13.4,0,26.8,0,40.2c0,4.6,0.2,9.3,1.6,13.7c0.4,1.4,1.1,2.8,1.6,4.3
		C87.4,160.8,77.6,167.5,69.5,176.5z"/>
</g>
</svg>
