<?xml version="1.0" encoding="utf-8"?>
<!-- Generator: Adobe Illustrator 23.1.0, SVG Export Plug-In . SVG Version: 6.00 Build 0)  -->
<svg version="1.1" id="Layer_1" xmlns="http://www.w3.org/2000/svg" xmlns:xlink="http://www.w3.org/1999/xlink" x="0px" y="0px"
	 viewBox="0 0 200 200" style="enable-background:new 0 0 200 200;" xml:space="preserve">
<style type="text/css">
	.st0{fill-rule:evenodd;clip-rule:evenodd;}
</style>
<path d="M172.5,157.3c-8,0-12.8-4.1-13.1-9.9h7.6c0,1.8,1.1,4.5,6,4.6c3.2,0,4.8-1.9,4.8-3.3c-0.2-2.3-3.1-2.5-6.1-3
	c-3.1-0.5-5.6-1-7.6-2c-2.4-1.2-4-3.9-4-7c0-5.2,4.5-9.3,12-9.3c7.2,0,11.8,3.8,12.3,9.4h-7.3c-0.1-1.5-0.4-3.9-4.7-3.9
	c-2.9,0-4.7,0.6-5,2.6c0,3,6,2.8,10.7,4c4.5,1.1,7.3,3.9,7.3,7.8C185.5,154.6,179.7,157.3,172.5,157.3L172.5,157.3z"/>
<polygon points="33.8,109.4 58.9,95 72.2,117.9 38.6,117.9 "/>
<polygon points="90.1,156.7 82.9,156.7 82.9,127.7 90.1,127.7 "/>
<path class="st0" d="M22.3,142.3c0,4.5,3.8,8.2,8.3,8.2c4.6,0,8.4-3.7,8.4-8.2c0-4.5-3.8-8.3-8.4-8.3
	C26.1,134,22.3,137.8,22.3,142.3L22.3,142.3z M30.4,157.3c-8.2,0-15-6.8-15-15c0-8.3,6.8-14.9,15-14.9c3.1,0,6.1,0.9,8.6,2.6v-2.3
	h7.1v29H39v-1.9C36.7,156.4,33.7,157.3,30.4,157.3L30.4,157.3z"/>
<polygon points="127,117.9 92,57.2 117.1,42.7 160.6,117.9 "/>
<path class="st0" d="M55.5,142.3c0,4.5,3.8,8.2,8.4,8.2c4.5,0,8.3-3.7,8.3-8.2c0-4.5-3.8-8.3-8.3-8.3
	C59.3,134,55.5,137.8,55.5,142.3L55.5,142.3z M63.7,157.3c-8.3,0-15.1-6.8-15.1-15c0-8.3,6.8-14.9,15.1-14.9c3.1,0,6,0.9,8.5,2.6
	v-12.1h7.2v38.8h-7.2v-1.9C69.7,156.4,66.9,157.3,63.7,157.3L63.7,157.3z"/>
<polygon points="63.1,83.6 88.3,69.1 116.5,117.9 90.1,117.9 90.1,125 82.9,125 82.9,117.9 "/>
<path class="st0" d="M133,142.3c0,4.5,3.8,8.2,8.3,8.2c4.5,0,8.2-3.7,8.2-8.2c0-4.5-3.7-8.3-8.2-8.3C136.8,134,133,137.8,133,142.3
	L133,142.3z M141,157.3c-8.2,0-15-6.8-15-15c0-8.3,6.8-14.9,15-14.9c3.1,0,6.1,0.9,8.5,2.6v-2.3h7.2v29h-7.2v-1.9
	C147.1,156.4,144.2,157.3,141,157.3L141,157.3z"/>
<path class="st0" d="M99.9,142.3c0,4.5,3.8,8.2,8.2,8.2c4.6,0,8.4-3.7,8.4-8.2c0-4.5-3.8-8.3-8.4-8.3
	C103.7,134,99.9,137.8,99.9,142.3L99.9,142.3z M116.5,117.9h7.1v38.8h-7.1v-1.9c-2.4,1.6-5.3,2.6-8.6,2.6c-8.2,0-15-6.8-15-15
	c0-8.3,6.8-14.9,15-14.9c3.2,0,6.1,0.9,8.6,2.6V117.9L116.5,117.9z"/>
</svg>
