<svg xmlns="http://www.w3.org/2000/svg" width="396.713" height="60.702" viewBox="0 0 396.713 60.702">
  <g id="Group_749" data-name="Group 749" transform="translate(-2094.506 -1821.342)">
    <path id="Path_1986" data-name="Path 1986" d="M3279.637,1902.8l-6.945,7.411v11.417l12.269-13.144Z" transform="translate(-811.801 -56.126)" fill="#5b0791"/>
    <path id="Path_1987" data-name="Path 1987" d="M3330.783,1908.664l12.263,13.094v-11.352l-6.945-7.416Z" transform="translate(-851.827 -56.258)" fill="#5b0791"/>
    <path id="Path_1988" data-name="Path 1988" d="M3287.176,1848.679l-14.485-15.467v11.352l14.487,15.469a1.013,1.013,0,0,0,1.406,0l14.436-15.4v-11.417l-14.437,15.466A1.013,1.013,0,0,1,3287.176,1848.679Z" transform="translate(-811.8 -8.179)" fill="#ad2146"/>
    <path id="Path_1989" data-name="Path 1989" d="M2097.3,1832.071a20.009,20.009,0,0,1,7.805-7.9,22.667,22.667,0,0,1,11.351-2.83,21.721,21.721,0,0,1,13.31,4.105,19.713,19.713,0,0,1,7.4,11.195h-11.693a9.451,9.451,0,0,0-3.7-4.167,10.412,10.412,0,0,0-5.442-1.43,10.159,10.159,0,0,0-7.961,3.421q-3.048,3.421-3.047,9.142t3.047,9.143a10.156,10.156,0,0,0,7.961,3.421,10.4,10.4,0,0,0,5.442-1.43,9.441,9.441,0,0,0,3.7-4.167h11.693a19.569,19.569,0,0,1-7.4,11.164,21.833,21.833,0,0,1-13.31,4.073,22.655,22.655,0,0,1-11.351-2.83,20.055,20.055,0,0,1-7.805-7.868,25.114,25.114,0,0,1,0-23.043Z" transform="translate(0)" fill="#5b0791"/>
    <path id="Path_1990" data-name="Path 1990" d="M2247.925,1858.538a15.078,15.078,0,0,1,5.5-6.219,14.374,14.374,0,0,1,7.774-2.177,13.361,13.361,0,0,1,6.437,1.493,11,11,0,0,1,4.26,3.919v-4.913h10.635v34.7H2271.9v-4.913a11.489,11.489,0,0,1-4.323,3.918,13.356,13.356,0,0,1-6.437,1.493,14.106,14.106,0,0,1-7.712-2.208,15.243,15.243,0,0,1-5.5-6.282,22.9,22.9,0,0,1,0-18.814Zm21.768,3.172a7.473,7.473,0,0,0-10.76-.031,8.583,8.583,0,0,0-2.208,6.25,8.8,8.8,0,0,0,2.208,6.313,7.405,7.405,0,0,0,10.76.031,10.041,10.041,0,0,0,0-12.564Z" transform="translate(-104.317 -19.844)" fill="#5b0791"/>
    <path id="Path_1991" data-name="Path 1991" d="M2443.077,1854.461q3.825,3.919,3.825,10.884v20.275h-10.573v-18.845a7.172,7.172,0,0,0-1.772-5.193,7.412,7.412,0,0,0-9.765,0,7.169,7.169,0,0,0-1.773,5.193v18.845h-10.573v-18.845a7.171,7.171,0,0,0-1.772-5.193,7.413,7.413,0,0,0-9.765,0,7.172,7.172,0,0,0-1.772,5.193v18.845H2388.5v-34.7h10.636v4.354a11.385,11.385,0,0,1,4.229-3.452,13.3,13.3,0,0,1,5.908-1.275,14.373,14.373,0,0,1,7,1.679,12.046,12.046,0,0,1,4.82,4.789,13.989,13.989,0,0,1,4.914-4.665,13.278,13.278,0,0,1,6.779-1.8Q2439.251,1850.543,2443.077,1854.461Z" transform="translate(-202.57 -20.12)" fill="#5b0791"/>
    <path id="Path_1992" data-name="Path 1992" d="M2615.227,1851.635a13.176,13.176,0,0,1,6.406-1.493,14.374,14.374,0,0,1,7.774,2.177,15.087,15.087,0,0,1,5.5,6.219,22.9,22.9,0,0,1,0,18.814,15.253,15.253,0,0,1-5.5,6.282,14.215,14.215,0,0,1-7.774,2.208,13.217,13.217,0,0,1-6.375-1.493,11.677,11.677,0,0,1-4.322-3.856v21.4H2600.3V1850.64h10.635v4.913A11.534,11.534,0,0,1,2615.227,1851.635Zm8.676,10.045a7.3,7.3,0,0,0-5.442-2.271,7.177,7.177,0,0,0-5.38,2.3,10.042,10.042,0,0,0,0,12.564,7.442,7.442,0,0,0,10.792-.031,8.737,8.737,0,0,0,2.239-6.313A8.588,8.588,0,0,0,2623.9,1861.68Z" transform="translate(-348.505 -19.844)" fill="#5b0791"/>
    <path id="Path_1993" data-name="Path 1993" d="M2769.677,1851.743v34.7h-10.635v-4.727a11.682,11.682,0,0,1-4.385,3.7,13.382,13.382,0,0,1-6.126,1.4,13.719,13.719,0,0,1-7.028-1.773,11.947,11.947,0,0,1-4.727-5.131,17.459,17.459,0,0,1-1.679-7.9v-20.275h10.573v18.845a7.615,7.615,0,0,0,1.8,5.411,6.324,6.324,0,0,0,4.852,1.928,6.4,6.4,0,0,0,4.914-1.928,7.617,7.617,0,0,0,1.8-5.411v-18.845Z" transform="translate(-441.384 -20.947)" fill="#5b0791"/>
    <path id="Path_1994" data-name="Path 1994" d="M2872.794,1884.287a13.8,13.8,0,0,1-5.6-4.26,11.2,11.2,0,0,1-2.3-6.064h10.511a4.039,4.039,0,0,0,1.679,2.923,5.937,5.937,0,0,0,3.669,1.12,5.236,5.236,0,0,0,3.079-.777,2.381,2.381,0,0,0,1.088-2.021,2.334,2.334,0,0,0-1.555-2.208,31.6,31.6,0,0,0-5.038-1.586,47.1,47.1,0,0,1-6.22-1.835,10.728,10.728,0,0,1-4.291-3.047,8.3,8.3,0,0,1-1.8-5.628,9.555,9.555,0,0,1,1.648-5.442,11.093,11.093,0,0,1,4.851-3.887,18.574,18.574,0,0,1,7.619-1.431q6.53,0,10.293,3.234a12.585,12.585,0,0,1,4.322,8.583h-9.827a4.241,4.241,0,0,0-1.586-2.861,5.5,5.5,0,0,0-3.514-1.057,4.861,4.861,0,0,0-2.861.715,2.283,2.283,0,0,0-1,1.959,2.392,2.392,0,0,0,1.586,2.239,25.385,25.385,0,0,0,4.945,1.492,54.323,54.323,0,0,1,6.281,1.959,10.846,10.846,0,0,1,4.26,3.11,8.808,8.808,0,0,1,1.9,5.753,9.133,9.133,0,0,1-1.71,5.442,11.312,11.312,0,0,1-4.913,3.763,18.814,18.814,0,0,1-7.432,1.368A19.935,19.935,0,0,1,2872.794,1884.287Z" transform="translate(-530.818 -19.844)" fill="#5b0791"/>
    <path id="Path_1995" data-name="Path 1995" d="M3057.421,1847.975a11.446,11.446,0,0,1-1.524,15.425q-3.826,3.2-10.667,3.2h-20.338v-43.661h19.654q6.654,0,10.418,3.048a11.05,11.05,0,0,1,1.741,14.678,10.444,10.444,0,0,1-5.38,3.545A10.164,10.164,0,0,1,3057.421,1847.975Zm-21.892-7.37h6.966a6.164,6.164,0,0,0,4.011-1.151,4.133,4.133,0,0,0,1.4-3.39,4.226,4.226,0,0,0-1.4-3.421,6.056,6.056,0,0,0-4.011-1.182h-6.966Zm11.972,16.2a4.306,4.306,0,0,0,1.462-3.514,4.5,4.5,0,0,0-1.524-3.608,6.246,6.246,0,0,0-4.2-1.306h-7.712v9.64h7.836A6.308,6.308,0,0,0,3047.5,1856.807Z" transform="translate(-641.061 -1.102)" fill="#5b0791"/>
    <path id="Path_1996" data-name="Path 1996" d="M3158.632,1883.665a15.93,15.93,0,0,1-6.406-6.219,20.143,20.143,0,0,1,.031-18.876,16.043,16.043,0,0,1,6.468-6.251,20.549,20.549,0,0,1,18.409,0,16.047,16.047,0,0,1,6.469,6.251,18.443,18.443,0,0,1,2.363,9.422,18.252,18.252,0,0,1-2.395,9.422,16.188,16.188,0,0,1-6.531,6.251,19.518,19.518,0,0,1-9.236,2.177A19.146,19.146,0,0,1,3158.632,1883.665ZM3173,1874.4a8.894,8.894,0,0,0,2.146-6.406,9.065,9.065,0,0,0-2.084-6.406,7.068,7.068,0,0,0-10.293-.031q-2.053,2.209-2.052,6.437a9.235,9.235,0,0,0,2.021,6.406,6.54,6.54,0,0,0,5.069,2.239A6.929,6.929,0,0,0,3173,1874.4Z" transform="translate(-727.189 -19.844)" fill="#5b0791"/>
  </g>
</svg>
