<svg xmlns="http://www.w3.org/2000/svg" width="50" height="50" xmlns:v="https://vecta.io/nano"><g fill="#f5f5f5" stroke="#afabb9"><circle cx="25" cy="25" r="25" stroke="none"/><circle cx="25" cy="25" r="23.5" fill="none" stroke-width="3"/></g><path d="M29.221 41.458L13.372 25.609a1.12 1.12 0 0 1 0-1.581L29.403 7.997h-8.049L5.323 24.028a1.12 1.12 0 0 0 0 1.581l15.849 15.849z" fill="#ad2146"/><path d="M45.34 23.983v-3.186L34.056 9.514a1.12 1.12 0 0 0-1.581 0L17.958 24.031a1.12 1.12 0 0 0 0 1.581l14.517 14.517a1.12 1.12 0 0 0 1.581 0L45.34 28.846V25.66c0-.089-.035-.174-.098-.237s-.149-.098-.238-.098h-8.138a3.63 3.63 0 0 1-7.229-.467 3.63 3.63 0 0 1 7.224-.539h8.144c.089 0 .174-.035.237-.098s.098-.149.098-.238z" fill="#5b0791"/></svg>