<svg id="Group_479" data-name="Group 479" xmlns="http://www.w3.org/2000/svg" width="300.324" height="110.934" viewBox="0 0 300.324 110.934">
  <path id="Path_826" data-name="Path 826" d="M2089.646,272.788l-26.431-26.431a1.864,1.864,0,0,1,0-2.636l26.735-26.735h-13.422l-26.734,26.735a1.864,1.864,0,0,0,0,2.636l26.431,26.431Z" transform="translate(-1932.721 -216.986)" fill="#e63b69"/>
  <path id="Path_827" data-name="Path 827" d="M2162.66,247.975v-5.313l-18.816-18.817a1.864,1.864,0,0,0-2.636,0L2117,248.055a1.864,1.864,0,0,0,0,2.636l24.21,24.21a1.864,1.864,0,0,0,2.636,0l18.816-18.816v-5.313a.559.559,0,0,0-.559-.559h-13.572a6.055,6.055,0,1,1-.009-1.678H2162.1A.559.559,0,0,0,2162.66,247.975Z" transform="translate(-1978.862 -221.321)" fill="#e63b69"/>
  <g id="Group_478" data-name="Group 478" transform="translate(0 76.552)">
    <path id="Path_828" data-name="Path 828" d="M1679.05,467.305a11.33,11.33,0,0,1,4.421-4.474,12.836,12.836,0,0,1,6.429-1.6,12.3,12.3,0,0,1,7.54,2.325,11.167,11.167,0,0,1,4.192,6.341h-6.623a5.354,5.354,0,0,0-2.1-2.36,5.9,5.9,0,0,0-3.083-.81,5.755,5.755,0,0,0-4.509,1.938,8.632,8.632,0,0,0,0,10.357,5.754,5.754,0,0,0,4.509,1.938,5.893,5.893,0,0,0,3.083-.81,5.351,5.351,0,0,0,2.1-2.36h6.623a11.085,11.085,0,0,1-4.192,6.324,12.368,12.368,0,0,1-7.54,2.307,12.832,12.832,0,0,1-6.429-1.6,11.361,11.361,0,0,1-4.421-4.457,14.223,14.223,0,0,1,0-13.052Z" transform="translate(-1677.464 -461.228)" fill="#e63b69"/>
    <path id="Path_829" data-name="Path 829" d="M1763.7,482.17a8.54,8.54,0,0,1,3.117-3.523,8.142,8.142,0,0,1,4.4-1.233,7.564,7.564,0,0,1,3.646.846,6.226,6.226,0,0,1,2.413,2.219V477.7h6.025v19.658h-6.025v-2.783a6.509,6.509,0,0,1-2.448,2.219,7.565,7.565,0,0,1-3.646.846,7.994,7.994,0,0,1-4.369-1.251,8.635,8.635,0,0,1-3.117-3.558,12.969,12.969,0,0,1,0-10.657Zm12.33,1.8a4.234,4.234,0,0,0-6.095-.017,4.861,4.861,0,0,0-1.25,3.54,4.987,4.987,0,0,0,1.25,3.576,4.2,4.2,0,0,0,6.095.018,5.689,5.689,0,0,0,0-7.117Z" transform="translate(-1735.883 -472.341)" fill="#e63b69"/>
    <path id="Path_830" data-name="Path 830" d="M1873.6,479.858a8.453,8.453,0,0,1,2.167,6.165v11.484h-5.989V486.834a4.062,4.062,0,0,0-1-2.942,4.2,4.2,0,0,0-5.531,0,4.064,4.064,0,0,0-1,2.942v10.674h-5.989V486.834a4.063,4.063,0,0,0-1-2.942,4.2,4.2,0,0,0-5.531,0,4.062,4.062,0,0,0-1,2.942v10.674h-6.024V477.85h6.024v2.466a6.457,6.457,0,0,1,2.4-1.955,7.534,7.534,0,0,1,3.346-.722,8.135,8.135,0,0,1,3.963.951,6.816,6.816,0,0,1,2.73,2.712,7.928,7.928,0,0,1,2.783-2.642,7.522,7.522,0,0,1,3.84-1.021A7.775,7.775,0,0,1,1873.6,479.858Z" transform="translate(-1790.904 -472.495)" fill="#e63b69"/>
    <path id="Path_831" data-name="Path 831" d="M1970.177,478.26a7.461,7.461,0,0,1,3.629-.846,8.141,8.141,0,0,1,4.4,1.233,8.543,8.543,0,0,1,3.118,3.523,12.968,12.968,0,0,1,0,10.657,8.638,8.638,0,0,1-3.118,3.558,8.054,8.054,0,0,1-4.4,1.251,7.485,7.485,0,0,1-3.611-.846,6.609,6.609,0,0,1-2.448-2.184v12.119h-6.024V477.7h6.024v2.783A6.532,6.532,0,0,1,1970.177,478.26Zm4.915,5.69a4.132,4.132,0,0,0-3.083-1.286,4.066,4.066,0,0,0-3.048,1.3,5.689,5.689,0,0,0,0,7.117,4.216,4.216,0,0,0,6.113-.018,4.948,4.948,0,0,0,1.268-3.576A4.865,4.865,0,0,0,1975.092,483.949Z" transform="translate(-1872.629 -472.341)" fill="#e63b69"/>
    <path id="Path_832" data-name="Path 832" d="M2057.066,478.313v19.658h-6.024v-2.677a6.613,6.613,0,0,1-2.484,2.1,7.578,7.578,0,0,1-3.469.793,7.772,7.772,0,0,1-3.981-1,6.769,6.769,0,0,1-2.677-2.906,9.892,9.892,0,0,1-.951-4.474V478.313h5.989v10.675a4.314,4.314,0,0,0,1.022,3.065,3.582,3.582,0,0,0,2.748,1.092,3.628,3.628,0,0,0,2.783-1.092,4.315,4.315,0,0,0,1.021-3.065V478.313Z" transform="translate(-1924.641 -472.958)" fill="#e63b69"/>
    <path id="Path_833" data-name="Path 833" d="M2114.9,496.755a7.82,7.82,0,0,1-3.17-2.413,6.346,6.346,0,0,1-1.3-3.435h5.954a2.286,2.286,0,0,0,.951,1.656,3.365,3.365,0,0,0,2.079.634,2.962,2.962,0,0,0,1.743-.44,1.348,1.348,0,0,0,.617-1.145,1.322,1.322,0,0,0-.881-1.251,17.878,17.878,0,0,0-2.854-.9,26.613,26.613,0,0,1-3.523-1.039,6.079,6.079,0,0,1-2.431-1.726,4.7,4.7,0,0,1-1.022-3.188,5.414,5.414,0,0,1,.934-3.083,6.283,6.283,0,0,1,2.748-2.2,10.515,10.515,0,0,1,4.315-.81,8.653,8.653,0,0,1,5.831,1.832,7.13,7.13,0,0,1,2.449,4.862h-5.566a2.4,2.4,0,0,0-.9-1.621,3.117,3.117,0,0,0-1.99-.6,2.752,2.752,0,0,0-1.621.405,1.293,1.293,0,0,0-.564,1.109,1.354,1.354,0,0,0,.9,1.268,14.361,14.361,0,0,0,2.8.846,30.727,30.727,0,0,1,3.558,1.11,6.144,6.144,0,0,1,2.413,1.761,4.988,4.988,0,0,1,1.074,3.259,5.17,5.17,0,0,1-.969,3.083,6.406,6.406,0,0,1-2.783,2.131,10.65,10.65,0,0,1-4.209.775A11.3,11.3,0,0,1,2114.9,496.755Z" transform="translate(-1974.725 -472.341)" fill="#e63b69"/>
    <path id="Path_834" data-name="Path 834" d="M2198.668,467.305a11.33,11.33,0,0,1,4.421-4.474,12.836,12.836,0,0,1,6.429-1.6,12.3,12.3,0,0,1,7.539,2.325,11.168,11.168,0,0,1,4.192,6.341h-6.623a5.351,5.351,0,0,0-2.1-2.36,5.9,5.9,0,0,0-3.083-.81,5.755,5.755,0,0,0-4.509,1.938,8.633,8.633,0,0,0,0,10.357,5.754,5.754,0,0,0,4.509,1.938,5.892,5.892,0,0,0,3.083-.81,5.348,5.348,0,0,0,2.1-2.36h6.623a11.086,11.086,0,0,1-4.192,6.324,12.367,12.367,0,0,1-7.539,2.307,12.832,12.832,0,0,1-6.429-1.6,11.361,11.361,0,0,1-4.421-4.457,14.224,14.224,0,0,1,0-13.052Z" transform="translate(-2034.221 -461.228)" fill="#e63b69"/>
    <path id="Path_835" data-name="Path 835" d="M2283.316,482.17a8.538,8.538,0,0,1,3.117-3.523,8.141,8.141,0,0,1,4.4-1.233,7.564,7.564,0,0,1,3.646.846,6.227,6.227,0,0,1,2.413,2.219V477.7h6.025v19.658H2296.9v-2.783a6.507,6.507,0,0,1-2.448,2.219,7.564,7.564,0,0,1-3.646.846,7.992,7.992,0,0,1-4.369-1.251,8.632,8.632,0,0,1-3.117-3.558,12.97,12.97,0,0,1,0-10.657Zm12.33,1.8a4.234,4.234,0,0,0-6.095-.017,4.861,4.861,0,0,0-1.25,3.54,4.987,4.987,0,0,0,1.25,3.576,4.2,4.2,0,0,0,6.095.018,5.689,5.689,0,0,0,0-7.117Z" transform="translate(-2092.641 -472.341)" fill="#e63b69"/>
    <path id="Path_836" data-name="Path 836" d="M2379.8,479.876a8.725,8.725,0,0,1,2.062,6.148v11.484h-5.989V486.834a4.314,4.314,0,0,0-1.022-3.065,4,4,0,0,0-5.5,0,4.313,4.313,0,0,0-1.022,3.065v10.674h-6.024V477.85h6.024v2.607a6.366,6.366,0,0,1,2.466-2.061,7.842,7.842,0,0,1,3.488-.757A7.134,7.134,0,0,1,2379.8,479.876Z" transform="translate(-2147.663 -472.495)" fill="#e63b69"/>
    <path id="Path_837" data-name="Path 837" d="M2505.753,482.17a8.537,8.537,0,0,1,3.117-3.523,8.142,8.142,0,0,1,4.4-1.233,7.565,7.565,0,0,1,3.646.846,6.231,6.231,0,0,1,2.413,2.219V477.7h6.025v19.658h-6.025v-2.783a6.509,6.509,0,0,1-2.448,2.219,7.563,7.563,0,0,1-3.646.846,7.994,7.994,0,0,1-4.369-1.251,8.632,8.632,0,0,1-3.117-3.558,12.968,12.968,0,0,1,0-10.657Zm12.33,1.8a4.234,4.234,0,0,0-6.095-.017,4.862,4.862,0,0,0-1.251,3.54,4.987,4.987,0,0,0,1.251,3.576,4.2,4.2,0,0,0,6.095.018,5.689,5.689,0,0,0,0-7.117Z" transform="translate(-2245.36 -472.341)" fill="#e63b69"/>
    <path id="Path_838" data-name="Path 838" d="M2585.851,496.755a7.818,7.818,0,0,1-3.17-2.413,6.342,6.342,0,0,1-1.3-3.435h5.954a2.286,2.286,0,0,0,.951,1.656,3.364,3.364,0,0,0,2.078.634,2.964,2.964,0,0,0,1.744-.44,1.349,1.349,0,0,0,.617-1.145,1.322,1.322,0,0,0-.881-1.251,17.866,17.866,0,0,0-2.854-.9,26.6,26.6,0,0,1-3.523-1.039,6.075,6.075,0,0,1-2.431-1.726,4.7,4.7,0,0,1-1.022-3.188,5.412,5.412,0,0,1,.934-3.083,6.281,6.281,0,0,1,2.748-2.2,10.517,10.517,0,0,1,4.315-.81,8.654,8.654,0,0,1,5.83,1.832,7.129,7.129,0,0,1,2.448,4.862h-5.566a2.4,2.4,0,0,0-.9-1.621,3.116,3.116,0,0,0-1.99-.6,2.752,2.752,0,0,0-1.62.405,1.293,1.293,0,0,0-.563,1.109,1.354,1.354,0,0,0,.9,1.268,14.366,14.366,0,0,0,2.8.846,30.742,30.742,0,0,1,3.558,1.11,6.144,6.144,0,0,1,2.413,1.761,4.985,4.985,0,0,1,1.074,3.259,5.171,5.171,0,0,1-.969,3.083,6.405,6.405,0,0,1-2.783,2.131,10.652,10.652,0,0,1-4.21.775A11.3,11.3,0,0,1,2585.851,496.755Z" transform="translate(-2298.068 -472.341)" fill="#e63b69"/>
    <path id="Path_839" data-name="Path 839" d="M2444.028,487.58l-9.563-11.626v8.532l9.564,11.627a.612.612,0,0,0,.928,0l9.531-11.578v-8.581l-9.531,11.625A.611.611,0,0,1,2444.028,487.58Z" transform="translate(-2197.202 -471.339)" fill="#e63b69"/>
  </g>
</svg>
