<?xml version="1.0" encoding="UTF-8"?>
<svg data-name="Group 668" viewBox="0 0 315.13 36.079" xmlns="http://www.w3.org/2000/svg">
<path transform="translate(-945.35 -1497.5)" d="m947.01 1503.9a11.89 11.89 0 0 1 4.639-4.695 13.471 13.471 0 0 1 6.746-1.682 12.911 12.911 0 0 1 7.911 2.44 11.718 11.718 0 0 1 4.4 6.654h-6.949a5.618 5.618 0 0 0-2.2-2.477 6.187 6.187 0 0 0-3.235-0.85 6.038 6.038 0 0 0-4.732 2.033 9.058 9.058 0 0 0 0 10.868 6.036 6.036 0 0 0 4.732 2.033 6.182 6.182 0 0 0 3.235-0.85 5.61 5.61 0 0 0 2.2-2.477h6.943a11.63 11.63 0 0 1-4.4 6.635 12.974 12.974 0 0 1-7.911 2.421 13.467 13.467 0 0 1-6.746-1.682 11.92 11.92 0 0 1-4.639-4.676 14.923 14.923 0 0 1 0-13.7z" fill="#5b0791" data-name="Path 1589"/>
<path transform="translate(-1023.4 -1512.4)" d="M1052.609,1522.707a8.955,8.955,0,0,1,3.271-3.7,8.543,8.543,0,0,1,4.621-1.294,7.935,7.935,0,0,1,3.826.887,6.533,6.533,0,0,1,2.532,2.329v-2.921h6.322v20.627h-6.322v-2.92a6.83,6.83,0,0,1-2.568,2.329,7.943,7.943,0,0,1-3.826.887,8.386,8.386,0,0,1-4.584-1.312,9.058,9.058,0,0,1-3.271-3.734,13.6,13.6,0,0,1,0-11.182Zm12.938,1.885a4.443,4.443,0,0,0-6.4-.018,5.1,5.1,0,0,0-1.313,3.715,5.234,5.234,0,0,0,1.313,3.752,4.4,4.4,0,0,0,6.4.018,5.97,5.97,0,0,0,0-7.467Z" fill="#5b0791" data-name="Path 1590"/>
<path transform="translate(-1097 -1512.6)" d="m1183.7 1520.3a8.868 8.868 0 0 1 2.274 6.469v12.051h-6.284v-11.2a4.262 4.262 0 0 0-1.054-3.087 4.407 4.407 0 0 0-5.8 0 4.263 4.263 0 0 0-1.053 3.087v11.2h-6.285v-11.2a4.261 4.261 0 0 0-1.054-3.087 4.407 4.407 0 0 0-5.8 0 4.264 4.264 0 0 0-1.053 3.087v11.2h-6.328v-20.627h6.321v2.588a6.775 6.775 0 0 1 2.514-2.052 7.909 7.909 0 0 1 3.511-0.758 8.544 8.544 0 0 1 4.159 1 7.152 7.152 0 0 1 2.865 2.846 8.323 8.323 0 0 1 2.92-2.772 7.9 7.9 0 0 1 4.03-1.072 8.158 8.158 0 0 1 6.117 2.327z" fill="#5b0791" data-name="Path 1591"/>
<path transform="translate(-1206.2 -1512.4)" d="m1308.5 1518.6a7.825 7.825 0 0 1 3.807-0.887 8.541 8.541 0 0 1 4.621 1.294 8.959 8.959 0 0 1 3.272 3.7 13.609 13.609 0 0 1 0 11.182 9.062 9.062 0 0 1-3.272 3.734 8.449 8.449 0 0 1-4.621 1.312 7.86 7.86 0 0 1-3.789-0.887 6.944 6.944 0 0 1-2.569-2.292v12.716h-6.321v-30.46h6.321v2.921a6.86 6.86 0 0 1 2.551-2.333zm5.157 5.97a4.336 4.336 0 0 0-3.234-1.349 4.266 4.266 0 0 0-3.2 1.368 5.969 5.969 0 0 0 0 7.467 4.423 4.423 0 0 0 6.414-0.018 5.192 5.192 0 0 0 1.331-3.752 5.106 5.106 0 0 0-1.312-3.712z" fill="#5b0791" data-name="Path 1592"/>
<path transform="translate(-1275.7 -1513.2)" d="m1414.7 1518.8v20.626h-6.321v-2.809a6.947 6.947 0 0 1-2.606 2.2 7.958 7.958 0 0 1-3.641 0.832 8.152 8.152 0 0 1-4.177-1.054 7.1 7.1 0 0 1-2.81-3.049 10.385 10.385 0 0 1-1-4.695v-12.05h6.284v11.2a4.525 4.525 0 0 0 1.072 3.216 3.759 3.759 0 0 0 2.884 1.146 3.807 3.807 0 0 0 2.921-1.146 4.53 4.53 0 0 0 1.072-3.216v-11.2z" fill="#5b0791" data-name="Path 1593"/>
<path transform="translate(-1342.6 -1512.4)" d="M1489.726,1538.012a8.21,8.21,0,0,1-3.327-2.533,6.656,6.656,0,0,1-1.368-3.6h6.247a2.4,2.4,0,0,0,1,1.738,3.534,3.534,0,0,0,2.181.665,3.111,3.111,0,0,0,1.83-.462,1.416,1.416,0,0,0,.647-1.2,1.386,1.386,0,0,0-.924-1.312,18.776,18.776,0,0,0-2.994-.943,27.99,27.99,0,0,1-3.7-1.09,6.38,6.38,0,0,1-2.551-1.811,4.935,4.935,0,0,1-1.072-3.346,5.678,5.678,0,0,1,.98-3.234,6.59,6.59,0,0,1,2.883-2.31,11.034,11.034,0,0,1,4.528-.85,9.08,9.08,0,0,1,6.118,1.922,7.482,7.482,0,0,1,2.569,5.1h-5.84a2.521,2.521,0,0,0-.943-1.7,3.271,3.271,0,0,0-2.089-.628,2.888,2.888,0,0,0-1.7.425,1.357,1.357,0,0,0-.592,1.164,1.421,1.421,0,0,0,.943,1.331,15.093,15.093,0,0,0,2.939.887,32.232,32.232,0,0,1,3.734,1.165,6.439,6.439,0,0,1,2.532,1.848,5.233,5.233,0,0,1,1.128,3.419,5.426,5.426,0,0,1-1.017,3.235,6.721,6.721,0,0,1-2.92,2.236,11.178,11.178,0,0,1-4.417.813A11.86,11.86,0,0,1,1489.726,1538.012Z" fill="#5b0791" data-name="Path 1594"/>
<path transform="translate(-1422.2 -1497.5)" d="m1594.7 1503.9a11.892 11.892 0 0 1 4.639-4.695 13.471 13.471 0 0 1 6.746-1.682 12.912 12.912 0 0 1 7.911 2.44 11.719 11.719 0 0 1 4.4 6.654h-6.949a5.624 5.624 0 0 0-2.2-2.477 6.186 6.186 0 0 0-3.234-0.85 6.038 6.038 0 0 0-4.732 2.033 9.058 9.058 0 0 0 0 10.868 6.035 6.035 0 0 0 4.732 2.033 6.182 6.182 0 0 0 3.234-0.85 5.616 5.616 0 0 0 2.2-2.477h6.949a11.63 11.63 0 0 1-4.4 6.635 12.975 12.975 0 0 1-7.911 2.421 13.467 13.467 0 0 1-6.746-1.682 11.922 11.922 0 0 1-4.639-4.676 14.925 14.925 0 0 1 0-13.7z" fill="#5b0791" data-name="Path 1595"/>
<path transform="translate(-1500.2 -1512.4)" d="M1700.312,1522.707a8.959,8.959,0,0,1,3.271-3.7,8.543,8.543,0,0,1,4.621-1.294,7.934,7.934,0,0,1,3.826.887,6.539,6.539,0,0,1,2.532,2.329v-2.921h6.322v20.627h-6.322v-2.92a6.833,6.833,0,0,1-2.569,2.329,7.943,7.943,0,0,1-3.826.887,8.386,8.386,0,0,1-4.584-1.312,9.061,9.061,0,0,1-3.271-3.734,13.605,13.605,0,0,1,0-11.182Zm12.938,1.885a4.442,4.442,0,0,0-6.4-.018,5.1,5.1,0,0,0-1.313,3.715,5.233,5.233,0,0,0,1.313,3.752,4.4,4.4,0,0,0,6.4.018,5.969,5.969,0,0,0,0-7.467Z" fill="#5b0791" data-name="Path 1596"/>
<path transform="translate(-1573.8 -1512.6)" d="m1817.4 1520.3a9.156 9.156 0 0 1 2.163 6.451v12.051h-6.284v-11.2a4.529 4.529 0 0 0-1.072-3.216 4.2 4.2 0 0 0-5.767 0 4.53 4.53 0 0 0-1.073 3.216v11.2h-6.32v-20.627h6.32v2.736a6.683 6.683 0 0 1 2.588-2.163 8.228 8.228 0 0 1 3.66-0.795 7.486 7.486 0 0 1 5.785 2.347z" fill="#5b0791" data-name="Path 1597"/>
<path transform="translate(-1704.3 -1512.4)" d="M1977.58,1522.707a8.962,8.962,0,0,1,3.272-3.7,8.542,8.542,0,0,1,4.621-1.294,7.935,7.935,0,0,1,3.826.887,6.533,6.533,0,0,1,2.532,2.329v-2.921h6.322v20.627h-6.322v-2.92a6.836,6.836,0,0,1-2.569,2.329,7.943,7.943,0,0,1-3.826.887,8.385,8.385,0,0,1-4.584-1.312,9.065,9.065,0,0,1-3.272-3.734,13.61,13.61,0,0,1,0-11.182Zm12.938,1.885a4.442,4.442,0,0,0-6.4-.018,5.1,5.1,0,0,0-1.312,3.715,5.234,5.234,0,0,0,1.312,3.752,4.4,4.4,0,0,0,6.4.018,5.969,5.969,0,0,0,0-7.467Z" fill="#5b0791" data-name="Path 1598"/>
<path transform="translate(-1774.8 -1512.4)" d="M2076.765,1538.012a8.211,8.211,0,0,1-3.326-2.533,6.656,6.656,0,0,1-1.368-3.6h6.247a2.4,2.4,0,0,0,1,1.738,3.532,3.532,0,0,0,2.18.665,3.111,3.111,0,0,0,1.83-.462,1.417,1.417,0,0,0,.647-1.2,1.386,1.386,0,0,0-.924-1.312,18.746,18.746,0,0,0-2.994-.943,27.963,27.963,0,0,1-3.7-1.09,6.378,6.378,0,0,1-2.551-1.811,4.935,4.935,0,0,1-1.072-3.346,5.68,5.68,0,0,1,.98-3.234,6.59,6.59,0,0,1,2.883-2.31,11.036,11.036,0,0,1,4.528-.85,9.083,9.083,0,0,1,6.119,1.922,7.481,7.481,0,0,1,2.568,5.1h-5.84a2.52,2.52,0,0,0-.943-1.7,3.269,3.269,0,0,0-2.088-.628,2.887,2.887,0,0,0-1.7.425,1.357,1.357,0,0,0-.592,1.164,1.42,1.42,0,0,0,.943,1.331,15.073,15.073,0,0,0,2.938.887,32.218,32.218,0,0,1,3.734,1.165,6.437,6.437,0,0,1,2.532,1.848,5.233,5.233,0,0,1,1.128,3.419,5.422,5.422,0,0,1-1.017,3.235,6.722,6.722,0,0,1-2.92,2.236,11.175,11.175,0,0,1-4.417.813A11.858,11.858,0,0,1,2076.765,1538.012Z" fill="#5b0791" data-name="Path 1599"/>
<path transform="translate(-1640 -1511.1)" d="m1899 1528.1-10.035-12.2v8.953l10.036 12.2a0.642 0.642 0 0 0 0.974 0l10-12.149v-9l-10 12.2a0.642 0.642 0 0 1-0.975-4e-3z" fill="#ad2146" data-name="Path 1600"/>
</svg>
