<?xml version="1.0" encoding="UTF-8"?>
<svg viewBox="0 0 214.64 178.04" xmlns="http://www.w3.org/2000/svg">
<g transform="translate(-1694.4 -1246.4)" data-name="Group 132">
<path d="m1823.3 1424.5-84.329-84.328a5.949 5.949 0 0 1 0-8.411l85.3-85.3h-42.824l-85.3 85.3a5.947 5.947 0 0 0 0 8.411l84.328 84.328z" fill="#ad2146" data-name="Path 288"/>
<path d="m1909 1331.5v-16.951l-60.036-60.035a5.947 5.947 0 0 0-8.411 0l-77.242 77.242a5.947 5.947 0 0 0 0 8.411l77.242 77.242a5.947 5.947 0 0 0 8.411 0l60.036-60.036v-16.951a1.785 1.785 0 0 0-1.785-1.784h-43.3a19.32 19.32 0 1 1-0.028-5.353h43.33a1.785 1.785 0 0 0 1.783-1.785z" fill="#5b0791" data-name="Path 289"/>
</g>
</svg>
