<?xml version="1.0" encoding="UTF-8"?>
<svg viewBox="0 0 385.12 216.99" xmlns="http://www.w3.org/2000/svg">
<defs>
<style>.cls-1{fill:#d3a36b;}.cls-2{fill:#bb8948;}.cls-3{fill:#96623c;}.cls-4{fill:#5b0791;}.cls-5{fill:#ad2146;}.cls-6{fill:#fff;}</style>
</defs>
<title>Asset 7</title>
<g data-name="Layer 2">
<polygon class="cls-1" points="348.07 168.22 117.49 216.99 117.49 101.74 348.07 52.97"/>
<polygon class="cls-2" points="117.49 216.99 40.63 174 40.63 58.75 117.49 101.74"/>
<polygon class="cls-3" points="117.49 101.74 76.86 53.01 0 10.01 40.63 58.75"/>
<polygon class="cls-2" points="154.54 48.77 385.12 0 348.07 52.97 117.49 101.74"/>
<polygon class="cls-4" points="64.82 135.99 55.67 140.48 55.67 155.53 71.84 147.54"/>
<polygon class="cls-4" points="79.48 152.01 95.64 178.61 95.64 163.64 86.49 148.58"/>
<path class="cls-5" d="m74.76 133.59-19.09-31.41v15l19.09 31.41c0.47 0.77 1.39 1.3 1.85 1.07l19-9.32v-15l-19 9.4c-0.46 0.15-1.38-0.38-1.85-1.15z"/>
<polygon class="cls-4" points="328.38 110.56 324.59 115.4 324.59 121.64 331.29 113.05"/>
<polygon class="cls-4" points="334.46 112.41 341.16 118.16 341.16 111.96 337.36 108.7"/>
<path class="cls-5" d="M332.5,106.32l-7.91-6.79v6.2l7.91,6.79a.57.57,0,0,0,.77-.16l7.89-10.07V96.05l-7.89,10.11A.6.6,0,0,1,332.5,106.32Z"/>
<path class="cls-4" d="m125.93 145.13a14.84 14.84 0 0 1 4.26-5.21 15 15 0 0 1 6.2-2.85 10.52 10.52 0 0 1 7.28 0.71 8.15 8.15 0 0 1 4 5.27l-6.39 1.34a3.83 3.83 0 0 0-2-1.85 5.16 5.16 0 0 0-3-0.16 7.13 7.13 0 0 0-4.35 2.79 8.65 8.65 0 0 0-1.67 5.34 6 6 0 0 0 1.67 4.65 4.66 4.66 0 0 0 4.35 1 6.91 6.91 0 0 0 3-1.4 7 7 0 0 0 2-2.7l6.39-1.35a14 14 0 0 1-4 7 14.82 14.82 0 0 1-7.28 3.76 11.36 11.36 0 0 1-6.2-0.25 8.07 8.07 0 0 1-4.26-3.4 11 11 0 0 1-1.53-6 14.74 14.74 0 0 1 1.53-6.69z"/>
<path class="cls-4" d="m151.23 143.43a11.22 11.22 0 0 1 3-4 9.68 9.68 0 0 1 4.25-2.08 6.68 6.68 0 0 1 3.52 0.08 4.46 4.46 0 0 1 2.33 1.65v-2.69l5.81-1.22v19l-5.81 1.23v-2.69a8.73 8.73 0 0 1-5.88 4.19 6.88 6.88 0 0 1-4.22-0.32 6.1 6.1 0 0 1-3-2.8 10 10 0 0 1-1.11-4.91 12.84 12.84 0 0 1 1.11-5.44zm11.89-0.76a3.27 3.27 0 0 0-2.94-0.64 5.08 5.08 0 0 0-2.94 1.85 5.68 5.68 0 0 0-1.2 3.67 4 4 0 0 0 1.2 3.2 3.29 3.29 0 0 0 2.94 0.66 5 5 0 0 0 2.94-1.88 5.71 5.71 0 0 0 1.21-3.69 3.88 3.88 0 0 0-1.21-3.17z"/>
<path class="cls-4" d="m204.17 129.93c1.4 1.13 2.09 3 2.09 5.5v11.08l-5.77 1.22v-10.3a3.24 3.24 0 0 0-1-2.63 3 3 0 0 0-2.67-0.45 4.49 4.49 0 0 0-2.67 1.57 4.71 4.71 0 0 0-1 3v10.29l-5.77 1.22v-10.3a3.24 3.24 0 0 0-1-2.63 3 3 0 0 0-2.67-0.44 4.47 4.47 0 0 0-2.67 1.56 4.73 4.73 0 0 0-1 3v10.38l-5.81 1.22v-19l5.81-1.22v2.37a8.66 8.66 0 0 1 2.31-2.37 8.8 8.8 0 0 1 3.23-1.37 7.22 7.22 0 0 1 3.83 0.11 4.89 4.89 0 0 1 2.63 2.06 10.52 10.52 0 0 1 2.68-3.11 8.94 8.94 0 0 1 3.71-1.76c2.47-0.46 4.35-0.14 5.74 1z"/>
<path class="cls-4" d="M218.5,125.52A8.65,8.65,0,0,1,222,124a7,7,0,0,1,4.24.3,6.08,6.08,0,0,1,3,2.76,9.89,9.89,0,0,1,1.11,4.9,12.92,12.92,0,0,1-1.11,5.38,11.3,11.3,0,0,1-3,4.07,9.57,9.57,0,0,1-4.24,2.1,6.67,6.67,0,0,1-3.49-.09,4.74,4.74,0,0,1-2.36-1.61v11.69l-5.81,1.22v-28l5.81-1.22v2.69A8.63,8.63,0,0,1,218.5,125.52Zm4.74,4.49a3.4,3.4,0,0,0-3-.61,5.06,5.06,0,0,0-2.94,1.87,5.76,5.76,0,0,0-1.2,3.69,3.92,3.92,0,0,0,1.2,3.18,3.32,3.32,0,0,0,2.94.64,5.11,5.11,0,0,0,3-1.9,5.76,5.76,0,0,0,1.22-3.7A3.88,3.88,0,0,0,223.24,130Z"/>
<path class="cls-4" d="M252.14,117.91v19l-5.81,1.22v-2.58a9.07,9.07,0,0,1-5.75,4,6.83,6.83,0,0,1-3.84-.16,4.82,4.82,0,0,1-2.58-2.26,8.4,8.4,0,0,1-.92-4.12V121.88l5.78-1.22V131a3.43,3.43,0,0,0,1,2.75,3,3,0,0,0,2.65.5,4.46,4.46,0,0,0,2.68-1.62,5,5,0,0,0,1-3.16v-10.3Z"/>
<path class="cls-4" d="M259.61,134.72a5.66,5.66,0,0,1-3.05-1.68,5,5,0,0,1-1.26-3l5.74-1.21a1.71,1.71,0,0,0,.92,1.4,2.81,2.81,0,0,0,2,.19,3.54,3.54,0,0,0,1.69-.77,1.67,1.67,0,0,0,.59-1.23,1,1,0,0,0-.85-1,15.14,15.14,0,0,0-2.75-.29,23,23,0,0,1-3.4-.29,4.42,4.42,0,0,1-2.34-1.17,3.77,3.77,0,0,1-1-2.87,6.14,6.14,0,0,1,.9-3.16,8.15,8.15,0,0,1,2.65-2.68,12.05,12.05,0,0,1,4.16-1.66q3.57-.75,5.63.59a5.35,5.35,0,0,1,2.36,4.19l-5.37,1.13a1.77,1.77,0,0,0-.87-1.38,2.66,2.66,0,0,0-1.92-.18,3.33,3.33,0,0,0-1.56.72,1.58,1.58,0,0,0-.54,1.19,1,1,0,0,0,.86,1,12.69,12.69,0,0,0,2.71.25,26.15,26.15,0,0,1,3.43.34,4.57,4.57,0,0,1,2.33,1.21,4,4,0,0,1,1,2.93,5.93,5.93,0,0,1-.93,3.17,8.44,8.44,0,0,1-2.69,2.62,12.06,12.06,0,0,1-4.06,1.6A10.21,10.21,0,0,1,259.61,134.72Z"/>
<path class="cls-4" d="M300.26,116.58a4.81,4.81,0,0,1,1.25,3.42,7.23,7.23,0,0,1-2.09,5.18,10.93,10.93,0,0,1-5.82,3l-11.12,2.33V106.63l10.74-2.25c2.43-.51,4.32-.35,5.69.47a4.36,4.36,0,0,1,2.06,4.08,6.55,6.55,0,0,1-1.1,3.74,7.75,7.75,0,0,1-2.94,2.55A4.38,4.38,0,0,1,300.26,116.58Zm-12-1.52,3.8-.8a4.19,4.19,0,0,0,2.19-1.08,2.79,2.79,0,0,0,.77-2,1.88,1.88,0,0,0-.77-1.71,3,3,0,0,0-2.19-.18l-3.8.8Zm6.54,7.48a2.9,2.9,0,0,0,.8-2.09,2,2,0,0,0-.84-1.79,3,3,0,0,0-2.29-.23l-4.21.88v5.27l4.28-.9A4.23,4.23,0,0,0,294.84,122.54Z"/>
<path class="cls-4" d="m308.5 124.11a6.45 6.45 0 0 1-3.5-2.67 8.72 8.72 0 0 1-1.28-4.89 11.62 11.62 0 0 1 1.29-5.42 12 12 0 0 1 3.54-4.16 12.67 12.67 0 0 1 5-2.25 9.74 9.74 0 0 1 5 0.13 6.48 6.48 0 0 1 3.53 2.68 8.64 8.64 0 0 1 1.29 4.87 11.57 11.57 0 0 1-1.3 5.43 12.24 12.24 0 0 1-3.57 4.16 12.88 12.88 0 0 1-5.05 2.25 9.66 9.66 0 0 1-4.95-0.13zm7.85-6.72a5.83 5.83 0 0 0 1.17-3.74 4.13 4.13 0 0 0-1.14-3.27 3.11 3.11 0 0 0-2.8-0.63 4.75 4.75 0 0 0-2.82 1.8 5.91 5.91 0 0 0-1.12 3.75 4.19 4.19 0 0 0 1.1 3.27 3 3 0 0 0 2.77 0.64 4.83 4.83 0 0 0 2.84-1.82z"/>
<polygon class="cls-6" points="76.86 53.01 117.49 101.74 76.23 54.24"/>
<polygon class="cls-6" points="0 10.01 76.86 53.01 76.23 54.24"/>
<polygon class="cls-6" points="117.49 101.74 154.54 48.77 156.63 50.87"/>
<polygon class="cls-6" points="154.54 48.77 385.12 0 383.8 1.89 156.63 50.87"/>
</g>
</svg>
