<svg xmlns="http://www.w3.org/2000/svg" viewBox="0 0 10.87 13.78"><defs><style>.cls-1{fill:#f5f5f5;}</style></defs><title>Asset 10</title><g id="Layer_2" data-name="Layer 2"><g id="Box"><path class="cls-1" d="M10.85,6.77c-.79-.88-2.2-1.13-3.08-2C6.57,3.56,6.29,1.85,5.83.28a.37.37,0,0,0-.15-.2A.36.36,0,0,0,5.45,0h0a.4.4,0,0,0-.23.08A.38.38,0,0,0,5,.28C4.57,1.9,4.26,3.47,3.1,4.77c-.85.94-2.28,1.1-3.08,2a.09.09,0,0,0,0,.12A.09.09,0,0,0,0,7c.79.88,2.2,1.13,3.08,2C4.31,10.22,4.59,11.93,5,13.5a.35.35,0,0,0,.15.2.4.4,0,0,0,.23.08h0a.36.36,0,0,0,.23-.08.31.31,0,0,0,.15-.2c.47-1.62.78-3.19,1.94-4.48.85-.95,2.28-1.11,3.08-2a.11.11,0,0,0,0-.12A.11.11,0,0,0,10.85,6.77Zm-4,1.32a6.36,6.36,0,0,0-1.43,2.17A7.47,7.47,0,0,0,4,8.09,6,6,0,0,0,2.41,6.88,7.08,7.08,0,0,0,4,5.69,6.36,6.36,0,0,0,5.45,3.52a7.47,7.47,0,0,0,1.4,2.17A6,6,0,0,0,8.46,6.9,7.39,7.39,0,0,0,6.85,8.09Z"/></g></g></svg>