<svg xmlns="http://www.w3.org/2000/svg" width="396.957" height="60.257" viewBox="0 0 396.957 60.257">
  <g id="Group_579" data-name="Group 579" transform="translate(-831.089 -139.502)">
    <g id="Group_381" data-name="Group 381" transform="translate(831.089 139.502)">
      <path id="Path_24" data-name="Path 24" d="M2386.672,2136.966a19.862,19.862,0,0,1,7.748-7.84,22.489,22.489,0,0,1,11.266-2.808,21.564,21.564,0,0,1,13.213,4.074,19.566,19.566,0,0,1,7.346,11.113h-11.607a9.377,9.377,0,0,0-3.673-4.136,10.333,10.333,0,0,0-5.4-1.42,10.084,10.084,0,0,0-7.9,3.4q-3.026,3.395-3.025,9.075t3.025,9.075a10.09,10.09,0,0,0,7.9,3.4,10.316,10.316,0,0,0,5.4-1.42,9.369,9.369,0,0,0,3.673-4.135h11.607a19.432,19.432,0,0,1-7.346,11.081,21.674,21.674,0,0,1-13.213,4.044,22.483,22.483,0,0,1-11.266-2.809,19.908,19.908,0,0,1-7.748-7.81,24.926,24.926,0,0,1,0-22.874Z" transform="translate(-2383.893 -2126.314)" fill="#5b0791"/>
      <path id="Path_25" data-name="Path 25" d="M2505.85,2157.468a14.96,14.96,0,0,1,5.463-6.174,14.268,14.268,0,0,1,7.717-2.161,13.259,13.259,0,0,1,6.389,1.482,10.915,10.915,0,0,1,4.229,3.89v-4.877h10.557v34.448h-10.557V2179.2a11.41,11.41,0,0,1-4.29,3.89,13.269,13.269,0,0,1-6.39,1.482,14.011,14.011,0,0,1-7.656-2.192,15.134,15.134,0,0,1-5.463-6.235,22.73,22.73,0,0,1,0-18.675Zm21.607,3.149a7.42,7.42,0,0,0-10.491-.219c-.064.062-.128.125-.19.189a8.519,8.519,0,0,0-2.192,6.2,8.751,8.751,0,0,0,2.192,6.266,7.35,7.35,0,0,0,10.39.319c.1-.094.2-.19.291-.289a9.97,9.97,0,0,0,0-12.471Z" transform="translate(-2457.108 -2140.241)" fill="#5b0791"/>
      <path id="Path_26" data-name="Path 26" d="M2670.986,2153.342q3.8,3.891,3.8,10.8v20.125h-10.5v-18.706a7.118,7.118,0,0,0-1.76-5.156,7.36,7.36,0,0,0-9.693,0,7.117,7.117,0,0,0-1.757,5.156v18.706h-10.5v-18.706a7.122,7.122,0,0,0-1.759-5.156,7.36,7.36,0,0,0-9.693,0,7.126,7.126,0,0,0-1.76,5.156v18.706h-10.558v-34.449h10.558v4.322a11.318,11.318,0,0,1,4.2-3.426,13.207,13.207,0,0,1,5.865-1.265,14.26,14.26,0,0,1,6.944,1.667,11.943,11.943,0,0,1,4.784,4.753,13.908,13.908,0,0,1,4.877-4.63,13.181,13.181,0,0,1,6.729-1.79Q2667.189,2149.453,2670.986,2153.342Z" transform="translate(-2526.062 -2140.436)" fill="#5b0791"/>
      <path id="Path_27" data-name="Path 27" d="M2799.429,2150.615a13.088,13.088,0,0,1,6.359-1.482,14.27,14.27,0,0,1,7.716,2.161,14.981,14.981,0,0,1,5.464,6.174,22.732,22.732,0,0,1,0,18.675,15.143,15.143,0,0,1-5.464,6.236,14.107,14.107,0,0,1-7.716,2.191,13.12,13.12,0,0,1-6.329-1.481,11.587,11.587,0,0,1-4.291-3.828V2200.5h-10.556v-50.868h10.557v4.877A11.447,11.447,0,0,1,2799.429,2150.615Zm8.613,9.97a7.242,7.242,0,0,0-5.4-2.254,7.124,7.124,0,0,0-5.34,2.284,9.963,9.963,0,0,0,0,12.469,7.386,7.386,0,0,0,10.443.239c.092-.088.182-.178.269-.27a8.669,8.669,0,0,0,2.222-6.266,8.511,8.511,0,0,0-2.191-6.2Z" transform="translate(-2628.484 -2140.24)" fill="#5b0791"/>
      <path id="Path_28" data-name="Path 28" d="M2925.724,2150.406v34.449h-10.555v-4.692a11.59,11.59,0,0,1-4.353,3.673,13.281,13.281,0,0,1-6.08,1.389,13.616,13.616,0,0,1-6.976-1.76,11.859,11.859,0,0,1-4.693-5.093,17.331,17.331,0,0,1-1.667-7.841v-20.125h10.495v18.706a7.56,7.56,0,0,0,1.79,5.372,6.278,6.278,0,0,0,4.815,1.914,6.356,6.356,0,0,0,4.877-1.914,7.559,7.559,0,0,0,1.791-5.372v-18.706Z" transform="translate(-2693.662 -2141.019)" fill="#5b0791"/>
      <path id="Path_29" data-name="Path 29" d="M3002.084,2183.021a13.7,13.7,0,0,1-5.557-4.229,11.115,11.115,0,0,1-2.283-6.019h10.433a4.012,4.012,0,0,0,1.667,2.9,5.9,5.9,0,0,0,3.643,1.111,5.186,5.186,0,0,0,3.053-.772,2.363,2.363,0,0,0,1.081-2.008,2.315,2.315,0,0,0-1.543-2.192,31.284,31.284,0,0,0-5-1.574,46.781,46.781,0,0,1-6.174-1.821,10.657,10.657,0,0,1-4.26-3.024,8.23,8.23,0,0,1-1.79-5.587,9.485,9.485,0,0,1,1.635-5.4,11.012,11.012,0,0,1,4.816-3.859,18.429,18.429,0,0,1,7.562-1.42q6.484,0,10.218,3.21a12.5,12.5,0,0,1,4.291,8.519h-9.755a4.212,4.212,0,0,0-1.574-2.84,5.465,5.465,0,0,0-3.489-1.049,4.811,4.811,0,0,0-2.84.711,2.265,2.265,0,0,0-.988,1.944,2.374,2.374,0,0,0,1.574,2.223,25.222,25.222,0,0,0,4.908,1.482,53.808,53.808,0,0,1,6.236,1.945,10.761,10.761,0,0,1,4.229,3.087,8.734,8.734,0,0,1,1.883,5.71,9.064,9.064,0,0,1-1.7,5.4,11.225,11.225,0,0,1-4.877,3.735,18.665,18.665,0,0,1-7.376,1.358A19.785,19.785,0,0,1,3002.084,2183.021Z" transform="translate(-2756.438 -2140.235)" fill="#5b0791"/>
    </g>
    <g id="Group_382" data-name="Group 382" transform="translate(1120.276 143.742)">
      <path id="Path_35" data-name="Path 35" d="M3231.879,2154.564l14.306,21.553V2160.3l-14.308-21.557a.8.8,0,0,0-1.29-.121,1.109,1.109,0,0,0-.1.121l-14.258,21.465v15.91l14.259-21.553a.8.8,0,0,1,1.289-.123A1.022,1.022,0,0,1,3231.879,2154.564Z" transform="translate(-3181.121 -2137.898)" fill="#ad2146"/>
      <path id="Path_674" data-name="Path 674" d="M3155.445,2160.919a10.319,10.319,0,0,1-1.374,13.907q-3.449,2.888-9.617,2.888h-18.338v-39.367h17.721q6,0,9.393,2.748a9.963,9.963,0,0,1,1.57,13.235,9.416,9.416,0,0,1-4.85,3.2A9.16,9.16,0,0,1,3155.445,2160.919Zm-19.74-6.646h6.281a5.562,5.562,0,0,0,3.617-1.037,3.727,3.727,0,0,0,1.262-3.056,3.81,3.81,0,0,0-1.262-3.085,5.46,5.46,0,0,0-3.617-1.066h-6.281Zm10.8,14.609a3.885,3.885,0,0,0,1.318-3.168,4.059,4.059,0,0,0-1.374-3.253,5.635,5.635,0,0,0-3.786-1.177h-6.954v8.692h7.066A5.69,5.69,0,0,0,3146.5,2168.882Z" transform="translate(-3126.116 -2137.899)" fill="#5b0791"/>
      <path id="Path_675" data-name="Path 675" d="M3330.3,2150.094a7.181,7.181,0,0,0-3.056-3,10.007,10.007,0,0,0-4.683-1.037,9.635,9.635,0,0,0-7.458,3.056,11.6,11.6,0,0,0-2.8,8.159q0,5.44,2.944,8.5a10.719,10.719,0,0,0,8.1,3.057,9.8,9.8,0,0,0,5.972-1.795,10.178,10.178,0,0,0,3.561-5.159h-12.169V2154.8h20.861v8.917a18.822,18.822,0,0,1-3.617,6.673,19.1,19.1,0,0,1-6.478,4.991,20.022,20.022,0,0,1-8.86,1.906,20.973,20.973,0,0,1-10.4-2.551,18.167,18.167,0,0,1-7.121-7.094,22.418,22.418,0,0,1,0-20.777,18.174,18.174,0,0,1,7.094-7.122,20.816,20.816,0,0,1,10.374-2.551,20.164,20.164,0,0,1,11.917,3.42,16.147,16.147,0,0,1,6.42,9.477Z" transform="translate(-3233.803 -2137.196)" fill="#5b0791"/>
    </g>
  </g>
</svg>
