<svg xmlns="http://www.w3.org/2000/svg" width="305.678" height="125.564" viewBox="0 0 305.678 125.564">
  <g id="Group_103" data-name="Group 103" transform="translate(-2530 555)">
    <path id="Path_50" data-name="Path 50" d="M494.413,156.79l-26.9-26.9a1.9,1.9,0,0,1,0-2.683l27.211-27.211H481.061L453.85,127.205a1.9,1.9,0,0,0,0,2.683l26.9,26.9Z" transform="translate(2195.31 -654.994)" fill="#e63b69"/>
    <path id="Path_51" data-name="Path 51" d="M567.531,131.423v-5.408l-19.152-19.152a1.9,1.9,0,0,0-2.683,0L521.054,131.5a1.9,1.9,0,0,0,0,2.683L545.7,158.829a1.9,1.9,0,0,0,2.683,0l19.152-19.152v-5.408a.569.569,0,0,0-.569-.569H553.147a6.163,6.163,0,1,1-.009-1.708h13.823A.569.569,0,0,0,567.531,131.423Z" transform="translate(2149.544 -659.294)" fill="#e63b69"/>
    <path id="Path_52" data-name="Path 52" d="M83.125,350.422a11.534,11.534,0,0,1,4.5-4.554,13.061,13.061,0,0,1,6.544-1.632,12.523,12.523,0,0,1,7.674,2.367,11.366,11.366,0,0,1,4.267,6.454H99.368a5.448,5.448,0,0,0-2.134-2.4,6,6,0,0,0-3.137-.825,5.857,5.857,0,0,0-4.59,1.972,8.785,8.785,0,0,0,0,10.542,5.855,5.855,0,0,0,4.59,1.972,6,6,0,0,0,3.137-.825,5.444,5.444,0,0,0,2.134-2.4h6.741a11.283,11.283,0,0,1-4.267,6.436,12.588,12.588,0,0,1-7.674,2.349,13.061,13.061,0,0,1-6.544-1.631,11.566,11.566,0,0,1-4.5-4.536,14.479,14.479,0,0,1,0-13.285Z" transform="translate(2448.489 -821.32)" fill="#e63b69"/>
    <path id="Path_53" data-name="Path 53" d="M167.764,365.263a8.694,8.694,0,0,1,3.173-3.586,8.286,8.286,0,0,1,4.482-1.255,7.7,7.7,0,0,1,3.711.861,6.337,6.337,0,0,1,2.456,2.259v-2.833h6.132v20.008h-6.132v-2.833a6.624,6.624,0,0,1-2.492,2.259,7.7,7.7,0,0,1-3.711.861,8.136,8.136,0,0,1-4.447-1.273,8.789,8.789,0,0,1-3.173-3.622,13.2,13.2,0,0,1,0-10.847Zm12.55,1.829a4.31,4.31,0,0,0-6.2-.018,4.948,4.948,0,0,0-1.273,3.6,5.076,5.076,0,0,0,1.273,3.64,4.27,4.27,0,0,0,6.2.018,5.79,5.79,0,0,0,0-7.244Z" transform="translate(2390.546 -832.342)" fill="#e63b69"/>
    <path id="Path_54" data-name="Path 54" d="M278.2,362.906a8.6,8.6,0,0,1,2.205,6.275V380.87h-6.1V370.005a4.134,4.134,0,0,0-1.022-2.994,4.274,4.274,0,0,0-5.63,0,4.136,4.136,0,0,0-1.021,2.994V380.87h-6.1V370.005a4.135,4.135,0,0,0-1.022-2.994,4.274,4.274,0,0,0-5.63,0,4.135,4.135,0,0,0-1.022,2.994V380.87h-6.131V360.862h6.131v2.51a6.571,6.571,0,0,1,2.439-1.99,7.669,7.669,0,0,1,3.406-.735,8.281,8.281,0,0,1,4.034.968,6.939,6.939,0,0,1,2.779,2.761,8.067,8.067,0,0,1,2.833-2.689,7.655,7.655,0,0,1,3.908-1.04A7.914,7.914,0,0,1,278.2,362.906Z" transform="translate(2335.972 -832.495)" fill="#e63b69"/>
    <path id="Path_55" data-name="Path 55" d="M374.374,361.283a7.593,7.593,0,0,1,3.693-.861,8.285,8.285,0,0,1,4.482,1.255,8.7,8.7,0,0,1,3.174,3.586,13.2,13.2,0,0,1,0,10.847,8.791,8.791,0,0,1-3.174,3.622A8.2,8.2,0,0,1,378.067,381a7.617,7.617,0,0,1-3.675-.861,6.732,6.732,0,0,1-2.492-2.223v12.335h-6.131V360.709H371.9v2.833A6.653,6.653,0,0,1,374.374,361.283Zm5,5.791a4.206,4.206,0,0,0-3.137-1.309,4.138,4.138,0,0,0-3.1,1.326,5.79,5.79,0,0,0,0,7.244,4.291,4.291,0,0,0,6.222-.018,5.036,5.036,0,0,0,1.29-3.64A4.952,4.952,0,0,0,379.376,367.074Z" transform="translate(2254.914 -832.342)" fill="#e63b69"/>
    <path id="Path_56" data-name="Path 56" d="M461.462,361.321v20.008h-6.131V378.6a6.736,6.736,0,0,1-2.528,2.133,7.715,7.715,0,0,1-3.532.807,7.909,7.909,0,0,1-4.052-1.022,6.886,6.886,0,0,1-2.725-2.958,10.068,10.068,0,0,1-.968-4.554V361.321h6.1v10.865a4.391,4.391,0,0,0,1.04,3.12,3.646,3.646,0,0,0,2.8,1.111,3.692,3.692,0,0,0,2.833-1.111,4.392,4.392,0,0,0,1.04-3.12V361.321Z" transform="translate(2203.324 -832.954)" fill="#e63b69"/>
    <path id="Path_57" data-name="Path 57" d="M519.027,380.108a7.956,7.956,0,0,1-3.227-2.456,6.456,6.456,0,0,1-1.327-3.5h6.06a2.326,2.326,0,0,0,.968,1.685,3.425,3.425,0,0,0,2.115.646,3.016,3.016,0,0,0,1.775-.448,1.373,1.373,0,0,0,.628-1.166,1.345,1.345,0,0,0-.9-1.273,18.2,18.2,0,0,0-2.9-.914,27.125,27.125,0,0,1-3.586-1.058,6.183,6.183,0,0,1-2.474-1.757,4.786,4.786,0,0,1-1.04-3.245,5.507,5.507,0,0,1,.95-3.137,6.393,6.393,0,0,1,2.8-2.241,10.7,10.7,0,0,1,4.392-.825,8.807,8.807,0,0,1,5.934,1.865,7.254,7.254,0,0,1,2.492,4.948h-5.665a2.445,2.445,0,0,0-.915-1.649,3.172,3.172,0,0,0-2.026-.61,2.8,2.8,0,0,0-1.649.412,1.316,1.316,0,0,0-.574,1.129,1.378,1.378,0,0,0,.915,1.291,14.611,14.611,0,0,0,2.85.861,31.3,31.3,0,0,1,3.622,1.13,6.254,6.254,0,0,1,2.456,1.793,5.078,5.078,0,0,1,1.094,3.317,5.264,5.264,0,0,1-.986,3.137,6.521,6.521,0,0,1-2.833,2.169,10.841,10.841,0,0,1-4.285.789A11.5,11.5,0,0,1,519.027,380.108Z" transform="translate(2153.647 -832.342)" fill="#e63b69"/>
    <path id="Path_58" data-name="Path 58" d="M602.744,350.422a11.531,11.531,0,0,1,4.5-4.554,13.061,13.061,0,0,1,6.544-1.632,12.523,12.523,0,0,1,7.674,2.367,11.366,11.366,0,0,1,4.267,6.454h-6.741a5.448,5.448,0,0,0-2.134-2.4,6,6,0,0,0-3.138-.825,5.857,5.857,0,0,0-4.59,1.972,8.786,8.786,0,0,0,0,10.542,5.855,5.855,0,0,0,4.59,1.972,6,6,0,0,0,3.138-.825,5.444,5.444,0,0,0,2.134-2.4h6.741a11.282,11.282,0,0,1-4.267,6.436,12.588,12.588,0,0,1-7.674,2.349,13.061,13.061,0,0,1-6.544-1.631,11.563,11.563,0,0,1-4.5-4.536,14.477,14.477,0,0,1,0-13.285Z" transform="translate(2094.635 -821.32)" fill="#e63b69"/>
    <path id="Path_59" data-name="Path 59" d="M687.383,365.263a8.694,8.694,0,0,1,3.173-3.586,8.288,8.288,0,0,1,4.482-1.255,7.7,7.7,0,0,1,3.711.861,6.337,6.337,0,0,1,2.456,2.259v-2.833h6.132v20.008h-6.132v-2.833a6.625,6.625,0,0,1-2.492,2.259A7.7,7.7,0,0,1,695,381a8.137,8.137,0,0,1-4.447-1.273,8.79,8.79,0,0,1-3.173-3.622,13.2,13.2,0,0,1,0-10.847Zm12.55,1.829a4.31,4.31,0,0,0-6.2-.018,4.948,4.948,0,0,0-1.273,3.6,5.076,5.076,0,0,0,1.273,3.64,4.27,4.27,0,0,0,6.2.018,5.79,5.79,0,0,0,0-7.244Z" transform="translate(2036.692 -832.342)" fill="#e63b69"/>
    <path id="Path_60" data-name="Path 60" d="M784.16,362.924a8.883,8.883,0,0,1,2.1,6.257V380.87h-6.1V370.005a4.391,4.391,0,0,0-1.04-3.119,4.074,4.074,0,0,0-5.594,0,4.39,4.39,0,0,0-1.04,3.119V380.87h-6.131V360.862h6.131v2.654a6.481,6.481,0,0,1,2.51-2.1,7.983,7.983,0,0,1,3.55-.771A7.262,7.262,0,0,1,784.16,362.924Z" transform="translate(1982.118 -832.495)" fill="#e63b69"/>
    <path id="Path_61" data-name="Path 61" d="M909.82,365.263a8.694,8.694,0,0,1,3.173-3.586,8.287,8.287,0,0,1,4.482-1.255,7.7,7.7,0,0,1,3.711.861,6.34,6.34,0,0,1,2.456,2.259v-2.833h6.132v20.008h-6.132v-2.833a6.626,6.626,0,0,1-2.492,2.259,7.7,7.7,0,0,1-3.711.861,8.136,8.136,0,0,1-4.447-1.273,8.79,8.79,0,0,1-3.173-3.622,13.2,13.2,0,0,1,0-10.847Zm12.55,1.829a4.31,4.31,0,0,0-6.2-.018,4.948,4.948,0,0,0-1.273,3.6,5.076,5.076,0,0,0,1.273,3.64,4.27,4.27,0,0,0,6.2.018,5.79,5.79,0,0,0,0-7.244Z" transform="translate(1885.215 -832.342)" fill="#e63b69"/>
    <path id="Path_62" data-name="Path 62" d="M989.978,380.108a7.957,7.957,0,0,1-3.227-2.456,6.453,6.453,0,0,1-1.327-3.5h6.06a2.328,2.328,0,0,0,.968,1.685,3.424,3.424,0,0,0,2.115.646,3.015,3.015,0,0,0,1.775-.448,1.373,1.373,0,0,0,.628-1.166,1.345,1.345,0,0,0-.9-1.273,18.18,18.18,0,0,0-2.9-.914,27.135,27.135,0,0,1-3.586-1.058,6.185,6.185,0,0,1-2.474-1.757,4.786,4.786,0,0,1-1.04-3.245,5.507,5.507,0,0,1,.951-3.137,6.391,6.391,0,0,1,2.8-2.241,10.7,10.7,0,0,1,4.392-.825,8.808,8.808,0,0,1,5.934,1.865,7.256,7.256,0,0,1,2.492,4.948H996.97a2.446,2.446,0,0,0-.914-1.649,3.172,3.172,0,0,0-2.026-.61,2.8,2.8,0,0,0-1.649.412,1.316,1.316,0,0,0-.574,1.129,1.378,1.378,0,0,0,.914,1.291,14.609,14.609,0,0,0,2.85.861,31.3,31.3,0,0,1,3.622,1.13,6.251,6.251,0,0,1,2.456,1.793,5.075,5.075,0,0,1,1.094,3.317,5.262,5.262,0,0,1-.986,3.137,6.521,6.521,0,0,1-2.833,2.169,10.84,10.84,0,0,1-4.284.789A11.5,11.5,0,0,1,989.978,380.108Z" transform="translate(1832.936 -832.342)" fill="#e63b69"/>
    <g id="Group_19" data-name="Group 19" transform="translate(2579.162 -440.921)">
      <path id="Path_63" data-name="Path 63" d="M235.619,459.143a.619.619,0,0,1,.157-.468.581.581,0,0,1,.779,0,.607.607,0,0,1,.163.465.617.617,0,0,1-.163.468.543.543,0,0,1-.387.154.538.538,0,0,1-.392-.154A.631.631,0,0,1,235.619,459.143Zm1.009,7.811H235.7v-6.146h.931Z" transform="translate(-235.619 -458.229)" fill="#e63b69"/>
      <path id="Path_64" data-name="Path 64" d="M252.8,471.587v-4a1.66,1.66,0,0,0-.314-1.1,1.215,1.215,0,0,0-.976-.367,1.575,1.575,0,0,0-1.284.5,2.371,2.371,0,0,0-.415,1.536v3.432h-.931v-4a1.659,1.659,0,0,0-.314-1.1,1.221,1.221,0,0,0-.981-.367,1.519,1.519,0,0,0-1.281.524,2.837,2.837,0,0,0-.407,1.719v3.224h-.931v-6.146h.757l.152.841h.045a1.828,1.828,0,0,1,.743-.7,2.272,2.272,0,0,1,1.074-.252,1.826,1.826,0,0,1,1.884,1.043h.045a1.959,1.959,0,0,1,.8-.763,2.47,2.47,0,0,1,1.189-.28,2.082,2.082,0,0,1,1.562.536,2.4,2.4,0,0,1,.519,1.713v4.009Z" transform="translate(-241.987 -462.862)" fill="#e63b69"/>
      <path id="Path_65" data-name="Path 65" d="M281.317,471.7a2.664,2.664,0,0,1-1.1-.221,2.061,2.061,0,0,1-.833-.681h-.067a8.29,8.29,0,0,1,.067,1.021v2.529h-.931v-8.9h.757l.129.841h.045a2.164,2.164,0,0,1,.835-.729,2.537,2.537,0,0,1,1.094-.224,2.272,2.272,0,0,1,1.887.835,4.449,4.449,0,0,1-.011,4.7A2.275,2.275,0,0,1,281.317,471.7Zm-.135-5.58a1.651,1.651,0,0,0-1.363.521,2.684,2.684,0,0,0-.432,1.66v.207a3.076,3.076,0,0,0,.432,1.853,1.642,1.642,0,0,0,1.385.558,1.44,1.44,0,0,0,1.248-.645,3.059,3.059,0,0,0,.451-1.778,2.945,2.945,0,0,0-.451-1.764A1.484,1.484,0,0,0,281.182,466.12Z" transform="translate(-264.791 -462.862)" fill="#e63b69"/>
      <path id="Path_66" data-name="Path 66" d="M303.321,465.329a3.634,3.634,0,0,1,.735.067l-.129.864a3.169,3.169,0,0,0-.673-.084,1.638,1.638,0,0,0-1.276.606,2.209,2.209,0,0,0-.53,1.508v3.3h-.931v-6.146h.768l.107,1.138h.045a2.7,2.7,0,0,1,.824-.925A1.855,1.855,0,0,1,303.321,465.329Z" transform="translate(-279.814 -462.862)" fill="#e63b69"/>
      <path id="Path_67" data-name="Path 67" d="M317.078,471.7a2.823,2.823,0,0,1-2.15-.83,3.212,3.212,0,0,1-.788-2.3,3.564,3.564,0,0,1,.732-2.361,2.431,2.431,0,0,1,1.965-.875,2.318,2.318,0,0,1,1.828.76,2.913,2.913,0,0,1,.673,2v.589H315.1a2.435,2.435,0,0,0,.547,1.643,1.891,1.891,0,0,0,1.461.561,4.951,4.951,0,0,0,1.963-.415v.83a4.943,4.943,0,0,1-.934.306A5.254,5.254,0,0,1,317.078,471.7Zm-.252-5.591a1.52,1.52,0,0,0-1.18.482,2.224,2.224,0,0,0-.519,1.335h3.213a2.048,2.048,0,0,0-.392-1.349A1.383,1.383,0,0,0,316.826,466.108Z" transform="translate(-289.091 -462.862)" fill="#e63b69"/>
      <path id="Path_68" data-name="Path 68" d="M338.536,469.91a1.54,1.54,0,0,1-.639,1.324,3,3,0,0,1-1.794.465,3.9,3.9,0,0,1-1.907-.387v-.864a4.6,4.6,0,0,0,.951.353,3.961,3.961,0,0,0,.978.129,2.221,2.221,0,0,0,1.122-.233.8.8,0,0,0,.081-1.323,4.9,4.9,0,0,0-1.214-.6,6.579,6.579,0,0,1-1.22-.558,1.665,1.665,0,0,1-.539-.541,1.413,1.413,0,0,1-.177-.724,1.38,1.38,0,0,1,.611-1.186,2.849,2.849,0,0,1,1.677-.435,4.9,4.9,0,0,1,1.94.4l-.331.757a4.453,4.453,0,0,0-1.677-.382,1.928,1.928,0,0,0-1,.208.641.641,0,0,0-.336.572.7.7,0,0,0,.126.42,1.247,1.247,0,0,0,.407.331,9.082,9.082,0,0,0,1.077.454,4.019,4.019,0,0,1,1.477.8A1.414,1.414,0,0,1,338.536,469.91Z" transform="translate(-302.737 -462.862)" fill="#e63b69"/>
      <path id="Path_69" data-name="Path 69" d="M352.338,459.143a.619.619,0,0,1,.157-.468.581.581,0,0,1,.779,0,.607.607,0,0,1,.163.465.617.617,0,0,1-.163.468.543.543,0,0,1-.387.154.538.538,0,0,1-.392-.154A.631.631,0,0,1,352.338,459.143Zm1.009,7.811h-.931v-6.146h.931Z" transform="translate(-315.103 -458.229)" fill="#e63b69"/>
      <path id="Path_70" data-name="Path 70" d="M366.264,468.509a3.389,3.389,0,0,1-.757,2.347,2.666,2.666,0,0,1-2.092.844,2.77,2.77,0,0,1-1.464-.387,2.553,2.553,0,0,1-.987-1.11,3.866,3.866,0,0,1-.348-1.693,3.386,3.386,0,0,1,.751-2.341,2.658,2.658,0,0,1,2.086-.838,2.6,2.6,0,0,1,2.05.858A3.375,3.375,0,0,1,366.264,468.509Zm-4.682,0a2.916,2.916,0,0,0,.471,1.794,1.87,1.87,0,0,0,2.773,0,2.9,2.9,0,0,0,.474-1.8,2.855,2.855,0,0,0-.474-1.78,1.664,1.664,0,0,0-1.4-.608,1.639,1.639,0,0,0-1.379.6A2.89,2.89,0,0,0,361.581,468.509Z" transform="translate(-320.741 -462.862)" fill="#e63b69"/>
      <path id="Path_71" data-name="Path 71" d="M387.639,471.587v-3.976a1.6,1.6,0,0,0-.342-1.121,1.393,1.393,0,0,0-1.071-.37,1.768,1.768,0,0,0-1.413.521,2.635,2.635,0,0,0-.449,1.722v3.224h-.931v-6.146h.757l.152.841h.045a1.9,1.9,0,0,1,.8-.7,2.608,2.608,0,0,1,1.15-.249,2.334,2.334,0,0,1,1.671.536,2.279,2.279,0,0,1,.561,1.713v4.009Z" transform="translate(-336.278 -462.862)" fill="#e63b69"/>
      <path id="Path_72" data-name="Path 72" d="M407.4,471.7a2.824,2.824,0,0,1-2.151-.83,3.213,3.213,0,0,1-.788-2.3,3.562,3.562,0,0,1,.732-2.361,2.431,2.431,0,0,1,1.965-.875,2.317,2.317,0,0,1,1.828.76,2.913,2.913,0,0,1,.673,2v.589h-4.234a2.437,2.437,0,0,0,.547,1.643,1.891,1.891,0,0,0,1.461.561,4.951,4.951,0,0,0,1.963-.415v.83a4.941,4.941,0,0,1-.933.306A5.256,5.256,0,0,1,407.4,471.7Zm-.252-5.591a1.52,1.52,0,0,0-1.181.482,2.223,2.223,0,0,0-.519,1.335h3.213a2.046,2.046,0,0,0-.393-1.349A1.382,1.382,0,0,0,407.143,466.108Z" transform="translate(-350.595 -462.862)" fill="#e63b69"/>
      <path id="Path_73" data-name="Path 73" d="M428.853,469.91a1.54,1.54,0,0,1-.639,1.324,3,3,0,0,1-1.794.465,3.9,3.9,0,0,1-1.907-.387v-.864a4.6,4.6,0,0,0,.951.353,3.961,3.961,0,0,0,.978.129,2.219,2.219,0,0,0,1.122-.233.8.8,0,0,0,.081-1.323,4.905,4.905,0,0,0-1.214-.6,6.589,6.589,0,0,1-1.22-.558,1.668,1.668,0,0,1-.538-.541,1.412,1.412,0,0,1-.176-.724,1.379,1.379,0,0,1,.611-1.186,2.848,2.848,0,0,1,1.677-.435,4.905,4.905,0,0,1,1.94.4l-.331.757a4.456,4.456,0,0,0-1.677-.382,1.928,1.928,0,0,0-1,.208.641.641,0,0,0-.337.572.7.7,0,0,0,.126.42,1.242,1.242,0,0,0,.406.331,9.078,9.078,0,0,0,1.077.454,4.023,4.023,0,0,1,1.478.8A1.414,1.414,0,0,1,428.853,469.91Z" transform="translate(-364.242 -462.862)" fill="#e63b69"/>
      <path id="Path_74" data-name="Path 74" d="M455.641,465.441v.589l-1.138.135a2,2,0,0,1,.4,1.228,1.816,1.816,0,0,1-.617,1.441,2.489,2.489,0,0,1-1.694.538,2.812,2.812,0,0,1-.516-.045.917.917,0,0,0-.594.791.4.4,0,0,0,.207.373,1.517,1.517,0,0,0,.712.121h1.088a2.435,2.435,0,0,1,1.534.42,1.461,1.461,0,0,1,.536,1.222,1.745,1.745,0,0,1-.819,1.556,4.383,4.383,0,0,1-2.389.536,3.262,3.262,0,0,1-1.859-.449,1.448,1.448,0,0,1-.653-1.267,1.423,1.423,0,0,1,.359-.97,1.825,1.825,0,0,1,1.009-.555.975.975,0,0,1-.4-.331.875.875,0,0,1-.16-.521.99.99,0,0,1,.18-.589,1.889,1.889,0,0,1,.566-.488,1.659,1.659,0,0,1-.776-.667,1.96,1.96,0,0,1-.3-1.077,1.989,1.989,0,0,1,.606-1.556,2.471,2.471,0,0,1,1.716-.547,3.115,3.115,0,0,1,.869.112Zm-4.9,7.178a.834.834,0,0,0,.42.757,2.322,2.322,0,0,0,1.206.258,3.366,3.366,0,0,0,1.735-.35,1.073,1.073,0,0,0,.564-.951.753.753,0,0,0-.309-.693,2.4,2.4,0,0,0-1.161-.193h-1.116a1.47,1.47,0,0,0-.987.3A1.082,1.082,0,0,0,450.74,472.619Zm.5-5.209a1.251,1.251,0,0,0,.364.976,1.455,1.455,0,0,0,1.015.331,1.187,1.187,0,0,0,1.363-1.323,1.222,1.222,0,0,0-1.38-1.385,1.367,1.367,0,0,0-1.009.353A1.424,1.424,0,0,0,451.245,467.41Z" transform="translate(-381.503 -462.862)" fill="#e63b69"/>
      <path id="Path_75" data-name="Path 75" d="M474.778,465.329a3.634,3.634,0,0,1,.735.067l-.129.864a3.168,3.168,0,0,0-.673-.084,1.638,1.638,0,0,0-1.276.606,2.209,2.209,0,0,0-.53,1.508v3.3h-.931v-6.146h.768l.107,1.138h.045a2.7,2.7,0,0,1,.824-.925A1.855,1.855,0,0,1,474.778,465.329Z" transform="translate(-396.574 -462.862)" fill="#e63b69"/>
      <path id="Path_76" data-name="Path 76" d="M489.467,471.611l-.185-.875h-.045a2.582,2.582,0,0,1-.917.782,2.792,2.792,0,0,1-1.141.2,2.052,2.052,0,0,1-1.433-.471,1.717,1.717,0,0,1-.519-1.34q0-1.862,2.978-1.951l1.043-.034v-.381a1.558,1.558,0,0,0-.311-1.068,1.279,1.279,0,0,0-1-.345,4.056,4.056,0,0,0-1.738.471l-.286-.712a4.372,4.372,0,0,1,1-.387,4.313,4.313,0,0,1,1.085-.14,2.34,2.34,0,0,1,1.629.488,2.035,2.035,0,0,1,.53,1.564v4.194Zm-2.1-.656a1.89,1.89,0,0,0,1.366-.477,1.764,1.764,0,0,0,.5-1.335v-.555l-.931.039a3.384,3.384,0,0,0-1.6.345,1.039,1.039,0,0,0-.491.95.958.958,0,0,0,.306.768A1.268,1.268,0,0,0,487.364,470.955Z" transform="translate(-405.599 -462.886)" fill="#e63b69"/>
      <path id="Path_77" data-name="Path 77" d="M506.94,468.13a3.008,3.008,0,0,0,.477-.037,3.069,3.069,0,0,0,.364-.076v.712a1.7,1.7,0,0,1-.446.12,3.332,3.332,0,0,1-.53.048q-1.783,0-1.783-1.879v-3.656h-.88v-.449l.88-.387.392-1.312h.539v1.424h1.783v.723h-1.783v3.617a1.244,1.244,0,0,0,.263.852A.918.918,0,0,0,506.94,468.13Z" transform="translate(-418.48 -460.061)" fill="#e63b69"/>
      <path id="Path_78" data-name="Path 78" d="M520.131,465.681v3.987a1.6,1.6,0,0,0,.342,1.121,1.393,1.393,0,0,0,1.071.37,1.747,1.747,0,0,0,1.41-.527,2.659,2.659,0,0,0,.446-1.721v-3.23h.931v6.146h-.768l-.135-.824h-.05a1.855,1.855,0,0,1-.793.7,2.668,2.668,0,0,1-1.158.241,2.35,2.35,0,0,1-1.68-.533,2.268,2.268,0,0,1-.558-1.7v-4.021Z" transform="translate(-428.726 -463.101)" fill="#e63b69"/>
      <path id="Path_79" data-name="Path 79" d="M541.25,459.143a.618.618,0,0,1,.157-.468.581.581,0,0,1,.779,0,.607.607,0,0,1,.163.465.617.617,0,0,1-.163.468.544.544,0,0,1-.387.154.537.537,0,0,1-.392-.154A.63.63,0,0,1,541.25,459.143Zm1.009,7.811h-.931v-6.146h.931Z" transform="translate(-443.75 -458.229)" fill="#e63b69"/>
      <path id="Path_80" data-name="Path 80" d="M550.85,468.13a3,3,0,0,0,.477-.037,3.088,3.088,0,0,0,.365-.076v.712a1.7,1.7,0,0,1-.446.12,3.332,3.332,0,0,1-.53.048q-1.783,0-1.783-1.879v-3.656h-.88v-.449l.88-.387.393-1.312h.538v1.424h1.783v.723h-1.783v3.617a1.244,1.244,0,0,0,.264.852A.918.918,0,0,0,550.85,468.13Z" transform="translate(-448.382 -460.061)" fill="#e63b69"/>
      <path id="Path_81" data-name="Path 81" d="M566.108,471.611l-.185-.875h-.045a2.586,2.586,0,0,1-.917.782,2.793,2.793,0,0,1-1.141.2,2.052,2.052,0,0,1-1.433-.471,1.718,1.718,0,0,1-.519-1.34q0-1.862,2.978-1.951l1.043-.034v-.381a1.558,1.558,0,0,0-.311-1.068,1.28,1.28,0,0,0-1-.345,4.059,4.059,0,0,0-1.739.471l-.286-.712a4.368,4.368,0,0,1,1-.387,4.313,4.313,0,0,1,1.085-.14,2.341,2.341,0,0,1,1.629.488,2.036,2.036,0,0,1,.53,1.564v4.194Zm-2.1-.656a1.89,1.89,0,0,0,1.365-.477,1.764,1.764,0,0,0,.5-1.335v-.555l-.931.039a3.386,3.386,0,0,0-1.6.345,1.04,1.04,0,0,0-.491.95.959.959,0,0,0,.306.768A1.269,1.269,0,0,0,564.005,470.955Z" transform="translate(-457.791 -462.886)" fill="#e63b69"/>
      <path id="Path_82" data-name="Path 82" d="M586.458,469.91a1.54,1.54,0,0,1-.639,1.324,3,3,0,0,1-1.794.465,3.9,3.9,0,0,1-1.906-.387v-.864a4.6,4.6,0,0,0,.95.353,3.963,3.963,0,0,0,.979.129,2.219,2.219,0,0,0,1.121-.233.8.8,0,0,0,.081-1.323,4.9,4.9,0,0,0-1.214-.6,6.594,6.594,0,0,1-1.22-.558,1.666,1.666,0,0,1-.538-.541,1.413,1.413,0,0,1-.177-.724,1.38,1.38,0,0,1,.611-1.186,2.849,2.849,0,0,1,1.677-.435,4.9,4.9,0,0,1,1.94.4l-.331.757a4.455,4.455,0,0,0-1.677-.382,1.928,1.928,0,0,0-1,.208.641.641,0,0,0-.336.572.7.7,0,0,0,.126.42,1.25,1.25,0,0,0,.406.331,9.088,9.088,0,0,0,1.077.454,4.018,4.018,0,0,1,1.478.8A1.414,1.414,0,0,1,586.458,469.91Z" transform="translate(-471.569 -462.862)" fill="#e63b69"/>
      <path id="Path_83" data-name="Path 83" d="M612.717,471.7a2.664,2.664,0,0,1-1.1-.221,2.061,2.061,0,0,1-.833-.681h-.067a8.218,8.218,0,0,1,.067,1.021v2.529h-.931v-8.9h.757l.129.841h.045a2.164,2.164,0,0,1,.835-.729,2.539,2.539,0,0,1,1.094-.224,2.271,2.271,0,0,1,1.887.835,4.449,4.449,0,0,1-.011,4.7A2.275,2.275,0,0,1,612.717,471.7Zm-.135-5.58a1.65,1.65,0,0,0-1.363.521,2.683,2.683,0,0,0-.432,1.66v.207a3.073,3.073,0,0,0,.432,1.853,1.641,1.641,0,0,0,1.385.558,1.44,1.44,0,0,0,1.248-.645,3.057,3.057,0,0,0,.452-1.778,2.943,2.943,0,0,0-.452-1.764A1.484,1.484,0,0,0,612.582,466.12Z" transform="translate(-490.47 -462.862)" fill="#e63b69"/>
      <path id="Path_84" data-name="Path 84" d="M634.715,471.611l-.185-.875h-.045a2.584,2.584,0,0,1-.917.782,2.8,2.8,0,0,1-1.141.2,2.052,2.052,0,0,1-1.433-.471,1.717,1.717,0,0,1-.519-1.34q0-1.862,2.978-1.951l1.043-.034v-.381a1.556,1.556,0,0,0-.311-1.068,1.279,1.279,0,0,0-1-.345,4.058,4.058,0,0,0-1.738.471l-.286-.712a4.379,4.379,0,0,1,1-.387,4.312,4.312,0,0,1,1.085-.14,2.34,2.34,0,0,1,1.629.488,2.035,2.035,0,0,1,.53,1.564v4.194Zm-2.1-.656a1.89,1.89,0,0,0,1.366-.477,1.764,1.764,0,0,0,.5-1.335v-.555l-.931.039a3.384,3.384,0,0,0-1.6.345,1.039,1.039,0,0,0-.491.95.958.958,0,0,0,.306.768A1.267,1.267,0,0,0,632.612,470.955Z" transform="translate(-504.511 -462.886)" fill="#e63b69"/>
      <path id="Path_85" data-name="Path 85" d="M654.743,465.329a3.634,3.634,0,0,1,.735.067l-.129.864a3.169,3.169,0,0,0-.673-.084,1.639,1.639,0,0,0-1.276.606,2.209,2.209,0,0,0-.53,1.508v3.3h-.931v-6.146h.768l.107,1.138h.045a2.7,2.7,0,0,1,.824-.925A1.855,1.855,0,0,1,654.743,465.329Z" transform="translate(-519.128 -462.862)" fill="#e63b69"/>
      <path id="Path_86" data-name="Path 86" d="M669.432,471.611l-.185-.875H669.2a2.584,2.584,0,0,1-.917.782,2.793,2.793,0,0,1-1.141.2,2.052,2.052,0,0,1-1.433-.471,1.718,1.718,0,0,1-.519-1.34q0-1.862,2.978-1.951l1.043-.034v-.381a1.558,1.558,0,0,0-.311-1.068,1.28,1.28,0,0,0-1-.345,4.056,4.056,0,0,0-1.738.471l-.286-.712a4.368,4.368,0,0,1,1-.387,4.314,4.314,0,0,1,1.085-.14,2.34,2.34,0,0,1,1.629.488,2.036,2.036,0,0,1,.53,1.564v4.194Zm-2.1-.656a1.89,1.89,0,0,0,1.366-.477,1.764,1.764,0,0,0,.5-1.335v-.555l-.931.039a3.383,3.383,0,0,0-1.6.345,1.039,1.039,0,0,0-.491.95.958.958,0,0,0,.306.768A1.268,1.268,0,0,0,667.329,470.955Z" transform="translate(-528.153 -462.886)" fill="#e63b69"/>
      <path id="Path_87" data-name="Path 87" d="M697.873,471.7a2.823,2.823,0,0,1-2.151-.83,3.212,3.212,0,0,1-.788-2.3,3.564,3.564,0,0,1,.732-2.361,2.431,2.431,0,0,1,1.965-.875,2.318,2.318,0,0,1,1.828.76,2.913,2.913,0,0,1,.673,2v.589H695.9a2.435,2.435,0,0,0,.547,1.643,1.891,1.891,0,0,0,1.461.561,4.951,4.951,0,0,0,1.963-.415v.83a4.943,4.943,0,0,1-.934.306A5.254,5.254,0,0,1,697.873,471.7Zm-.252-5.591a1.52,1.52,0,0,0-1.18.482,2.223,2.223,0,0,0-.519,1.335h3.213a2.048,2.048,0,0,0-.392-1.349A1.383,1.383,0,0,0,697.621,466.108Z" transform="translate(-548.407 -462.862)" fill="#e63b69"/>
      <path id="Path_88" data-name="Path 88" d="M719.331,469.91a1.541,1.541,0,0,1-.639,1.324,3,3,0,0,1-1.794.465,3.9,3.9,0,0,1-1.907-.387v-.864a4.6,4.6,0,0,0,.95.353,3.964,3.964,0,0,0,.979.129,2.219,2.219,0,0,0,1.121-.233.8.8,0,0,0,.081-1.323,4.9,4.9,0,0,0-1.214-.6,6.593,6.593,0,0,1-1.22-.558,1.668,1.668,0,0,1-.538-.541,1.412,1.412,0,0,1-.177-.724,1.38,1.38,0,0,1,.611-1.186,2.849,2.849,0,0,1,1.677-.435,4.9,4.9,0,0,1,1.94.4l-.331.757a4.456,4.456,0,0,0-1.677-.382,1.928,1.928,0,0,0-1,.208.641.641,0,0,0-.336.572.7.7,0,0,0,.126.42,1.247,1.247,0,0,0,.407.331,9.032,9.032,0,0,0,1.077.454,4.019,4.019,0,0,1,1.477.8A1.414,1.414,0,0,1,719.331,469.91Z" transform="translate(-562.054 -462.862)" fill="#e63b69"/>
      <path id="Path_89" data-name="Path 89" d="M733.628,468.13a3,3,0,0,0,.477-.037,3.061,3.061,0,0,0,.365-.076v.712a1.694,1.694,0,0,1-.446.12,3.329,3.329,0,0,1-.53.048q-1.783,0-1.783-1.879v-3.656h-.88v-.449l.88-.387.393-1.312h.538v1.424h1.783v.723h-1.783v3.617a1.244,1.244,0,0,0,.264.852A.916.916,0,0,0,733.628,468.13Z" transform="translate(-572.851 -460.061)" fill="#e63b69"/>
      <path id="Path_90" data-name="Path 90" d="M746.819,465.681v3.987a1.6,1.6,0,0,0,.342,1.121,1.393,1.393,0,0,0,1.071.37,1.747,1.747,0,0,0,1.41-.527,2.657,2.657,0,0,0,.446-1.721v-3.23h.931v6.146h-.768l-.135-.824h-.051a1.852,1.852,0,0,1-.793.7,2.666,2.666,0,0,1-1.158.241,2.35,2.35,0,0,1-1.679-.533,2.269,2.269,0,0,1-.558-1.7v-4.021Z" transform="translate(-583.098 -463.101)" fill="#e63b69"/>
      <path id="Path_91" data-name="Path 91" d="M771.636,465.5h-.051a2.187,2.187,0,0,1-1.929.937,2.281,2.281,0,0,1-1.875-.824,3.628,3.628,0,0,1-.67-2.344,3.69,3.69,0,0,1,.673-2.361,2.265,2.265,0,0,1,1.873-.841,2.234,2.234,0,0,1,1.918.909h.073l-.039-.443-.023-.432v-2.5h.931v8.725h-.757Zm-1.862.157a1.7,1.7,0,0,0,1.382-.518,2.623,2.623,0,0,0,.429-1.674v-.2a3.085,3.085,0,0,0-.435-1.865,1.65,1.65,0,0,0-1.388-.558,1.424,1.424,0,0,0-1.253.637,3.162,3.162,0,0,0-.435,1.8,3.036,3.036,0,0,0,.432,1.778A1.462,1.462,0,0,0,769.775,465.653Z" transform="translate(-597.558 -457.595)" fill="#e63b69"/>
      <path id="Path_92" data-name="Path 92" d="M790,459.143a.619.619,0,0,1,.157-.468.581.581,0,0,1,.779,0,.607.607,0,0,1,.163.465.617.617,0,0,1-.163.468.543.543,0,0,1-.387.154.538.538,0,0,1-.392-.154A.631.631,0,0,1,790,459.143Zm1.009,7.811h-.931v-6.146h.931Z" transform="translate(-613.144 -458.229)" fill="#e63b69"/>
      <path id="Path_93" data-name="Path 93" d="M802.147,471.611l-.185-.875h-.045a2.584,2.584,0,0,1-.917.782,2.793,2.793,0,0,1-1.141.2,2.052,2.052,0,0,1-1.433-.471,1.717,1.717,0,0,1-.519-1.34q0-1.862,2.978-1.951l1.043-.034v-.381a1.558,1.558,0,0,0-.311-1.068,1.28,1.28,0,0,0-1-.345,4.059,4.059,0,0,0-1.739.471l-.286-.712a4.368,4.368,0,0,1,1-.387,4.313,4.313,0,0,1,1.085-.14,2.341,2.341,0,0,1,1.629.488,2.036,2.036,0,0,1,.53,1.564v4.194Zm-2.1-.656a1.889,1.889,0,0,0,1.365-.477,1.764,1.764,0,0,0,.5-1.335v-.555l-.931.039a3.384,3.384,0,0,0-1.6.345,1.04,1.04,0,0,0-.491.95.959.959,0,0,0,.306.768A1.269,1.269,0,0,0,800.044,470.955Z" transform="translate(-618.53 -462.886)" fill="#e63b69"/>
      <path id="Path_94" data-name="Path 94" d="M823.576,471.587v-3.976a1.6,1.6,0,0,0-.342-1.121,1.393,1.393,0,0,0-1.071-.37,1.767,1.767,0,0,0-1.413.521,2.633,2.633,0,0,0-.448,1.722v3.224h-.931v-6.146h.757l.151.841h.045a1.9,1.9,0,0,1,.8-.7,2.607,2.607,0,0,1,1.149-.249,2.333,2.333,0,0,1,1.671.536,2.278,2.278,0,0,1,.561,1.713v4.009Z" transform="translate(-633.146 -462.862)" fill="#e63b69"/>
      <path id="Path_95" data-name="Path 95" d="M841.716,468.13a3,3,0,0,0,.477-.037,3.061,3.061,0,0,0,.365-.076v.712a1.7,1.7,0,0,1-.446.12,3.333,3.333,0,0,1-.53.048q-1.783,0-1.783-1.879v-3.656h-.88v-.449l.88-.387.393-1.312h.538v1.424h1.783v.723h-1.783v3.617a1.244,1.244,0,0,0,.264.852A.916.916,0,0,0,841.716,468.13Z" transform="translate(-646.458 -460.061)" fill="#e63b69"/>
      <path id="Path_96" data-name="Path 96" d="M856.041,471.7a2.823,2.823,0,0,1-2.15-.83,3.212,3.212,0,0,1-.788-2.3,3.564,3.564,0,0,1,.732-2.361,2.431,2.431,0,0,1,1.966-.875,2.318,2.318,0,0,1,1.828.76,2.913,2.913,0,0,1,.673,2v.589h-4.234a2.434,2.434,0,0,0,.547,1.643,1.891,1.891,0,0,0,1.461.561,4.951,4.951,0,0,0,1.963-.415v.83a4.943,4.943,0,0,1-.934.306A5.254,5.254,0,0,1,856.041,471.7Zm-.252-5.591a1.52,1.52,0,0,0-1.18.482,2.224,2.224,0,0,0-.519,1.335H857.3a2.048,2.048,0,0,0-.392-1.349A1.383,1.383,0,0,0,855.789,466.108Z" transform="translate(-656.118 -462.862)" fill="#e63b69"/>
      <path id="Path_97" data-name="Path 97" d="M877.5,469.91a1.541,1.541,0,0,1-.639,1.324,3,3,0,0,1-1.794.465,3.9,3.9,0,0,1-1.907-.387v-.864a4.6,4.6,0,0,0,.95.353,3.963,3.963,0,0,0,.979.129,2.219,2.219,0,0,0,1.121-.233.8.8,0,0,0,.081-1.323,4.9,4.9,0,0,0-1.214-.6,6.6,6.6,0,0,1-1.22-.558,1.665,1.665,0,0,1-.538-.541,1.412,1.412,0,0,1-.177-.724,1.38,1.38,0,0,1,.611-1.186,2.849,2.849,0,0,1,1.677-.435,4.9,4.9,0,0,1,1.94.4l-.331.757a4.456,4.456,0,0,0-1.677-.382,1.928,1.928,0,0,0-1,.208.641.641,0,0,0-.336.572.7.7,0,0,0,.126.42,1.25,1.25,0,0,0,.406.331,9.077,9.077,0,0,0,1.077.454,4.018,4.018,0,0,1,1.478.8A1.414,1.414,0,0,1,877.5,469.91Z" transform="translate(-669.764 -462.862)" fill="#e63b69"/>
    </g>
    <path id="Path_98" data-name="Path 98" d="M848.245,370.8l-9.734-11.833v8.684l9.735,11.834a.623.623,0,0,0,.945,0l9.7-11.785v-8.734l-9.7,11.832A.622.622,0,0,1,848.245,370.8Z" transform="translate(1932.982 -831.348)" fill="#e63b69"/>
  </g>
</svg>
