<svg xmlns="http://www.w3.org/2000/svg" width="224.759" height="174.839" viewBox="0 0 224.759 174.839">
  <g id="Group_1508" data-name="Group 1508" transform="matrix(0.921, -0.391, 0.391, 0.921, 0, 77.946)">
    <path id="Path_3987" data-name="Path 3987" d="M199.413,55.565a4.075,4.075,0,0,0,.063-1.028,9.386,9.386,0,0,0-1.62-5.381c-2.913-4.816-9.012-7.966-13.734-10.583-9.312-5.166-19.4-8.99-29.41-12.558A527.967,527.967,0,0,0,65.333,2.938c-4.6-.772-50.688-8.366-52.713,4.425C8.15,18.4-6.656,46.136,3.474,57.388c15.632,17.373,49.063,23.818,70.166,29.8,31.52,8.927,67.339,20.493,100.627,17.634C195.738,102.973,196.393,71.215,199.413,55.565ZM21.686,8.952a24.45,24.45,0,0,1,7.289-1.225c22.328-1.575,46.039,4.542,67.55,9.622,27.382,6.463,55.535,13.967,80.843,26.547,4.286,2.132,11.983,5.857,14,9.645.031.054.059.081.086.121a.964.964,0,0,0-.13.067c-1.2.794-4.65,1.221-6.7,1.4-10.089.911-20.51-.7-30.456-2.217a494.414,494.414,0,0,1-50.15-10.866C78.891,35.418,52.353,28.5,29.459,15.779a41.618,41.618,0,0,1-6.826-4.668,9.254,9.254,0,0,1-1.607-1.7c-.058-.076-.081-.112-.121-.175C21.071,9.159,21.242,9.127,21.686,8.952Zm147.5,88.321c-27.6,1.3-57.057-7.787-83.361-14.8C61.715,76.044,33.808,69.276,12.782,55.045,2.819,48.308,11.445,28.96,17.014,16.82c5.646,5.745,15.1,9.317,21.556,12.131C59.2,37.945,81.144,44.1,102.857,49.838,128,56.4,154.349,63.146,180.523,63.155a41.732,41.732,0,0,0,9.928-1.216C188.351,77.35,186.371,96.461,169.182,97.273Z" transform="translate(0 0)" fill="#e63b69"/>
    <path id="Path_3988" data-name="Path 3988" d="M139.811,24.593c-7.719,3.528-18.855,2.293-27.027,1.777C99.593,25.536,86.519,23,73.616,20.244c-14.133-3.011-28.158-6.719-42-10.843C21.442,6.372,10.815,1.57.308,0A.271.271,0,0,0,.1.479C8.4,7.471,21.424,10.707,31.527,13.988,45.741,18.6,60.179,22.43,74.779,25.608c13.747,3,27.794,5.323,41.869,5.852,8.042.3,17.467-.058,23.7-5.879C140.775,25.177,140.443,24.3,139.811,24.593Z" transform="translate(38.375 59.453)" fill="#e63b69"/>
    <path id="Path_3989" data-name="Path 3989" d="M44.526,11.185C54.921,12.392,67.074,13.267,77,9.17c.4-.166.27-.848-.183-.759-10.9,2.239-23.132.211-34.074-1.032C28.455,5.759,14.42,2.649.305.005A.27.27,0,0,0,.153.517C14.111,6.657,29.46,9.439,44.526,11.185Z" transform="translate(101.058 69.316)" fill="#e63b69"/>
    <path id="Path_3990" data-name="Path 3990" d="M7.681,3.82a11.141,11.141,0,0,0,7.307-.058c.341-.108.206-.534-.072-.615C12.119,2.339,9.444,1.423,6.6.727,4.517.216,2.192-.493.163.5A.256.256,0,0,0,.1.934C2.183,2.536,5.194,3.084,7.681,3.82Z" transform="translate(81.614 64.815)" fill="#e63b69"/>
  </g>
</svg>
