<svg xmlns="http://www.w3.org/2000/svg" width="188.636" height="146.74" viewBox="0 0 188.636 146.74">
  <g id="Group_1464" data-name="Group 1464" transform="matrix(0.921, -0.391, 0.391, 0.921, 0, 65.419)">
    <path id="Path_3987" data-name="Path 3987" d="M167.364,46.635a3.421,3.421,0,0,0,.053-.863,7.878,7.878,0,0,0-1.36-4.516c-2.445-4.042-7.564-6.686-11.527-8.882-7.816-4.336-16.28-7.545-24.683-10.539A443.114,443.114,0,0,0,54.833,2.466C50.972,1.818,12.291-4.555,10.592,6.18,6.84,15.439-5.586,38.721,2.915,48.164,16.035,62.745,44.094,68.155,61.8,73.172c26.454,7.492,56.517,17.2,84.455,14.8C164.28,86.423,164.83,59.77,167.364,46.635ZM18.2,7.514a20.521,20.521,0,0,1,6.117-1.028C43.058,5.163,62.958,10.3,81.012,14.561c22.981,5.424,46.61,11.722,67.851,22.28,3.6,1.789,10.057,4.916,11.752,8.095.026.045.049.068.072.1a.809.809,0,0,0-.109.056c-1.006.667-3.9,1.025-5.624,1.179-8.468.765-17.214-.584-25.561-1.861A414.953,414.953,0,0,1,87.3,35.293c-21.09-5.567-43.363-11.376-62.577-22.051A34.929,34.929,0,0,1,19,9.325,7.767,7.767,0,0,1,17.647,7.9c-.049-.064-.068-.094-.1-.147C17.685,7.687,17.828,7.66,18.2,7.514ZM141.992,81.64C118.826,82.732,94.1,75.1,72.028,69.217,51.8,63.823,28.375,58.143,10.728,46.2,2.366,40.544,9.605,24.306,14.28,14.117c4.738,4.821,12.671,7.82,18.092,10.182C49.687,31.847,68.1,37.015,86.326,41.829,107.432,47.339,129.542,53,151.51,53a35.024,35.024,0,0,0,8.332-1.021C158.08,64.919,156.418,80.958,141.992,81.64Z" transform="translate(0 0)" fill="#e63b69"/>
    <path id="Path_3988" data-name="Path 3988" d="M117.341,20.641c-6.479,2.961-15.824,1.925-22.683,1.492-11.071-.7-22.043-2.833-32.873-5.142-11.861-2.527-23.632-5.639-35.253-9.1C18,5.348,9.076,1.317.259,0A.228.228,0,0,0,.081.4C7.054,6.271,17.981,8.986,26.46,11.74c11.929,3.872,24.047,7.085,36.3,9.752A201.192,201.192,0,0,0,97.9,26.4c6.75.252,14.66-.049,19.889-4.935C118.151,21.13,117.872,20.4,117.341,20.641Z" transform="translate(32.207 49.898)" fill="#e63b69"/>
    <path id="Path_3989" data-name="Path 3989" d="M37.37,9.387C46.094,10.4,56.294,11.135,64.622,7.7c.339-.14.226-.712-.154-.637-9.146,1.88-19.414.177-28.6-.866C23.881,4.833,12.1,2.223.256,0A.227.227,0,0,0,.128.434C11.843,5.587,24.725,7.922,37.37,9.387Z" transform="translate(84.816 58.176)" fill="#e63b69"/>
    <path id="Path_3990" data-name="Path 3990" d="M6.446,3.206a9.351,9.351,0,0,0,6.132-.049c.286-.09.173-.448-.06-.516-2.347-.678-4.592-1.446-6.98-2.03C3.791.181,1.839-.414.137.418A.215.215,0,0,0,.081.784C1.832,2.129,4.36,2.588,6.446,3.206Z" transform="translate(68.497 54.398)" fill="#e63b69"/>
  </g>
</svg>
