<svg id="Group_1507" data-name="Group 1507" xmlns="http://www.w3.org/2000/svg" width="57.901" height="57.38" viewBox="0 0 57.901 57.38">
  <path id="Path_3941" data-name="Path 3941" d="M1089.3,221.511c-17.108-1.724-30.613,12.061-31.631,28.309a2.327,2.327,0,0,0-.057.6,2.506,2.506,0,0,0,.049.587c1.99,36.1,53.707,37.4,57.666,1.328C1117.154,235.7,1105.294,223.123,1089.3,221.511Zm-27.177,28.909c1.339-30.728,47.507-32.728,48.791-.914C1112.228,282.034,1063.408,282.958,1062.126,250.42Z" transform="translate(-1057.613 -221.365)" fill="#e63b69"/>
  <path id="Path_3942" data-name="Path 3942" d="M1063.373,243.472c-.216-.149-.42.129-.327.327,3.33,7.073,13.044,7.567,19.7,6.329,8.452-1.573,15.028-7.124,15.672-15.927.02-.311-.443-.35-.528-.069C1093.6,248.141,1074.18,250.915,1063.373,243.472Z" transform="translate(-1049.1 -201.571)" fill="#e63b69"/>
  <path id="Path_3943" data-name="Path 3943" d="M1062.047,235.411a.406.406,0,0,0-.636.082,2.813,2.813,0,0,0,.265,2.484c.376.79,1.13,1.992,2.113,1.956a.559.559,0,0,0,.543-.543c.083-.785-.654-1.408-1.047-2.02A11.531,11.531,0,0,0,1062.047,235.411Z" transform="translate(-1051.939 -199.443)" fill="#e63b69"/>
  <path id="Path_3944" data-name="Path 3944" d="M1064.187,231.052c2.551-.45,4.98-1.956,7.415-2.823,2.471-.878,5.122-1.5,7.662-2.159a.229.229,0,0,0,.054-.414c-4.651-2.414-13.317.031-15.242,5.287C1064.048,231.014,1064.126,231.065,1064.187,231.052Z" transform="translate(-1047.451 -216.084)" fill="#e63b69"/>
</svg>
