<svg id="Group_1474" data-name="Group 1474" xmlns="http://www.w3.org/2000/svg" width="48.596" height="48.158" viewBox="0 0 48.596 48.158">
  <path id="Path_3941" data-name="Path 3941" d="M1084.21,221.488c-14.358-1.447-25.693,10.122-26.548,23.759a1.959,1.959,0,0,0-.048.5,2.106,2.106,0,0,0,.041.493c1.67,30.3,45.075,31.393,48.4,1.115C1107.585,233.392,1097.631,222.84,1084.21,221.488ZM1061.4,245.751c1.123-25.79,39.872-27.468,40.95-.767C1103.451,272.283,1062.477,273.059,1061.4,245.751Z" transform="translate(-1057.613 -221.365)" fill="#e63b69"/>
  <path id="Path_3942" data-name="Path 3942" d="M1063.317,241.94c-.182-.125-.352.108-.274.274,2.8,5.936,10.947,6.351,16.534,5.312,7.094-1.32,12.613-5.979,13.153-13.367.017-.261-.371-.294-.443-.058C1088.688,245.859,1072.387,248.187,1063.317,241.94Z" transform="translate(-1051.337 -206.774)" fill="#e63b69"/>
  <path id="Path_3943" data-name="Path 3943" d="M1061.914,235.392a.341.341,0,0,0-.534.069,2.361,2.361,0,0,0,.222,2.085c.316.663.948,1.672,1.774,1.642a.469.469,0,0,0,.456-.456c.069-.659-.549-1.182-.879-1.7A9.691,9.691,0,0,0,1061.914,235.392Z" transform="translate(-1053.43 -205.205)" fill="#e63b69"/>
  <path id="Path_3944" data-name="Path 3944" d="M1064.168,230.035c2.141-.378,4.18-1.642,6.223-2.37,2.074-.737,4.3-1.261,6.431-1.812a.192.192,0,0,0,.045-.348c-3.9-2.026-11.177.026-12.792,4.437C1064.052,230,1064.117,230.045,1064.168,230.035Z" transform="translate(-1050.122 -217.472)" fill="#e63b69"/>
</svg>
