<svg id="Group_1469" data-name="Group 1469" xmlns="http://www.w3.org/2000/svg" width="144.681" height="203.137" viewBox="0 0 144.681 203.137">
  <path id="Path_3829" data-name="Path 3829" d="M1249.452,357.207c-3.686-.625-7.413.421-11.021,1.181-2.866.6-7.1,2.609-8.734-1.407-.6-1.479-.619-3.226-1.438-4.623-1.194-2.038-3.357-2.225-5.476-2.129a17.3,17.3,0,0,0-4.043,1.153c-5.083,1.609-7.7-2.934-10.211-6.4-2.716-3.752-8.751-15.229-14.614-12.958-5.212,2.02-6.864,16.256-7.8,20.961-1.609,8.107,4.033,15.313,8.229,21.865a10.08,10.08,0,0,0-4.9,4.875c-7.3.117-14.115,2.811-18.553,9.127-9.083,12.929-16.192,27.328-22.82,41.63-2.432,5.245-6.478,11.664-7.129,17.5-.768,6.871,1.477,12.956,4.391,19.075.2.409.422.8.645,1.192a8.451,8.451,0,0,0,.257,5.566c-7.191.787-14.76,1.264-21.618,3.23-7.664,2.2-12.426,14.674-15.264,21.125-1.36,3.09-3.462,9.147,1.909,9.628,4.611.413,9.12-1.155,13.464-2.478a48.015,48.015,0,0,1,8.105-2.11c3.072-.366,3.7,4.923,4.122,6.8.353,1.574.879,5.381,2.938,5.907,4.017,1.029,10.737-3.976,13.786.255,3.226,4.473,3.877,10.117,6.3,14.9,1.075,2.12,2.225,3.934,4.81,3.783,2.737-.162,4.518-4.074,5.625-5.991a74,74,0,0,0,6.969-15.461c2.33-8.148-1.785-17.741-4.775-25.468a12.022,12.022,0,0,0,5.582-4.8c8.28-.622,15.027-4.923,20.1-12.237,9.27-13.367,14.966-28.949,22.38-43.343,5.617-10.9,6.883-19.029,1.523-30.159a11.319,11.319,0,0,0,.1-7.922c4.081-.345,8.155-.727,12.237-1.044,2.159-.166,4.822,0,6.757-1.206,4.921-3.08,6.381-10.507,8.259-15.567C1250.489,369.122,1255.679,358.263,1249.452,357.207Zm-30.233,35.852c-6.022-6.963-16.03-12.134-25.781-13.162C1199.24,372.123,1218.452,382.932,1219.219,393.06Zm-37.835-8.218a27.241,27.241,0,0,1,9.272-1.093,16.015,16.015,0,0,0-6.7,5.223c-.125.189.127.446.316.314a35.48,35.48,0,0,1,8.543-4.354,25.968,25.968,0,0,1,3.871-.957c.086,0,.177.008.263.01.257.008.524.049.789.076-5.66,4.085-10.493,8.22-14.657,14.2-.483.7-.943,1.409-1.411,2.118a30.415,30.415,0,0,0-13.32-.9c.274-.456.532-.918.808-1.37C1172.333,392.9,1175.3,386.931,1181.384,384.841Zm23.568,35.409a105.473,105.473,0,0,1,5.515,19.968q-1.049,2.228-2.1,4.45a184.758,184.758,0,0,0-11.941-32.279A92.435,92.435,0,0,1,1204.952,420.25Zm3.754,4.041c2.159,2.412,4.177,4.8,6.044,7.033q-1.38,2.783-2.716,5.591A104.719,104.719,0,0,0,1208.706,424.291Zm-16.289-14.869c6.441,11.746,11.012,25.288,14.524,38.242q-1.805,3.775-3.7,7.505a161.307,161.307,0,0,0-7.588-24.62c-1.685-4.44-3.7-8.676-5.8-12.936-2.067-4.2-3.437-8.806-5.954-12.765A43.929,43.929,0,0,1,1192.417,409.422Zm-26.492-5.81a1.9,1.9,0,0,0,.465-.062,26.51,26.51,0,0,1,11.277-.47c-5.021,2.1-10.2,3.793-14.992,6.312Q1164.268,406.485,1165.925,403.612Zm-9.276,17.258a169.149,169.149,0,0,1,18.134-8.744q-1.44,2.733-2.8,5.506a81.45,81.45,0,0,0-17.462,7.637C1155.221,423.8,1155.922,422.329,1156.649,420.87ZM1152.733,429a71.794,71.794,0,0,1,17.92-8.664q-1.4,2.9-2.759,5.8a70.1,70.1,0,0,0-15.529,7.89q-.905-.151-1.831-.269Q1151.626,431.368,1152.733,429Zm13.85-.037q-1.9,4.09-3.68,8.237a44.872,44.872,0,0,0-7.487-2.558A68,68,0,0,1,1166.583,428.959Zm3.577.8a47.72,47.72,0,0,1,2.332,7.4c.661,2.365,1.434,4.676,2.087,7.025a62.615,62.615,0,0,0-8.453-5.428Q1168.1,434.231,1170.16,429.756Zm7.177,16.593c-.783-3.672-2.044-7.2-3.055-10.822-.8-2.854-1.446-5.675-2.969-8.21q1.347-2.86,2.755-5.693c3.493,10.107,6.849,20.256,9.833,30.525C1181.76,450.133,1179.58,448.184,1177.337,446.349Zm9.486,8.066c-3.38-11.962-7.322-23.743-11.4-35.48q1.434-2.8,2.932-5.566A147.866,147.866,0,0,1,1188.54,437.7a235.007,235.007,0,0,1,6.238,25.14c-2.651-2.613-5.282-5.278-7.951-7.883A1.02,1.02,0,0,0,1186.822,454.415Zm-10.437-45.264a170.017,170.017,0,0,0-17.99,8.3c.762-1.492,1.518-2.987,2.3-4.467,5.566-3.635,11.993-5.556,18.132-8.093Q1177.573,407,1176.385,409.151Zm-29.859,33.642c.812-1.913,1.658-3.809,2.507-5.706a1.913,1.913,0,0,0,.551.146,39.789,39.789,0,0,1,11.935,3.191q-3,7.175-5.668,14.483c-1.748,4.81-3.156,9.373-3.25,14.183a28.7,28.7,0,0,1-1.828-3.563,22.266,22.266,0,0,1-1.233-12.064c.01-.07-.074-.142-.133-.076-2.264,2.517-1.584,7.4-1.136,10.48q.118.8.318,1.607c-.043-.078-.1-.156-.138-.236C1144.521,457.651,1143.14,450.758,1146.526,442.792Zm27.868,67.431c-.053,4.682-3.984,10.6-5.985,14.723-.452.937-3.7,8.716-5.871,2.685-.75-2.075-1.375-4.171-2.182-6.229-1.194-3.051-3.5-9.469-7.335-10.376a11.778,11.778,0,0,0-6.951.436c-5.455,1.919-5.286-.9-6.264-5.186-.881-3.881-2.975-6.392-6.969-6.671-2.833-.2-22.364,7-21.271,2.788,1.726-6.657,8.942-21.567,16.355-22.494,6.731-.84,13.443-1.829,20.174-2.685a23.391,23.391,0,0,0,2.126,2.554c-6.807,1.81-14.427,4.765-18.583,10.24-.185.242.119.592.388.5,3.516-1.161,6.774-3.176,10.1-4.783a58.378,58.378,0,0,1,10.46-3.733,42.453,42.453,0,0,0,3.815,2.891c-6.042,4.093-11.111,10.363-12.471,17.593a.26.26,0,0,0,.473.2c4.06-6.478,7.879-12.262,14.5-16.241a20.891,20.891,0,0,0,3.246,1.465c.062.1.113.189.179.3a25.474,25.474,0,0,1,2.662,6.764c1.1,4.136.8,8.407,1.636,12.539a.126.126,0,0,0,.228.031c2.2-3.856,1.59-9.13.711-13.279a30.064,30.064,0,0,0-1.683-5.492,14.859,14.859,0,0,0,3.222.051C1171.7,495.638,1174.481,502.88,1174.394,510.224Zm-15.96-28.255c-2.523-1.535-6.833-5.087-8.489-8.7,5.564,5.289,13.833,8.36,20.949,9.529.924.152,1.826.251,2.72.323C1169.439,487.075,1163.15,484.837,1158.434,481.969Zm29.773-5.208c-3.626,2.466-9.032,2.6-13.566,2.613,2.8-.828,5.438-2.044,6.881-4.1.028-.041-.011-.117-.064-.109-2.087.273-4.068,1.229-6.1,1.785-2.6.715-5.247,1.212-7.877,1.792a33.495,33.495,0,0,1-10.885-4.9c-1.528-7.179,1.177-13.71,3.608-20.394,1.4-3.861,2.932-7.674,4.53-11.458,11.824,6.289,21.187,17.431,30.9,26.71A28.761,28.761,0,0,1,1188.207,476.761Zm9.373-11.185-.035-.033c-2.147-10.211-4.3-20.416-7.555-30.344a135.758,135.758,0,0,0-10.416-24.09c.887-1.6,1.8-3.176,2.726-4.754a67.974,67.974,0,0,1,3.988,8.732c2.3,5.422,5.159,10.526,7.281,16.038,3.382,8.775,6.435,17.844,8.064,27.137-.456.861-.91,1.724-1.383,2.576C1199.406,462.366,1198.521,463.973,1197.58,465.576Zm24.248-49.008c-.971,3.949-3.285,7.674-5.292,11.308-8.159-9.681-18.826-21.248-31.265-26.253,4.592-6.647,9.944-11.463,16.845-16.264a1.534,1.534,0,0,0,.152-.129,31.538,31.538,0,0,1,4.878,2.457c1.243,1.868,2.727,3.606,3.962,5.473,2.477,3.758,3.394,7.8,4.883,11.958a.237.237,0,0,0,.454,0c1.56-3.846-.24-7.744-2.013-11.224-.2-.395-.417-.8-.637-1.2a28.6,28.6,0,0,1,4.824,5.535C1221.664,404.214,1223.472,409.913,1221.828,416.568Zm25.84-50.335c-1.529,4.649-3.782,16.094-8.746,18.095-5,2.02-12.932,1.276-18.247,1.689a21.192,21.192,0,0,0-1.592-2.217c6.318-2.018,13.313-5.085,16.321-11.165a.114.114,0,0,0-.156-.154c-5.87,3.612-11.627,7.01-18.22,9.085a29.823,29.823,0,0,0-8.547-5.724c.646-4.372,2.577-8.6,2.687-12.989a.177.177,0,0,0-.3-.123c-3.384,2.819-4.44,7.756-5,12.1-.3-.1-.6-.177-.906-.261a45.973,45.973,0,0,1-3.908-8.738c-1.114-3.452-1.4-7.092-2.285-10.6a.209.209,0,0,0-.4,0c-1.479,6.38.312,12.9,3.2,18.662a16.347,16.347,0,0,0-3.581-.033c-3.375-5.387-8.572-11.744-8.58-18.267,0-3.824,1.718-8.1,2.718-11.779q.607-2.247,1.387-4.442c1.921-5.761,3.187-3.392,6.073-.21,4.343,4.789,7.234,11.847,12.829,15.383,3.606,2.278,12.233-2.648,13.328,1.75.768,3.088,1.917,5.235,4.865,6.458C1234.618,364.419,1250.8,356.7,1247.668,366.233Z" transform="translate(-1107.789 -331.726)" fill="#e63b69"/>
  <path id="Path_3830" data-name="Path 3830" d="M1138.06,394.236c-3.257,1.588-5.975,8.159-4.6,11.5a.26.26,0,0,0,.5,0c.768-1.913,1-3.969,1.718-5.915.7-1.909,1.865-3.544,2.638-5.4C1138.372,394.275,1138.177,394.178,1138.06,394.236Z" transform="translate(-1081.105 -265.822)" fill="#e63b69"/>
  <path id="Path_3831" data-name="Path 3831" d="M1144.106,399.824c-2.72,1-5.389,2.071-8.13,3.006-.045.016-.066.09-.014.115,2.693,1.276,6.55-.787,8.329-2.8C1144.408,400.013,1144.3,399.754,1144.106,399.824Z" transform="translate(-1078.11 -259.923)" fill="#e63b69"/>
  <path id="Path_3832" data-name="Path 3832" d="M1154.721,359.587a27.778,27.778,0,0,0,1.461,5.825c.636,2.2.781,4.5,1.321,6.723a.226.226,0,0,0,.411.053c1.8-3.937-.345-9.5-2.992-12.683A.118.118,0,0,0,1154.721,359.587Z" transform="translate(-1058.296 -302.467)" fill="#e63b69"/>
  <path id="Path_3833" data-name="Path 3833" d="M1160.7,368.291a8.09,8.09,0,0,0-.111,1.337,2.634,2.634,0,0,0,.138,1.364.43.43,0,0,0,.668.086c.785-.692.3-2.233-.311-2.891A.231.231,0,0,0,1160.7,368.291Z" transform="translate(-1052.131 -293.341)" fill="#e63b69"/>
</svg>
