<svg id="Group_1506" data-name="Group 1506" xmlns="http://www.w3.org/2000/svg" width="172.386" height="242.036" viewBox="0 0 172.386 242.036">
  <path id="Path_3829" data-name="Path 3829" d="M1276.579,362.087c-4.392-.744-8.833.5-13.131,1.408-3.415.717-8.465,3.109-10.406-1.677-.717-1.763-.737-3.843-1.714-5.508-1.422-2.428-4-2.651-6.524-2.536a20.617,20.617,0,0,0-4.818,1.373c-6.057,1.917-9.173-3.5-12.167-7.63-3.236-4.47-10.426-18.145-17.413-15.44-6.21,2.406-8.179,19.369-9.29,24.975-1.917,9.66,4.806,18.245,9.8,26.052a12.011,12.011,0,0,0-5.833,5.809c-8.7.14-16.818,3.349-22.106,10.874-10.823,15.405-19.293,32.561-27.19,49.6-2.9,6.25-7.718,13.9-8.494,20.854-.916,8.186,1.76,15.437,5.231,22.727.233.487.5.952.769,1.42a10.069,10.069,0,0,0,.306,6.632c-8.568.938-17.587,1.506-25.758,3.848-9.131,2.617-14.806,17.484-18.186,25.17-1.62,3.682-4.125,10.9,2.274,11.471,5.493.492,10.867-1.376,16.042-2.952a57.227,57.227,0,0,1,9.657-2.514c3.66-.436,4.411,5.865,4.911,8.1.421,1.875,1.047,6.411,3.5,7.038,4.786,1.226,12.793-4.737,16.426.3,3.844,5.329,4.619,12.054,7.511,17.758,1.28,2.526,2.651,4.688,5.731,4.507,3.261-.193,5.383-4.854,6.7-7.138,3.158-5.476,6.561-12.316,8.3-18.421,2.776-9.709-2.127-21.139-5.689-30.345a14.325,14.325,0,0,0,6.651-5.714c9.865-.742,17.9-5.865,23.949-14.58,11.046-15.927,17.831-34.492,26.666-51.643,6.693-12.982,8.2-22.673,1.814-35.934a13.487,13.487,0,0,0,.115-9.439c4.862-.411,9.716-.867,14.581-1.244,2.573-.2,5.745,0,8.051-1.437,5.863-3.67,7.6-12.519,9.841-18.549C1277.815,376.283,1284,363.345,1276.579,362.087ZM1240.557,404.8c-7.175-8.3-19.1-14.458-30.718-15.682C1216.753,379.859,1239.643,392.738,1240.557,404.8Zm-45.08-9.792a32.457,32.457,0,0,1,11.048-1.3,19.081,19.081,0,0,0-7.978,6.223c-.149.225.152.531.377.375a42.28,42.28,0,0,1,10.179-5.187,30.936,30.936,0,0,1,4.612-1.141c.1,0,.21.01.313.012.306.01.624.059.94.09-6.744,4.867-12.5,9.794-17.464,16.923-.575.83-1.124,1.679-1.682,2.524a36.235,36.235,0,0,0-15.871-1.07c.326-.543.634-1.094.962-1.633C1184.693,404.616,1188.233,397.5,1195.477,395.012Zm28.081,42.189a125.671,125.671,0,0,1,6.571,23.792q-1.249,2.655-2.5,5.3c-3.64-13-8.193-26.345-14.228-38.461A110.165,110.165,0,0,1,1223.558,437.2Zm4.473,4.815c2.573,2.874,4.977,5.718,7.2,8.38q-1.645,3.316-3.236,6.661A124.779,124.779,0,0,0,1228.03,442.017ZM1208.622,424.3c7.674,14,13.121,30.13,17.3,45.565q-2.151,4.5-4.406,8.943c-2.051-10.027-5.425-19.79-9.041-29.334-2.008-5.29-4.414-10.338-6.913-15.413-2.463-5-4.1-10.492-7.094-15.209A52.348,52.348,0,0,1,1208.622,424.3Zm-31.564-6.923a2.266,2.266,0,0,0,.553-.073,31.587,31.587,0,0,1,13.437-.561c-5.983,2.5-12.149,4.519-17.863,7.52Q1175.084,420.8,1177.058,417.377Zm-11.053,20.563a201.541,201.541,0,0,1,21.606-10.419q-1.715,3.257-3.341,6.561a97.048,97.048,0,0,0-20.806,9.1C1164.3,441.432,1165.139,439.679,1166.005,437.941Zm-4.666,9.682a85.545,85.545,0,0,1,21.352-10.323q-1.667,3.455-3.288,6.908a83.526,83.526,0,0,0-18.5,9.4q-1.079-.18-2.181-.321Q1160.02,450.449,1161.339,447.622Zm16.5-.044q-2.262,4.873-4.384,9.814a53.467,53.467,0,0,0-8.921-3.048A81.028,81.028,0,0,1,1177.841,447.578Zm4.262.95a56.854,56.854,0,0,1,2.779,8.82c.788,2.818,1.709,5.572,2.487,8.37a74.616,74.616,0,0,0-10.071-6.468Q1179.645,453.86,1182.1,448.528Zm8.551,19.77c-.933-4.375-2.436-8.583-3.64-12.894-.95-3.4-1.724-6.761-3.537-9.782q1.6-3.408,3.283-6.783c4.161,12.042,8.161,24.135,11.716,36.37C1195.925,472.808,1193.327,470.484,1190.654,468.3Zm11.3,9.611c-4.027-14.252-8.725-28.289-13.579-42.275q1.708-3.338,3.493-6.632A176.2,176.2,0,0,1,1204,458c3.2,9.772,5.332,19.888,7.432,29.954-3.158-3.114-6.294-6.289-9.474-9.393A1.219,1.219,0,0,0,1201.957,477.909Zm-12.436-53.932a202.609,202.609,0,0,0-21.435,9.895c.908-1.777,1.809-3.559,2.744-5.322,6.632-4.331,14.289-6.62,21.6-9.643Q1190.936,421.415,1189.521,423.977Zm-35.577,40.084c.967-2.279,1.976-4.539,2.987-6.8a2.283,2.283,0,0,0,.656.174,47.412,47.412,0,0,1,14.22,3.8q-3.58,8.548-6.754,17.256c-2.083,5.731-3.76,11.168-3.873,16.9a34.2,34.2,0,0,1-2.178-4.245,26.531,26.531,0,0,1-1.469-14.375c.012-.083-.088-.169-.159-.091-2.7,3-1.888,8.82-1.354,12.487q.14.951.38,1.914c-.051-.093-.117-.186-.164-.282C1151.555,481.765,1149.91,473.552,1153.944,464.061Zm33.2,80.344c-.064,5.579-4.747,12.627-7.131,17.542-.538,1.116-4.406,10.385-7,3.2-.894-2.472-1.638-4.969-2.6-7.422-1.422-3.635-4.166-11.283-8.74-12.362a14.033,14.033,0,0,0-8.281.519c-6.5,2.286-6.3-1.07-7.464-6.179-1.05-4.624-3.545-7.616-8.3-7.949-3.376-.237-26.646,8.345-25.344,3.322,2.056-7.932,10.654-25.7,19.486-26.8,8.02-1,16.017-2.179,24.037-3.2a27.839,27.839,0,0,0,2.534,3.043c-8.11,2.157-17.19,5.677-22.142,12.2-.221.289.142.705.463.6,4.189-1.383,8.071-3.785,12.037-5.7a69.564,69.564,0,0,1,12.463-4.448,50.631,50.631,0,0,0,4.546,3.444c-7.2,4.876-13.239,12.348-14.859,20.962a.31.31,0,0,0,.563.237c4.838-7.719,9.388-14.61,17.28-19.351a24.886,24.886,0,0,0,3.868,1.745c.074.12.135.225.213.355a30.347,30.347,0,0,1,3.172,8.059c1.31,4.928.952,10.017,1.949,14.94a.151.151,0,0,0,.272.037c2.624-4.595,1.895-10.879.847-15.821a35.824,35.824,0,0,0-2-6.544,17.7,17.7,0,0,0,3.839.061C1183.937,527.026,1187.251,535.655,1187.149,544.4Zm-19.016-33.665c-3.006-1.829-8.142-6.061-10.115-10.37,6.629,6.3,16.482,9.961,24.96,11.354,1.1.181,2.176.3,3.241.384C1181.244,516.823,1173.751,514.157,1168.132,510.739Zm35.474-6.206c-4.321,2.938-10.761,3.1-16.164,3.114,3.334-.987,6.48-2.436,8.2-4.891a.088.088,0,0,0-.076-.13c-2.487.326-4.847,1.464-7.268,2.127-3.1.852-6.252,1.444-9.386,2.135a39.911,39.911,0,0,1-12.97-5.841c-1.821-8.553,1.4-16.336,4.3-24.3,1.67-4.6,3.493-9.143,5.4-13.653,14.088,7.493,25.244,20.769,36.815,31.824A34.267,34.267,0,0,1,1203.607,504.534Zm11.167-13.327-.042-.039c-2.558-12.167-5.128-24.326-9-36.155a161.747,161.747,0,0,0-12.411-28.7c1.057-1.9,2.149-3.785,3.248-5.665a81.008,81.008,0,0,1,4.751,10.4c2.74,6.46,6.147,12.541,8.676,19.109,4.03,10.455,7.667,21.261,9.608,32.333-.543,1.026-1.084,2.054-1.647,3.07C1216.95,487.383,1215.9,489.3,1214.774,491.207Zm28.891-58.392c-1.157,4.705-3.914,9.143-6.306,13.474-9.721-11.535-22.431-25.317-37.251-31.281,5.471-7.919,11.848-13.657,20.071-19.378a1.851,1.851,0,0,0,.181-.154,37.589,37.589,0,0,1,5.811,2.928c1.481,2.225,3.249,4.3,4.72,6.521,2.952,4.477,4.044,9.3,5.818,14.247a.282.282,0,0,0,.541,0c1.858-4.583-.286-9.227-2.4-13.373-.24-.47-.5-.948-.759-1.427a34.088,34.088,0,0,1,5.748,6.595C1243.47,418.095,1245.624,424.885,1243.665,432.815Zm30.789-59.974c-1.822,5.54-4.507,19.175-10.421,21.56-5.958,2.406-15.408,1.52-21.741,2.012a25.241,25.241,0,0,0-1.9-2.641c7.528-2.4,15.863-6.059,19.447-13.3a.136.136,0,0,0-.186-.184c-6.994,4.3-13.853,8.353-21.709,10.825a35.536,35.536,0,0,0-10.184-6.82c.769-5.209,3.07-10.25,3.2-15.476a.211.211,0,0,0-.357-.147c-4.032,3.359-5.29,9.241-5.961,14.419-.363-.117-.72-.211-1.08-.311a54.777,54.777,0,0,1-4.656-10.411c-1.327-4.113-1.67-8.45-2.722-12.629a.249.249,0,0,0-.477,0c-1.762,7.6.372,15.376,3.809,22.235a19.484,19.484,0,0,0-4.267-.039c-4.022-6.419-10.213-13.993-10.223-21.765,0-4.556,2.047-9.655,3.239-14.034q.723-2.677,1.653-5.293c2.289-6.864,3.8-4.042,7.236-.25,5.175,5.706,8.62,14.115,15.285,18.328,4.3,2.715,14.575-3.155,15.88,2.086.916,3.679,2.284,6.237,5.8,7.694C1258.9,370.679,1278.188,361.477,1274.454,372.841Z" transform="translate(-1107.789 -331.726)" fill="#e63b69"/>
  <path id="Path_3830" data-name="Path 3830" d="M1139.011,394.239c-3.88,1.892-7.119,9.721-5.486,13.7a.31.31,0,0,0,.592,0c.915-2.279,1.194-4.729,2.047-7.048.837-2.274,2.222-4.223,3.143-6.429C1139.383,394.285,1139.151,394.17,1139.011,394.239Z" transform="translate(-1071.15 -241.235)" fill="#e63b69"/>
  <path id="Path_3831" data-name="Path 3831" d="M1145.671,399.826c-3.241,1.187-6.421,2.468-9.687,3.581-.054.02-.078.108-.017.137,3.209,1.52,7.8-.938,9.924-3.337C1146.031,400.051,1145.9,399.743,1145.671,399.826Z" transform="translate(-1067.038 -233.136)" fill="#e63b69"/>
  <path id="Path_3832" data-name="Path 3832" d="M1154.721,359.61c.152,2.384,1.082,4.661,1.741,6.94.758,2.627.93,5.359,1.574,8.01a.27.27,0,0,0,.49.064c2.144-4.69-.411-11.32-3.565-15.112A.141.141,0,0,0,1154.721,359.61Z" transform="translate(-1039.831 -291.552)" fill="#e63b69"/>
  <path id="Path_3833" data-name="Path 3833" d="M1160.724,368.323a9.642,9.642,0,0,0-.132,1.594,3.139,3.139,0,0,0,.164,1.626.512.512,0,0,0,.8.1c.935-.825.362-2.661-.37-3.444A.275.275,0,0,0,1160.724,368.323Z" transform="translate(-1031.366 -279.021)" fill="#e63b69"/>
</svg>
