<svg xmlns="http://www.w3.org/2000/svg" width="208.878" height="173.944" viewBox="0 0 208.878 173.944">
  <g id="Group_1472" data-name="Group 1472" transform="translate(2 2)">
    <path id="Path_288" data-name="Path 288" d="M1817.413,1416.386l-80.5-80.495a5.678,5.678,0,0,1,0-8.028l81.42-81.421h-40.877l-81.419,81.421a5.676,5.676,0,0,0,0,8.028l80.494,80.495Z" transform="translate(-1694.379 -1246.442)" fill="none" stroke="#e63b69" stroke-width="4"/>
    <path id="Path_289" data-name="Path 289" d="M1902.312,1327.905v-16.181l-57.307-57.306a5.676,5.676,0,0,0-8.029,0l-73.731,73.731a5.676,5.676,0,0,0,0,8.029l73.731,73.731a5.677,5.677,0,0,0,8.029,0l57.307-57.307v-16.18a1.7,1.7,0,0,0-1.7-1.7h-41.333a18.442,18.442,0,1,1-.027-5.11h41.36A1.7,1.7,0,0,0,1902.312,1327.905Z" transform="translate(-1697.434 -1246.729)" fill="none" stroke="#e63b69" stroke-width="4"/>
  </g>
</svg>
