<svg id="Group_1466" data-name="Group 1466" xmlns="http://www.w3.org/2000/svg" width="173.491" height="173.491" viewBox="0 0 173.491 173.491">
  <path id="Path_939" data-name="Path 939" d="M1000.887,597.891a86.751,86.751,0,1,1,26.882-4.249A86.747,86.747,0,0,1,1000.887,597.891Zm0-169.027A82.219,82.219,0,1,0,1083.1,511.1v-.021a82.225,82.225,0,0,0-82.21-82.21Z" transform="translate(-914.213 -424.4)" fill="#e63b69"/>
  <path id="Path_1010" data-name="Path 1010" d="M926.208,456.565a18.307,18.307,0,0,1,5.215-13.949,18.779,18.779,0,0,1,13.451-4.916,18.587,18.587,0,0,1,13.406,4.916,21.532,21.532,0,0,1,0,27.911,18.587,18.587,0,0,1-13.406,4.916,18.792,18.792,0,0,1-13.451-4.9A18.311,18.311,0,0,1,926.208,456.565Zm75.858-17.623-43.007,78.626h-18.43l43.007-78.626Zm-57.3,9.929q-5.361,0-5.361,7.694,0,7.6,5.361,7.6a4.786,4.786,0,0,0,4.023-1.9,9.3,9.3,0,0,0,1.45-5.709Q950.235,448.873,944.763,448.871Zm34.628,51.045a17.36,17.36,0,1,1,5.139,13.962A18.4,18.4,0,0,1,979.391,499.916Zm18.43-7.7a4.627,4.627,0,0,0-3.974,1.9,9.81,9.81,0,0,0-1.394,5.806q0,7.6,5.361,7.6a4.784,4.784,0,0,0,4.022-1.9,9.322,9.322,0,0,0,1.453-5.709,9.585,9.585,0,0,0-1.453-5.754A4.72,4.72,0,0,0,997.82,492.211Z" transform="translate(-884.595 -391.502)" fill="#e63b69"/>
</svg>
