<svg id="Group_1466" data-name="Group 1466" xmlns="http://www.w3.org/2000/svg" width="128.569" height="128.569" viewBox="0 0 128.569 128.569">
  <path id="Path_939" data-name="Path 939" d="M978.445,552.969a64.288,64.288,0,1,1,19.921-3.148A64.285,64.285,0,0,1,978.445,552.969Zm0-125.261a60.93,60.93,0,1,0,60.923,60.939v-.015a60.934,60.934,0,0,0-60.923-60.924Z" transform="translate(-914.213 -424.4)" fill="#e63b69"/>
  <path id="Path_1010" data-name="Path 1010" d="M926.2,451.676a13.567,13.567,0,0,1,3.865-10.337,13.916,13.916,0,0,1,9.969-3.643,13.774,13.774,0,0,1,9.935,3.643,13.994,13.994,0,0,1-9.935,24.327,13.926,13.926,0,0,1-9.969-3.633A13.57,13.57,0,0,1,926.2,451.676Zm56.216-13.06-31.871,58.267H936.886l31.871-58.267Zm-42.465,7.358q-3.973,0-3.973,5.7,0,5.631,3.973,5.63a3.547,3.547,0,0,0,2.981-1.407A6.891,6.891,0,0,0,944,451.668Q944,445.975,939.949,445.974ZM965.611,483.8a12.865,12.865,0,1,1,3.808,10.347A13.638,13.638,0,0,1,965.611,483.8Zm13.658-5.71a3.429,3.429,0,0,0-2.945,1.407,7.271,7.271,0,0,0-1.033,4.3q0,5.631,3.973,5.63a3.546,3.546,0,0,0,2.981-1.407,6.909,6.909,0,0,0,1.077-4.23,7.1,7.1,0,0,0-1.077-4.264A3.5,3.5,0,0,0,979.269,478.092Z" transform="translate(-895.361 -403.459)" fill="#e63b69"/>
</svg>
