<svg xmlns="http://www.w3.org/2000/svg" width="186.824" height="85.683" viewBox="0 0 186.824 85.683">
  <path id="Icon_map-university" data-name="Icon map-university" d="M89.568,59.639c-20.022,0-37.033,5.822-48.144,14.948V91.561h96.3V74.587C126.609,65.461,109.594,59.639,89.568,59.639Zm88.41-8.711L89.335,10.08.729,50.928,15.5,57.687v10.4c-3.7.767-3.715,2.707-3.715,5.015A6.192,6.192,0,0,0,13.1,77.013L8.029,87.857H26.1L21.08,77.005a5.96,5.96,0,0,0,1.537-3.726c0-2.3-3.415-4.433-3.415-5.2V59.424l18.518,8.318v-.737c11.111-9.663,30.633-15.8,51.844-15.8s40.748,6.133,51.859,15.8v.737Z" transform="translate(4.063 -7.878)" fill="none" stroke="#e63b69" stroke-width="4"/>
</svg>
