<svg xmlns="http://www.w3.org/2000/svg" width="220.767" height="101.286" viewBox="0 0 220.767 101.286">
  <path id="Icon_map-university" data-name="Icon map-university" d="M106.58,69.129c-23.856,0-44.124,6.937-57.363,17.81v20.224H163.952V86.939C150.714,76.066,130.441,69.129,106.58,69.129ZM211.92,58.75,106.3,10.08.729,58.75l17.6,8.054V79.19c-4.413.913-4.426,3.226-4.426,5.975a7.378,7.378,0,0,0,1.562,4.664L9.426,102.751H30.961l-5.984-12.93a7.1,7.1,0,0,0,1.831-4.439c0-2.745-4.069-5.282-4.069-6.2V68.873L44.8,78.784v-.878c13.239-11.513,36.5-18.821,61.772-18.821s48.551,7.308,61.789,18.821v.878Z" transform="translate(4.063 -7.878)" fill="none" stroke="#e63b69" stroke-width="4"/>
</svg>
