<svg id="Group_1471" data-name="Group 1471" xmlns="http://www.w3.org/2000/svg" width="158.523" height="156.048" viewBox="0 0 158.523 156.048">
  <path id="Path_3949" data-name="Path 3949" d="M1016.459,305.289c-.361-.91-.747-1.82-1.2-2.73-10.809-21.93-38.586-20.766-57.125-10.361.185-12.639-2.217-24.689-14.736-31.15-9.8-5.059-21.282-2.219-30.426,2.816-31.191,17.179-42.211,59.174-42.874,91.974a40.925,40.925,0,0,0,1,9.708,2.205,2.205,0,0,0,.025,1.139c4.665,16.429,9.09,37.3,27.129,44.049,11.874,4.441,25.408,3.93,37.867,3.264a138.8,138.8,0,0,0,42.8-9.223c21.391-8.313,45.083-25.576,49.179-49.624C1030.858,338.918,1022.174,319.728,1016.459,305.289Zm-6.762,64.589c-1.2-2.717-3.765-5-6-6.825q1.125-.938,2.207-1.914c2.2,1.665,5.03,3.826,6,6.559C1011.192,368.439,1010.452,369.166,1009.7,369.878Zm-39.435,9.49c-27.3,11.31-60.669,15.319-88.922,5.359-1.078-2.784-2.018-5.659-2.883-8.539,7.616,4.988,18.987,4.962,27.538,5.547,29.928,2.049,61.32-4.07,86.074-21.58,12.436-8.8,23.941-22.1,26.349-36.837.78,2.336,1.518,4.683,2.181,7.047C1017.646,355.164,991.359,370.63,970.262,379.367Zm51.883-42.928c.486,2.181.872,4.375,1.2,6.571a7.783,7.783,0,0,0-2.855-1.683A42.016,42.016,0,0,0,1022.146,336.439ZM886.977,389.274a50.01,50.01,0,0,0,1.63,8.424c-.107-.033-.216-.066-.323-.1a46.2,46.2,0,0,1-5.6-9.634C884.107,388.427,885.533,388.877,886.977,389.274Zm3.6,9.05a67.981,67.981,0,0,1-1.782-8.59c1.024.262,2.041.544,3.076.773a35.546,35.546,0,0,0,1.2,8.521C892.236,398.8,891.4,398.573,890.574,398.323Zm4.487,1.213a32.654,32.654,0,0,1-1.4-8.681c1.335.272,2.669.547,4.014.765.13,2.921.572,5.809.892,8.714C897.392,400.088,896.225,399.821,895.06,399.536Zm5.333,1.157c-.313-2.944-.773-5.87-.923-8.826,1.322.191,2.639.392,3.968.536a48.718,48.718,0,0,0,.877,8.951Q902.345,401.06,900.394,400.693Zm5.778.928v-.005a44.489,44.489,0,0,1-.948-9.065c1.19.112,2.379.229,3.574.3.473,3.033.023,6.162.768,9.154C908.429,401.892,907.3,401.768,906.172,401.62Zm5.247.557a.58.58,0,0,0-.01-.114c-.885-2.949-.437-6.093-.8-9.131,1.2.056,2.4.1,3.607.122.185,1.513.163,3.043.236,4.565.081,1.614.45,3.19.6,4.8Q913.229,402.325,911.419,402.177Zm5.427.318c-.132-1.634-.468-3.239-.613-4.876-.137-1.523-.107-3.035-.249-4.548,1.263,0,2.524-.018,3.79-.053a47.215,47.215,0,0,0,1.347,9.545C919.693,402.566,918.27,402.546,916.846,402.495Zm6.142.066a42.888,42.888,0,0,1-1.434-9.589q2.475-.1,4.949-.3c.541,3.226.636,6.505,1.268,9.713C926.175,402.472,924.581,402.536,922.988,402.561Zm6.586-.262c-.681-3.226-.778-6.533-1.3-9.787,1.525-.14,3.048-.287,4.565-.478a48.81,48.81,0,0,1,1.327,9.6.881.881,0,0,0,.061.254C932.683,402.045,931.13,402.192,929.574,402.3Zm5.039-10.519q2.768-.381,5.514-.867a51.218,51.218,0,0,1,.064,10.222c-1.411.211-2.829.389-4.245.557a.52.52,0,0,0,.008-.061A51.284,51.284,0,0,0,934.613,391.78Zm7.247-1.195q2.665-.507,5.305-1.111a32.447,32.447,0,0,1,.32,10.341q-2.734.56-5.5,1.017A52.665,52.665,0,0,0,941.86,390.585Zm7.042-1.513q2.757-.663,5.478-1.431a17.094,17.094,0,0,1,.879,10.3c0,.015,0,.025,0,.041q-2.955.789-5.958,1.444A33.268,33.268,0,0,0,948.9,389.073Zm7.2-1.9c1.327-.389,2.631-.814,3.94-1.238a89.1,89.1,0,0,1,2.1,10.026q-2.471.8-4.988,1.51A19.1,19.1,0,0,0,956.1,387.169Zm7.746,8.206a87.175,87.175,0,0,0-2.1-9.98c1.3-.437,2.57-.907,3.846-1.378,1.136,3.183,2.634,6.307,2.885,9.7Q966.185,394.587,963.846,395.375Zm6.335-2.318c-.391-3.366-1.807-6.457-2.921-9.64,1.083-.412,2.146-.857,3.213-1.289,1.424,3.033,2.8,6.322,2.8,9.685-.491.206-.981.412-1.462.61C971.277,392.644,970.722,392.84,970.181,393.056Zm4.838-1.983a26.657,26.657,0,0,0-2.9-9.612c.224-.094.455-.178.679-.275,1.617-.689,3.259-1.421,4.911-2.189a30.044,30.044,0,0,1,3.427,9.322C979.05,389.3,977,390.222,975.019,391.073Zm7.774-3.546a31.366,31.366,0,0,0-3.465-9.286q2.124-1.014,4.255-2.115c2.021,2.59,2.957,5.989,3.6,9.192Q984.976,386.474,982.792,387.527Zm6.025-3.076a23.508,23.508,0,0,0-3.635-9.169q1.884-1,3.75-2.074a15.521,15.521,0,0,1,4.177,8.813l.005.013Q990.974,383.288,988.817,384.451Zm5.938-3.4A17.521,17.521,0,0,0,990.5,372.3q1.987-1.182,3.93-2.438c2.11,2.346,4.311,4.993,5.209,8.041Q997.239,379.537,994.755,381.053Zm6.421-4.22c-1.017-2.987-3.15-5.623-5.247-7.972.991-.669,1.973-1.345,2.936-2.044a16.7,16.7,0,0,1,5.709,7.469C1003.464,375.155,1002.333,376.009,1001.177,376.833Zm4.853-3.722a18.724,18.724,0,0,0-5.687-7.392q.991-.751,1.957-1.523c2.191,1.762,5.143,4.169,6.037,6.935Q1007.209,372.141,1006.029,373.111Zm7.2-6.848c-1.238-2.583-3.8-4.665-6.01-6.342q1.35-1.274,2.623-2.606a20.6,20.6,0,0,1,5.326,6.675C1014.553,364.763,1013.9,365.518,1013.233,366.263Zm3.134-3.833a23.668,23.668,0,0,0-5.316-6.424c.936-1.04,1.833-2.1,2.685-3.193,2.1,1.612,4.151,3.793,4.8,6.391Q1017.535,360.855,1016.368,362.429Zm3.323-5.226a15.765,15.765,0,0,0-4.881-5.8q1.312-1.8,2.45-3.683a13.149,13.149,0,0,1,3.989,6.243C1020.786,355.07,1020.26,356.143,1019.69,357.2Zm2.506-5.768a14.168,14.168,0,0,0-4.042-5.262c.58-1.05,1.134-2.11,1.632-3.2a6.418,6.418,0,0,1,3.706,3.043A33.04,33.04,0,0,1,1022.2,351.435ZM909.878,271.22c7.639-5.847,17.441-9.845,27.126-7.771,15.5,3.317,17.225,19.627,16.546,32.805a2.243,2.243,0,0,0,3.353,1.924c17.822-11.94,45.645-13.384,55.343,8.511q.568,1.445,1.141,2.908c7.644,22.627-15.939,42.806-32.955,52.753-20.5,11.978-45.124,15.593-68.516,15.184-9.1-.16-18.692-.714-27.414-3.45-8.518-2.672-9.906-10.321-9.947-18.247C875.176,325.216,884.437,290.705,909.878,271.22Zm67.853,129.257c-21.613,9.027-48.983,12.38-72.06,7.883a27.771,27.771,0,0,1-13.809-6.866c27.444,7.58,58.325,2.995,84.122-7.936,10.9-4.621,23.969-11.427,34.092-20.54a.647.647,0,0,0,.117-.1c5.765-5.214,10.552-11.183,13.435-17.927C1020.417,376.795,996.476,392.65,977.731,400.477Z" transform="translate(-870.1 -258.387)" fill="#9059b3"/>
  <path id="Path_3950" data-name="Path 3950" d="M875.246,322.412c4.571-8.407,7.237-17.784,11.861-26.234a87.418,87.418,0,0,1,12.965-18.066c9.474-10.039,23.593-17.566,37.152-10.585a.343.343,0,0,0,.414-.536c-10.6-11.437-27.8-1.889-37.04,6.63a79.894,79.894,0,0,0-14.655,19.015c-5.036,8.735-10.272,19.5-11.216,29.635C874.7,322.549,875.119,322.643,875.246,322.412Z" transform="translate(-862.966 -253.228)" fill="#9059b3"/>
  <path id="Path_3951" data-name="Path 3951" d="M874.237,292.5c.907.226,1.019-1.05,1.124-1.637.254-1.418.963-2.743,1.017-4.192a.415.415,0,0,0-.7-.292c-1.235,1.266-2.333,3.884-1.917,5.643A.677.677,0,0,0,874.237,292.5Z" transform="translate(-864.595 -215.4)" fill="#9059b3"/>
  <path id="Path_3952" data-name="Path 3952" d="M899.456,333.685c15.484-2.178,29.358-9.525,41.708-18.9,10.051-7.626,21.549-18.5,23.733-31.557.028-.165-.208-.3-.292-.122-11.986,25.355-39.12,42.315-65.3,50.01C898.93,333.23,899.1,333.736,899.456,333.685Z" transform="translate(-825.393 -220.389)" fill="#9059b3"/>
  <path id="Path_3953" data-name="Path 3953" d="M925.615,286.027a.2.2,0,0,0,.244.033c1.02-.661.857-1.922.771-2.982-.082-1.022-.173-2.641-1.167-3.221a.16.16,0,0,0-.219.056c-.587.852-.269,2.206-.216,3.165C925.089,284.116,924.878,285.189,925.615,286.027Z" transform="translate(-785.603 -225.311)" fill="#9059b3"/>
</svg>
