<svg id="Group_1465" data-name="Group 1465" xmlns="http://www.w3.org/2000/svg" width="162.614" height="168.021" viewBox="0 0 162.614 168.021">
  <path id="Path_3748" data-name="Path 3748" d="M1137.016,366.5c-11.247-3.995-23.262-5.046-35.1-4.095a6.369,6.369,0,0,0-.225-3.67c-1.679-4.541-4.955-5.812-8.507-5.342a45.922,45.922,0,0,1-.459-16.565c.682-4.135,3.087-7.757,3.744-11.865,1.216-7.6-3.534-12.211-11.05-10.8-2.868.537-4.516,2.552-7.895.485-1.3-.795-2.208-2.532-3.763-2.946-2.575-.688-4.8-.385-6.732,1.675-2.782,2.964-4.218,6.645-6.365,10.039-2.777,4.389-9.093,1.559-12.736,4.773-3.813,3.367-1.113,9.6-8.9,9.24-2.663-.124-5.534-.417-7.906,1.078-3.744,2.361-3.7,6.489-2.252,10.247,2.283,5.951,8.47,10.767,13.915,13.6a45.653,45.653,0,0,0,11.9,4.392c6,1.221,13.264.436,18.77,3.414a7.787,7.787,0,0,0-.212,3.294,1.356,1.356,0,0,0,.194.944,1.4,1.4,0,0,0,.468.71c1.926,2.864,4.282,3.786,6.8,3.6-5.668,14-5.283,30.136-.871,44.974a1.556,1.556,0,0,0,.227.739,84.408,84.408,0,0,0,12.093,24.479c8.078,11.171,16.547,26.668,31.3,29.813,14.213,3.029,27.113-4.57,37.835-13.151,9.837-7.873,21.923-18.026,27.4-29.63,4.392-9.3.379-19.353-4.592-27.49C1172.548,389.532,1158.138,374,1137.016,366.5Zm6.062,5.539a1.607,1.607,0,0,0,.032.234,8.182,8.182,0,0,1,.247,4.155,2.415,2.415,0,0,1-2.677,1.677c-1.267-.307-1.63-1.652-1.775-2.733a1.612,1.612,0,0,0-1.011-1.249l-.065-.027a1.591,1.591,0,0,0-1.563.252c-1.541,1.252-4.205,1.39-4.055-1.28.094-1.661,2.427-2.978,3.685-3.75A73.21,73.21,0,0,1,1143.078,372.041Zm-44.645-12.95c3.61,6.347-17.819,21.366-22.077,14.035-1.269-4.065,6.236-9.852,8.725-12.084C1088.567,357.913,1095.147,353.312,1098.432,359.091Zm-44.837,4.135a37.242,37.242,0,0,1-19.07-11.407c-4.913-5.654-4.694-11.768,4.171-11.228,5.431.33,8.63-1.361,10.166-6.712,1.532-5.332,5.922-4.193,9.9-5.111.112-.025.214-.071.323-.1a26.316,26.316,0,0,1-5.519,7.93.1.1,0,0,0,.076.176c3.594-.3,5.6-3.124,7.168-6.069,1.143-2.143,2.205-4.385,3.2-6.654,1.59-2.561,2.78-5.311,4.6-7.748,3.45-4.626,7.22,2.272,10.543,2.5a12.633,12.633,0,0,0,5.634-1.131c5.127-1.875,9.529,3.133,8.193,8.128-.543,2.036-1.492,4-2.212,5.975-2.6,7.129-2.151,15.121-.67,22.421a21.293,21.293,0,0,0-3.844,1.931c-.113.071-.24.158-.358.234a71.836,71.836,0,0,1-6.391-31.733.169.169,0,0,0-.325-.078c-2.138,4.866-1.7,10.63-.973,15.756a61.176,61.176,0,0,0,5.563,17.529c-.428.314-.866.65-1.31,1a92.978,92.978,0,0,1-14.1-23.675c-.047-.122-.218-.058-.209.06.7,8.97,7.1,17.977,12.707,24.936-.706.612-1.4,1.258-2.078,1.935a93.665,93.665,0,0,0-17.665-10.188c-3.443-1.5-7.016-2.744-10.552-4-2.408-.857-5.149-2.171-7.752-1.913-.127.013-.105.183,0,.207,2.85.6,5.708,2.06,8.385,3.191,3.122,1.32,6.255,2.648,9.319,4.1a103.172,103.172,0,0,1,16.79,10.167,22.131,22.131,0,0,0-2.6,3.59C1068.3,364.015,1060.462,364.917,1053.6,363.226Zm27.04,48.79a16.42,16.42,0,0,1,5.267,2.87,21.811,21.811,0,0,1-3.4,5.721q-.3-1.081-.579-2.182C1081.4,416.31,1080.976,414.17,1080.635,412.016Zm22.3,38.819.062.033a1.6,1.6,0,0,0,1.565-.25c2.8-1.891,5.027.953,3.113,3.389-1.278,1.624-3.82,2.461-5.817,3q-1.171-1.571-2.289-3.162c-.637-.9-1.26-1.8-1.876-2.7-.156-1.448-.254-3.164.878-4.243,1.948-1.86,3.307,1.2,3.354,2.686A1.609,1.609,0,0,0,1102.93,450.835Zm81.972-34.149c6.187,13.34-1.271,23.043-10.5,32.368-9.873,9.971-20.419,20.134-33.724,25.263-16.006,6.169-27.617-3.1-36.772-14.636,3.431-1.131,6.83-3,7.7-6.725a5.357,5.357,0,0,0-2.475-5.479,5.258,5.258,0,0,0-4.441-.381c-.9-2.577-3.318-4.4-6.271-3.606a4.92,4.92,0,0,0-3.51,3.488,97.858,97.858,0,0,1-11.349-22.894c2.645-2.363,4.456-5.837,5.728-9.06a1.551,1.551,0,0,0-.252-1.565,19.96,19.96,0,0,0-8.864-4.857c-1.162-10.5,0-21.2,4.423-30.9.563-.232,1.126-.5,1.686-.788-1.819,5.523-3.254,12.1-1.456,17.315.08.227.408.145.437-.069.4-2.918.365-5.841.9-8.763a60.144,60.144,0,0,1,2.806-10c.45-.278.9-.559,1.334-.84l.091-.06a31.613,31.613,0,0,0,3.238,12.244c.053.1.238.1.238-.038.033-4.588-.824-9.184-1.138-13.774,1.042-.728,2.156-1.559,3.251-2.476a42.9,42.9,0,0,1,11.951,1.791c2.906.759,5.924,2.209,8.913,2.445a.15.15,0,0,0,.133-.241c-2.29-2.488-6.1-3.67-9.231-4.674a38.185,38.185,0,0,0-9.156-1.762,18.021,18.021,0,0,0,1.837-2.309,90.1,90.1,0,0,1,31.6,2.481c-2.165,1.8-3.546,4.122-2.628,7.186.944,3.147,4.327,3.523,6.969,2.519,1.087,2.359,3.409,4.256,6.158,3.238,3.436-1.272,4.4-4.218,4.067-7.4a56.814,56.814,0,0,1,15.146,11.117C1170.575,394.053,1179.5,405.046,1184.9,416.686Z" transform="translate(-1027.962 -311.368)" fill="#9059b3"/>
  <path id="Path_3749" data-name="Path 3749" d="M1119.989,413.257a1.651,1.651,0,0,0,1.655-1.018c5.828-14.117,8.084-35.866.133-49.477-3.762-6.441-12.434-10.761-19.863-8.536a16.679,16.679,0,0,0-9.491,7.627,19.781,19.781,0,0,0-2.256,6.265,34.982,34.982,0,0,0,.111,6.269c-8.736-2.864-19.05-.537-22.9,8.7-3.342,8.024,1.475,16.143,7.961,20.607C1087.493,412.061,1105.621,413.428,1119.989,413.257Zm-50.146-22.114c-2.666-12.816,11.963-17.173,21.47-12.963a1.348,1.348,0,0,0,1.583-.267l.2-.165a1.575,1.575,0,0,0,.572-1.476c-2.381-11.391,5.129-21.981,17.3-18.462,8.127,2.35,10.882,11.443,11.886,18.863,1.049,7.745.189,15.79-1.193,23.439a67.371,67.371,0,0,1-2.307,9.189,1.086,1.086,0,0,0-.025.824,6.675,6.675,0,0,0-.67-.038c-11.681-.127-23.8-1.463-34.779-5.61C1077.661,402.126,1071.287,398.08,1069.842,391.143Z" transform="translate(-996.725 -276.922)" fill="#9059b3"/>
  <path id="Path_3750" data-name="Path 3750" d="M1108.406,368.824a5.462,5.462,0,0,0-1.922,5.721,5.514,5.514,0,0,0-4.16,4.416c-.516,2.472,1.648,4.7,3.723,5.512,3.855,1.508,9.049-.018,12.752-1.4a1.556,1.556,0,0,0,.945-1.292c.142-4.394-1.3-9.981-4.851-12.816A5.68,5.68,0,0,0,1108.406,368.824Zm6.43,5.093a16.709,16.709,0,0,1,1.735,6.561,30.823,30.823,0,0,1-4.655,1.118,10.64,10.64,0,0,1-4.743-.1c-2.859-.862-1.5-4.08,1.258-4.046a1.3,1.3,0,0,0,1.513-.657l.036-.06a1.6,1.6,0,0,0,.165-1.563c-1.086-1.893-.815-4.238,1.813-4.076C1113.355,371.18,1114.286,372.846,1114.836,373.917Z" transform="translate(-967.421 -265.318)" fill="#9059b3"/>
  <path id="Path_3751" data-name="Path 3751" d="M1079.873,368.378c2.109-3.305,4.407-7.687,4.075-11.718a5.45,5.45,0,0,0-4.082-5.125c-2.644-.59-4.679.931-5.762,3.065-4.087-1.708-9.275,1.49-7.385,6.538,1.637,4.38,7.349,7.111,11.694,7.9A1.559,1.559,0,0,0,1079.873,368.378Zm-10.244-8.6c-.748-3.038,2.764-2.917,4.327-1.516a1.594,1.594,0,0,0,1.563.165l.067-.024a1.3,1.3,0,0,0,.958-1.343c.474-2.341,3.446-3.547,4.147-.826a8.513,8.513,0,0,1-.641,4.6,25.639,25.639,0,0,1-2.227,4.792,18.841,18.841,0,0,1-5.6-2.684A5.88,5.88,0,0,1,1069.629,359.78Z" transform="translate(-996.703 -278.738)" fill="#9059b3"/>
  <path id="Path_3752" data-name="Path 3752" d="M1080.066,348.955c.41.114.856.178,1.258.307a.17.17,0,0,0,.227-.183,2.445,2.445,0,0,0-1.1-1.94,4.535,4.535,0,0,0-2.481-.719.33.33,0,0,0-.332.456,4.085,4.085,0,0,0,1.343,1.434A4.273,4.273,0,0,0,1080.066,348.955Z" transform="translate(-987.501 -282.803)" fill="#9059b3"/>
  <path id="Path_3753" data-name="Path 3753" d="M1142.46,381.471c-9.463,8.011-18.409,16.741-28.816,23.5-.112-2.271-1.14-4.467-3.54-5.269a5.3,5.3,0,0,0-6.292,2.376c-2.4-1.4-5.376-1.252-7.195,1.374-2.15,3.1.071,6.374,2.486,8.654a19.1,19.1,0,0,1-9.89-.005,42.7,42.7,0,0,1-15.868-8.255.13.13,0,0,0-.194.158c2.655,5.456,8.848,8.46,14.356,10.229,6.636,2.134,11.938.94,18.143-1.88,14.4-6.539,27.513-18.139,37.126-30.584A.22.22,0,0,0,1142.46,381.471Zm-39.846,29.475c-.029-.027-.052-.056-.085-.083a10.541,10.541,0,0,1-3.376-3.782c-1.341-2.92,2.5-3.18,3.966-1.548a1.6,1.6,0,0,0,1.478.574l.067-.018a1.6,1.6,0,0,0,1.249-1.009c.452-1.539,1.586-3.214,3.425-2.192,1.555.866,1.256,2.744.935,4.165l0,.013c-.722.425-1.45.842-2.189,1.245A51.59,51.59,0,0,1,1102.614,410.946Z" transform="translate(-991.143 -254.276)" fill="#9059b3"/>
  <path id="Path_3754" data-name="Path 3754" d="M1114.576,377.732c-.53,1.011-1.209,1.929-1.728,2.951-.325.643-.913,1.434-.65,2.189a.067.067,0,0,0,.056.04c.886.071,1.445-.915,1.843-1.559a6.252,6.252,0,0,0,.777-3.55A.155.155,0,0,0,1114.576,377.732Z" transform="translate(-959.363 -257.361)" fill="#9059b3"/>
  <path id="Path_3755" data-name="Path 3755" d="M1103.857,361.654c.138.387.259.779.412,1.16.164.4.251,1.013.635,1.263a.453.453,0,0,0,.7-.316c.1-.421-.252-.969-.412-1.35a2.465,2.465,0,0,0-.833-1.165A.34.34,0,0,0,1103.857,361.654Z" transform="translate(-966.126 -270.768)" fill="#9059b3"/>
  <path id="Path_3756" data-name="Path 3756" d="M1104.49,361.214a4.523,4.523,0,0,0,.882,1.318c.272.261.881.132.764-.339a1.7,1.7,0,0,0-1.392-1.325A.251.251,0,0,0,1104.49,361.214Z" transform="translate(-965.611 -271.028)" fill="#9059b3"/>
  <path id="Path_3757" data-name="Path 3757" d="M1065.559,362.678a6.982,6.982,0,0,0-2.5-.9.225.225,0,0,0-.2.363,5.206,5.206,0,0,0,2.287,1.3C1065.6,363.54,1065.994,362.979,1065.559,362.678Z" transform="translate(-999.557 -270.29)" fill="#9059b3"/>
  <path id="Path_3758" data-name="Path 3758" d="M1064.88,361.179a4.769,4.769,0,0,0-1.644-.28.28.28,0,0,0-.213.387c.278.564,1.071.69,1.637.817C1065.188,362.223,1065.4,361.323,1064.88,361.179Z" transform="translate(-999.407 -271.01)" fill="#9059b3"/>
  <path id="Path_3759" data-name="Path 3759" d="M1065.18,379.118a.49.49,0,0,0-.125-.031.515.515,0,0,0-.523.323,3.278,3.278,0,0,0-.051,2.074.114.114,0,0,0,.176.044,2.5,2.5,0,0,0,.846-1.888A.51.51,0,0,0,1065.18,379.118Z" transform="translate(-998.317 -256.179)" fill="#9059b3"/>
  <path id="Path_3760" data-name="Path 3760" d="M1065.884,379.556c-.781.23-.933,1.272-.729,1.94a.165.165,0,0,0,.283.031c.37-.534.956-1.211.635-1.9A.146.146,0,0,0,1065.884,379.556Z" transform="translate(-997.716 -255.804)" fill="#9059b3"/>
  <path id="Path_3761" data-name="Path 3761" d="M1082.243,352.005c-.584-.243-1.138-.546-1.717-.8a.256.256,0,0,0-.287.4,4.273,4.273,0,0,0,1.721,1.145A.4.4,0,0,0,1082.243,352.005Z" transform="translate(-985.402 -278.915)" fill="#9059b3"/>
  <path id="Path_3762" data-name="Path 3762" d="M1082.23,351.591a.189.189,0,0,0,.155-.163c.185-.873-1-1.065-1.553-.7a.28.28,0,0,0,.147.492C1081.45,351.253,1081.753,351.632,1082.23,351.591Z" transform="translate(-984.959 -279.435)" fill="#9059b3"/>
  <path id="Path_3763" data-name="Path 3763" d="M1080.5,392.075a6.151,6.151,0,0,0,.207,1.26,4.277,4.277,0,0,0,.287,1.152.09.09,0,0,0,.118.047c.913-.4.621-2.036.178-2.692A.448.448,0,0,0,1080.5,392.075Z" transform="translate(-985.143 -245.919)" fill="#9059b3"/>
  <path id="Path_3764" data-name="Path 3764" d="M1082.21,393.813a1.9,1.9,0,0,0,.023-1.742.169.169,0,0,0-.254-.062c-.632.4-.546,1.1-.372,1.741A.316.316,0,0,0,1082.21,393.813Z" transform="translate(-984.344 -245.675)" fill="#9059b3"/>
  <path id="Path_3765" data-name="Path 3765" d="M1102.316,381.541a.273.273,0,0,0-.14.352,2.245,2.245,0,0,0,.717.664c.3.223.51.621.862.759a.445.445,0,0,0,.588-.477C1104.318,382.194,1102.924,381.193,1102.316,381.541Z" transform="translate(-967.498 -254.237)" fill="#9059b3"/>
  <path id="Path_3766" data-name="Path 3766" d="M1104.209,381.928a.357.357,0,0,0,.053-.5,2.1,2.1,0,0,0-1.552-.535.168.168,0,0,0-.185.151A1.121,1.121,0,0,0,1104.209,381.928Z" transform="translate(-967.194 -254.705)" fill="#9059b3"/>
  <path id="Path_3767" data-name="Path 3767" d="M1095.71,352.519a2.342,2.342,0,0,0,1.089-1.708c.013-.437-.57-.74-.846-.321a6.167,6.167,0,0,0-.523,1.828A.18.18,0,0,0,1095.71,352.519Z" transform="translate(-972.982 -279.648)" fill="#9059b3"/>
  <path id="Path_3768" data-name="Path 3768" d="M1096.894,350.829a2,2,0,0,0-.757,1.521.2.2,0,0,0,.276.2,2.053,2.053,0,0,0,1.176-1.347C1097.683,350.807,1097.163,350.642,1096.894,350.829Z" transform="translate(-972.4 -279.272)" fill="#9059b3"/>
  <path id="Path_3769" data-name="Path 3769" d="M1102.094,368.291a.254.254,0,0,0-.045.43,3.07,3.07,0,0,0,1.107.644.582.582,0,0,0,.412-1.089A1.749,1.749,0,0,0,1102.094,368.291Z" transform="translate(-967.662 -265.116)" fill="#9059b3"/>
  <path id="Path_3770" data-name="Path 3770" d="M1064.536,371.522a.441.441,0,0,0,.126-.51.521.521,0,0,0-.062-.1.423.423,0,0,0-.4-.156,3.17,3.17,0,0,0-1.158.457.237.237,0,0,0,.011.434A1.567,1.567,0,0,0,1064.536,371.522Z" transform="translate(-999.483 -262.97)" fill="#9059b3"/>
  <path id="Path_3771" data-name="Path 3771" d="M1060.033,361.754a4.286,4.286,0,0,0-1.263-1.162.321.321,0,0,0-.428.347,4.286,4.286,0,0,0,.873,1.477A.527.527,0,0,0,1060.033,361.754Z" transform="translate(-1003.209 -271.273)" fill="#9059b3"/>
  <path id="Path_3772" data-name="Path 3772" d="M1069.751,349.93a2.281,2.281,0,0,0-1.882-.726.142.142,0,0,0-.107.194,3.223,3.223,0,0,0,1.455,1.276A.458.458,0,0,0,1069.751,349.93Z" transform="translate(-995.535 -280.565)" fill="#9059b3"/>
  <path id="Path_3773" data-name="Path 3773" d="M1069.54,348.993a.163.163,0,0,0-.054-.185.764.764,0,0,0-.561-.216c-.26.005-.477-.082-.729-.1a.206.206,0,0,0-.223.232C1068,349.5,1069.293,349.8,1069.54,348.993Z" transform="translate(-995.354 -281.114)" fill="#9059b3"/>
  <path id="Path_3774" data-name="Path 3774" d="M1076.967,362.375a1.836,1.836,0,0,0,1.149-1.6.5.5,0,0,0-.991-.105,4.162,4.162,0,0,1-.456,1.419C1076.582,362.284,1076.8,362.428,1076.967,362.375Z" transform="translate(-988.282 -271.539)" fill="#9059b3"/>
  <path id="Path_3775" data-name="Path 3775" d="M1076.84,360.011a.11.11,0,0,0-.174,0,2.709,2.709,0,0,0-.385,1.619.086.086,0,0,0,.118.065A1.121,1.121,0,0,0,1076.84,360.011Z" transform="translate(-988.593 -271.759)" fill="#9059b3"/>
  <path id="Path_3776" data-name="Path 3776" d="M1098.939,387.824a2.393,2.393,0,0,0,.83,1.633.427.427,0,0,0,.662-.4,1.972,1.972,0,0,0-1.245-1.428A.187.187,0,0,0,1098.939,387.824Z" transform="translate(-970.116 -249.229)" fill="#9059b3"/>
  <path id="Path_3777" data-name="Path 3777" d="M1099.365,387.259c-.253.532.913,1.093,1.22,1.289.553.356,1.152-.465.6-.835C1100.908,387.528,1099.637,386.688,1099.365,387.259Z" transform="translate(-969.798 -249.679)" fill="#9059b3"/>
  <path id="Path_3778" data-name="Path 3778" d="M1041.161,337.311c-.136.151-.016.363.133.437a1.309,1.309,0,0,0,1.207-.064.449.449,0,0,0-.247-.851A1.639,1.639,0,0,0,1041.161,337.311Z" transform="translate(-1017.253 -290.618)" fill="#9059b3"/>
  <path id="Path_3779" data-name="Path 3779" d="M1041.517,335.962a1.026,1.026,0,0,0-.648,1.334.148.148,0,0,0,.191.074,2.446,2.446,0,0,0,.991-.75C1042.339,336.271,1041.9,335.806,1041.517,335.962Z" transform="translate(-1017.511 -291.35)" fill="#9059b3"/>
  <path id="Path_3780" data-name="Path 3780" d="M1052.652,319.592c.691-.232.781-1.662.67-2.26a.159.159,0,0,0-.256-.1,2.846,2.846,0,0,0-.641.944c-.156.307-.426.757-.332,1.105A.413.413,0,0,0,1052.652,319.592Z" transform="translate(-1008.311 -306.618)" fill="#9059b3"/>
  <path id="Path_3781" data-name="Path 3781" d="M1052.818,317.349c.365-.675-.69-1.125-.873-.468a5.2,5.2,0,0,0-.19.969.166.166,0,0,0,.189.18A1.135,1.135,0,0,0,1052.818,317.349Z" transform="translate(-1008.572 -307.137)" fill="#9059b3"/>
  <path id="Path_3782" data-name="Path 3782" d="M1059.684,323.034a2.05,2.05,0,0,0,1.086,1.543.384.384,0,0,0,.513-.416c-.116-.528-.864-1.41-1.483-1.249A.141.141,0,0,0,1059.684,323.034Z" transform="translate(-1002.109 -301.976)" fill="#9059b3"/>
  <path id="Path_3783" data-name="Path 3783" d="M1060.944,322.464a.821.821,0,0,0-.949,0,.158.158,0,0,0-.047.187,1.646,1.646,0,0,0,.584.581A.439.439,0,1,0,1060.944,322.464Z" transform="translate(-1001.905 -302.448)" fill="#9059b3"/>
  <path id="Path_3784" data-name="Path 3784" d="M1046.064,329.325a.585.585,0,0,0-1.156.176,3.167,3.167,0,0,0,.735,1.751.075.075,0,0,0,.105-.018A2.867,2.867,0,0,0,1046.064,329.325Z" transform="translate(-1014.16 -297.124)" fill="#9059b3"/>
  <path id="Path_3785" data-name="Path 3785" d="M1045.961,330.616a.143.143,0,0,0,.214.053c.485-.307.779-1.145.192-1.5a.365.365,0,0,0-.427.013C1045.448,329.554,1045.709,330.175,1045.961,330.616Z" transform="translate(-1013.536 -296.912)" fill="#9059b3"/>
  <path id="Path_3786" data-name="Path 3786" d="M1033.628,331.458a2.258,2.258,0,0,0-.425,1.617.107.107,0,0,0,.145.107c.584-.192,1.28-.924.94-1.563A.434.434,0,0,0,1033.628,331.458Z" transform="translate(-1023.69 -295.076)" fill="#9059b3"/>
  <path id="Path_3787" data-name="Path 3787" d="M1050.674,338.91a.545.545,0,0,0-.535-.056,1.693,1.693,0,0,0-.929.88.273.273,0,0,0,.157.352,1.417,1.417,0,0,0,1.332-.31.537.537,0,0,0,.2-.5A.494.494,0,0,0,1050.674,338.91Z" transform="translate(-1010.659 -289.006)" fill="#9059b3"/>
  <path id="Path_3788" data-name="Path 3788" d="M1050.445,332.26l.056-.047a.513.513,0,0,0,.187-.485,1.07,1.07,0,0,0-.437-.681.323.323,0,0,0-.484.147.871.871,0,0,0,.15,1.082A.434.434,0,0,0,1050.445,332.26Z" transform="translate(-1010.287 -295.378)" fill="#9059b3"/>
  <path id="Path_3789" data-name="Path 3789" d="M1051.05,321.358a1.943,1.943,0,0,0-1.536-.06.071.071,0,0,0-.027.107,3.087,3.087,0,0,0,1.225.844C1051.251,322.519,1051.625,321.594,1051.05,321.358Z" transform="translate(-1010.43 -303.387)" fill="#9059b3"/>
  <path id="Path_3790" data-name="Path 3790" d="M1060.655,330.118c-.732.29-.672,1.047-.557,1.69a.087.087,0,0,0,.118.065c.584-.341,1.388-1.113.6-1.737A.167.167,0,0,0,1060.655,330.118Z" transform="translate(-1001.827 -296.098)" fill="#9059b3"/>
  <path id="Path_3791" data-name="Path 3791" d="M1061.774,317.761a2.546,2.546,0,0,0,.787.007.434.434,0,0,0,.185-.773,1.331,1.331,0,0,0-1.844.646.084.084,0,0,0,.071.112A5.347,5.347,0,0,0,1061.774,317.761Z" transform="translate(-1001.12 -306.928)" fill="#9059b3"/>
  <path id="Path_3792" data-name="Path 3792" d="M1083.058,370.475c1.508-4.365,3.447-9.534,8.035-11.453,4.492-1.878,8.888,2.82,10.722,6.3,4.378,8.313,3.557,19.048,3.868,28.163.011.292.457.258.493-.011a72.544,72.544,0,0,0,.655-18.246c-.592-5.151-2.216-11.462-6.175-15.108-3.3-3.042-7.554-4.253-11.583-1.853-3.734,2.225-6.449,7.935-6.246,12.181C1082.835,370.574,1083.02,370.583,1083.058,370.475Z" transform="translate(-983.255 -274.18)" fill="#9059b3"/>
  <path id="Path_3793" data-name="Path 3793" d="M1094.455,393.016a.175.175,0,0,0,.08-.336c-6.035-2.193-12.411-3.906-17.719-7.641a14.431,14.431,0,0,1-6.06-8.294c-.96-4.222,3.283-7.182,6.732-8.117.1-.027.111-.176,0-.187-3.124-.327-5.67,1.722-7.133,4.34-1.606,2.879-.708,6.552,1,9.171C1076.049,389.179,1086.141,393,1094.455,393.016Z" transform="translate(-994.1 -264.883)" fill="#9059b3"/>
</svg>
