<svg id="Group_1471" data-name="Group 1471" xmlns="http://www.w3.org/2000/svg" width="133.047" height="130.969" viewBox="0 0 133.047 130.969">
  <path id="Path_3949" data-name="Path 3949" d="M992.937,297.751c-.3-.764-.627-1.528-1.005-2.291-9.072-18.406-32.385-17.429-47.944-8.7.156-10.608-1.861-20.721-12.368-26.144-8.227-4.246-17.862-1.863-25.536,2.364-26.178,14.418-35.427,49.664-35.984,77.193a34.347,34.347,0,0,0,.838,8.148,1.853,1.853,0,0,0,.021.956c3.915,13.789,7.63,31.3,22.769,36.97,9.966,3.727,21.324,3.3,31.781,2.74a116.492,116.492,0,0,0,35.918-7.741c17.953-6.977,37.838-21.465,41.275-41.648C1005.021,325.975,997.733,309.869,992.937,297.751Zm-5.675,54.208c-1.011-2.281-3.159-4.2-5.037-5.729q.944-.787,1.852-1.607c1.849,1.4,4.222,3.211,5.039,5.5C988.516,350.752,987.9,351.362,987.262,351.959Zm-33.1,7.964c-22.916,9.492-50.919,12.857-74.63,4.5-.9-2.336-1.694-4.749-2.419-7.166,6.392,4.186,15.935,4.165,23.112,4.655,25.118,1.72,51.465-3.416,72.241-18.111,10.437-7.382,20.093-18.549,22.114-30.917.655,1.961,1.274,3.93,1.83,5.914C993.933,339.61,971.871,352.591,954.165,359.924ZM997.71,323.9c.408,1.831.732,3.672,1.005,5.515a6.533,6.533,0,0,0-2.4-1.412A35.255,35.255,0,0,0,997.71,323.9ZM884.264,368.238a41.99,41.99,0,0,0,1.368,7.071c-.09-.028-.181-.056-.271-.085a38.794,38.794,0,0,1-4.7-8.086C881.856,367.528,883.053,367.905,884.264,368.238Zm3.019,7.6a57.034,57.034,0,0,1-1.5-7.209c.86.22,1.713.457,2.582.649a29.823,29.823,0,0,0,1.011,7.152C888.679,376.237,887.979,376.042,887.283,375.833Zm3.766,1.018a27.4,27.4,0,0,1-1.173-7.286c1.12.228,2.24.459,3.369.642.109,2.451.48,4.875.749,7.314C893.005,377.314,892.026,377.09,891.049,376.851Zm4.476.971c-.262-2.471-.649-4.926-.775-7.408,1.109.16,2.215.329,3.331.45a40.884,40.884,0,0,0,.736,7.512Q897.163,378.13,895.525,377.822Zm4.849.779v0a37.346,37.346,0,0,1-.8-7.608c1,.094,2,.192,3,.252.4,2.545.019,5.172.644,7.683C902.269,378.829,901.322,378.724,900.374,378.6Zm4.4.467a.481.481,0,0,0-.009-.1c-.742-2.475-.367-5.114-.674-7.664,1.007.047,2.016.083,3.028.1.156,1.269.137,2.554.2,3.832.068,1.355.378,2.678.506,4.026Q906.3,379.191,904.778,379.068Zm4.555.267c-.111-1.372-.392-2.718-.514-4.092-.115-1.278-.089-2.547-.209-3.817,1.06,0,2.119-.015,3.181-.045a39.623,39.623,0,0,0,1.131,8.011C911.723,379.394,910.528,379.377,909.333,379.334Zm5.155.055a36,36,0,0,1-1.2-8.048q2.077-.086,4.154-.252c.455,2.707.534,5.46,1.065,8.152C917.163,379.315,915.825,379.369,914.488,379.39Zm5.528-.22c-.572-2.707-.653-5.483-1.088-8.214,1.28-.117,2.558-.241,3.832-.4a40.957,40.957,0,0,1,1.114,8.054.737.737,0,0,0,.051.213C922.625,378.957,921.321,379.081,920.016,379.17Zm4.229-8.828q2.323-.32,4.628-.728a42.992,42.992,0,0,1,.053,8.579c-1.184.177-2.375.326-3.563.467a.486.486,0,0,0,.006-.051A43.037,43.037,0,0,0,924.244,370.342Zm6.083-1q2.237-.426,4.453-.932a27.23,27.23,0,0,1,.269,8.679q-2.294.47-4.613.853A44.2,44.2,0,0,0,930.327,369.339Zm5.91-1.269q2.314-.557,4.6-1.2a14.346,14.346,0,0,1,.738,8.643c0,.013,0,.021,0,.034q-2.48.662-5,1.212A27.923,27.923,0,0,0,936.237,368.069Zm6.042-1.6c1.114-.326,2.208-.683,3.307-1.039a74.768,74.768,0,0,1,1.766,8.415q-2.074.672-4.186,1.267A16.026,16.026,0,0,0,942.279,366.471Zm6.5,6.887a73.144,73.144,0,0,0-1.766-8.376c1.088-.367,2.157-.762,3.228-1.156.953,2.671,2.21,5.293,2.421,8.141Q950.743,372.7,948.78,373.358Zm5.317-1.946c-.329-2.825-1.517-5.419-2.451-8.09.909-.346,1.8-.719,2.7-1.082,1.195,2.545,2.347,5.306,2.351,8.129-.412.173-.824.346-1.227.512C955.016,371.067,954.551,371.231,954.1,371.413Zm4.06-1.664a22.371,22.371,0,0,0-2.432-8.067c.188-.079.382-.149.57-.23,1.357-.578,2.735-1.193,4.122-1.837a25.21,25.21,0,0,1,2.876,7.824C961.54,368.264,959.823,369.034,958.156,369.749Zm6.524-2.976a26.327,26.327,0,0,0-2.908-7.794q1.783-.851,3.572-1.775a18.3,18.3,0,0,1,3.019,7.715Q966.513,365.888,964.681,366.772Zm5.056-2.582a19.733,19.733,0,0,0-3.051-7.7q1.581-.842,3.147-1.741a13.029,13.029,0,0,1,3.505,7.4l0,.011Q971.547,363.215,969.737,364.191Zm4.984-2.853a14.707,14.707,0,0,0-3.569-7.35q1.667-.992,3.3-2.046c1.771,1.969,3.618,4.19,4.372,6.748Q976.805,360.067,974.721,361.338Zm5.389-3.542a20.531,20.531,0,0,0-4.4-6.691c.832-.561,1.655-1.129,2.464-1.715a14.015,14.015,0,0,1,4.792,6.268C982.03,356.388,981.081,357.105,980.11,357.8Zm4.073-3.123a15.714,15.714,0,0,0-4.773-6.2q.832-.631,1.643-1.278c1.839,1.479,4.316,3.5,5.067,5.82Q985.173,353.859,984.183,354.673Zm6.046-5.748c-1.039-2.168-3.187-3.915-5.044-5.323q1.133-1.069,2.2-2.187a17.29,17.29,0,0,1,4.47,5.6C991.337,347.667,990.791,348.3,990.23,348.925Zm2.631-3.217a19.864,19.864,0,0,0-4.461-5.391c.785-.873,1.538-1.762,2.253-2.68A10.478,10.478,0,0,1,994.684,343Q993.839,344.386,992.86,345.708Zm2.789-4.387a13.234,13.234,0,0,0-4.1-4.864c.734-1,1.416-2.035,2.057-3.091a11.036,11.036,0,0,1,3.348,5.24C996.568,339.532,996.126,340.432,995.649,341.322Zm2.1-4.841a11.889,11.889,0,0,0-3.392-4.416c.486-.881.952-1.771,1.37-2.684a5.387,5.387,0,0,1,3.111,2.554A27.721,27.721,0,0,1,997.752,336.481Zm-94.267-67.323c6.411-4.907,14.638-8.263,22.767-6.522,13.01,2.784,14.457,16.473,13.887,27.533a1.882,1.882,0,0,0,2.814,1.615c14.958-10.021,38.309-11.233,46.449,7.143q.477,1.213.958,2.441c6.416,18.99-13.377,35.926-27.659,44.275-17.2,10.053-37.872,13.087-57.5,12.743-7.634-.134-15.688-.6-23.008-2.9-7.149-2.242-8.314-8.662-8.348-15.314C874.361,314.476,882.133,285.511,903.485,269.157ZM960.433,377.64c-18.139,7.576-41.11,10.39-60.479,6.616a23.307,23.307,0,0,1-11.589-5.763c23.033,6.362,48.951,2.513,70.6-6.661,9.151-3.879,20.117-9.59,28.612-17.239a.546.546,0,0,0,.1-.085,44.04,44.04,0,0,0,11.276-15.046C996.259,357.765,976.166,371.071,960.433,377.64Z" transform="translate(-870.1 -258.387)" fill="#9059b3"/>
  <path id="Path_3950" data-name="Path 3950" d="M875.163,312.659c3.836-7.056,6.074-14.926,9.955-22.018A73.372,73.372,0,0,1,896,275.479c7.952-8.425,19.8-14.743,31.181-8.884a.288.288,0,0,0,.348-.45c-8.9-9.6-23.33-1.585-31.087,5.564a67.053,67.053,0,0,0-12.3,15.959c-4.226,7.331-8.621,16.366-9.413,24.873C874.7,312.775,875.056,312.853,875.163,312.659Z" transform="translate(-864.856 -254.595)" fill="#9059b3"/>
  <path id="Path_3951" data-name="Path 3951" d="M874.146,291.5c.762.19.855-.881.943-1.374a25.752,25.752,0,0,0,.853-3.518.348.348,0,0,0-.589-.245,6.039,6.039,0,0,0-1.609,4.736A.569.569,0,0,0,874.146,291.5Z" transform="translate(-866.054 -226.789)" fill="#9059b3"/>
  <path id="Path_3952" data-name="Path 3952" d="M899.4,325.544c13-1.828,24.64-7.994,35-15.858,8.436-6.4,18.086-15.528,19.918-26.485.023-.139-.175-.252-.245-.1-10.06,21.28-32.833,35.514-54.808,41.973C898.956,325.162,899.095,325.587,899.4,325.544Z" transform="translate(-837.238 -230.456)" fill="#9059b3"/>
  <path id="Path_3953" data-name="Path 3953" d="M925.5,285.032a.168.168,0,0,0,.2.028c.856-.555.719-1.613.647-2.5-.069-.858-.145-2.217-.979-2.7a.134.134,0,0,0-.183.047c-.493.715-.226,1.852-.181,2.656C925.058,283.428,924.881,284.328,925.5,285.032Z" transform="translate(-807.99 -234.074)" fill="#9059b3"/>
</svg>
