<svg id="Group_1465" data-name="Group 1465" xmlns="http://www.w3.org/2000/svg" width="193.754" height="200.196" viewBox="0 0 193.754 200.196">
  <path id="Path_3748" data-name="Path 3748" d="M1157.9,377.059c-13.4-4.76-27.717-6.012-41.821-4.879a7.588,7.588,0,0,0-.268-4.373c-2-5.411-5.9-6.924-10.136-6.364a54.709,54.709,0,0,1-.547-19.737c.813-4.926,3.678-9.243,4.461-14.137,1.449-9.05-4.211-14.55-13.166-12.874-3.417.64-5.38,3.04-9.407.577-1.549-.947-2.63-3.017-4.483-3.51-3.069-.82-5.72-.458-8.021,2-3.315,3.531-5.026,7.917-7.584,11.961-3.309,5.229-10.834,1.858-15.174,5.688-4.543,4.011-1.326,11.435-10.6,11.009-3.173-.147-6.594-.5-9.42,1.285-4.461,2.813-4.4,7.731-2.683,12.21,2.72,7.091,10.093,12.828,16.58,16.2a54.4,54.4,0,0,0,14.176,5.233c7.147,1.455,15.8.519,22.365,4.068a9.28,9.28,0,0,0-.253,3.925,1.617,1.617,0,0,0,.231,1.124,1.668,1.668,0,0,0,.558.845c2.295,3.413,5.1,4.511,8.1,4.291-6.754,16.686-6.3,35.907-1.038,53.586a1.858,1.858,0,0,0,.27.88,100.571,100.571,0,0,0,14.409,29.166c9.625,13.31,19.716,31.774,37.3,35.522,16.935,3.609,32.3-5.445,45.08-15.67,11.721-9.381,26.121-21.478,32.65-35.3,5.233-11.085.452-23.059-5.471-32.754C1200.235,404.5,1183.066,385.993,1157.9,377.059Zm7.223,6.6a1.894,1.894,0,0,0,.039.279,9.748,9.748,0,0,1,.294,4.95,2.878,2.878,0,0,1-3.19,2c-1.509-.365-1.942-1.968-2.115-3.257a1.921,1.921,0,0,0-1.2-1.488l-.078-.033a1.9,1.9,0,0,0-1.862.3c-1.836,1.492-5.01,1.656-4.831-1.525.112-1.979,2.891-3.549,4.39-4.468A87.19,87.19,0,0,1,1165.122,383.659Zm-53.194-15.43c4.3,7.562-21.232,25.457-26.305,16.723-1.511-4.844,7.431-11.738,10.4-14.4C1100.172,366.826,1108.013,361.344,1111.927,368.229Zm-53.423,4.926a44.375,44.375,0,0,1-22.722-13.592c-5.854-6.736-5.592-14.022,4.97-13.378,6.47.394,10.283-1.622,12.113-8,1.825-6.354,7.056-5,11.8-6.09.134-.03.255-.084.385-.123a31.35,31.35,0,0,1-6.576,9.448.119.119,0,0,0,.091.21c4.282-.355,6.669-3.722,8.54-7.232,1.362-2.554,2.627-5.225,3.817-7.928,1.895-3.051,3.313-6.328,5.478-9.232,4.111-5.512,8.6,2.707,12.562,2.982,2.522.177,4.353-.484,6.713-1.347,6.109-2.234,11.353,3.733,9.762,9.684-.647,2.426-1.778,4.762-2.636,7.119-3.094,8.495-2.563,18.016-.8,26.714a25.378,25.378,0,0,0-4.58,2.3c-.134.084-.285.188-.426.279-5.562-11.944-7.8-24.66-7.614-37.81a.2.2,0,0,0-.387-.093c-2.548,5.8-2.026,12.666-1.159,18.773a72.893,72.893,0,0,0,6.628,20.886c-.51.374-1.031.774-1.561,1.192a110.781,110.781,0,0,1-16.8-28.208c-.056-.145-.26-.069-.249.071.832,10.687,8.46,21.42,15.14,29.711-.841.729-1.672,1.5-2.476,2.305a111.6,111.6,0,0,0-21.048-12.138c-4.1-1.786-8.36-3.27-12.573-4.771-2.87-1.021-6.135-2.586-9.236-2.279-.151.015-.125.218,0,.247,3.4.716,6.8,2.454,9.991,3.8,3.72,1.572,7.452,3.155,11.1,4.883a122.916,122.916,0,0,1,20.006,12.115,26.367,26.367,0,0,0-3.1,4.278C1076.021,374.1,1066.685,375.171,1058.5,373.156Zm32.218,58.133a19.572,19.572,0,0,1,6.276,3.419,25.994,25.994,0,0,1-4.05,6.816q-.36-1.288-.69-2.6C1091.634,436.406,1091.128,433.856,1090.721,431.289Zm26.565,46.253.074.039a1.9,1.9,0,0,0,1.864-.3c3.333-2.253,5.99,1.135,3.709,4.037-1.523,1.935-4.552,2.932-6.931,3.579q-1.395-1.872-2.727-3.767c-.759-1.077-1.5-2.15-2.236-3.222-.186-1.726-.3-3.769,1.047-5.056,2.321-2.217,3.94,1.434,4,3.2A1.917,1.917,0,0,0,1117.286,477.542Zm97.669-40.688c7.372,15.895-1.514,27.456-12.513,38.567-11.764,11.881-24.328,23.989-40.182,30.1-19.071,7.35-32.905-3.691-43.813-17.439,4.087-1.347,8.138-3.579,9.176-8.012a6.383,6.383,0,0,0-2.95-6.529,6.265,6.265,0,0,0-5.292-.454c-1.073-3.071-3.953-5.244-7.472-4.3a5.862,5.862,0,0,0-4.182,4.156,116.59,116.59,0,0,1-13.522-27.278c3.151-2.816,5.309-6.955,6.825-10.8a1.848,1.848,0,0,0-.3-1.864,23.782,23.782,0,0,0-10.562-5.787c-1.384-12.508,0-25.259,5.27-36.813.671-.277,1.341-.595,2.009-.939-2.167,6.581-3.877,14.413-1.734,20.631.1.27.486.173.521-.082.474-3.477.435-6.959,1.068-10.441a71.657,71.657,0,0,1,3.343-11.92c.536-.331,1.068-.666,1.589-1l.108-.071a37.668,37.668,0,0,0,3.858,14.589c.063.119.283.115.283-.045.039-5.467-.982-10.942-1.356-16.412,1.241-.867,2.569-1.858,3.873-2.95a51.113,51.113,0,0,1,14.24,2.134c3.462.9,7.059,2.632,10.62,2.913a.179.179,0,0,0,.158-.288c-2.729-2.965-7.271-4.373-11-5.569a45.5,45.5,0,0,0-10.91-2.1,21.491,21.491,0,0,0,2.188-2.751,107.359,107.359,0,0,1,37.654,2.956c-2.58,2.147-4.226,4.911-3.131,8.562,1.125,3.75,5.156,4.2,8.3,3,1.3,2.811,4.062,5.071,7.338,3.858,4.094-1.516,5.238-5.026,4.846-8.821a67.7,67.7,0,0,1,18.046,13.246C1197.884,409.886,1208.522,422.985,1214.955,436.853Z" transform="translate(-1027.962 -311.368)" fill="#9059b3"/>
  <path id="Path_3749" data-name="Path 3749" d="M1130.272,424.674a1.968,1.968,0,0,0,1.972-1.213c6.944-16.82,9.632-42.734.158-58.951-4.483-7.675-14.815-12.822-23.667-10.17a19.872,19.872,0,0,0-11.308,9.087,23.552,23.552,0,0,0-2.688,7.465,41.649,41.649,0,0,0,.132,7.469c-10.408-3.412-22.7-.64-27.283,10.367-3.981,9.561,1.758,19.234,9.485,24.554C1091.554,423.249,1113.153,424.878,1130.272,424.674Zm-59.749-26.348c-3.177-15.27,14.254-20.462,25.581-15.445a1.606,1.606,0,0,0,1.886-.318l.244-.2a1.877,1.877,0,0,0,.681-1.758c-2.837-13.572,6.111-26.191,20.609-22,9.684,2.8,12.967,13.635,14.162,22.475,1.25,9.228.225,18.814-1.421,27.927a80.3,80.3,0,0,1-2.749,10.949,1.3,1.3,0,0,0-.03.982,7.932,7.932,0,0,0-.8-.045c-13.918-.151-28.362-1.743-41.439-6.684C1079.839,411.411,1072.244,406.591,1070.523,398.326Z" transform="translate(-983.404 -262.232)" fill="#9059b3"/>
  <path id="Path_3750" data-name="Path 3750" d="M1109.585,369.006a6.507,6.507,0,0,0-2.29,6.816,6.57,6.57,0,0,0-4.957,5.261c-.614,2.945,1.964,5.6,4.435,6.568,4.593,1.8,10.782-.022,15.194-1.669a1.854,1.854,0,0,0,1.126-1.54c.169-5.236-1.553-11.892-5.78-15.27A6.767,6.767,0,0,0,1109.585,369.006Zm7.662,6.068a19.913,19.913,0,0,1,2.067,7.818,36.717,36.717,0,0,1-5.547,1.332,12.678,12.678,0,0,1-5.651-.119c-3.406-1.027-1.788-4.861,1.5-4.82a1.553,1.553,0,0,0,1.8-.783l.043-.071a1.906,1.906,0,0,0,.2-1.862c-1.293-2.256-.971-5.05,2.16-4.857C1115.482,371.813,1116.592,373.8,1117.247,375.074Z" transform="translate(-941.603 -245.679)" fill="#9059b3"/>
  <path id="Path_3751" data-name="Path 3751" d="M1082.469,371.627c2.513-3.938,5.25-9.158,4.855-13.961a6.494,6.494,0,0,0-4.864-6.107c-3.151-.7-5.575,1.109-6.866,3.652-4.87-2.035-11.051,1.776-8.8,7.789,1.95,5.218,8.756,8.473,13.933,9.407A1.858,1.858,0,0,0,1082.469,371.627Zm-12.205-10.244c-.891-3.62,3.294-3.475,5.155-1.806a1.9,1.9,0,0,0,1.862.2l.08-.028a1.554,1.554,0,0,0,1.142-1.6c.564-2.79,4.106-4.226,4.942-.984.456,1.782-.2,3.8-.764,5.48a30.577,30.577,0,0,1-2.653,5.709,22.452,22.452,0,0,1-6.667-3.2A7.007,7.007,0,0,1,1070.263,361.383Z" transform="translate(-983.372 -264.823)" fill="#9059b3"/>
  <path id="Path_3752" data-name="Path 3752" d="M1080.537,349.44c.489.136,1.021.212,1.5.365a.2.2,0,0,0,.27-.218,2.913,2.913,0,0,0-1.306-2.312,5.4,5.4,0,0,0-2.956-.856.394.394,0,0,0-.4.543,4.866,4.866,0,0,0,1.6,1.708A5.094,5.094,0,0,0,1080.537,349.44Z" transform="translate(-970.247 -270.621)" fill="#9059b3"/>
  <path id="Path_3753" data-name="Path 3753" d="M1155.734,381.48c-11.276,9.545-21.935,19.947-34.334,28-.134-2.705-1.358-5.322-4.217-6.278a6.316,6.316,0,0,0-7.5,2.831c-2.859-1.674-6.405-1.492-8.572,1.637-2.562,3.7.085,7.595,2.963,10.311a22.76,22.76,0,0,1-11.784-.006,50.884,50.884,0,0,1-18.907-9.835.155.155,0,0,0-.231.188c3.164,6.5,10.542,10.08,17.106,12.188,7.906,2.543,14.223,1.12,21.617-2.24,17.153-7.792,32.782-21.612,44.235-36.441A.262.262,0,0,0,1155.734,381.48Zm-47.477,35.12c-.034-.032-.063-.067-.1-.1a12.557,12.557,0,0,1-4.022-4.507c-1.6-3.48,2.98-3.789,4.725-1.845a1.9,1.9,0,0,0,1.76.683l.08-.022a1.91,1.91,0,0,0,1.488-1.2c.538-1.834,1.89-3.83,4.081-2.612,1.853,1.032,1.5,3.27,1.114,4.963l0,.015c-.861.506-1.728,1-2.608,1.483A61.463,61.463,0,0,1,1108.258,416.6Z" transform="translate(-975.441 -229.928)" fill="#9059b3"/>
  <path id="Path_3754" data-name="Path 3754" d="M1115.044,377.75c-.632,1.2-1.441,2.3-2.059,3.516-.387.766-1.088,1.708-.774,2.608a.079.079,0,0,0,.067.048c1.055.084,1.722-1.09,2.2-1.858a7.45,7.45,0,0,0,.925-4.23A.184.184,0,0,0,1115.044,377.75Z" transform="translate(-930.109 -234.329)" fill="#9059b3"/>
  <path id="Path_3755" data-name="Path 3755" d="M1103.861,361.744c.164.461.309.928.491,1.382.195.482.3,1.207.757,1.505a.54.54,0,0,0,.837-.376c.115-.5-.3-1.155-.491-1.609a2.938,2.938,0,0,0-.993-1.388A.4.4,0,0,0,1103.861,361.744Z" transform="translate(-939.756 -253.454)" fill="#9059b3"/>
  <path id="Path_3756" data-name="Path 3756" d="M1104.495,361.281a5.378,5.378,0,0,0,1.051,1.57c.324.311,1.049.158.911-.4a2.026,2.026,0,0,0-1.659-1.579A.3.3,0,0,0,1104.495,361.281Z" transform="translate(-939.021 -253.825)" fill="#9059b3"/>
  <path id="Path_3757" data-name="Path 3757" d="M1066.084,362.851a8.317,8.317,0,0,0-2.974-1.075.269.269,0,0,0-.236.433,6.2,6.2,0,0,0,2.725,1.544C1066.131,363.878,1066.6,363.21,1066.084,362.851Z" transform="translate(-987.444 -252.772)" fill="#9059b3"/>
  <path id="Path_3758" data-name="Path 3758" d="M1065.24,361.235a5.684,5.684,0,0,0-1.959-.333.334.334,0,0,0-.253.461c.331.673,1.276.822,1.951.973C1065.608,362.478,1065.863,361.406,1065.24,361.235Z" transform="translate(-987.23 -253.799)" fill="#9059b3"/>
  <path id="Path_3759" data-name="Path 3759" d="M1065.341,379.124a.58.58,0,0,0-.149-.037.613.613,0,0,0-.623.385,3.9,3.9,0,0,0-.061,2.472.136.136,0,0,0,.21.052,2.984,2.984,0,0,0,1.008-2.249A.607.607,0,0,0,1065.341,379.124Z" transform="translate(-985.675 -232.643)" fill="#9059b3"/>
  <path id="Path_3760" data-name="Path 3760" d="M1066.04,379.558c-.93.275-1.112,1.516-.869,2.312a.2.2,0,0,0,.337.037c.441-.636,1.14-1.442.757-2.26A.174.174,0,0,0,1066.04,379.558Z" transform="translate(-984.818 -232.108)" fill="#9059b3"/>
  <path id="Path_3761" data-name="Path 3761" d="M1082.638,352.161c-.7-.29-1.356-.651-2.046-.949a.3.3,0,0,0-.342.474,5.09,5.09,0,0,0,2.05,1.365A.476.476,0,0,0,1082.638,352.161Z" transform="translate(-967.252 -265.075)" fill="#9059b3"/>
  <path id="Path_3762" data-name="Path 3762" d="M1082.518,351.789a.225.225,0,0,0,.184-.195c.22-1.04-1.194-1.269-1.851-.835a.333.333,0,0,0,.175.586C1081.588,351.387,1081.949,351.839,1082.518,351.789Z" transform="translate(-966.62 -265.816)" fill="#9059b3"/>
  <path id="Path_3763" data-name="Path 3763" d="M1080.5,392.151a7.347,7.347,0,0,0,.247,1.5,5.1,5.1,0,0,0,.342,1.373.107.107,0,0,0,.141.056c1.088-.482.74-2.426.212-3.207A.534.534,0,0,0,1080.5,392.151Z" transform="translate(-966.883 -218.007)" fill="#9059b3"/>
  <path id="Path_3764" data-name="Path 3764" d="M1082.35,394.165a2.265,2.265,0,0,0,.028-2.076.2.2,0,0,0-.3-.074c-.752.474-.651,1.308-.443,2.074A.376.376,0,0,0,1082.35,394.165Z" transform="translate(-965.743 -217.659)" fill="#9059b3"/>
  <path id="Path_3765" data-name="Path 3765" d="M1102.347,381.555a.326.326,0,0,0-.166.42,2.675,2.675,0,0,0,.854.792c.361.266.608.74,1.027.9a.53.53,0,0,0,.7-.569C1104.732,382.333,1103.072,381.14,1102.347,381.555Z" transform="translate(-941.713 -229.873)" fill="#9059b3"/>
  <path id="Path_3766" data-name="Path 3766" d="M1104.532,382.126a.426.426,0,0,0,.063-.592,2.5,2.5,0,0,0-1.849-.638.2.2,0,0,0-.22.18A1.336,1.336,0,0,0,1104.532,382.126Z" transform="translate(-941.279 -230.541)" fill="#9059b3"/>
  <path id="Path_3767" data-name="Path 3767" d="M1095.765,352.946a2.79,2.79,0,0,0,1.3-2.035c.015-.521-.679-.882-1.008-.383a7.344,7.344,0,0,0-.623,2.178A.214.214,0,0,0,1095.765,352.946Z" transform="translate(-949.536 -266.121)" fill="#9059b3"/>
  <path id="Path_3768" data-name="Path 3768" d="M1097.038,350.843a2.381,2.381,0,0,0-.9,1.812.239.239,0,0,0,.328.242,2.446,2.446,0,0,0,1.4-1.6C1097.979,350.817,1097.359,350.62,1097.038,350.843Z" transform="translate(-948.705 -265.584)" fill="#9059b3"/>
  <path id="Path_3769" data-name="Path 3769" d="M1102.121,368.324a.3.3,0,0,0-.054.513,3.66,3.66,0,0,0,1.319.768.694.694,0,0,0,.49-1.3A2.085,2.085,0,0,0,1102.121,368.324Z" transform="translate(-941.948 -245.391)" fill="#9059b3"/>
  <path id="Path_3770" data-name="Path 3770" d="M1064.849,371.669a.525.525,0,0,0,.149-.608.606.606,0,0,0-.074-.117.505.505,0,0,0-.478-.186,3.773,3.773,0,0,0-1.38.545.283.283,0,0,0,.013.517A1.867,1.867,0,0,0,1064.849,371.669Z" transform="translate(-987.338 -242.33)" fill="#9059b3"/>
  <path id="Path_3771" data-name="Path 3771" d="M1060.359,361.982a5.1,5.1,0,0,0-1.505-1.384.382.382,0,0,0-.51.413,5.109,5.109,0,0,0,1.04,1.76A.628.628,0,0,0,1060.359,361.982Z" transform="translate(-992.653 -254.174)" fill="#9059b3"/>
  <path id="Path_3772" data-name="Path 3772" d="M1070.134,350.076a2.718,2.718,0,0,0-2.243-.865.17.17,0,0,0-.127.231,3.841,3.841,0,0,0,1.734,1.52A.546.546,0,0,0,1070.134,350.076Z" transform="translate(-981.707 -267.429)" fill="#9059b3"/>
  <path id="Path_3773" data-name="Path 3773" d="M1069.841,349.089a.2.2,0,0,0-.065-.221.911.911,0,0,0-.668-.257c-.309.006-.569-.1-.869-.119a.245.245,0,0,0-.266.277C1068,349.69,1069.546,350.049,1069.841,349.089Z" transform="translate(-981.448 -268.211)" fill="#9059b3"/>
  <path id="Path_3774" data-name="Path 3774" d="M1077.027,362.784a2.188,2.188,0,0,0,1.369-1.905.594.594,0,0,0-1.181-.125,4.954,4.954,0,0,1-.543,1.691C1076.569,362.676,1076.829,362.847,1077.027,362.784Z" transform="translate(-971.361 -254.554)" fill="#9059b3"/>
  <path id="Path_3775" data-name="Path 3775" d="M1076.95,360.019a.131.131,0,0,0-.207,0,3.226,3.226,0,0,0-.459,1.929.1.1,0,0,0,.14.078A1.336,1.336,0,0,0,1076.95,360.019Z" transform="translate(-971.804 -254.867)" fill="#9059b3"/>
  <path id="Path_3776" data-name="Path 3776" d="M1098.939,387.864a2.853,2.853,0,0,0,.989,1.946.508.508,0,0,0,.789-.482,2.349,2.349,0,0,0-1.484-1.7A.222.222,0,0,0,1098.939,387.864Z" transform="translate(-945.448 -222.729)" fill="#9059b3"/>
  <path id="Path_3777" data-name="Path 3777" d="M1099.372,387.3c-.3.634,1.088,1.3,1.453,1.535.659.424,1.373-.554.713-.995C1101.21,387.617,1099.7,386.616,1099.372,387.3Z" transform="translate(-944.994 -223.371)" fill="#9059b3"/>
  <path id="Path_3778" data-name="Path 3778" d="M1041.172,337.4c-.162.18-.02.433.158.521a1.559,1.559,0,0,0,1.438-.076.535.535,0,0,0-.294-1.014A1.952,1.952,0,0,0,1041.172,337.4Z" transform="translate(-1012.686 -281.769)" fill="#9059b3"/>
  <path id="Path_3779" data-name="Path 3779" d="M1041.657,335.968a1.223,1.223,0,0,0-.772,1.59.176.176,0,0,0,.227.089,2.914,2.914,0,0,0,1.181-.893C1042.637,336.336,1042.111,335.782,1041.657,335.968Z" transform="translate(-1013.055 -282.814)" fill="#9059b3"/>
  <path id="Path_3780" data-name="Path 3780" d="M1052.762,320.051c.824-.277.93-1.981.8-2.692a.189.189,0,0,0-.3-.117,3.382,3.382,0,0,0-.763,1.125c-.186.366-.508.9-.4,1.317A.492.492,0,0,0,1052.762,320.051Z" transform="translate(-999.931 -304.591)" fill="#9059b3"/>
  <path id="Path_3781" data-name="Path 3781" d="M1053.021,317.5c.435-.8-.822-1.341-1.04-.558a6.2,6.2,0,0,0-.227,1.155.2.2,0,0,0,.225.214A1.353,1.353,0,0,0,1053.021,317.5Z" transform="translate(-1000.303 -305.333)" fill="#9059b3"/>
  <path id="Path_3782" data-name="Path 3782" d="M1059.685,323.061a2.443,2.443,0,0,0,1.293,1.838.458.458,0,0,0,.612-.5c-.138-.629-1.029-1.68-1.767-1.488A.168.168,0,0,0,1059.685,323.061Z" transform="translate(-991.084 -297.97)" fill="#9059b3"/>
  <path id="Path_3783" data-name="Path 3783" d="M1061.137,322.493a.978.978,0,0,0-1.131,0,.187.187,0,0,0-.057.223,1.962,1.962,0,0,0,.7.692A.523.523,0,1,0,1061.137,322.493Z" transform="translate(-990.793 -298.644)" fill="#9059b3"/>
  <path id="Path_3784" data-name="Path 3784" d="M1046.288,329.417a.7.7,0,0,0-1.378.21,3.773,3.773,0,0,0,.876,2.087.09.09,0,0,0,.125-.022A3.414,3.414,0,0,0,1046.288,329.417Z" transform="translate(-1008.274 -291.05)" fill="#9059b3"/>
  <path id="Path_3785" data-name="Path 3785" d="M1046.019,330.9a.17.17,0,0,0,.255.063c.578-.365.928-1.365.229-1.786a.435.435,0,0,0-.508.015C1045.406,329.639,1045.718,330.379,1046.019,330.9Z" transform="translate(-1007.384 -290.747)" fill="#9059b3"/>
  <path id="Path_3786" data-name="Path 3786" d="M1033.709,331.477a2.69,2.69,0,0,0-.506,1.927.127.127,0,0,0,.173.128c.7-.229,1.525-1.1,1.12-1.862A.517.517,0,0,0,1033.709,331.477Z" transform="translate(-1021.868 -288.127)" fill="#9059b3"/>
  <path id="Path_3787" data-name="Path 3787" d="M1050.958,338.93a.649.649,0,0,0-.638-.067,2.017,2.017,0,0,0-1.107,1.049.326.326,0,0,0,.188.42,1.689,1.689,0,0,0,1.587-.37.642.642,0,0,0,.234-.6A.589.589,0,0,0,1050.958,338.93Z" transform="translate(-1003.28 -279.469)" fill="#9059b3"/>
  <path id="Path_3788" data-name="Path 3788" d="M1050.6,332.5l.067-.056a.612.612,0,0,0,.222-.577,1.277,1.277,0,0,0-.521-.811.385.385,0,0,0-.577.175,1.037,1.037,0,0,0,.179,1.289A.517.517,0,0,0,1050.6,332.5Z" transform="translate(-1002.75 -288.559)" fill="#9059b3"/>
  <path id="Path_3789" data-name="Path 3789" d="M1051.352,321.4a2.315,2.315,0,0,0-1.83-.071.084.084,0,0,0-.032.128,3.68,3.68,0,0,0,1.46,1.006C1051.592,322.779,1052.038,321.676,1051.352,321.4Z" transform="translate(-1002.954 -299.983)" fill="#9059b3"/>
  <path id="Path_3790" data-name="Path 3790" d="M1060.775,330.12c-.872.346-.8,1.248-.664,2.013a.1.1,0,0,0,.141.078c.7-.407,1.654-1.326.716-2.07A.2.2,0,0,0,1060.775,330.12Z" transform="translate(-990.682 -289.586)" fill="#9059b3"/>
  <path id="Path_3791" data-name="Path 3791" d="M1061.942,317.942a3.036,3.036,0,0,0,.938.009.517.517,0,0,0,.221-.921,1.587,1.587,0,0,0-2.2.77.1.1,0,0,0,.084.134A6.371,6.371,0,0,0,1061.942,317.942Z" transform="translate(-989.674 -305.035)" fill="#9059b3"/>
  <path id="Path_3792" data-name="Path 3792" d="M1083.1,373.056c1.8-5.2,4.107-11.36,9.574-13.646,5.352-2.238,10.59,3.361,12.774,7.508,5.216,9.9,4.238,22.7,4.608,33.556.013.348.545.307.588-.013.984-7.305,1.628-14.379.781-21.74-.7-6.137-2.64-13.656-7.357-18-3.932-3.624-9-5.067-13.8-2.208-4.448,2.651-7.683,9.455-7.441,14.513C1082.839,373.173,1083.059,373.184,1083.1,373.056Z" transform="translate(-964.19 -258.321)" fill="#9059b3"/>
  <path id="Path_3793" data-name="Path 3793" d="M1099.232,397.729a.208.208,0,0,0,.1-.4c-7.19-2.612-14.788-4.654-21.113-9.1-3.4-2.392-6.284-5.768-7.221-9.883-1.144-5.03,3.912-8.557,8.021-9.671a.113.113,0,0,0,0-.223c-3.722-.389-6.755,2.052-8.5,5.171-1.914,3.43-.844,7.807,1.187,10.927C1077.3,393.157,1089.325,397.7,1099.232,397.729Z" transform="translate(-979.66 -245.059)" fill="#9059b3"/>
</svg>
