<svg xmlns="http://www.w3.org/2000/svg" width="94.034" height="228.741" viewBox="0 0 94.034 228.741">
  <g id="Group_1468" data-name="Group 1468" transform="matrix(0.978, -0.208, 0.208, 0.978, 0, 10.11)">
    <path id="Path_5175" data-name="Path 5175" d="M.211,3.149a23.331,23.331,0,0,1,3.08-1.7C3.472,1.361,5.329.675,4.783.188,4.176-.354,3.1.418,2.554.736A8.132,8.132,0,0,0,.022,2.96C-.059,3.073.1,3.223.211,3.149Z" transform="translate(31.111 51.911)" fill="#9059b3"/>
    <path id="Path_5176" data-name="Path 5176" d="M.874.4a5.183,5.183,0,0,0-.546.6c-.142.183-.2.385-.314.565A.091.091,0,0,0,.138,1.7c.174-.114.4-.178.579-.3.244-.164.5-.307.748-.468C1.67.8,2.242.5,2.022.167,1.76-.232,1.109.182.874.4Z" transform="translate(32.508 54.446)" fill="#9059b3"/>
    <path id="Path_5177" data-name="Path 5177" d="M.143,1.207C.922,1.164,2.006,1.062,2.316.2A.156.156,0,0,0,2.167,0a3.686,3.686,0,0,0-2.1.928C-.046,1.008-.015,1.217.143,1.207Z" transform="translate(28.184 131.514)" fill="#9059b3"/>
    <path id="Path_5178" data-name="Path 5178" d="M2.148.077A2.066,2.066,0,0,0,1.643,0a2.113,2.113,0,0,0-.6.228,4.736,4.736,0,0,0-1.005.8c-.095.085.01.224.117.2.4-.086.8-.143,1.2-.264a2.052,2.052,0,0,0,.6-.3c.13-.1.174-.24.29-.354A.145.145,0,0,0,2.148.077Z" transform="translate(31.353 93.875)" fill="#9059b3"/>
    <path id="Path_5179" data-name="Path 5179" d="M.2,2.262c.993-.249,1.979-.527,2.966-.8A5.041,5.041,0,0,0,5.5.476a.238.238,0,0,0-.1-.394C3.724-.367,1.434,1.127.076,1.974A.158.158,0,0,0,.2,2.262Z" transform="translate(29.746 91.76)" fill="#9059b3"/>
    <path id="Path_5180" data-name="Path 5180" d="M.16,2.053c.748-.364,1.532-.667,2.3-.986A5.529,5.529,0,0,0,4.226.233.1.1,0,0,0,4.183.068a2.843,2.843,0,0,0-1.973.4A6.784,6.784,0,0,0,.032,1.889.105.105,0,0,0,.16,2.053Z" transform="translate(26.645 9.999)" fill="#9059b3"/>
    <path id="Path_5181" data-name="Path 5181" d="M1.344.187A8.213,8.213,0,0,0,.056.84c-.095.057-.064.235.059.223.43-.047.843-.095,1.268-.18C1.792.8,2.362.764,2.51.308A.148.148,0,0,0,2.472.161C2.151-.141,1.7.049,1.344.187Z" transform="translate(27.986 11.694)" fill="#9059b3"/>
    <path id="Path_5182" data-name="Path 5182" d="M5.547.2A.119.119,0,0,0,5.431,0C4.54.2,3.64.392,2.74.544a8.994,8.994,0,0,0-2.708.644A.063.063,0,0,0,.047,1.3,6.37,6.37,0,0,0,5.547.2Z" transform="translate(27.813 132.682)" fill="#9059b3"/>
    <path id="Path_5183" data-name="Path 5183" d="M44.692,136.692c4.287-4.838,5.052-11.861,2.378-19.085a1.171,1.171,0,0,0-.276-.434,12.586,12.586,0,0,0,.979-2.779c1.04-4.427,0-10.4-3.7-13.39a9.062,9.062,0,0,0,3.7-5.911c1.036-4.427,0-10.4-3.7-13.39a9.071,9.071,0,0,0,3.7-5.911c1.036-4.425,0-10.395-3.7-13.388a9.07,9.07,0,0,0,3.7-5.912c1.04-4.425,0-10.4-3.7-13.388a9.071,9.071,0,0,0,3.7-5.911c1.066-4.544-.054-10.718-4-13.625a12.136,12.136,0,0,0,3.645-5.947c1.309-4.389.475-11.231-3.515-14.1C39.493.351,33.624.061,28.378,0c-5-.055-9.433.468-13.938,2.695A20.5,20.5,0,0,0,4.631,12.957c-2.553,6.021-.625,13.369,1.188,19.3.01.033.026.06.038.091-4.3,5.063-4.52,12.73-2.784,19.512A19.2,19.2,0,0,0,2.6,71.915a19.234,19.234,0,0,0,0,19.3,19.238,19.238,0,0,0,0,19.3,19.231,19.231,0,0,0,0,19.3,19.242,19.242,0,0,0,0,19.3,1.182,1.182,0,0,0,.2.257,15.012,15.012,0,0,0-1.138,3.367C.569,157.75,2.185,163.586,6.6,166.39c3.313,2.1,7.7,2.624,11.8,2.753-.249,11.958-.971,23.908-.886,35.873.048,6.75-.7,18.691,9.022,18.5,8.616-.171,7.458-13.537,7.493-19.064.074-12-.757-23.987-1.012-35.98A26.255,26.255,0,0,0,39.5,166.51c10.949-5.075,8.141-20.589,5.3-29.575A1.208,1.208,0,0,0,44.692,136.692Zm.534-21.22a6.09,6.09,0,0,1-4.963,4.137c-7.044.89-14.2.24-21.247,1.285-4.291.637-8.685,1.695-12.146,4.182,6.859-6.413,16.3-6.4,25.8-6.586C36.605,118.412,42.081,118.091,45.226,115.472ZM4.5,122.305c-.067.154-.3.067-.3-.083-.062-6.621,3.579-11.5,9.618-14.053a31.567,31.567,0,0,1,8.8-1.893,98.458,98.458,0,0,1,11.892-1.071.141.141,0,0,1,.038.276c-6.044,2.415-12.749,1.565-18.843,3.664a16.1,16.1,0,0,0-7.553,4.963C6.25,116.526,5.707,119.536,4.5,122.305Zm35.762-22c-7.046.888-14.2.238-21.248,1.283-4.444.66-9.006,1.765-12.521,4.45,5.318-6.137,13.279-6.882,21.6-7,5.493-.08,12.8.644,17.218-3.088A6.151,6.151,0,0,1,40.264,100.31ZM45.61,75.687c-.7,2.75-2.429,4.952-5.346,5.32-7.044.891-14.2.24-21.247,1.287-4.978.738-10.1,2.04-13.732,5.489,4.543-7.636,14.423-8.2,22.766-8.21C34.246,79.569,41.428,80.118,45.61,75.687ZM4.2,80.745c-.033.079-.136.028-.143-.038C3.42,75.235,8.448,71.3,12.995,69.5c6.382-2.529,13.454-2.522,20.021-4.451.154-.045.219.161.1.245-5.147,3.753-11.777,3.056-17.62,4.9a18,18,0,0,0-7.275,3.848C6.243,75.972,5.26,78.249,4.2,80.745ZM40.264,61.708c-7.044.89-14.2.24-21.247,1.285-4.828.717-9.794,1.957-13.406,5.179,4.764-7.395,13.67-9,22.4-8.319,4.657.364,11.706,2.149,16.162-.382A5.713,5.713,0,0,1,40.264,61.708Zm3.674-26.6.007,0-.028.048Zm1.01,3.8a5.934,5.934,0,0,1-4.684,3.508c-7.044.89-14.2.24-21.247,1.285-4.5.668-9.129,1.795-12.661,4.56,5.467-6.548,14.514-6.916,22.759-6.945C34,41.29,40.91,42.048,44.948,38.9ZM17.026,30.472A57.16,57.16,0,0,1,25.283,28.3c2.9-.554,5.854-.6,8.747-1.157.133-.026.235.162.1.231-4.612,2.344-9.911,2.546-14.8,4.087a28.333,28.333,0,0,0-6.863,3.005c-2.1,1.347-3.94,3.03-5.892,4.574-.076.059-.214.009-.178-.1C7.958,34.439,12.794,31.961,17.026,30.472ZM8.435,30c4-6.686,15.185-7.03,21.838-7.484,4.26-.288,9.051-.066,13.072-1.676-3.107,3.242-8.847,3.329-13.751,3.5A54.745,54.745,0,0,0,11.566,28.3,15.5,15.5,0,0,0,8.435,30Zm24.509,1.252-.294.1c-.01-.012-.021-.026-.033-.038C32.726,31.3,32.834,31.273,32.943,31.252ZM7.452,12.2C9.753,7.642,14.62,4.63,19.33,3.115c4.315-1.387,9.483-1,13.931-.648,7.716.606,12.773,4.089,12.35,12.473a10.585,10.585,0,0,1-.774,3.633c-3.033,2-6.783,2.137-10.391,2.311-3.911.19-7.9.389-11.775.955-5.413.789-12.248,2.569-15.359,7.519C5.721,23.7,4.709,17.629,7.452,12.2ZM12.54,47.456c7.674-2.809,16.416-2.192,24.45-2.551a19.134,19.134,0,0,0,4.693-.7c3.472,1.9,5,7.574,3.978,11.965-2.394,3.771-7.75,3.4-11.742,3.011a86.361,86.361,0,0,0-12.057-.8C14,58.706,7.277,62.105,3.641,68.913.135,60.489,3.662,50.705,12.54,47.456Zm0,38.6c7.674-2.807,16.416-2.19,24.45-2.55a19.069,19.069,0,0,0,4.695-.7c3.094,1.7,4.645,6.394,4.22,10.507-2.755,4.038-7.946,4.206-12.483,4.279-3.956.062-7.928.059-11.877.326-7.534.511-13.877,3.322-17.881,9.659C.114,99.137,3.64,89.314,12.54,86.056ZM3.6,146.007c-3.434-8.4.1-18.114,8.939-21.349,7.674-2.807,16.416-2.19,24.45-2.551,3.546-.159,6.348-.833,8.286-2.783a19.461,19.461,0,0,1,.852,9.5c-2.9,6.788-13.336,9.172-19.933,9.578C17.633,138.929,9.015,138.566,3.6,146.007Zm28.077,63.637c-.135,4.009.1,10.075-4.6,11.525-9.286,2.869-7.351-17.639-7.3-22.059.109-9.98.66-19.95.869-29.927.491,0,.976.005,1.447.005-.031,9.315-.366,18.634-.579,27.946-.1,4.45-.29,8.913-.256,13.364.026,3.308.254,8.4,4.184,9.36.846.209,1.206-1.1.359-1.3-4.557-1.118-3.18-10.138-3.1-13.6q.132-5.957.261-11.913c.185-7.951.458-15.907.485-23.861a67.151,67.151,0,0,0,7.327-.387c.2,9.146.684,18.283.907,27.431C31.791,200.7,31.831,205.173,31.679,209.645ZM33.705,166.1c-4.726,1.035-10.051.948-14.853.786-5.351-.183-10.967-.945-13.708-5.412,6.821,4.377,17.14,3.354,24.609,2.954,2.943-.157,7.237-.306,10.73-1.522A15.063,15.063,0,0,1,33.705,166.1ZM13.2,147.227a30.654,30.654,0,0,1,7.79-1.34A90.072,90.072,0,0,0,32.907,144.5c.126-.024.219.15.093.218a20.476,20.476,0,0,1-9.512,2.537,37.575,37.575,0,0,0-7.439.713c-2.363.525-4.937,1.316-6.728,3.038-1.852,1.777-2.52,3.971-3.252,6.358a.138.138,0,0,1-.264,0C4.787,152.409,8.856,148.635,13.2,147.227Zm23.711-7.956c-7.885,3.1-16.1,2.591-24.275,3.707a13.465,13.465,0,0,0-7.344,3.035c6.616-8.039,17.748-4.937,27.056-7.084,4.151-.959,8.921-2.707,12.148-5.724A14.809,14.809,0,0,1,36.914,139.271Z" transform="translate(0 0)" fill="#9059b3"/>
  </g>
</svg>
