<svg xmlns="http://www.w3.org/2000/svg" width="78.921" height="191.978" viewBox="0 0 78.921 191.978">
  <g id="Group_1468" data-name="Group 1468" transform="matrix(0.978, -0.208, 0.208, 0.978, 0, 8.485)">
    <path id="Path_5175" data-name="Path 5175" d="M.177,2.643A19.582,19.582,0,0,1,2.762,1.213C2.914,1.142,4.472.567,4.014.158,3.505-.3,2.6.351,2.144.617A6.825,6.825,0,0,0,.019,2.485C-.049,2.579.084,2.7.177,2.643Z" transform="translate(26.111 43.568)" fill="#9059b3"/>
    <path id="Path_5176" data-name="Path 5176" d="M.733.34A4.35,4.35,0,0,0,.275.847C.156,1,.111,1.171.011,1.321a.077.077,0,0,0,.1.1c.146-.1.332-.149.486-.252.2-.138.42-.258.628-.393C1.4.669,1.882.418,1.7.14,1.477-.2.931.153.733.34Z" transform="translate(27.284 45.696)" fill="#9059b3"/>
    <path id="Path_5177" data-name="Path 5177" d="M.12,1.013C.774.977,1.684.891,1.943.169A.131.131,0,0,0,1.819,0,3.093,3.093,0,0,0,.057.782C-.038.846-.012,1.021.12,1.013Z" transform="translate(23.654 110.378)" fill="#9059b3"/>
    <path id="Path_5178" data-name="Path 5178" d="M1.8.064A1.734,1.734,0,0,0,1.379,0a1.773,1.773,0,0,0-.5.191A3.975,3.975,0,0,0,.031.869c-.08.071.009.188.1.168C.467.965.8.917,1.137.815A1.722,1.722,0,0,0,1.645.567c.109-.083.146-.2.244-.3A.122.122,0,0,0,1.8.064Z" transform="translate(26.314 78.788)" fill="#9059b3"/>
    <path id="Path_5179" data-name="Path 5179" d="M.165,1.9C1,1.69,1.827,1.457,2.655,1.229A4.231,4.231,0,0,0,4.613.4.2.2,0,0,0,4.526.069C3.126-.308,1.2.946.064,1.657A.133.133,0,0,0,.165,1.9Z" transform="translate(24.965 77.013)" fill="#9059b3"/>
    <path id="Path_5180" data-name="Path 5180" d="M.134,1.723C.762,1.417,1.42,1.164,2.064.9A4.64,4.64,0,0,0,3.547.2.084.084,0,0,0,3.511.057,2.386,2.386,0,0,0,1.855.4,5.694,5.694,0,0,0,.027,1.585.088.088,0,0,0,.134,1.723Z" transform="translate(22.362 8.392)" fill="#9059b3"/>
    <path id="Path_5181" data-name="Path 5181" d="M1.128.157A6.893,6.893,0,0,0,.047.705C-.033.753-.007.9.1.892.457.853.8.812,1.16.741s.822-.1.947-.483A.124.124,0,0,0,2.075.135C1.805-.118,1.43.041,1.128.157Z" transform="translate(23.488 9.814)" fill="#9059b3"/>
    <path id="Path_5182" data-name="Path 5182" d="M4.656.169A.1.1,0,0,0,4.558,0C3.81.165,3.055.329,2.3.456A7.549,7.549,0,0,0,.027,1a.053.053,0,0,0,.013.1A5.346,5.346,0,0,0,4.656.169Z" transform="translate(23.343 111.358)" fill="#9059b3"/>
    <path id="Path_5183" data-name="Path 5183" d="M37.51,114.723c3.6-4.061,4.24-9.955,2-16.018a.982.982,0,0,0-.232-.364,10.563,10.563,0,0,0,.822-2.333c.873-3.716,0-8.727-3.108-11.238A7.605,7.605,0,0,0,40.1,79.81c.87-3.716,0-8.727-3.108-11.238A7.613,7.613,0,0,0,40.1,63.611c.87-3.714,0-8.724-3.108-11.237A7.612,7.612,0,0,0,40.1,47.413c.873-3.714,0-8.726-3.108-11.237A7.613,7.613,0,0,0,40.1,31.215c.894-3.814-.045-9-3.358-11.435A10.185,10.185,0,0,0,39.8,14.789c1.1-3.684.4-9.426-2.95-11.832C33.146.295,28.22.051,23.817,0a24.528,24.528,0,0,0-11.7,2.262,17.2,17.2,0,0,0-8.233,8.61c-2.143,5.054-.525,11.221,1,16.2.009.027.022.051.032.077C1.3,31.4,1.122,37.834,2.579,43.526a16.111,16.111,0,0,0-.4,16.831,16.143,16.143,0,0,0,0,16.2,16.146,16.146,0,0,0,0,16.2,16.141,16.141,0,0,0,0,16.2,16.149,16.149,0,0,0,0,16.2.992.992,0,0,0,.167.216A12.6,12.6,0,0,0,1.39,128.2c-.913,4.2.444,9.1,4.149,11.453,2.781,1.766,6.466,2.2,9.9,2.311-.209,10.036-.815,20.065-.744,30.107.041,5.665-.59,15.687,7.572,15.525,7.231-.143,6.26-11.361,6.289-16,.062-10.071-.635-20.132-.85-30.2a22.036,22.036,0,0,0,5.445-1.644c9.19-4.259,6.832-17.28,4.445-24.822A1.014,1.014,0,0,0,37.51,114.723Zm.448-17.81a5.111,5.111,0,0,1-4.165,3.472c-5.912.747-11.918.2-17.833,1.079-3.6.535-7.289,1.422-10.194,3.51,5.757-5.383,13.682-5.373,21.653-5.528C30.722,99.381,35.318,99.112,37.958,96.914ZM3.778,102.649c-.057.129-.252.057-.254-.07-.052-5.557,3-9.648,8.072-11.795A26.494,26.494,0,0,1,18.985,89.2a82.632,82.632,0,0,1,9.981-.9.119.119,0,0,1,.032.232c-5.072,2.027-10.7,1.313-15.815,3.075a13.514,13.514,0,0,0-6.339,4.165C5.245,97.8,4.79,100.325,3.778,102.649Zm30.014-18.46c-5.913.745-11.918.2-17.833,1.077C12.23,85.819,8.4,86.747,5.451,89c4.464-5.151,11.145-5.776,18.127-5.876,4.61-.067,10.747.541,14.451-2.592A5.163,5.163,0,0,1,33.793,84.189Zm4.487-20.665c-.589,2.308-2.038,4.156-4.487,4.465-5.912.748-11.918.2-17.833,1.08-4.178.619-8.475,1.712-11.525,4.607,3.813-6.409,12.1-6.885,19.107-6.89C28.742,66.781,34.77,67.242,38.279,63.523ZM3.527,67.768c-.028.067-.115.023-.12-.032-.536-4.593,3.684-7.894,7.5-9.4,5.357-2.122,11.292-2.117,16.8-3.736.129-.038.184.135.087.206-4.32,3.15-9.884,2.565-14.788,4.114A15.1,15.1,0,0,0,6.9,62.146,15.9,15.9,0,0,0,3.527,67.768ZM33.793,51.791c-5.912.747-11.918.2-17.833,1.079-4.052.6-8.22,1.642-11.251,4.346,4-6.206,11.473-7.554,18.8-6.982,3.908.306,9.825,1.8,13.565-.32A4.794,4.794,0,0,1,33.793,51.791Zm3.084-22.328.006,0-.023.041Zm.848,3.185a4.98,4.98,0,0,1-3.932,2.944c-5.912.747-11.918.2-17.833,1.079C12.179,37.231,8.3,38.177,5.334,40.5c4.588-5.5,12.182-5.8,19.1-5.829C28.533,34.654,34.335,35.29,37.724,32.648ZM14.29,25.574a47.973,47.973,0,0,1,6.93-1.824c2.433-.465,4.913-.506,7.341-.971.112-.022.2.136.083.194-3.871,1.967-8.318,2.137-12.421,3.43a23.779,23.779,0,0,0-5.76,2.522C8.7,30.057,7.156,31.469,5.518,32.765c-.064.049-.18.007-.149-.087C6.679,28.9,10.738,26.824,14.29,25.574Zm-7.211-.4c3.357-5.612,12.744-5.9,18.328-6.282,3.575-.242,7.6-.055,10.971-1.406-2.608,2.721-7.425,2.794-11.541,2.941a45.946,45.946,0,0,0-15.13,3.317A13.007,13.007,0,0,0,7.079,25.179Zm20.57,1.051-.246.087c-.009-.01-.017-.022-.028-.032C27.466,26.267,27.557,26.247,27.649,26.23ZM6.254,10.238c1.931-3.824,6.016-6.353,9.97-7.624,3.621-1.164,7.959-.838,11.692-.544,6.476.509,10.72,3.431,10.365,10.468a8.884,8.884,0,0,1-.649,3.049c-2.546,1.682-5.693,1.793-8.721,1.94-3.282.159-6.631.326-9.883.8-4.543.663-10.28,2.156-12.891,6.31C4.8,19.887,3.952,14.8,6.254,10.238Zm4.271,29.591c6.441-2.357,13.778-1.84,20.52-2.141a16.058,16.058,0,0,0,3.939-.59c2.914,1.6,4.2,6.357,3.339,10.042-2.009,3.165-6.5,2.852-9.855,2.527a72.481,72.481,0,0,0-10.119-.674c-6.6.278-12.241,3.131-15.293,8.845C.113,50.767,3.074,42.556,10.525,39.829Zm0,32.4c6.441-2.356,13.778-1.838,20.52-2.14a16,16,0,0,0,3.94-.591c2.6,1.424,3.9,5.367,3.542,8.819C36.215,81.7,31.859,81.843,28.05,81.9c-3.32.052-6.654.049-9.968.274-6.324.429-11.647,2.788-15.007,8.107C.1,83.2,3.055,74.96,10.525,72.226Zm-7.5,50.316c-2.882-7.05.081-15.2,7.5-17.918,6.441-2.356,13.778-1.838,20.52-2.141,2.976-.133,5.328-.7,6.954-2.336a16.333,16.333,0,0,1,.715,7.975c-2.431,5.7-11.193,7.7-16.729,8.039C14.8,116.6,7.566,116.3,3.023,122.542Zm23.565,53.41c-.113,3.365.081,8.456-3.858,9.672-7.794,2.408-6.17-14.8-6.129-18.514.091-8.376.554-16.744.729-25.117.412,0,.819,0,1.215,0-.026,7.818-.307,15.639-.486,23.455-.086,3.734-.244,7.48-.215,11.216.022,2.776.213,7.047,3.511,7.856.71.175,1.012-.919.3-1.093-3.824-.938-2.669-8.508-2.605-11.414q.111-5,.219-10c.155-6.673.384-13.35.407-20.026a56.354,56.354,0,0,0,6.15-.325c.17,7.676.574,15.345.761,23.023C26.682,168.442,26.715,172.2,26.588,175.951Zm1.7-36.55a51.8,51.8,0,0,1-12.466.66c-4.491-.154-9.2-.793-11.5-4.542,5.725,3.674,14.385,2.815,20.654,2.479a33.906,33.906,0,0,0,9.006-1.277A12.642,12.642,0,0,1,28.288,139.4ZM11.082,123.565a25.728,25.728,0,0,1,6.538-1.125,75.593,75.593,0,0,0,10-1.166c.106-.02.184.126.078.183a17.185,17.185,0,0,1-7.983,2.13,31.536,31.536,0,0,0-6.244.6,11.7,11.7,0,0,0-5.647,2.55c-1.554,1.492-2.115,3.333-2.73,5.336a.116.116,0,0,1-.222,0C4.017,127.914,7.433,124.747,11.082,123.565Zm19.9-6.677c-6.618,2.605-13.51,2.175-20.374,3.111a11.3,11.3,0,0,0-6.164,2.547C10,115.8,19.339,118.4,27.152,116.6c3.484-.8,7.488-2.272,10.2-4.8A12.429,12.429,0,0,1,30.982,116.888Z" transform="translate(0 0)" fill="#9059b3"/>
  </g>
</svg>
