<svg id="Group_1476" data-name="Group 1476" xmlns="http://www.w3.org/2000/svg" width="56.438" height="46.962" viewBox="0 0 56.438 46.962">
  <path id="Path_3970" data-name="Path 3970" d="M963.188,335.742c-2.062-2.446-4.091-4.954-6.24-7.333a2.428,2.428,0,0,0-2.049-1.824c-6.686-1.482-14.545-.383-21.237.542-5.32.734-7.2,3.291-10.155,7.508-3.582,5.1-7.238,10.168-10.525,15.468-2.192,3.534-2.4,5.885-1.4,7.419a1.606,1.606,0,0,0,.345,1.4c3.364,4.08,8.022,11.766,13.247,13.327,5.127,1.531,12.373-.4,17.547-1.188,4.191-.638,7.259-1.34,9.863-4.827,3.7-4.945,7.094-10.084,10.409-15.289,1.862-2.925,4.236-5.917,4.452-9.47C967.549,339.674,964.176,336.915,963.188,335.742Zm-49.151,19.434c.473-3.123,3.721-6.672,5.424-9.192,2.047-3.034,4.164-6.022,6.275-9.013,3.092-4.381,4.853-6.311,10.412-6.967a119.7,119.7,0,0,1,14.778-.725c4.851.031-.02,6.151-1.077,7.821-2.468,3.9-5.011,7.756-7.66,11.535-3.251,4.635-5.143,6.195-10.712,7.119C930.137,355.958,913.5,358.743,914.037,355.176Zm37.579,7.043c-2.912,4.038-4.9,4.97-9.744,5.776-3.027.5-14.371,3.219-16.858.792-2.829-2.756-5.516-5.778-8.1-8.831,4.956.591,11.785-.586,15.407-1.137,5.047-.838,7.609-1.806,10.677-5.914,4.261-5.707,8.09-11.744,11.845-17.789a20.783,20.783,0,0,0,1.425-2.72c2.673,3.043,5.232,6.211,7.789,9.33C965.892,343.964,953.042,360.239,951.617,362.22Z" transform="translate(-911.007 -325.859)" fill="#9059b3"/>
  <path id="Path_3971" data-name="Path 3971" d="M944.087,340.895c-2.731,2.66-4.931,5.776-7.647,8.447-1.995,1.964-4.311,2.151-6.945,2.581a25.2,25.2,0,0,0-7.125,2.182.121.121,0,0,0,.06.223c3.072-.118,6.146-.66,9.212-.959a10.012,10.012,0,0,0,5.429-2c3.4-2.6,5.571-6.4,7.4-10.179A.245.245,0,0,0,944.087,340.895Z" transform="translate(-901.812 -313.688)" fill="#9059b3"/>
  <path id="Path_3972" data-name="Path 3972" d="M936.481,339.193c-.484.149-.653.424-.941.831a3.783,3.783,0,0,0-.713,1.286.105.105,0,0,0,.129.127c.84-.208,1.873-1.251,1.692-2.151A.135.135,0,0,0,936.481,339.193Z" transform="translate(-891.633 -315.017)" fill="#9059b3"/>
  <path id="Path_3973" data-name="Path 3973" d="M922.179,338.587a.2.2,0,0,0-.087.332,2.119,2.119,0,0,0,.642.346c.328.116.564.357.912.4a.266.266,0,0,0,.3-.386A1.77,1.77,0,0,0,922.179,338.587Z" transform="translate(-902.038 -315.533)" fill="#9059b3"/>
  <path id="Path_3974" data-name="Path 3974" d="M922.387,338.3a.107.107,0,0,0,0,.114,1.052,1.052,0,0,0,1.22.267c.557-.194.328-1.072-.247-.892A1.726,1.726,0,0,0,922.387,338.3Z" transform="translate(-901.763 -316.173)" fill="#9059b3"/>
  <path id="Path_3975" data-name="Path 3975" d="M927.517,332.268a7.454,7.454,0,0,0-.47-1.837.124.124,0,0,0-.214,0,2.8,2.8,0,0,0,.056,2.009A.326.326,0,0,0,927.517,332.268Z" transform="translate(-898.269 -322.189)" fill="#9059b3"/>
  <path id="Path_3976" data-name="Path 3976" d="M927.919,331.6a.163.163,0,0,0,.174-.071c.317-.5-.2-1.064-.631-1.295a.06.06,0,0,0-.091.051C927.362,330.758,927.32,331.512,927.919,331.6Z" transform="translate(-897.699 -322.303)" fill="#9059b3"/>
  <path id="Path_3977" data-name="Path 3977" d="M923.686,333.582c.326-.239.147-.874-.3-.707a7.407,7.407,0,0,1-1.63.451.139.139,0,0,0-.062.232A1.578,1.578,0,0,0,923.686,333.582Z" transform="translate(-902.343 -320.175)" fill="#9059b3"/>
  <path id="Path_3978" data-name="Path 3978" d="M923.262,334.208c.183-.662-1.335-.606-1.648-.412a.064.064,0,0,0-.013.1C921.848,334.09,923.1,334.817,923.262,334.208Z" transform="translate(-902.405 -319.508)" fill="#9059b3"/>
  <path id="Path_3979" data-name="Path 3979" d="M916.137,340.825a3.453,3.453,0,0,0,1.271-.769c.43-.334.867-.631.782-1.209a.284.284,0,0,0-.277-.21c-.423,0-.6.248-.843.58a8.192,8.192,0,0,0-1.05,1.456A.105.105,0,0,0,916.137,340.825Z" transform="translate(-906.937 -315.466)" fill="#9059b3"/>
  <path id="Path_3980" data-name="Path 3980" d="M916.422,340.739a.124.124,0,0,0,.073.181,1.312,1.312,0,0,0,1.572-1.179.158.158,0,0,0-.16-.158A1.956,1.956,0,0,0,916.422,340.739Z" transform="translate(-906.614 -314.695)" fill="#9059b3"/>
  <path id="Path_3981" data-name="Path 3981" d="M927.091,334.066c.279.457,1.086,1.454,1.69,1.226a.171.171,0,0,0,.122-.158c.07-.635-1.092-1.079-1.552-1.327A.191.191,0,0,0,927.091,334.066Z" transform="translate(-897.947 -319.413)" fill="#9059b3"/>
  <path id="Path_3982" data-name="Path 3982" d="M919.943,340.772a1.649,1.649,0,0,0-.13,1.217c.076.187.308.354.508.209.024-.018.047-.036.069-.056a.339.339,0,0,0,.091-.336,5.871,5.871,0,0,0-.288-1.034A.145.145,0,0,0,919.943,340.772Z" transform="translate(-903.901 -313.785)" fill="#9059b3"/>
  <path id="Path_3983" data-name="Path 3983" d="M920.47,337.065a.378.378,0,0,0,.2-.729,8.051,8.051,0,0,1-1.657-.734c-.063-.034-.16.022-.131.1A2.173,2.173,0,0,0,920.47,337.065Z" transform="translate(-904.604 -317.942)" fill="#9059b3"/>
  <path id="Path_3984" data-name="Path 3984" d="M924.626,331.784a.131.131,0,0,0,.158-.089,1.208,1.208,0,0,0-.112-.845,9.074,9.074,0,0,0-.4-1.181.165.165,0,0,0-.283,0C923.727,330.257,923.872,331.608,924.626,331.784Z" transform="translate(-900.545 -322.825)" fill="#9059b3"/>
  <path id="Path_3985" data-name="Path 3985" d="M927.594,337.306a.121.121,0,0,0-.071-.176,2.161,2.161,0,0,0-1.761.272.067.067,0,0,0-.015.1,1.13,1.13,0,0,0,.894.334A.979.979,0,0,0,927.594,337.306Z" transform="translate(-899.03 -316.756)" fill="#9059b3"/>
  <path id="Path_3986" data-name="Path 3986" d="M931.168,331.124a4.485,4.485,0,0,0,1.447-1.317c.221-.415-.2-.761-.6-.6a1.982,1.982,0,0,0-.985,1.835C931.034,331.109,931.114,331.166,931.168,331.124Z" transform="translate(-894.716 -323.167)" fill="#9059b3"/>
</svg>
