<svg id="Group_1476" data-name="Group 1476" xmlns="http://www.w3.org/2000/svg" width="67.245" height="55.955" viewBox="0 0 67.245 55.955">
  <path id="Path_3970" data-name="Path 3970" d="M973.18,337.635c-2.457-2.915-4.875-5.9-7.435-8.738a2.893,2.893,0,0,0-2.442-2.174c-7.966-1.765-17.331-.456-25.3.646-6.339.875-8.574,3.922-12.1,8.945-4.268,6.082-8.623,12.115-12.541,18.43-2.612,4.211-2.861,7.011-1.67,8.839a1.913,1.913,0,0,0,.411,1.668c4.008,4.861,9.559,14.018,15.784,15.879,6.108,1.824,14.742-.478,20.907-1.415,4.993-.761,8.649-1.6,11.752-5.752,4.4-5.892,8.453-12.015,12.4-18.217,2.219-3.485,5.047-7.05,5.3-11.283C978.377,342.319,974.358,339.033,973.18,337.635Zm-58.563,23.156c.564-3.721,4.434-7.949,6.463-10.952,2.439-3.615,4.961-7.176,7.476-10.738,3.684-5.22,5.782-7.519,12.406-8.3a142.627,142.627,0,0,1,17.607-.864c5.78.037-.024,7.329-1.283,9.319-2.941,4.65-5.97,9.241-9.127,13.744-3.874,5.523-6.128,7.381-12.763,8.483C933.8,361.722,913.972,365.041,914.618,360.791Zm44.775,8.392c-3.47,4.812-5.84,5.922-11.609,6.882-3.606.6-17.123,3.835-20.086.944-3.371-3.284-6.573-6.884-9.652-10.522,5.905.7,14.042-.7,18.357-1.355,6.013-1,9.066-2.152,12.722-7.046,5.078-6.8,9.639-13.992,14.114-21.2a24.793,24.793,0,0,0,1.7-3.241c3.185,3.626,6.234,7.4,9.28,11.117C976.4,347.431,961.092,366.823,959.393,369.183Z" transform="translate(-911.007 -325.859)" fill="#9059b3"/>
  <path id="Path_3971" data-name="Path 3971" d="M948.256,340.909c-3.254,3.17-5.875,6.882-9.111,10.064-2.377,2.34-5.136,2.563-8.275,3.075a30.019,30.019,0,0,0-8.489,2.6.144.144,0,0,0,.071.266c3.66-.14,7.323-.787,10.976-1.143a11.93,11.93,0,0,0,6.469-2.381c4.056-3.1,6.638-7.632,8.816-12.128A.292.292,0,0,0,948.256,340.909Z" transform="translate(-897.886 -308.492)" fill="#9059b3"/>
  <path id="Path_3972" data-name="Path 3972" d="M936.8,339.195c-.577.177-.778.505-1.121.99a4.51,4.51,0,0,0-.849,1.532.126.126,0,0,0,.153.151c1-.248,2.232-1.491,2.016-2.562A.161.161,0,0,0,936.8,339.195Z" transform="translate(-883.362 -310.388)" fill="#9059b3"/>
  <path id="Path_3973" data-name="Path 3973" d="M922.207,338.594a.238.238,0,0,0-.1.4,2.523,2.523,0,0,0,.765.413c.391.138.672.426,1.087.48a.317.317,0,0,0,.354-.46A2.109,2.109,0,0,0,922.207,338.594Z" transform="translate(-898.21 -311.125)" fill="#9059b3"/>
  <path id="Path_3974" data-name="Path 3974" d="M922.39,338.4a.129.129,0,0,0,0,.136,1.254,1.254,0,0,0,1.454.318c.663-.231.391-1.277-.294-1.063A2.058,2.058,0,0,0,922.39,338.4Z" transform="translate(-897.816 -312.038)" fill="#9059b3"/>
  <path id="Path_3975" data-name="Path 3975" d="M927.68,332.632a8.881,8.881,0,0,0-.56-2.189.148.148,0,0,0-.255,0,3.334,3.334,0,0,0,.067,2.394A.388.388,0,0,0,927.68,332.632Z" transform="translate(-892.832 -320.623)" fill="#9059b3"/>
  <path id="Path_3976" data-name="Path 3976" d="M928.024,331.867a.194.194,0,0,0,.208-.084c.378-.6-.235-1.268-.752-1.543a.071.071,0,0,0-.108.061C927.361,330.858,927.311,331.757,928.024,331.867Z" transform="translate(-892.018 -320.785)" fill="#9059b3"/>
  <path id="Path_3977" data-name="Path 3977" d="M924.074,333.722c.389-.285.175-1.041-.354-.843a8.82,8.82,0,0,1-1.942.538.166.166,0,0,0-.073.277A1.88,1.88,0,0,0,924.074,333.722Z" transform="translate(-898.644 -317.748)" fill="#9059b3"/>
  <path id="Path_3978" data-name="Path 3978" d="M923.584,334.311c.218-.789-1.59-.722-1.964-.49a.077.077,0,0,0-.015.121C921.9,334.171,923.385,335.037,923.584,334.311Z" transform="translate(-898.733 -316.797)" fill="#9059b3"/>
  <path id="Path_3979" data-name="Path 3979" d="M916.162,341.244a4.115,4.115,0,0,0,1.514-.916c.512-.4,1.033-.752.931-1.441a.338.338,0,0,0-.33-.251c-.5,0-.717.3-1,.691a9.756,9.756,0,0,0-1.251,1.735A.125.125,0,0,0,916.162,341.244Z" transform="translate(-905.2 -311.029)" fill="#9059b3"/>
  <path id="Path_3980" data-name="Path 3980" d="M916.425,340.961a.148.148,0,0,0,.086.216,1.563,1.563,0,0,0,1.873-1.4.189.189,0,0,0-.19-.188A2.331,2.331,0,0,0,916.425,340.961Z" transform="translate(-904.739 -309.929)" fill="#9059b3"/>
  <path id="Path_3981" data-name="Path 3981" d="M927.1,334.12c.333.544,1.294,1.733,2.014,1.461a.2.2,0,0,0,.145-.188c.084-.756-1.3-1.286-1.85-1.582A.227.227,0,0,0,927.1,334.12Z" transform="translate(-892.371 -316.661)" fill="#9059b3"/>
  <path id="Path_3982" data-name="Path 3982" d="M919.982,340.786a1.964,1.964,0,0,0-.156,1.45c.091.223.367.421.6.249.028-.022.056-.043.082-.067a.4.4,0,0,0,.108-.4,7.007,7.007,0,0,0-.343-1.232A.173.173,0,0,0,919.982,340.786Z" transform="translate(-900.868 -308.631)" fill="#9059b3"/>
  <path id="Path_3983" data-name="Path 3983" d="M920.775,337.347a.451.451,0,0,0,.24-.869,9.591,9.591,0,0,1-1.975-.875c-.076-.041-.19.026-.156.119A2.59,2.59,0,0,0,920.775,337.347Z" transform="translate(-901.87 -314.563)" fill="#9059b3"/>
  <path id="Path_3984" data-name="Path 3984" d="M924.771,332.2a.156.156,0,0,0,.188-.106,1.439,1.439,0,0,0-.134-1.007,10.8,10.8,0,0,0-.477-1.407.2.2,0,0,0-.337,0C923.7,330.384,923.872,331.994,924.771,332.2Z" transform="translate(-896.079 -321.53)" fill="#9059b3"/>
  <path id="Path_3985" data-name="Path 3985" d="M927.951,337.355a.145.145,0,0,0-.084-.21,2.576,2.576,0,0,0-2.1.324.08.08,0,0,0-.017.123,1.346,1.346,0,0,0,1.065.4A1.166,1.166,0,0,0,927.951,337.355Z" transform="translate(-893.917 -312.87)" fill="#9059b3"/>
  <path id="Path_3986" data-name="Path 3986" d="M931.194,331.5a5.345,5.345,0,0,0,1.724-1.569c.264-.495-.244-.907-.711-.711a2.362,2.362,0,0,0-1.173,2.187C931.034,331.481,931.129,331.548,931.194,331.5Z" transform="translate(-887.762 -322.017)" fill="#9059b3"/>
</svg>
