<svg xmlns="http://www.w3.org/2000/svg" width="48.864" height="61.944" viewBox="0 0 48.864 61.944">
  <path id="Path_19026" data-name="Path 19026" d="M1089.206,378.537c-3.531-3.976-9.878-5.1-13.808-9.02-5.433-5.417-6.69-13.108-8.724-20.151a1.838,1.838,0,0,0-1.707-1.272l-.077-.005-.077.005a1.858,1.858,0,0,0-1.717,1.272c-2.1,7.277-3.49,14.34-8.729,20.151-3.807,4.226-10.211,4.967-13.808,9.02a3.918,3.918,0,0,0,0,1.053c3.526,3.976,9.873,5.1,13.808,9.025,5.433,5.412,6.7,13.1,8.729,20.14a1.858,1.858,0,0,0,1.717,1.273l.077,0,.077,0a1.838,1.838,0,0,0,1.707-1.273c2.1-7.272,3.49-14.335,8.724-20.14,3.807-4.232,10.216-4.973,13.808-9.025a3.918,3.918,0,0,0,0-1.053Zm-17.964,5.923a28.46,28.46,0,0,0-6.408,9.761,33.728,33.728,0,0,0-6.317-9.761,26.729,26.729,0,0,0-7.237-5.427,32.425,32.425,0,0,0,7.237-5.366,28.343,28.343,0,0,0,6.419-9.761,33.834,33.834,0,0,0,6.306,9.761,26.671,26.671,0,0,0,7.247,5.422A32.673,32.673,0,0,0,1071.242,384.46Z" transform="translate(-1040.448 -348.089)" fill="#9059b3"/>
</svg>
