<svg xmlns="http://www.w3.org/2000/svg" width="41.011" height="51.989" viewBox="0 0 41.011 51.989">
  <path id="Path_19026" data-name="Path 19026" d="M1081.37,373.644c-2.964-3.337-8.291-4.28-11.589-7.57-4.56-4.547-5.615-11-7.322-16.912a1.542,1.542,0,0,0-1.433-1.068l-.064,0-.064,0a1.56,1.56,0,0,0-1.441,1.068c-1.763,6.108-2.929,12.035-7.326,16.912-3.2,3.547-8.57,4.169-11.589,7.57a3.305,3.305,0,0,0,0,.884c2.96,3.337,8.286,4.281,11.589,7.575,4.56,4.542,5.619,10.993,7.326,16.9a1.56,1.56,0,0,0,1.441,1.068l.064,0,.064,0a1.542,1.542,0,0,0,1.433-1.068c1.763-6.1,2.929-12.031,7.322-16.9,3.2-3.551,8.574-4.173,11.589-7.575a3.279,3.279,0,0,0,0-.884Zm-15.076,4.971a23.886,23.886,0,0,0-5.378,8.192,28.311,28.311,0,0,0-5.3-8.192,22.43,22.43,0,0,0-6.073-4.555,27.214,27.214,0,0,0,6.073-4.5,23.784,23.784,0,0,0,5.387-8.192,28.4,28.4,0,0,0,5.293,8.192,22.385,22.385,0,0,0,6.082,4.551A27.424,27.424,0,0,0,1066.293,378.615Z" transform="translate(-1040.448 -348.089)" fill="#9059b3"/>
</svg>
