<svg id="Group_1470" data-name="Group 1470" xmlns="http://www.w3.org/2000/svg" width="178.399" height="176.283" viewBox="0 0 178.399 176.283">
  <path id="Path_3834" data-name="Path 3834" d="M1002.524,475.276c-2.25-5.531-9.695-9.444-14.647-12.041-7.458-3.912-16.062-2-23.989-.337a26.509,26.509,0,0,0-2.2-4.018c.4-.485.812-.969,1.214-1.456,5.364-6.453,4.048-20.48-.828-26.908-5.9-7.784-13.621-14.586-20.41-21.579-8.441-8.692-16.809-17.563-25.77-25.727a1.972,1.972,0,0,0-.273-.2c-.026-.022-.045-.047-.073-.069-6.883-5.374-18.442-3.806-26.225-.422a21.21,21.21,0,0,0-5.6-2.166c2.141-6.546,4.623-14.784.251-20.6a47.789,47.789,0,0,0-16.409-13.992c-5.847-2.861-7.876,1.113-9.049,6.479-.54,2.47-.973,4.913-1.65,7.358-1.326,4.805-6.016,3.547-9.859,3.475-2.227-.043-5.588.793-6.441,3.175s1.515,10.317-1.166,11.359c-2.174.844-6.143-.035-8.515.233-6.122.693-8.229,5.364-4.888,10.3,4.782,7.06,13.57,13.368,21.481,16.405,4.678,1.8,11.684-.436,16.7-2.5a11.3,11.3,0,0,1-.1,3.969c-.008.031-.008.063-.014.094q-1.209,1.4-2.4,2.818c-4.54,5.429-6.536,20.3-1.774,26.137,6.292,7.711,13.279,14.924,20.086,22.179,9.432,10.052,24.752,29.555,40.409,32.455a1.912,1.912,0,0,0,.8.124c5.733.85,11.5-.559,17.021-5.553.824-.746,1.63-1.513,2.439-2.278a2.077,2.077,0,0,0,.365.071c1.185.106,2.333.32,3.465.483a71.016,71.016,0,0,0-2.4,18.548c0,7.344,8.339,11.786,13.7,15.285,4.866,3.175,12.54,8.388,15.991.777,1.376-3.031,1.064-6.963.406-10.134-1.067-5.156,6.387-3.969,9.9-4.452,2.07-.283,3.118-2.413,3.628-4.15,1.546-5.28-3.718-10.57,2.935-13.705C991.852,483.19,1004.9,481.112,1002.524,475.276Zm-18.83-9.932c.587.487.94.477.567.889a13.947,13.947,0,0,1-3.638,2.461,3.868,3.868,0,0,1-1.016.441,3.078,3.078,0,0,1-.137-.685,33.01,33.01,0,0,1-.143-4.016,19.68,19.68,0,0,1,4.215.757A1.636,1.636,0,0,0,983.693,465.344Zm-42.658-49.072a2.293,2.293,0,0,1-.357-.137,27.044,27.044,0,0,1-4.107-2.362,2.494,2.494,0,0,1-.575-.583l.069-.106c.63-.959,2.1-1.634,3.118-2.2q.951.989,1.9,1.978a.309.309,0,0,0,0,.045c.041.93.051,1.856.012,2.788C941.087,415.888,941.057,416.08,941.035,416.272Zm-92.6-15.034c-7.57-2.1-15.94-9.61-20.2-15.9-3.506-5.178,10.411-3.785,12.583-4.629,3.559-1.381,3.165-6.471,3.008-9.465-.394-7.619,9.624-2.519,14.062-6.143,3.049-2.488,3.53-17.771,7.366-16.6,5.007,1.532,9.528,6.267,13.079,9.9,6.6,6.746,4.246,14.27,1.554,22.582a20.77,20.77,0,0,0-5.129,3.237c-.95-.934-1.937-1.831-2.971-2.663a4.234,4.234,0,0,0-3.3-1.148c-2.572.436-3.155,3.7-3.628,5.792-.408,1.809-.794,3.964.428,5.543a2.868,2.868,0,0,0,1.462.979,38.468,38.468,0,0,0-2.044,3.569,6.466,6.466,0,0,0-.626,2.06C859.634,400.281,853.02,402.51,848.439,401.239Zm20.767-11.851a6.416,6.416,0,0,1-1.069.118.708.708,0,0,1-.178-.027c-.006-.088-.051-.247-.053-.357a7.59,7.59,0,0,1,.175-1.548c.141-.746.338-1.478.53-2.209a5.135,5.135,0,0,1,.494-1.456,1.374,1.374,0,0,0,.19.069,8.027,8.027,0,0,1,1.271,1.032c.531.459,1.028.958,1.534,1.444A25.121,25.121,0,0,0,869.205,389.388Zm1.081,4.266c3.481-5.131,8.857-10.03,14.951-8.9-4.5,3.092-8.553,7.876-12.136,11.514q-2.943,2.99-5.763,6.114C867.129,399.026,868.417,396.414,870.286,393.653Zm13.25.286c.4.371.785.763,1.165,1.158q.38.4.734.822c.012.026.02.031.031.055a9.936,9.936,0,0,1-1.772.551c-.863.269-1.735.506-2.62.691a5.5,5.5,0,0,1-1.387.122l0,0a7.893,7.893,0,0,1,.412-3.1h0c.608-.577,1.218-1.152,1.837-1.719C882.479,392.976,883.013,393.459,883.537,393.94Zm-3.932,3.377c-.031-.018-.026-.022,0,0Zm-2.594,47.29.01.026a6.177,6.177,0,0,1-.061,1.277,15.9,15.9,0,0,1-.51,2.545q-1.475-1.6-2.937-3.2c.681-.2,1.366-.383,2.06-.53a5.967,5.967,0,0,1,1.163-.137A1.407,1.407,0,0,1,877.011,444.607Zm38.547,40.072c.424-.469.854-.932,1.3-1.381.386-.391.8-.754,1.216-1.112l.016-.008c.016.033.04.067.055.1a14.48,14.48,0,0,1,1.158,3.471q-.619-.138-1.222-.285A23.49,23.49,0,0,1,915.558,484.679Zm17.975-.861c-3.016,2.627-6.895,3-10.705,2.549a20.254,20.254,0,0,0-.455-2.056,12.94,12.94,0,0,0-2.005-4.884c-2.451-3.073-6.326,1.654-8.084,3.767-9.785-5.139-18.153-16.083-25.187-23.435q-4.035-4.217-8.023-8.49c1.091-2.5,2.4-6.8.526-8.988-2.007-2.343-6.23-.636-8.637.171-2.423-2.684-4.831-5.382-7.2-8.113-3.424-3.95-2.828-9.814-2.345-14.726.628-6.394,3.991-9.911,8.051-14.435q3.32-3.7,6.824-7.232a3.776,3.776,0,0,0,.5,1.315c1.177,1.874,3.573,1.619,5.439,1.226,2.26-.473,6.035-1.126,6.8-3.685.481-1.613-.889-3.037-1.87-4.107a27.4,27.4,0,0,0-2.635-2.5c.31-.271.608-.551.92-.82,5.078-4.352,10.626-5.808,17.255-6.285,3.875-.279,7.723.3,10.87,2.653,7.929,7.232,15.63,14.824,23.157,22.586-1.6.934-3.337,2.058-4.016,3.767-.711,1.789.459,3.367,1.821,4.419,1.862,1.436,4.538,3.194,6.94,3.334,2.066.12,2.782-1.566,3.006-3.408q7.026,7.443,13.89,14.959c4.171,4.558,4.562,12.416,4.066,18.22-.43,5.027-4.748,8.706-7.854,12.3-4.5,5.2-9.13,10.287-13.943,15.2Q937.219,480.606,933.533,483.818ZM959.326,461.7c1.468,2.82,1.593,5.2-.91,7.848a53.362,53.362,0,0,1-4.446,3.918c-2.158,1.821-3.434,5.621-6.63,5.957a12.294,12.294,0,0,1-3.681-.369C949.161,473.552,954.319,467.652,959.326,461.7Zm-10.472,45.409a13.325,13.325,0,0,1-2.655-4.389c.51-.055,1.026-.073,1.543-.1.606-.037,1.212-.053,1.821-.061.567-.008,1.878.4,1.994-.328a11.578,11.578,0,0,1-1.692,3.412A10.432,10.432,0,0,1,948.855,507.106Zm29.667-15.973a10.338,10.338,0,0,1-.263-2.506c-.051-.808-.063-1.617-.053-2.429.008-.408.031-.814.067-1.222,0-.02,0-.031,0-.051a.445.445,0,0,0,.043.022,13.125,13.125,0,0,1,3.039,1.558,7.357,7.357,0,0,0-.126,3.206,10.775,10.775,0,0,1-2.688,1.409C978.527,491.122,978.531,491.128,978.521,491.132Zm20.867-14.563c-4.707,3.44-11.135,3.722-15.921,7.2-1.783-1.224-4.089-2.607-6.077-2.337-2.974.4-2.678,4.325-2.6,6.5s-.069,5.472,2.38,6.455c1.546.62,3.294-.157,4.8-1.077.622,3.112.479,5.739-5.622,6.263-3.149.271-6.461,1.042-7.766,4.167-1.9,4.55,4.807,18.736-6.979,12.138a70.272,70.272,0,0,1-10.23-6.385,17.632,17.632,0,0,0,1.974-3.043c.848-1.54,1.974-3.31,1.5-5.139-.518-2.011-2.926-2.133-4.6-2.2a23.838,23.838,0,0,0-4.67.157c-.006-.243-.031-.477-.021-.728a66.419,66.419,0,0,1,2.445-15.856,8.068,8.068,0,0,0,2.054-.473c3.053-1.156,4.654-4.9,7.044-6.913,2.61-2.205,5.3-4.413,6.838-7.525a4.973,4.973,0,0,0,.453-1.481,77.591,77.591,0,0,1,11.425-1.878,14.386,14.386,0,0,0,.848,6.585c1.012,2.158,3.565,1.666,5.278.871,2.076-.961,4.8-2.745,5.619-4.8C991.31,469.474,1000.419,475.816,999.388,476.569Z" transform="translate(-824.411 -344.803)" fill="#e63b69"/>
  <path id="Path_3835" data-name="Path 3835" d="M878.09,389.156a3.537,3.537,0,0,0,.585-3.987c-.93-2.384-3.014-6.41-5.908-6.769-3.19-.4-5.054,4.183-6.171,6.385-.669,1.413-1.189,2.984-.135,4.354,1.277,1.658,4.1,1.34,5.925,1.277C874.1,390.357,876.761,390.512,878.09,389.156Zm-8.661-2.223-.024-.006a3,3,0,0,1,.139-.369,16.807,16.807,0,0,1,2.884-4.664.347.347,0,0,0,.074-.09c-.006.033,0,.082.092.141a5.819,5.819,0,0,1,1.311,1.66,25.5,25.5,0,0,1,1.434,2.462,2.765,2.765,0,0,1,.241.612c-.065.018-.147.041-.269.073a18.29,18.29,0,0,1-4.055.253C870.646,387.014,870.037,386.976,869.429,386.933Z" transform="translate(-784.534 -312.503)" fill="#e63b69"/>
  <path id="Path_3836" data-name="Path 3836" d="M887.625,403.961c-1.279-1.656-4.1-1.338-5.925-1.275-1.713.059-4.374-.1-5.7,1.26a3.533,3.533,0,0,0-.584,3.985c.928,2.384,3.014,6.408,5.908,6.767,3.19.4,5.055-4.183,6.171-6.385C888.159,406.9,888.681,405.329,887.625,403.961Zm-5.969,7.242a.4.4,0,0,0-.074.09c.006-.033,0-.08-.092-.141a5.809,5.809,0,0,1-1.311-1.658,25.651,25.651,0,0,1-1.436-2.462,2.774,2.774,0,0,1-.24-.61c.065-.018.147-.041.269-.071a18.174,18.174,0,0,1,4.056-.255c.61-.01,1.221.029,1.829.073l.023.006a3.6,3.6,0,0,1-.139.367A16.8,16.8,0,0,1,881.656,411.2Z" transform="translate(-775.682 -289.177)" fill="#e63b69"/>
  <path id="Path_3837" data-name="Path 3837" d="M869.221,398.962c1.364-.479,3.292-1.4,3.208-3.157-.106-2.217-2.135-3.842-3.663-5.229-1.391-1.262-3.125-3.133-5.205-2.782s-2.815,2.6-3.285,4.368c-.549,2.074-1.629,5.649.4,7.3C863.012,401.36,866.765,399.769,869.221,398.962Zm-6.231-2.074c.016.014-.006.033.047.114C862.963,396.886,862.99,396.967,862.99,396.888Zm-.208-.075.177.057C862.923,396.861,862.872,396.843,862.782,396.814Zm.208.067a1.893,1.893,0,0,0-.028-.212c.01.053.033-.638.051-.836a15.585,15.585,0,0,1,.469-2.333c.141-.575.3-1.142.49-1.7a2.911,2.911,0,0,1,.255-.514c.039.02.078.043.135.075a17.4,17.4,0,0,1,3.381,2.99,11.93,11.93,0,0,1,1.013,1.136c-.122.051-.245.1-.367.141a17.535,17.535,0,0,1-5.184,1.264C863.049,396.886,863.045,396.9,862.99,396.881Z" transform="translate(-790.658 -303.483)" fill="#e63b69"/>
  <path id="Path_3838" data-name="Path 3838" d="M876.93,399.289a3.536,3.536,0,0,0,3.987.585c2.384-.928,6.41-3.012,6.769-5.906.4-3.19-4.183-5.054-6.385-6.171-1.415-.671-2.984-1.191-4.354-.137-1.658,1.277-1.34,4.1-1.275,5.928C875.732,395.3,875.575,397.96,876.93,399.289Zm2.151-6.832c-.008-.61.03-1.22.073-1.831l.006-.022a3.453,3.453,0,0,1,.369.139,16.781,16.781,0,0,1,4.664,2.886.386.386,0,0,0,.092.075c-.035-.006-.082,0-.143.092a5.759,5.759,0,0,1-1.66,1.311,25.822,25.822,0,0,1-2.462,1.434,2.754,2.754,0,0,1-.612.241l-.07-.269A18.3,18.3,0,0,1,879.081,392.457Z" transform="translate(-775.157 -304.149)" fill="#e63b69"/>
  <path id="Path_3839" data-name="Path 3839" d="M871.978,380.588c1.658-1.277,1.34-4.1,1.277-5.927-.059-1.711.1-4.374-1.26-5.7a3.54,3.54,0,0,0-3.987-.585c-2.384.928-6.408,3.014-6.767,5.908-.4,3.19,4.183,5.052,6.385,6.169C869.036,381.121,870.61,381.643,871.978,380.588Zm-7.332-6.043c.035.006.08,0,.139-.094a5.825,5.825,0,0,1,1.662-1.309,25.81,25.81,0,0,1,2.461-1.436,2.78,2.78,0,0,1,.61-.239c.02.065.041.147.073.269a18.178,18.178,0,0,1,.255,4.056c.01.61-.03,1.221-.073,1.831l-.006.02a3.135,3.135,0,0,1-.369-.139,16.8,16.8,0,0,1-4.662-2.882A.392.392,0,0,0,864.645,374.544Z" transform="translate(-789.001 -322.462)" fill="#e63b69"/>
  <path id="Path_3840" data-name="Path 3840" d="M887.987,406.7c2.074.549,5.649,1.631,7.3-.4,1.9-2.331.3-6.084-.5-8.545-.481-1.362-1.4-3.288-3.157-3.206-2.215.106-3.84,2.137-5.229,3.665-1.262,1.389-3.133,3.124-2.78,5.2S886.217,406.23,887.987,406.7Zm4.725-2.714c.016-.016.033.006.116-.047C892.712,404.017,892.794,403.988,892.712,403.988Zm-.073.208c.031-.1.047-.145.057-.175C892.684,404.057,892.667,404.108,892.639,404.2Zm-2.466-4.962a11.6,11.6,0,0,1,1.134-1.012c.051.12.1.243.141.363a17.489,17.489,0,0,1,1.264,5.186.78.78,0,0,1-.006.22,1.45,1.45,0,0,0-.212.028c.053-.012-.638-.035-.836-.053a15.234,15.234,0,0,1-2.331-.471c-.575-.141-1.144-.3-1.707-.489a2.869,2.869,0,0,1-.514-.257c.022-.039.043-.081.075-.137A17.447,17.447,0,0,1,890.173,399.234Z" transform="translate(-767.49 -296.948)" fill="#e63b69"/>
  <path id="Path_3841" data-name="Path 3841" d="M871.6,400.995c-2.072-.551-5.647-1.632-7.3.4-1.9,2.331-.3,6.084.5,8.543.479,1.366,1.4,3.292,3.155,3.208,2.219-.1,3.844-2.133,5.231-3.665,1.262-1.391,3.132-3.126,2.78-5.206S873.37,401.464,871.6,400.995Zm-4.724,2.712c-.016.016-.034-.006-.116.049C866.875,403.679,866.795,403.706,866.875,403.706Zm.072-.208c-.031.1-.047.147-.057.177C866.9,403.64,866.92,403.587,866.948,403.5Zm2.468,4.964a11.424,11.424,0,0,1-1.136,1.011c-.053-.12-.1-.241-.141-.365a17.465,17.465,0,0,1-1.264-5.186c0-.159-.01-.161.008-.216a1.941,1.941,0,0,0,.212-.027c-.053.01.636.033.836.051a15.3,15.3,0,0,1,2.331.471c.575.141,1.142.3,1.705.49a2.85,2.85,0,0,1,.514.255c-.021.039-.043.08-.075.135A17.456,17.456,0,0,1,869.416,408.462Z" transform="translate(-786.895 -291.496)" fill="#e63b69"/>
  <path id="Path_3842" data-name="Path 3842" d="M839.519,363.56c-3.19-.4-5.054,4.183-6.171,6.385-.669,1.413-1.191,2.982-.135,4.352,1.277,1.658,4.1,1.34,5.925,1.277,1.713-.059,4.374.1,5.7-1.26a3.534,3.534,0,0,0,.585-3.985C844.5,367.945,842.411,363.919,839.519,363.56Zm-1.509,8.6c-.612.008-1.22-.029-1.831-.073l-.022-.006a3.1,3.1,0,0,1,.139-.369,16.741,16.741,0,0,1,2.884-4.662.291.291,0,0,0,.073-.09c-.006.035,0,.081.094.141a5.854,5.854,0,0,1,1.311,1.66,25.257,25.257,0,0,1,1.434,2.462,2.748,2.748,0,0,1,.241.61c-.065.018-.147.041-.269.071A18.182,18.182,0,0,1,838.01,372.164Z" transform="translate(-816.522 -326.78)" fill="#e63b69"/>
  <path id="Path_3843" data-name="Path 3843" d="M860.12,384.5c.671-1.411,1.191-2.984.137-4.352-1.277-1.658-4.1-1.34-5.927-1.277-1.713.059-4.371-.1-5.7,1.26a3.531,3.531,0,0,0-.585,3.985c.928,2.384,3.014,6.408,5.908,6.769C857.141,391.281,859,386.7,860.12,384.5Zm-5.833,2.89a.419.419,0,0,0-.073.09c.006-.033,0-.081-.094-.139a5.821,5.821,0,0,1-1.309-1.662,25.3,25.3,0,0,1-1.436-2.46,2.845,2.845,0,0,1-.241-.612c.067-.018.147-.041.269-.071a18.3,18.3,0,0,1,4.056-.255c.612-.01,1.222.029,1.831.073l.023.006a3.434,3.434,0,0,1-.139.369A16.756,16.756,0,0,1,854.286,387.389Z" transform="translate(-802.013 -312.091)" fill="#e63b69"/>
  <path id="Path_3844" data-name="Path 3844" d="M852.4,365.676c2.08-.351,2.816-2.6,3.286-4.368.55-2.074,1.629-5.647-.406-7.3-2.329-1.9-6.082-.306-8.541.5-1.364.481-3.29,1.4-3.208,3.159.106,2.215,2.135,3.842,3.663,5.229C848.59,364.159,850.326,366.027,852.4,365.676Zm.573-9.092c-.018-.016.006-.033-.049-.116C853,356.583,852.977,356.5,852.977,356.583Zm.206.073-.177-.057Zm-.424-.073a.758.758,0,0,1,.218.006,1.956,1.956,0,0,0,.027.214c-.01-.055-.033.636-.051.834a15.5,15.5,0,0,1-.469,2.331c-.143.577-.3,1.144-.491,1.705a2.794,2.794,0,0,1-.257.514c-.039-.02-.08-.041-.137-.073a17.334,17.334,0,0,1-3.377-2.99,11.189,11.189,0,0,1-1.012-1.138c.12-.051.243-.1.365-.141A17.48,17.48,0,0,1,852.759,356.583Z" transform="translate(-806.015 -336.807)" fill="#e63b69"/>
  <path id="Path_3845" data-name="Path 3845" d="M899.776,415.076c-2.074-.549-5.649-1.628-7.3.4-1.9,2.331-.3,6.083.5,8.541.479,1.364,1.395,3.292,3.155,3.208,2.217-.1,3.844-2.133,5.231-3.663,1.262-1.391,3.131-3.128,2.78-5.205S901.544,415.545,899.776,415.076Zm-4.727,2.714c-.016.016-.034-.006-.116.049C895.049,417.762,894.969,417.79,895.049,417.79Zm.073-.208c-.031.1-.047.149-.057.179C895.077,417.723,895.092,417.672,895.122,417.582Zm2.466,4.964a11.861,11.861,0,0,1-1.132,1.01c-.053-.122-.1-.245-.143-.367a17.528,17.528,0,0,1-1.263-5.182.828.828,0,0,1,.006-.218,1.924,1.924,0,0,0,.214-.027c-.055.008.636.033.836.051a15.229,15.229,0,0,1,2.331.469c.575.141,1.144.3,1.7.49a2.845,2.845,0,0,1,.514.255l-.075.135A17.366,17.366,0,0,1,897.588,422.546Z" transform="translate(-759.789 -277.945)" fill="#e63b69"/>
  <path id="Path_3846" data-name="Path 3846" d="M875.671,377.813a5.325,5.325,0,0,0-1.717-2.67.2.2,0,0,0-.295.22,20.53,20.53,0,0,0,.765,2.945C874.72,379.01,875.912,378.531,875.671,377.813Z" transform="translate(-777.035 -315.644)" fill="#e63b69"/>
  <path id="Path_3847" data-name="Path 3847" d="M875.731,376.463c.7-.392-.581-1.464-.873-1.717a.262.262,0,0,0-.444.175C874.346,375.468,874.982,376.885,875.731,376.463Z" transform="translate(-776.308 -316.066)" fill="#e63b69"/>
  <path id="Path_3848" data-name="Path 3848" d="M874.614,399.589a6.821,6.821,0,0,0-.785-1.705c-.228-.4-.54-1.1-1.048-1.185a.242.242,0,0,0-.294.161c-.135.5.235,1.138.4,1.607a4.45,4.45,0,0,0,.812,1.636A.549.549,0,0,0,874.614,399.589Z" transform="translate(-778.186 -294.879)" fill="#e63b69"/>
  <path id="Path_3849" data-name="Path 3849" d="M873.541,396.33a.283.283,0,0,0-.35.337,4.24,4.24,0,0,0,.918,1.548c.4.42,1.136-.114.818-.614A2.749,2.749,0,0,0,873.541,396.33Z" transform="translate(-777.491 -295.237)" fill="#e63b69"/>
  <path id="Path_3850" data-name="Path 3850" d="M856.535,388.448c-.638-.161-1.927-.83-2.511-.308a.116.116,0,0,0,0,.167,6.685,6.685,0,0,0,2.24,1.073A.486.486,0,0,0,856.535,388.448Z" transform="translate(-795.956 -303.297)" fill="#e63b69"/>
  <path id="Path_3851" data-name="Path 3851" d="M855.936,387.278a1.354,1.354,0,0,0-1.556.3.129.129,0,0,0,0,.18,1.108,1.108,0,0,0,1.625-.2A.2.2,0,0,0,855.936,387.278Z" transform="translate(-795.616 -304.059)" fill="#e63b69"/>
  <path id="Path_3852" data-name="Path 3852" d="M860.951,380.005c.369-.457.155-.991.069-1.538a4.84,4.84,0,0,0-.489-1.994.126.126,0,0,0-.227.026,7.4,7.4,0,0,0-.063,2.052c0,.536-.067,1.173.43,1.485A.228.228,0,0,0,860.951,380.005Z" transform="translate(-789.98 -314.391)" fill="#e63b69"/>
  <path id="Path_3853" data-name="Path 3853" d="M862.066,378.4c.343-.695-.167-1.5-.632-2.029a.19.19,0,0,0-.316.078,1.93,1.93,0,0,0,.675,2.019A.2.2,0,0,0,862.066,378.4Z" transform="translate(-789.141 -314.488)" fill="#e63b69"/>
  <path id="Path_3854" data-name="Path 3854" d="M884.49,406.468a.108.108,0,0,0-.137.1,2.812,2.812,0,0,0,.387,1.111,7.208,7.208,0,0,0,.855,1.493.428.428,0,0,0,.716-.4A3.7,3.7,0,0,0,884.49,406.468Z" transform="translate(-766.743 -285.48)" fill="#e63b69"/>
  <path id="Path_3855" data-name="Path 3855" d="M885.151,406.056a.245.245,0,0,0-.218.361,3.266,3.266,0,0,0,1.175,1.06c.618.385,1.221-.618.581-.967A2.991,2.991,0,0,0,885.151,406.056Z" transform="translate(-766.215 -285.873)" fill="#e63b69"/>
  <path id="Path_3856" data-name="Path 3856" d="M889.249,389.189a.494.494,0,0,0-.763-.606c-.353.314-.653.689-.991,1.022a2.293,2.293,0,0,0-.649.879.156.156,0,0,0,.145.2A3.081,3.081,0,0,0,889.249,389.189Z" transform="translate(-764.351 -302.816)" fill="#e63b69"/>
  <path id="Path_3857" data-name="Path 3857" d="M888.149,389.788a2.148,2.148,0,0,0-.661.875c-.039.094.053.177.136.186a2.123,2.123,0,0,0,1.171-.2c.367-.161.385-.526.418-.854a.164.164,0,0,0-.157-.167A1.041,1.041,0,0,0,888.149,389.788Z" transform="translate(-763.735 -301.706)" fill="#e63b69"/>
  <path id="Path_3858" data-name="Path 3858" d="M870.848,408.145a3.951,3.951,0,0,0-.422,2.16.421.421,0,0,0,.82.128,2.388,2.388,0,0,0-.186-2.311A.138.138,0,0,0,870.848,408.145Z" transform="translate(-780.143 -283.923)" fill="#e63b69"/>
  <path id="Path_3859" data-name="Path 3859" d="M871.516,407.812c-.082.481-.288,1.183.137,1.534a.22.22,0,0,0,.259.037l.118-.063a.4.4,0,0,0,.206-.345,1.717,1.717,0,0,0-.594-1.195C871.606,407.745,871.526,407.753,871.516,407.812Z" transform="translate(-779.21 -284.233)" fill="#e63b69"/>
  <path id="Path_3860" data-name="Path 3860" d="M860.234,398.608c.7-.3.182-1.234-.455-1.148-.881.12-2.388,1.008-2.362,2.027a.127.127,0,0,0,.184.112c.428-.184.844-.4,1.277-.563S859.794,398.8,860.234,398.608Z" transform="translate(-792.658 -294.147)" fill="#e63b69"/>
  <path id="Path_3861" data-name="Path 3861" d="M859.318,398.409a1.336,1.336,0,0,0-1.3,1.23.069.069,0,0,0,.067.073,2.775,2.775,0,0,0,1.47-.375C859.908,399.1,859.853,398.352,859.318,398.409Z" transform="translate(-792.083 -293.232)" fill="#e63b69"/>
  <path id="Path_3862" data-name="Path 3862" d="M863.588,367.027a.444.444,0,0,0,.237-.82,2.758,2.758,0,0,0-2.431-.073.145.145,0,0,0-.031.228A4.331,4.331,0,0,0,863.588,367.027Z" transform="translate(-788.901 -324.52)" fill="#e63b69"/>
  <path id="Path_3863" data-name="Path 3863" d="M862.519,367.624a3.344,3.344,0,0,0-1.707-.91.239.239,0,0,0-.212.353,4.724,4.724,0,0,0,1.368,1.254C862.374,368.625,862.907,367.95,862.519,367.624Z" transform="translate(-789.622 -323.724)" fill="#e63b69"/>
  <path id="Path_3864" data-name="Path 3864" d="M848.4,386.378a5.492,5.492,0,0,0-2.47.895.126.126,0,0,0,.059.234c.81.01,1.576-.267,2.39-.261a.437.437,0,0,0,.428-.312.923.923,0,0,0,.018-.112A.435.435,0,0,0,848.4,386.378Z" transform="translate(-803.771 -304.804)" fill="#e63b69"/>
  <path id="Path_3865" data-name="Path 3865" d="M848.183,385.605a.146.146,0,0,0-.159-.216,2.862,2.862,0,0,0-2.119,1.224.2.2,0,0,0,.118.3A2.136,2.136,0,0,0,848.183,385.605Z" transform="translate(-803.756 -305.758)" fill="#e63b69"/>
  <path id="Path_3866" data-name="Path 3866" d="M841.229,360.284a4.275,4.275,0,0,0-2.778.067.233.233,0,0,0,.049.424,10.608,10.608,0,0,0,2.576.481A.5.5,0,0,0,841.229,360.284Z" transform="translate(-811.017 -330.1)" fill="#e63b69"/>
  <path id="Path_3867" data-name="Path 3867" d="M840.243,361.334a3.612,3.612,0,0,0-1.448-.312.211.211,0,0,0-.155.355,2.3,2.3,0,0,0,1.348.824A.452.452,0,0,0,840.243,361.334Z" transform="translate(-810.776 -329.203)" fill="#e63b69"/>
  <path id="Path_3868" data-name="Path 3868" d="M847.243,352.108a3.821,3.821,0,0,0-.365-1.525,5.68,5.68,0,0,0-.6-1.389c-.071-.1-.265-.118-.294.033a3.732,3.732,0,0,0,.055,1.311,5.418,5.418,0,0,0,.4,1.77A.433.433,0,0,0,847.243,352.108Z" transform="translate(-803.696 -340.653)" fill="#e63b69"/>
  <path id="Path_3869" data-name="Path 3869" d="M848.088,350.955a3.2,3.2,0,0,0-.661-1.715.366.366,0,0,0-.681.169,2.764,2.764,0,0,0,.579,1.846A.449.449,0,0,0,848.088,350.955Z" transform="translate(-802.928 -340.707)" fill="#e63b69"/>
  <path id="Path_3870" data-name="Path 3870" d="M851.7,360.748a3.134,3.134,0,0,0-1.78.92.131.131,0,0,0,.055.218,2.282,2.282,0,0,0,2.011-.408C852.225,361.233,852.091,360.725,851.7,360.748Z" transform="translate(-799.902 -329.463)" fill="#e63b69"/>
  <path id="Path_3871" data-name="Path 3871" d="M841.7,369.9c-.13.563-.139,1.15-.241,1.719a15.716,15.716,0,0,0-.327,1.97.435.435,0,0,0,.21.383.392.392,0,0,0,.328.049.432.432,0,0,0,.31-.3c.394-1.109.651-2.865-.125-3.859A.092.092,0,0,0,841.7,369.9Z" transform="translate(-808.326 -320.72)" fill="#e63b69"/>
  <path id="Path_3872" data-name="Path 3872" d="M841.078,370.048a.185.185,0,0,0-.251.063,2.763,2.763,0,0,0-.373,1.621.07.07,0,0,0,.1.063C841.2,371.5,841.835,370.568,841.078,370.048Z" transform="translate(-808.98 -320.541)" fill="#e63b69"/>
  <path id="Path_3873" data-name="Path 3873" d="M831.691,365.722c-.683.024-1.521-.2-2.137.159a.2.2,0,0,0,0,.343,4.2,4.2,0,0,0,2.233.341.42.42,0,0,0,.326-.4.549.549,0,0,0-.014-.114A.435.435,0,0,0,831.691,365.722Z" transform="translate(-819.56 -324.724)" fill="#e63b69"/>
  <path id="Path_3874" data-name="Path 3874" d="M829.622,365.279c-.21.163-.026.461.188.481.545.051,1.462.125,1.783-.406a.223.223,0,0,0-.031-.261C831.106,364.553,830.1,364.914,829.622,365.279Z" transform="translate(-819.487 -325.547)" fill="#e63b69"/>
  <path id="Path_3875" data-name="Path 3875" d="M843.019,361.9a4.764,4.764,0,0,0,.865,1.43.4.4,0,0,0,.381.108.344.344,0,0,0,.18-.1.391.391,0,0,0,.108-.383,2.018,2.018,0,0,0-1.238-1.34C843.158,361.569,842.954,361.724,843.019,361.9Z" transform="translate(-806.521 -328.637)" fill="#e63b69"/>
  <path id="Path_3876" data-name="Path 3876" d="M842.244,358.794c.461-.544.135-1.66-.3-2.145a.119.119,0,0,0-.2.049c-.139.563-.235,1.674.249,2.092A.176.176,0,0,0,842.244,358.794Z" transform="translate(-807.843 -333.44)" fill="#e63b69"/>
  <path id="Path_3877" data-name="Path 3877" d="M863.758,384.691c.3-.422-.487-.842-.765-.973-.579-.275-1.189-.8-1.862-.759a.166.166,0,0,0-.161.2C861.157,383.932,863.005,385.735,863.758,384.691Z" transform="translate(-789.242 -308.096)" fill="#e63b69"/>
  <path id="Path_3878" data-name="Path 3878" d="M872.668,372.716a.477.477,0,0,0-.637-.655,4.016,4.016,0,0,0-1.144,1.136.175.175,0,0,0,.073.29A1.546,1.546,0,0,0,872.668,372.716Z" transform="translate(-779.744 -318.633)" fill="#e63b69"/>
  <path id="Path_3879" data-name="Path 3879" d="M868.68,369.285c.394-.6-.349-1.24-.748-1.613a.119.119,0,0,0-.2.11c.125.53.131,1.389.751,1.581A.177.177,0,0,0,868.68,369.285Z" transform="translate(-782.735 -322.833)" fill="#e63b69"/>
  <path id="Path_3880" data-name="Path 3880" d="M872.173,389.569c-.34-1.144-2.186-1.03-2.994-.426a.135.135,0,0,0-.03.21,2.154,2.154,0,0,0,1.134.424,3.218,3.218,0,0,0,1.7.11A.264.264,0,0,0,872.173,389.569Z" transform="translate(-781.407 -302.574)" fill="#e63b69"/>
  <path id="Path_3881" data-name="Path 3881" d="M868.269,396.414a.115.115,0,0,0-.167.065c-.155.636-.412,1.8.01,2.358a.2.2,0,0,0,.251.035C869.209,398.449,868.914,396.893,868.269,396.414Z" transform="translate(-782.589 -295.164)" fill="#e63b69"/>
  <path id="Path_3882" data-name="Path 3882" d="M867.465,409.452a1.45,1.45,0,0,0-1.079,1.061.126.126,0,0,0,.149.155,5.577,5.577,0,0,1,1.056-.079.6.6,0,0,0,.593-.563.334.334,0,0,0-.018-.153A.585.585,0,0,0,867.465,409.452Z" transform="translate(-784.031 -282.628)" fill="#e63b69"/>
  <path id="Path_3883" data-name="Path 3883" d="M860.57,403.066a2.445,2.445,0,0,0-.328,1.248.4.4,0,0,0,.663.29,1.027,1.027,0,0,0-.157-1.583A.134.134,0,0,0,860.57,403.066Z" transform="translate(-789.939 -288.808)" fill="#e63b69"/>
  <path id="Path_3884" data-name="Path 3884" d="M855.623,395.168a.109.109,0,0,0,.147.041,1.586,1.586,0,0,0,.653-1.487.506.506,0,0,0-.349-.479C855.154,392.963,855.393,394.745,855.623,395.168Z" transform="translate(-794.585 -298.227)" fill="#e63b69"/>
  <path id="Path_3885" data-name="Path 3885" d="M848.347,389.826a2.2,2.2,0,0,0,.948,2.107c.224.106.6,0,.569-.314a2.686,2.686,0,0,0-1.383-1.844A.09.09,0,0,0,848.347,389.826Z" transform="translate(-801.411 -301.546)" fill="#e63b69"/>
  <path id="Path_3886" data-name="Path 3886" d="M851.353,377.274a3.129,3.129,0,0,0,.844-1.67c.029-.416-.577-.722-.86-.375a5.414,5.414,0,0,0-.669,1.385c-.163.387-.5.9-.4,1.338a.078.078,0,0,0,.071.057C850.771,378.02,851.1,377.573,851.353,377.274Z" transform="translate(-799.553 -315.674)" fill="#e63b69"/>
  <path id="Path_3887" data-name="Path 3887" d="M851.194,377.317a.191.191,0,0,0,.234.186,1.515,1.515,0,0,0,1.289-1.6.3.3,0,0,0-.357-.216A1.736,1.736,0,0,0,851.194,377.317Z" transform="translate(-798.644 -315.095)" fill="#e63b69"/>
  <path id="Path_3888" data-name="Path 3888" d="M879.52,396.942c-.225.314-.02.914.032,1.26.057.4-.01,1.069.3,1.358a.474.474,0,0,0,.563.082c.6-.359.259-1.295.053-1.807C880.409,397.694,879.808,396.542,879.52,396.942Z" transform="translate(-771.491 -294.721)" fill="#e63b69"/>
  <path id="Path_3889" data-name="Path 3889" d="M879.213,382.776a.219.219,0,0,0-.155-.212c-.889-.337-2.143,1.063-2.535,1.729a.075.075,0,0,0,.083.112C877.373,384.2,879.182,383.765,879.213,382.776Z" transform="translate(-774.285 -308.523)" fill="#e63b69"/>
  <path id="Path_3890" data-name="Path 3890" d="M883.115,387.572a.264.264,0,0,0,.32-.175c.257-.873-.922-1.629-1.5-2.092a.07.07,0,0,0-.118.065C881.965,386.077,882.285,387.417,883.115,387.572Z" transform="translate(-769.183 -305.853)" fill="#e63b69"/>
  <path id="Path_3891" data-name="Path 3891" d="M893.9,395.456a2.532,2.532,0,0,0-2.011.987.09.09,0,0,0,.031.124,3.3,3.3,0,0,0,2.121.192C894.778,396.639,894.644,395.4,893.9,395.456Z" transform="translate(-759.502 -296.072)" fill="#e63b69"/>
  <path id="Path_3892" data-name="Path 3892" d="M879.885,412.286a2.4,2.4,0,0,0-1.829.757.093.093,0,0,0,.063.157c.484-.016,3.624.632,3.341-.506C881.31,412.088,880.317,412.268,879.885,412.286Z" transform="translate(-772.822 -279.915)" fill="#e63b69"/>
  <path id="Path_3893" data-name="Path 3893" d="M891.375,402.8a2.526,2.526,0,0,0-1.162.51,3.414,3.414,0,0,0-.979.938.126.126,0,0,0,.071.182,2.114,2.114,0,0,0,2.321-1.368A.211.211,0,0,0,891.375,402.8Z" transform="translate(-762.061 -289.01)" fill="#e63b69"/>
  <path id="Path_3894" data-name="Path 3894" d="M878.709,377.924a2.372,2.372,0,0,0,1.988-1.413.494.494,0,0,0-.216-.553c-.427-.251-.779.237-1.024.518-.345.388-.852.712-.92,1.266A.177.177,0,0,0,878.709,377.924Z" transform="translate(-772.339 -314.896)" fill="#e63b69"/>
  <path id="Path_3895" data-name="Path 3895" d="M889.262,419.741c.065.571.165,1.14.249,1.709a3.678,3.678,0,0,0,.32,1.423c.249.385.977.3.946-.235a11.383,11.383,0,0,0-.318-1.629,2.7,2.7,0,0,0-.771-1.5A.255.255,0,0,0,889.262,419.741Z" transform="translate(-762.021 -273.002)" fill="#e63b69"/>
  <path id="Path_3896" data-name="Path 3896" d="M890.122,419.5a3.633,3.633,0,0,0,.483,1.778c.22.377.934.271.889-.222a2.514,2.514,0,0,0-.989-1.768A.255.255,0,0,0,890.122,419.5Z" transform="translate(-761.192 -273.183)" fill="#e63b69"/>
  <path id="Path_3897" data-name="Path 3897" d="M898.427,409.4c-.041.624.043,1.27.059,1.9a4.051,4.051,0,0,0,.263,1.707c.194.386.695.169.746-.186a5.707,5.707,0,0,0-.232-1.858,3.1,3.1,0,0,0-.724-1.6A.066.066,0,0,0,898.427,409.4Z" transform="translate(-753.212 -282.711)" fill="#e63b69"/>
  <path id="Path_3898" data-name="Path 3898" d="M899.377,409.339c-.132-.041-.3.1-.249.239.094.253.22.487.3.748a3.018,3.018,0,0,0,.227.767c.159.249.353.5.663.333.332-.18.273-.753.131-1.034A1.93,1.93,0,0,0,899.377,409.339Z" transform="translate(-752.537 -282.721)" fill="#e63b69"/>
  <path id="Path_3899" data-name="Path 3899" d="M909.447,411.144a3.8,3.8,0,0,0-1.115,1,4.059,4.059,0,0,0-.824,1.164.162.162,0,0,0,.192.2,4.154,4.154,0,0,0,2.378-1.87C910.24,411.26,909.753,411,909.447,411.144Z" transform="translate(-744.473 -281.016)" fill="#e63b69"/>
  <path id="Path_3900" data-name="Path 3900" d="M909.176,412.336a2.668,2.668,0,0,0-1.226,1.3.087.087,0,0,0,.08.11,2.152,2.152,0,0,0,1.717-.653A.482.482,0,0,0,909.176,412.336Z" transform="translate(-744.043 -279.889)" fill="#e63b69"/>
  <path id="Path_3901" data-name="Path 3901" d="M895.405,423.956c-.188.573-.289,1.193-.426,1.78a3.984,3.984,0,0,0-.151,1.842c.124.506.779.359.848-.092.092-.606.082-1.242.147-1.854a3.4,3.4,0,0,0-.134-1.707C895.635,423.793,895.443,423.84,895.405,423.956Z" transform="translate(-756.721 -268.756)" fill="#e63b69"/>
  <path id="Path_3902" data-name="Path 3902" d="M895.917,424.016a3.818,3.818,0,0,0-.2,1.717.469.469,0,0,0,.447.471.433.433,0,0,0,.123-.014.471.471,0,0,0,.336-.557,3.748,3.748,0,0,0-.459-1.646A.135.135,0,0,0,895.917,424.016Z" transform="translate(-755.822 -268.685)" fill="#e63b69"/>
  <path id="Path_3903" data-name="Path 3903" d="M898.8,419.626a.113.113,0,0,0-.082.1c0,.353.277.61.467.885a4.175,4.175,0,0,0,.975,1.15c.453.316,1-.277.748-.726C900.6,420.5,899.487,419.4,898.8,419.626Z" transform="translate(-752.923 -272.846)" fill="#e63b69"/>
  <path id="Path_3904" data-name="Path 3904" d="M894.992,413.764c.553-.424.128-1.872-.363-2.233a.06.06,0,0,0-.079.01,1.3,1.3,0,0,0-.214,1.06c.024.44,0,.973.436,1.191A.19.19,0,0,0,894.992,413.764Z" transform="translate(-757.151 -280.614)" fill="#e63b69"/>
</svg>
