<svg id="Group_1470" data-name="Group 1470" xmlns="http://www.w3.org/2000/svg" width="212.562" height="210.04" viewBox="0 0 212.562 210.04">
  <path id="Path_3834" data-name="Path 3834" d="M1036.631,500.261c-2.681-6.59-11.551-11.252-17.452-14.347-8.886-4.662-19.138-2.378-28.582-.4a31.571,31.571,0,0,0-2.625-4.788c.481-.577.968-1.155,1.447-1.735,6.392-7.689,4.823-24.4-.987-32.061-7.034-9.274-16.229-17.379-24.318-25.711-10.057-10.357-20.028-20.926-30.705-30.654a2.334,2.334,0,0,0-.325-.243c-.03-.026-.054-.056-.086-.082-8.2-6.4-21.973-4.535-31.247-.5-2.048-.947-4.334-2.249-6.674-2.581,2.551-7.8,5.508-17.615.3-24.542a56.94,56.94,0,0,0-19.551-16.671c-6.967-3.409-9.384,1.326-10.782,7.72-.643,2.943-1.16,5.854-1.966,8.767-1.58,5.725-7.168,4.227-11.748,4.14-2.653-.051-6.658.945-7.675,3.783s1.8,12.292-1.389,13.534c-2.59,1.005-7.32-.042-10.146.278-7.294.825-9.8,6.392-5.824,12.271,5.7,8.411,16.168,15.927,25.594,19.547,5.574,2.139,13.922-.519,19.895-2.978a13.456,13.456,0,0,1-.117,4.729c-.009.037-.009.075-.016.112q-1.441,1.669-2.859,3.357c-5.41,6.469-7.787,24.187-2.114,31.142,7.5,9.188,15.822,17.781,23.932,26.427,11.238,11.977,29.492,35.215,48.147,38.67a2.277,2.277,0,0,0,.958.147c6.831,1.012,13.7-.666,20.281-6.616.982-.888,1.943-1.8,2.906-2.714a2.473,2.473,0,0,0,.435.084c1.412.126,2.78.381,4.129.575a84.621,84.621,0,0,0-2.864,22.1c0,8.75,9.936,14.043,16.32,18.212,5.8,3.783,14.941,9.994,19.053.926,1.639-3.612,1.267-8.3.484-12.075-1.272-6.144,7.61-4.729,11.8-5.3,2.466-.337,3.715-2.876,4.323-4.945,1.842-6.291-4.43-12.594,3.5-16.33C1023.915,509.689,1039.459,507.214,1036.631,500.261Zm-22.436-11.834c.7.58,1.12.568.676,1.059a16.621,16.621,0,0,1-4.334,2.932,4.609,4.609,0,0,1-1.211.526,3.661,3.661,0,0,1-.164-.816,39.376,39.376,0,0,1-.171-4.786,23.444,23.444,0,0,1,5.022.9A1.934,1.934,0,0,0,1014.195,488.427Zm-50.827-58.469a2.729,2.729,0,0,1-.425-.164,32.235,32.235,0,0,1-4.893-2.815,2.973,2.973,0,0,1-.685-.694l.082-.126c.75-1.143,2.5-1.947,3.715-2.623q1.133,1.178,2.265,2.357a.4.4,0,0,0,0,.054c.049,1.108.061,2.212.014,3.322C963.429,429.5,963.394,429.729,963.368,429.958ZM853.04,412.046c-9.019-2.5-18.992-11.451-24.068-18.946-4.178-6.17,12.4-4.51,14.992-5.515,4.241-1.646,3.771-7.71,3.584-11.278-.47-9.078,11.467-3,16.755-7.32,3.633-2.964,4.206-21.174,8.776-19.776,5.966,1.826,11.352,7.467,15.584,11.8,7.86,8.038,5.059,17,1.852,26.906a24.749,24.749,0,0,0-6.111,3.857c-1.132-1.113-2.307-2.181-3.539-3.172a5.044,5.044,0,0,0-3.935-1.368c-3.065.519-3.759,4.407-4.323,6.9-.486,2.156-.947,4.722.51,6.6a3.418,3.418,0,0,0,1.742,1.167,45.844,45.844,0,0,0-2.436,4.253,7.707,7.707,0,0,0-.746,2.455C866.379,410.9,858.5,413.561,853.04,412.046Zm24.744-14.12a7.642,7.642,0,0,1-1.274.14.847.847,0,0,1-.213-.033c-.007-.105-.061-.295-.063-.425a9.059,9.059,0,0,1,.208-1.845c.168-.888.4-1.76.631-2.632a6.117,6.117,0,0,1,.589-1.735,1.649,1.649,0,0,0,.227.082,9.552,9.552,0,0,1,1.515,1.23c.633.547,1.225,1.141,1.828,1.721A29.927,29.927,0,0,0,877.783,397.925Zm1.288,5.082c4.147-6.114,10.553-11.951,17.814-10.6-5.356,3.684-10.191,9.384-14.459,13.718q-3.507,3.563-6.866,7.285C875.31,409.409,876.843,406.3,879.071,403.008Zm15.787.341c.479.442.935.909,1.389,1.379q.453.473.874.98c.014.03.023.037.037.065a11.828,11.828,0,0,1-2.111.657c-1.029.32-2.067.6-3.121.823a6.554,6.554,0,0,1-1.653.145l0,0a9.406,9.406,0,0,1,.491-3.7h0c.725-.687,1.452-1.372,2.188-2.048C893.6,402.2,894.234,402.776,894.858,403.349Zm-4.685,4.023c-.037-.021-.03-.026,0,0Zm-3.091,56.346.012.03a7.357,7.357,0,0,1-.073,1.522,18.932,18.932,0,0,1-.608,3.032q-1.757-1.9-3.5-3.815c.811-.238,1.627-.456,2.455-.631a7.107,7.107,0,0,1,1.386-.164A1.673,1.673,0,0,1,887.083,463.719Zm45.929,47.745c.5-.559,1.017-1.11,1.545-1.646.461-.465.954-.9,1.449-1.326l.019-.009c.019.04.047.08.066.124a17.239,17.239,0,0,1,1.379,4.136q-.736-.165-1.457-.339A27.982,27.982,0,0,1,933.012,511.464Zm21.417-1.026c-3.593,3.13-8.215,3.57-12.755,3.037a24.16,24.16,0,0,0-.542-2.45,15.423,15.423,0,0,0-2.389-5.819c-2.92-3.661-7.537,1.971-9.632,4.489-11.659-6.123-21.63-19.163-30.01-27.923q-4.808-5.025-9.559-10.116c1.3-2.981,2.859-8.105.627-10.71-2.392-2.791-7.423-.758-10.291.2-2.887-3.2-5.756-6.413-8.575-9.667-4.08-4.706-3.369-11.694-2.794-17.545.748-7.619,4.755-11.808,9.592-17.2q3.956-4.408,8.131-8.617a4.5,4.5,0,0,0,.594,1.566c1.4,2.233,4.257,1.929,6.481,1.461,2.693-.563,7.191-1.342,8.105-4.391.573-1.922-1.059-3.619-2.228-4.893a32.662,32.662,0,0,0-3.14-2.974c.369-.323.725-.657,1.1-.977,6.05-5.185,12.661-6.92,20.559-7.488,4.617-.332,9.2.353,12.951,3.161,9.447,8.617,18.623,17.662,27.591,26.911-1.91,1.113-3.976,2.452-4.785,4.489-.846,2.132.547,4.012,2.169,5.265,2.219,1.711,5.407,3.806,8.269,3.972,2.462.143,3.315-1.866,3.582-4.061q8.37,8.869,16.549,17.824c4.97,5.431,5.435,14.794,4.844,21.709-.512,5.989-5.658,10.373-9.358,14.651-5.358,6.2-10.878,12.257-16.613,18.111Q958.821,506.612,954.428,510.438Zm30.733-26.357c1.749,3.36,1.9,6.2-1.085,9.351a63.613,63.613,0,0,1-5.3,4.669c-2.572,2.169-4.091,6.7-7.9,7.1a14.646,14.646,0,0,1-4.386-.44C973.049,498.206,979.2,491.176,985.161,484.081Zm-12.477,54.1a15.874,15.874,0,0,1-3.163-5.23c.608-.066,1.223-.087,1.838-.124.722-.044,1.445-.063,2.169-.073.676-.009,2.237.472,2.375-.39-.224,1.391-1.323,2.859-2.015,4.066A12.434,12.434,0,0,1,972.685,538.185Zm35.348-19.032a12.305,12.305,0,0,1-.313-2.985c-.061-.963-.075-1.926-.063-2.894.009-.486.037-.97.079-1.456,0-.023,0-.037,0-.061a.544.544,0,0,0,.051.026,15.64,15.64,0,0,1,3.621,1.856,8.767,8.767,0,0,0-.15,3.82,12.845,12.845,0,0,1-3.2,1.678C1008.039,519.141,1008.044,519.148,1008.032,519.153ZM1032.9,501.8c-5.609,4.1-13.267,4.435-18.969,8.577-2.125-1.459-4.872-3.107-7.24-2.784-3.544.482-3.191,5.153-3.1,7.75s-.082,6.52,2.836,7.691c1.842.739,3.925-.187,5.723-1.283.741,3.708.57,6.838-6.7,7.462-3.752.323-7.7,1.241-9.253,4.965-2.265,5.422,5.728,22.324-8.316,14.462-3.911-2.186-8.489-4.582-12.189-7.607a21.011,21.011,0,0,0,2.352-3.626c1.01-1.835,2.352-3.944,1.791-6.123-.617-2.4-3.486-2.541-5.478-2.618a28.406,28.406,0,0,0-5.564.187c-.007-.29-.037-.568-.026-.867a79.139,79.139,0,0,1,2.913-18.892,9.613,9.613,0,0,0,2.448-.563c3.638-1.377,5.545-5.833,8.393-8.236,3.109-2.628,6.314-5.258,8.147-8.966a5.926,5.926,0,0,0,.54-1.765,92.468,92.468,0,0,1,13.613-2.237c-.129,2.649-.056,5.576,1.01,7.846,1.206,2.572,4.248,1.985,6.289,1.038,2.474-1.146,5.718-3.271,6.7-5.723C1023.27,493.348,1034.122,500.9,1032.9,501.8Z" transform="translate(-824.411 -344.803)" fill="#e63b69"/>
  <path id="Path_3835" data-name="Path 3835" d="M880.432,391.22a4.214,4.214,0,0,0,.7-4.75c-1.108-2.84-3.591-7.638-7.039-8.065-3.8-.472-6.022,4.984-7.352,7.607-.8,1.683-1.417,3.556-.161,5.188,1.522,1.976,4.884,1.6,7.06,1.522C875.677,392.651,878.849,392.836,880.432,391.22Zm-10.319-2.649-.028-.007a3.557,3.557,0,0,1,.166-.44c.956-1.887,1.887-4.07,3.437-5.557a.413.413,0,0,0,.089-.108c-.007.04,0,.1.11.168a6.932,6.932,0,0,1,1.562,1.978,30.344,30.344,0,0,1,1.709,2.934,3.291,3.291,0,0,1,.288.729c-.077.021-.175.049-.32.086a21.789,21.789,0,0,1-4.832.3C871.562,388.668,870.837,388.623,870.113,388.572Z" transform="translate(-768.96 -299.889)" fill="#e63b69"/>
  <path id="Path_3836" data-name="Path 3836" d="M890.031,404.218c-1.524-1.973-4.884-1.594-7.06-1.52-2.041.07-5.211-.115-6.8,1.5a4.21,4.21,0,0,0-.7,4.748c1.106,2.84,3.591,7.635,7.039,8.063,3.8.475,6.022-4.984,7.352-7.607C890.667,407.723,891.289,405.848,890.031,404.218Zm-7.112,8.629a.464.464,0,0,0-.089.108c.007-.04,0-.1-.11-.168a6.92,6.92,0,0,1-1.562-1.975,30.56,30.56,0,0,1-1.711-2.934,3.311,3.311,0,0,1-.285-.727c.077-.021.175-.049.32-.084a21.655,21.655,0,0,1,4.832-.3c.727-.012,1.454.035,2.179.086l.028.007a4.313,4.313,0,0,1-.166.437C885.4,409.177,884.469,411.363,882.919,412.847Z" transform="translate(-756.652 -267.453)" fill="#e63b69"/>
  <path id="Path_3837" data-name="Path 3837" d="M871.084,401.109c1.625-.57,3.923-1.662,3.822-3.762-.126-2.642-2.543-4.577-4.365-6.23-1.658-1.5-3.724-3.734-6.2-3.315s-3.355,3.1-3.914,5.2c-.655,2.471-1.94,6.731.482,8.7C863.685,403.966,868.157,402.07,871.084,401.109Zm-7.425-2.471c.019.016-.007.04.056.136C863.627,398.636,863.659,398.732,863.659,398.638Zm-.248-.089.21.068C863.58,398.605,863.519,398.584,863.411,398.549Zm.248.079a2.3,2.3,0,0,0-.033-.253c.012.063.04-.76.061-1a18.584,18.584,0,0,1,.559-2.78c.168-.685.36-1.361.584-2.029a3.479,3.479,0,0,1,.3-.613c.047.023.094.051.161.089a20.728,20.728,0,0,1,4.028,3.563,14.216,14.216,0,0,1,1.206,1.354c-.145.061-.292.117-.437.168a20.889,20.889,0,0,1-6.177,1.506C863.729,398.636,863.725,398.65,863.659,398.629Z" transform="translate(-777.476 -287.346)" fill="#e63b69"/>
  <path id="Path_3838" data-name="Path 3838" d="M877.184,401.631a4.214,4.214,0,0,0,4.75.7c2.84-1.106,7.638-3.589,8.065-7.037.474-3.8-4.984-6.022-7.607-7.352-1.685-.8-3.556-1.419-5.188-.164-1.975,1.522-1.6,4.884-1.52,7.063C875.756,396.876,875.569,400.048,877.184,401.631Zm2.562-8.14c-.01-.727.035-1.454.086-2.181l.007-.026a4.129,4.129,0,0,1,.439.166c1.887.956,4.073,1.889,5.557,3.439a.459.459,0,0,0,.11.089c-.042-.007-.1,0-.171.11a6.866,6.866,0,0,1-1.978,1.562,30.821,30.821,0,0,1-2.934,1.709,3.287,3.287,0,0,1-.729.288l-.084-.32A21.813,21.813,0,0,1,879.747,393.49Z" transform="translate(-755.922 -288.272)" fill="#e63b69"/>
  <path id="Path_3839" data-name="Path 3839" d="M874.038,382.993c1.975-1.522,1.6-4.884,1.522-7.063-.07-2.039.115-5.211-1.5-6.794a4.218,4.218,0,0,0-4.751-.7c-2.84,1.106-7.635,3.591-8.063,7.039-.475,3.8,4.984,6.02,7.607,7.35C870.534,383.629,872.409,384.251,874.038,382.993Zm-8.737-7.2c.042.007.1,0,.166-.112a6.941,6.941,0,0,1,1.98-1.559,30.789,30.789,0,0,1,2.932-1.711,3.316,3.316,0,0,1,.727-.285c.023.077.049.175.086.32a21.666,21.666,0,0,1,.3,4.832c.012.727-.035,1.454-.086,2.181l-.007.023a3.68,3.68,0,0,1-.44-.166c-1.884-.956-4.07-1.884-5.555-3.434A.461.461,0,0,0,865.3,375.793Z" transform="translate(-775.173 -313.738)" fill="#e63b69"/>
  <path id="Path_3840" data-name="Path 3840" d="M888.832,409.029c2.471.655,6.73,1.943,8.7-.482,2.258-2.777.362-7.25-.6-10.181-.573-1.622-1.662-3.918-3.762-3.82-2.639.126-4.575,2.546-6.23,4.367-1.5,1.655-3.734,3.722-3.313,6.2S886.723,408.468,888.832,409.029Zm5.629-3.233c.019-.019.04.007.138-.056C894.461,405.831,894.559,405.8,894.461,405.8Zm-.086.248c.037-.117.056-.173.068-.208C894.428,405.878,894.407,405.939,894.375,406.044Zm-2.939-5.912a13.85,13.85,0,0,1,1.351-1.206c.061.143.117.29.168.432a20.84,20.84,0,0,1,1.505,6.179.924.924,0,0,1-.007.262,1.729,1.729,0,0,0-.252.033c.063-.014-.76-.042-1-.063a18.154,18.154,0,0,1-2.777-.561c-.685-.168-1.363-.36-2.034-.582a3.409,3.409,0,0,1-.613-.306c.026-.047.051-.1.089-.164A20.79,20.79,0,0,1,891.436,400.132Z" transform="translate(-745.26 -278.259)" fill="#e63b69"/>
  <path id="Path_3841" data-name="Path 3841" d="M873.169,401.145c-2.469-.657-6.728-1.945-8.7.479-2.261,2.777-.362,7.25.6,10.179.57,1.627,1.662,3.923,3.759,3.822,2.644-.124,4.58-2.541,6.233-4.367,1.5-1.658,3.731-3.724,3.313-6.2S875.278,401.7,873.169,401.145Zm-5.629,3.231c-.019.019-.04-.007-.138.058C867.539,404.343,867.444,404.376,867.539,404.376Zm.086-.248c-.037.119-.056.175-.068.21C867.572,404.3,867.593,404.233,867.626,404.128Zm2.941,5.915a13.6,13.6,0,0,1-1.354,1.2c-.063-.143-.117-.288-.168-.435a20.823,20.823,0,0,1-1.506-6.179c0-.189-.012-.192.009-.257a2.3,2.3,0,0,0,.253-.033c-.063.012.757.04,1,.061a18.223,18.223,0,0,1,2.777.561c.685.168,1.361.36,2.032.584a3.4,3.4,0,0,1,.612.3c-.026.047-.052.1-.089.161A20.807,20.807,0,0,1,870.567,410.043Z" transform="translate(-772.244 -270.678)" fill="#e63b69"/>
  <path id="Path_3842" data-name="Path 3842" d="M840.842,363.564c-3.8-.472-6.022,4.984-7.352,7.607-.8,1.683-1.419,3.553-.161,5.185,1.522,1.975,4.884,1.6,7.06,1.522,2.041-.07,5.211.115,6.8-1.5a4.211,4.211,0,0,0,.7-4.748C846.773,368.789,844.288,363.992,840.842,363.564Zm-1.8,10.251c-.729.009-1.454-.035-2.181-.087l-.026-.007a3.686,3.686,0,0,1,.166-.44c.954-1.884,1.884-4.068,3.437-5.555a.351.351,0,0,0,.087-.108c-.007.042,0,.1.112.168a6.972,6.972,0,0,1,1.562,1.978,30.093,30.093,0,0,1,1.709,2.934,3.271,3.271,0,0,1,.288.727c-.077.021-.175.049-.32.084A21.668,21.668,0,0,1,839.044,373.816Z" transform="translate(-813.441 -319.742)" fill="#e63b69"/>
  <path id="Path_3843" data-name="Path 3843" d="M862.5,385.589c.8-1.681,1.419-3.556.164-5.185-1.522-1.975-4.884-1.6-7.062-1.522-2.041.07-5.209-.115-6.794,1.5a4.207,4.207,0,0,0-.7,4.748c1.106,2.84,3.591,7.635,7.039,8.065C858.951,393.671,861.169,388.212,862.5,385.589Zm-6.95,3.444a.5.5,0,0,0-.086.108c.007-.04,0-.1-.112-.166a6.939,6.939,0,0,1-1.559-1.98,30.092,30.092,0,0,1-1.711-2.932,3.392,3.392,0,0,1-.288-.729c.08-.021.175-.049.32-.084a21.813,21.813,0,0,1,4.832-.3c.729-.012,1.457.035,2.181.086l.028.007a4.1,4.1,0,0,1-.166.44C858.032,385.362,857.1,387.548,855.549,389.032Z" transform="translate(-793.266 -299.316)" fill="#e63b69"/>
  <path id="Path_3844" data-name="Path 3844" d="M854.1,368.081c2.478-.418,3.355-3.1,3.916-5.2.655-2.471,1.94-6.728-.484-8.7-2.775-2.261-7.247-.365-10.176.6-1.625.573-3.921,1.665-3.822,3.764.126,2.639,2.544,4.578,4.365,6.23C849.558,366.274,851.627,368.5,854.1,368.081Zm.683-10.833c-.021-.019.007-.04-.058-.138C854.818,357.248,854.785,357.152,854.785,357.248Zm.245.087c-.119-.037-.175-.056-.21-.068C854.863,357.281,854.926,357.3,855.031,357.334Zm-.505-.087a.9.9,0,0,1,.26.007,2.253,2.253,0,0,0,.033.255c-.012-.065-.039.758-.061.994a18.439,18.439,0,0,1-.559,2.777c-.171.687-.362,1.363-.584,2.032a3.329,3.329,0,0,1-.306.613c-.047-.023-.1-.049-.164-.087a20.65,20.65,0,0,1-4.023-3.563,13.347,13.347,0,0,1-1.206-1.356c.143-.061.29-.117.435-.168A20.829,20.829,0,0,1,854.526,357.248Z" transform="translate(-798.83 -333.685)" fill="#e63b69"/>
  <path id="Path_3845" data-name="Path 3845" d="M901.345,415.226c-2.471-.655-6.731-1.94-8.7.482-2.261,2.777-.362,7.247.6,10.177.57,1.625,1.662,3.923,3.759,3.822,2.642-.124,4.58-2.541,6.233-4.365,1.5-1.657,3.731-3.726,3.313-6.2S903.452,415.785,901.345,415.226Zm-5.632,3.233c-.019.019-.04-.007-.138.058C895.714,418.427,895.618,418.459,895.714,418.459Zm.086-.248c-.037.122-.056.178-.068.213C895.746,418.38,895.765,418.319,895.8,418.211Zm2.939,5.915a14.12,14.12,0,0,1-1.349,1.2c-.063-.145-.119-.292-.171-.437a20.884,20.884,0,0,1-1.505-6.174.991.991,0,0,1,.007-.26,2.274,2.274,0,0,0,.255-.033c-.066.009.757.04,1,.061a18.146,18.146,0,0,1,2.777.559c.685.168,1.363.36,2.031.584a3.4,3.4,0,0,1,.613.3l-.089.161A20.689,20.689,0,0,1,898.739,424.126Z" transform="translate(-734.552 -251.836)" fill="#e63b69"/>
  <path id="Path_3846" data-name="Path 3846" d="M876.057,378.331a6.344,6.344,0,0,0-2.046-3.182.238.238,0,0,0-.351.262,24.429,24.429,0,0,0,.912,3.509C874.923,379.757,876.345,379.186,876.057,378.331Z" transform="translate(-758.533 -304.257)" fill="#e63b69"/>
  <path id="Path_3847" data-name="Path 3847" d="M875.984,376.806c.83-.468-.692-1.744-1.04-2.046a.312.312,0,0,0-.528.208C874.334,375.62,875.091,377.308,875.984,376.806Z" transform="translate(-757.523 -304.843)" fill="#e63b69"/>
  <path id="Path_3848" data-name="Path 3848" d="M875.027,400.143a8.125,8.125,0,0,0-.935-2.032c-.271-.475-.643-1.307-1.248-1.412a.288.288,0,0,0-.351.192c-.161.6.28,1.356.472,1.915a5.3,5.3,0,0,0,.968,1.95A.654.654,0,0,0,875.027,400.143Z" transform="translate(-760.133 -275.383)" fill="#e63b69"/>
  <path id="Path_3849" data-name="Path 3849" d="M873.61,396.332a.337.337,0,0,0-.416.4,5.051,5.051,0,0,0,1.094,1.845c.472.5,1.354-.135.975-.732A3.275,3.275,0,0,0,873.61,396.332Z" transform="translate(-759.168 -275.88)" fill="#e63b69"/>
  <path id="Path_3850" data-name="Path 3850" d="M857.023,388.544c-.76-.192-2.3-.989-2.992-.367a.138.138,0,0,0,0,.2,7.968,7.968,0,0,0,2.67,1.279A.579.579,0,0,0,857.023,388.544Z" transform="translate(-784.844 -287.088)" fill="#e63b69"/>
  <path id="Path_3851" data-name="Path 3851" d="M856.241,387.3a1.613,1.613,0,0,0-1.854.355.154.154,0,0,0,0,.215,1.32,1.32,0,0,0,1.936-.243A.238.238,0,0,0,856.241,387.3Z" transform="translate(-784.37 -288.148)" fill="#e63b69"/>
  <path id="Path_3852" data-name="Path 3852" d="M861.094,380.693c.44-.545.185-1.181.082-1.833a5.764,5.764,0,0,0-.582-2.375.15.15,0,0,0-.271.03,8.815,8.815,0,0,0-.075,2.445c0,.638-.079,1.4.512,1.77A.271.271,0,0,0,861.094,380.693Z" transform="translate(-776.534 -302.514)" fill="#e63b69"/>
  <path id="Path_3853" data-name="Path 3853" d="M862.256,378.795c.409-.828-.2-1.793-.753-2.417a.226.226,0,0,0-.376.093,2.3,2.3,0,0,0,.8,2.406A.241.241,0,0,0,862.256,378.795Z" transform="translate(-775.367 -302.65)" fill="#e63b69"/>
  <path id="Path_3854" data-name="Path 3854" d="M884.516,406.469a.129.129,0,0,0-.164.122,3.353,3.353,0,0,0,.461,1.323,8.59,8.59,0,0,0,1.019,1.779.51.51,0,0,0,.853-.477A4.407,4.407,0,0,0,884.516,406.469Z" transform="translate(-744.222 -262.312)" fill="#e63b69"/>
  <path id="Path_3855" data-name="Path 3855" d="M885.2,406.056a.292.292,0,0,0-.26.43,3.892,3.892,0,0,0,1.4,1.262c.736.458,1.454-.736.692-1.152A3.562,3.562,0,0,0,885.2,406.056Z" transform="translate(-743.487 -262.86)" fill="#e63b69"/>
  <path id="Path_3856" data-name="Path 3856" d="M889.711,389.332a.588.588,0,0,0-.91-.722c-.421.374-.778.82-1.181,1.218a2.732,2.732,0,0,0-.774,1.047.185.185,0,0,0,.173.238A3.67,3.67,0,0,0,889.711,389.332Z" transform="translate(-740.895 -286.418)" fill="#e63b69"/>
  <path id="Path_3857" data-name="Path 3857" d="M888.277,389.825a2.559,2.559,0,0,0-.788,1.043c-.047.112.063.21.161.222a2.529,2.529,0,0,0,1.4-.241c.437-.192.458-.627.5-1.017a.2.2,0,0,0-.187-.2A1.24,1.24,0,0,0,888.277,389.825Z" transform="translate(-740.039 -284.875)" fill="#e63b69"/>
  <path id="Path_3858" data-name="Path 3858" d="M870.93,408.157a4.707,4.707,0,0,0-.5,2.574.5.5,0,0,0,.977.152,2.846,2.846,0,0,0-.222-2.754A.164.164,0,0,0,870.93,408.157Z" transform="translate(-762.855 -260.147)" fill="#e63b69"/>
  <path id="Path_3859" data-name="Path 3859" d="M871.54,407.822c-.1.573-.344,1.41.164,1.828a.262.262,0,0,0,.309.044l.14-.075a.475.475,0,0,0,.245-.411,2.047,2.047,0,0,0-.708-1.424C871.647,407.742,871.551,407.752,871.54,407.822Z" transform="translate(-761.558 -260.579)" fill="#e63b69"/>
  <path id="Path_3860" data-name="Path 3860" d="M860.773,398.829c.835-.353.217-1.47-.542-1.368-1.05.143-2.845,1.2-2.815,2.415a.151.151,0,0,0,.22.133c.51-.22,1.005-.475,1.522-.671S860.25,399.054,860.773,398.829Z" transform="translate(-780.257 -274.364)" fill="#e63b69"/>
  <path id="Path_3861" data-name="Path 3861" d="M859.568,398.409a1.591,1.591,0,0,0-1.555,1.466.082.082,0,0,0,.079.087,3.305,3.305,0,0,0,1.751-.447C860.271,399.23,860.206,398.341,859.568,398.409Z" transform="translate(-779.458 -273.093)" fill="#e63b69"/>
  <path id="Path_3862" data-name="Path 3862" d="M864.022,367.246a.529.529,0,0,0,.283-.977,3.286,3.286,0,0,0-2.9-.087.173.173,0,0,0-.037.271A5.161,5.161,0,0,0,864.022,367.246Z" transform="translate(-775.034 -316.599)" fill="#e63b69"/>
  <path id="Path_3863" data-name="Path 3863" d="M862.892,367.8a3.983,3.983,0,0,0-2.034-1.085.285.285,0,0,0-.252.421,5.632,5.632,0,0,0,1.63,1.494C862.719,368.991,863.355,368.186,862.892,367.8Z" transform="translate(-776.035 -315.492)" fill="#e63b69"/>
  <path id="Path_3864" data-name="Path 3864" d="M848.881,386.378a6.544,6.544,0,0,0-2.943,1.066.15.15,0,0,0,.07.278c.965.012,1.877-.318,2.847-.311a.521.521,0,0,0,.51-.372,1.16,1.16,0,0,0,.021-.133A.518.518,0,0,0,848.881,386.378Z" transform="translate(-795.71 -289.183)" fill="#e63b69"/>
  <path id="Path_3865" data-name="Path 3865" d="M848.624,385.647a.174.174,0,0,0-.189-.257,3.411,3.411,0,0,0-2.525,1.459.243.243,0,0,0,.14.358A2.545,2.545,0,0,0,848.624,385.647Z" transform="translate(-795.69 -290.51)" fill="#e63b69"/>
  <path id="Path_3866" data-name="Path 3866" d="M841.783,360.322a5.094,5.094,0,0,0-3.31.079.278.278,0,0,0,.058.5,12.638,12.638,0,0,0,3.07.573A.593.593,0,0,0,841.783,360.322Z" transform="translate(-805.786 -324.357)" fill="#e63b69"/>
  <path id="Path_3867" data-name="Path 3867" d="M840.56,361.394a4.305,4.305,0,0,0-1.725-.372.251.251,0,0,0-.185.423,2.742,2.742,0,0,0,1.606.982A.539.539,0,0,0,840.56,361.394Z" transform="translate(-805.452 -323.11)" fill="#e63b69"/>
  <path id="Path_3868" data-name="Path 3868" d="M847.491,352.681a4.552,4.552,0,0,0-.435-1.816,6.768,6.768,0,0,0-.715-1.655c-.084-.122-.315-.14-.351.04a4.448,4.448,0,0,0,.066,1.562,6.456,6.456,0,0,0,.477,2.109A.516.516,0,0,0,847.491,352.681Z" transform="translate(-795.607 -339.033)" fill="#e63b69"/>
  <path id="Path_3869" data-name="Path 3869" d="M848.345,351.318a3.815,3.815,0,0,0-.788-2.043.436.436,0,0,0-.811.2,3.293,3.293,0,0,0,.69,2.2A.535.535,0,0,0,848.345,351.318Z" transform="translate(-794.538 -339.107)" fill="#e63b69"/>
  <path id="Path_3870" data-name="Path 3870" d="M852.051,360.748a3.734,3.734,0,0,0-2.12,1.1.157.157,0,0,0,.065.259,2.719,2.719,0,0,0,2.4-.486C852.673,361.326,852.514,360.72,852.051,360.748Z" transform="translate(-790.33 -323.472)" fill="#e63b69"/>
  <path id="Path_3871" data-name="Path 3871" d="M841.809,369.913c-.154.671-.166,1.37-.288,2.048a18.693,18.693,0,0,0-.39,2.347.519.519,0,0,0,.25.456.467.467,0,0,0,.391.058.515.515,0,0,0,.369-.355c.47-1.321.776-3.413-.149-4.6A.109.109,0,0,0,841.809,369.913Z" transform="translate(-802.044 -311.315)" fill="#e63b69"/>
  <path id="Path_3872" data-name="Path 3872" d="M841.2,370.053a.22.22,0,0,0-.3.075,3.291,3.291,0,0,0-.444,1.931.084.084,0,0,0,.124.075C841.338,371.781,842.1,370.673,841.2,370.053Z" transform="translate(-802.954 -311.065)" fill="#e63b69"/>
  <path id="Path_3873" data-name="Path 3873" d="M832.119,365.731c-.814.028-1.812-.241-2.546.189a.239.239,0,0,0,0,.409,5,5,0,0,0,2.66.407.5.5,0,0,0,.388-.482.648.648,0,0,0-.017-.136A.518.518,0,0,0,832.119,365.731Z" transform="translate(-817.665 -316.882)" fill="#e63b69"/>
  <path id="Path_3874" data-name="Path 3874" d="M829.64,365.367c-.25.194-.03.549.224.573.65.061,1.742.15,2.125-.484a.265.265,0,0,0-.037-.311C831.407,364.5,830.206,364.932,829.64,365.367Z" transform="translate(-817.563 -318.026)" fill="#e63b69"/>
  <path id="Path_3875" data-name="Path 3875" d="M843.021,361.954a5.672,5.672,0,0,0,1.031,1.7.478.478,0,0,0,.454.129.411.411,0,0,0,.215-.119.466.466,0,0,0,.129-.456,2.4,2.4,0,0,0-1.475-1.6C843.187,361.562,842.944,361.746,843.021,361.954Z" transform="translate(-799.534 -322.324)" fill="#e63b69"/>
  <path id="Path_3876" data-name="Path 3876" d="M842.361,359.211c.549-.648.161-1.978-.358-2.555a.142.142,0,0,0-.236.059c-.166.671-.281,1.994.3,2.492A.21.21,0,0,0,842.361,359.211Z" transform="translate(-801.373 -329.002)" fill="#e63b69"/>
  <path id="Path_3877" data-name="Path 3877" d="M864.293,385.023c.362-.5-.58-1-.912-1.16-.69-.327-1.417-.958-2.219-.9a.2.2,0,0,0-.192.241C861.193,384.118,863.4,386.267,864.293,385.023Z" transform="translate(-775.508 -293.762)" fill="#e63b69"/>
  <path id="Path_3878" data-name="Path 3878" d="M873.018,372.853a.568.568,0,0,0-.76-.781,4.786,4.786,0,0,0-1.363,1.354.209.209,0,0,0,.087.346A1.843,1.843,0,0,0,873.018,372.853Z" transform="translate(-762.3 -308.413)" fill="#e63b69"/>
  <path id="Path_3879" data-name="Path 3879" d="M868.862,369.6c.47-.715-.416-1.477-.891-1.922a.142.142,0,0,0-.239.131c.15.631.157,1.655.9,1.884A.211.211,0,0,0,868.862,369.6Z" transform="translate(-766.46 -314.253)" fill="#e63b69"/>
  <path id="Path_3880" data-name="Path 3880" d="M872.759,389.737c-.4-1.363-2.6-1.227-3.568-.507a.161.161,0,0,0-.035.25,2.566,2.566,0,0,0,1.351.505,3.835,3.835,0,0,0,2.022.131A.315.315,0,0,0,872.759,389.737Z" transform="translate(-764.612 -286.082)" fill="#e63b69"/>
  <path id="Path_3881" data-name="Path 3881" d="M868.343,396.417a.137.137,0,0,0-.2.077c-.185.758-.491,2.148.012,2.81a.244.244,0,0,0,.3.042C869.463,398.841,869.112,396.988,868.343,396.417Z" transform="translate(-766.256 -275.779)" fill="#e63b69"/>
  <path id="Path_3882" data-name="Path 3882" d="M867.672,409.457a1.727,1.727,0,0,0-1.286,1.265.15.15,0,0,0,.178.185,6.646,6.646,0,0,1,1.258-.094.711.711,0,0,0,.706-.671.4.4,0,0,0-.021-.182A.7.7,0,0,0,867.672,409.457Z" transform="translate(-768.262 -258.347)" fill="#e63b69"/>
  <path id="Path_3883" data-name="Path 3883" d="M860.632,403.078a2.912,2.912,0,0,0-.39,1.487.472.472,0,0,0,.79.346,1.224,1.224,0,0,0-.187-1.887A.16.16,0,0,0,860.632,403.078Z" transform="translate(-776.476 -266.94)" fill="#e63b69"/>
  <path id="Path_3884" data-name="Path 3884" d="M855.663,395.543a.13.13,0,0,0,.175.049,1.89,1.89,0,0,0,.778-1.772.6.6,0,0,0-.416-.57C855.1,392.915,855.389,395.038,855.663,395.543Z" transform="translate(-782.936 -280.038)" fill="#e63b69"/>
  <path id="Path_3885" data-name="Path 3885" d="M848.353,389.838a2.624,2.624,0,0,0,1.129,2.511c.267.126.713,0,.678-.374a3.2,3.2,0,0,0-1.648-2.2A.108.108,0,0,0,848.353,389.838Z" transform="translate(-792.428 -284.653)" fill="#e63b69"/>
  <path id="Path_3886" data-name="Path 3886" d="M851.565,377.695a3.728,3.728,0,0,0,1.005-1.99c.035-.5-.687-.86-1.024-.446a6.451,6.451,0,0,0-.8,1.651c-.194.461-.594,1.075-.479,1.594a.093.093,0,0,0,.084.068C850.871,378.583,851.263,378.05,851.565,377.695Z" transform="translate(-789.845 -304.299)" fill="#e63b69"/>
  <path id="Path_3887" data-name="Path 3887" d="M851.194,377.631a.227.227,0,0,0,.278.222,1.806,1.806,0,0,0,1.536-1.905.352.352,0,0,0-.425-.257A2.068,2.068,0,0,0,851.194,377.631Z" transform="translate(-788.581 -303.494)" fill="#e63b69"/>
  <path id="Path_3888" data-name="Path 3888" d="M879.539,396.958c-.269.374-.023,1.089.038,1.5.068.472-.012,1.274.358,1.618a.564.564,0,0,0,.671.1c.72-.428.309-1.543.063-2.153C880.6,397.854,879.883,396.481,879.539,396.958Z" transform="translate(-750.825 -275.163)" fill="#e63b69"/>
  <path id="Path_3889" data-name="Path 3889" d="M879.73,382.827a.261.261,0,0,0-.185-.252c-1.059-.4-2.553,1.267-3.021,2.06a.09.09,0,0,0,.1.133C877.537,384.526,879.693,384,879.73,382.827Z" transform="translate(-754.709 -294.354)" fill="#e63b69"/>
  <path id="Path_3890" data-name="Path 3890" d="M883.364,388.01a.314.314,0,0,0,.381-.208c.306-1.04-1.1-1.94-1.786-2.492a.083.083,0,0,0-.14.077C881.994,386.229,882.375,387.825,883.364,388.01Z" transform="translate(-747.614 -290.642)" fill="#e63b69"/>
  <path id="Path_3891" data-name="Path 3891" d="M894.29,395.456a3.017,3.017,0,0,0-2.4,1.176.107.107,0,0,0,.037.147,3.932,3.932,0,0,0,2.527.229C895.333,396.866,895.174,395.386,894.29,395.456Z" transform="translate(-734.152 -277.041)" fill="#e63b69"/>
  <path id="Path_3892" data-name="Path 3892" d="M880.24,412.293a2.853,2.853,0,0,0-2.179.9.111.111,0,0,0,.075.187c.577-.019,4.318.753,3.981-.6C881.937,412.057,880.755,412.272,880.24,412.293Z" transform="translate(-752.675 -254.575)" fill="#e63b69"/>
  <path id="Path_3893" data-name="Path 3893" d="M891.788,402.8a3.011,3.011,0,0,0-1.384.608,4.067,4.067,0,0,0-1.167,1.117.15.15,0,0,0,.084.217,2.519,2.519,0,0,0,2.766-1.629A.251.251,0,0,0,891.788,402.8Z" transform="translate(-737.712 -267.222)" fill="#e63b69"/>
  <path id="Path_3894" data-name="Path 3894" d="M878.742,378.314a2.826,2.826,0,0,0,2.368-1.683.589.589,0,0,0-.257-.659c-.509-.3-.928.283-1.22.617-.411.463-1.015.849-1.1,1.508A.212.212,0,0,0,878.742,378.314Z" transform="translate(-752.003 -303.216)" fill="#e63b69"/>
  <path id="Path_3895" data-name="Path 3895" d="M889.263,419.8c.077.68.2,1.358.3,2.036a4.388,4.388,0,0,0,.381,1.695c.3.458,1.164.355,1.127-.281a13.547,13.547,0,0,0-.379-1.94,3.212,3.212,0,0,0-.919-1.793A.3.3,0,0,0,889.263,419.8Z" transform="translate(-737.656 -244.961)" fill="#e63b69"/>
  <path id="Path_3896" data-name="Path 3896" d="M890.122,419.547a4.329,4.329,0,0,0,.575,2.118c.262.449,1.113.323,1.059-.264a3,3,0,0,0-1.178-2.106A.3.3,0,0,0,890.122,419.547Z" transform="translate(-736.503 -245.213)" fill="#e63b69"/>
  <path id="Path_3897" data-name="Path 3897" d="M898.43,409.415c-.049.744.051,1.513.07,2.258a4.826,4.826,0,0,0,.313,2.034c.231.461.828.2.888-.222a6.8,6.8,0,0,0-.276-2.214,3.693,3.693,0,0,0-.863-1.908A.079.079,0,0,0,898.43,409.415Z" transform="translate(-725.406 -258.462)" fill="#e63b69"/>
  <path id="Path_3898" data-name="Path 3898" d="M899.427,409.34c-.157-.049-.36.115-.3.285.112.3.262.58.358.891a3.591,3.591,0,0,0,.271.914c.189.3.421.6.79.4.4-.215.325-.9.157-1.232A2.3,2.3,0,0,0,899.427,409.34Z" transform="translate(-724.467 -258.476)" fill="#e63b69"/>
  <path id="Path_3899" data-name="Path 3899" d="M909.82,411.152a4.532,4.532,0,0,0-1.328,1.2,4.828,4.828,0,0,0-.982,1.386.193.193,0,0,0,.229.243,4.949,4.949,0,0,0,2.833-2.228C910.765,411.29,910.185,410.977,909.82,411.152Z" transform="translate(-713.255 -256.106)" fill="#e63b69"/>
  <path id="Path_3900" data-name="Path 3900" d="M909.412,412.348a3.18,3.18,0,0,0-1.461,1.555.1.1,0,0,0,.1.131,2.565,2.565,0,0,0,2.046-.779A.574.574,0,0,0,909.412,412.348Z" transform="translate(-712.657 -254.538)" fill="#e63b69"/>
  <path id="Path_3901" data-name="Path 3901" d="M895.527,423.977c-.224.683-.344,1.421-.508,2.12a4.744,4.744,0,0,0-.18,2.2c.147.6.928.428,1.01-.11.11-.722.1-1.48.175-2.209a4.05,4.05,0,0,0-.159-2.034C895.8,423.783,895.572,423.84,895.527,423.977Z" transform="translate(-730.286 -239.058)" fill="#e63b69"/>
  <path id="Path_3902" data-name="Path 3902" d="M895.957,424.034a4.55,4.55,0,0,0-.241,2.046.559.559,0,0,0,.533.561.519.519,0,0,0,.147-.016.562.562,0,0,0,.4-.664A4.464,4.464,0,0,0,896.25,424,.161.161,0,0,0,895.957,424.034Z" transform="translate(-729.035 -238.958)" fill="#e63b69"/>
  <path id="Path_3903" data-name="Path 3903" d="M898.814,419.632a.135.135,0,0,0-.1.122c0,.421.33.727.556,1.054a4.975,4.975,0,0,0,1.162,1.37c.54.376,1.2-.33.891-.865C900.965,420.677,899.635,419.359,898.814,419.632Z" transform="translate(-725.005 -244.744)" fill="#e63b69"/>
  <path id="Path_3904" data-name="Path 3904" d="M895.12,414.194c.659-.505.152-2.23-.432-2.66a.072.072,0,0,0-.094.012,1.553,1.553,0,0,0-.255,1.262c.028.524,0,1.16.519,1.419A.227.227,0,0,0,895.12,414.194Z" transform="translate(-730.884 -255.547)" fill="#e63b69"/>
</svg>
