<svg xmlns="http://www.w3.org/2000/svg" width="49.688" height="49.688" viewBox="0 0 49.688 49.688">
  <path id="Icon_awesome-linkedin" data-name="Icon awesome-linkedin" d="M46.139,2.25H3.538A3.565,3.565,0,0,0,0,5.832V48.356a3.565,3.565,0,0,0,3.538,3.582h42.6a3.574,3.574,0,0,0,3.549-3.582V5.832A3.574,3.574,0,0,0,46.139,2.25ZM15.017,44.84H7.653V21.127h7.376V44.84ZM11.335,17.889a4.27,4.27,0,1,1,4.27-4.27,4.272,4.272,0,0,1-4.27,4.27ZM42.623,44.84H35.259V33.305c0-2.751-.055-6.289-3.826-6.289-3.838,0-4.425,2.995-4.425,6.089V44.84H19.643V21.127h7.065v3.239h.1a7.757,7.757,0,0,1,6.976-3.826c7.453,0,8.84,4.913,8.84,11.3Z" transform="translate(0 -2.25)" fill="#f5f5f5"/>
</svg>
