<svg xmlns="http://www.w3.org/2000/svg" width="60" height="60" viewBox="0 0 60 60">
  <g id="Group_677" data-name="Group 677" transform="translate(-0.305)">
    <rect id="Rectangle_406" data-name="Rectangle 406" width="60" height="60" rx="5" transform="translate(0.305)" fill="#5b0791"/>
    <path id="Icon_simple-minutemailer" data-name="Icon simple-minutemailer" d="M10.892,4.055l6.753,6.4-4.765,8.23,10.062-1.58,4.581,9.684L46.98,4.437ZM9.647,17.927l1.873-1.35L9.1,17.246l-.247-.309,1-.849-1.31.463C3.549,18.25,0,22.5,0,27.462a11.031,11.031,0,0,0,4.175,8.485,10.513,10.513,0,0,1-1.732-5.755c0-4.914,3.541-9.288,8.447-11.012l.617-1.314-1.468.568-.413-.489.022-.019Zm8.543-3.379L21.317,9.71l18.4-3.775Z" transform="translate(6.049 10.464)" fill="#f5f5f5"/>
  </g>
</svg>
