<svg xmlns="http://www.w3.org/2000/svg" width="60" height="60" viewBox="0 0 60 60">
  <g id="Group_1386" data-name="Group 1386" transform="translate(-1159 -498)">
    <rect id="Rectangle_573" data-name="Rectangle 573" width="60" height="60" rx="5" transform="translate(1159 498)" fill="#5b0791"/>
    <g id="Group_1385" data-name="Group 1385" transform="translate(1 1.333)">
      <path id="Icon_awesome-id-card" data-name="Icon awesome-id-card" d="M26.865,2.25H2.442A2.443,2.443,0,0,0,0,4.692v.814H29.308V4.692A2.443,2.443,0,0,0,26.865,2.25ZM0,22.6a2.443,2.443,0,0,0,2.442,2.442H26.865A2.443,2.443,0,0,0,29.308,22.6V7.135H0ZM17.91,10.8a.408.408,0,0,1,.407-.407h7.327a.408.408,0,0,1,.407.407v.814a.408.408,0,0,1-.407.407H18.317a.408.408,0,0,1-.407-.407Zm0,3.256a.408.408,0,0,1,.407-.407h7.327a.408.408,0,0,1,.407.407v.814a.408.408,0,0,1-.407.407H18.317a.408.408,0,0,1-.407-.407Zm0,3.256a.408.408,0,0,1,.407-.407h7.327a.408.408,0,0,1,.407.407v.814a.408.408,0,0,1-.407.407H18.317a.408.408,0,0,1-.407-.407Zm-8.955-6.92A3.256,3.256,0,1,1,5.7,13.647,3.259,3.259,0,0,1,8.955,10.391ZM3.414,20.781a3.261,3.261,0,0,1,3.1-2.249H6.93a5.241,5.241,0,0,0,4.05,0H11.4a3.261,3.261,0,0,1,3.1,2.249.8.8,0,0,1-.794,1.007H4.208A.8.8,0,0,1,3.414,20.781Z" transform="translate(1173 523.217)" fill="#f5f5f5"/>
      <path id="Icon_awesome-upload" data-name="Icon awesome-upload" d="M19.827,25.212H14.574A1.572,1.572,0,0,1,13,23.636V12.606H7.24a1.311,1.311,0,0,1-.926-2.239L16.3.375a1.272,1.272,0,0,1,1.792,0l9.993,9.993a1.311,1.311,0,0,1-.926,2.239H21.4v11.03A1.572,1.572,0,0,1,19.827,25.212Z" transform="translate(1170.249 500.661)" fill="#f5f5f5" stroke="#5b0791" stroke-width="2"/>
    </g>
  </g>
</svg>
