<svg xmlns="http://www.w3.org/2000/svg" width="50.001" height="50.001" viewBox="0 0 50.001 50.001">
  <path id="Subtraction_83" data-name="Subtraction 83" d="M-15269.356,1459h-39.286a5.364,5.364,0,0,1-5.357-5.358v-39.286a5.364,5.364,0,0,1,5.357-5.358h39.286a5.364,5.364,0,0,1,5.357,5.358v39.286A5.364,5.364,0,0,1-15269.356,1459Zm-24.424-29.557a11.355,11.355,0,0,0-7.333,2.758,11.213,11.213,0,0,0-3.87,7.441c-.034.8-.01,1.613.015,2.233a11.31,11.31,0,0,0,5.474,8.567,10.994,10.994,0,0,0,5.568,1.56c.211,0,.387,0,.554-.015a11.145,11.145,0,0,0,8.862-4.816,11.49,11.49,0,0,0,2.025-5.911c.029-2.732.028-5.51.027-8.2,0-1.61,0-3.274,0-4.928a18.42,18.42,0,0,0,2.429,1.4,16.179,16.179,0,0,0,6.3,1.457v-6.046a10.545,10.545,0,0,1-6.356-2.687,9.244,9.244,0,0,1-2.625-6.253c-.794.006-1.6.007-2.383.008h-.081c-1.109,0-2.257,0-3.4.018-.028,3.754-.027,7.568-.026,11.256,0,2.239,0,4.554,0,6.85,0,.715,0,1.436,0,2.133,0,1.925.006,3.916-.1,5.907a3.249,3.249,0,0,1-.562,1.5l-.053.091a5.063,5.063,0,0,1-4.158,2.414c-.125.011-.253.017-.379.017a5.139,5.139,0,0,1-4.871-4.322c0-.133-.006-.267-.01-.4a4.794,4.794,0,0,1,.221-2.013,5.208,5.208,0,0,1,2.041-2.625,4.894,4.894,0,0,1,2.8-.829,5.6,5.6,0,0,1,1.728.272c0-.925.017-1.867.033-2.778v-.069c.021-1.18.045-2.517.027-3.813A10.217,10.217,0,0,0-15293.78,1429.443Z" transform="translate(15314 -1408.999)" fill="#fef5ff"/>
</svg>
