<svg xmlns="http://www.w3.org/2000/svg" width="50" height="50" viewBox="0 0 50 50">
  <path id="Icon_awesome-youtube-square" data-name="Icon awesome-youtube-square" d="M20.848,21.234l10.625,6.038L20.848,33.31ZM50,7.607V46.893a5.359,5.359,0,0,1-5.357,5.357H5.357A5.359,5.359,0,0,1,0,46.893V7.607A5.359,5.359,0,0,1,5.357,2.25H44.643A5.359,5.359,0,0,1,50,7.607ZM45.313,27.283s0-6.652-.848-9.844a5.094,5.094,0,0,0-3.594-3.616C37.712,12.964,25,12.964,25,12.964s-12.712,0-15.871.859A5.094,5.094,0,0,0,5.536,17.44c-.848,3.181-.848,9.844-.848,9.844s0,6.652.848,9.844a5.021,5.021,0,0,0,3.594,3.56c3.158.848,15.871.848,15.871.848s12.712,0,15.871-.859a5.021,5.021,0,0,0,3.594-3.56c.848-3.181.848-9.833.848-9.833Z" transform="translate(0 -2.25)" fill="#f5f5f5"/>
</svg>
