<svg xmlns="http://www.w3.org/2000/svg" width="241.01" height="27.593" viewBox="0 0 241.01 27.593">
  <g id="Group_937" data-name="Group 937" transform="translate(-16279.523 2184.264)">
    <path id="Path_341" data-name="Path 341" d="M104.307,1407.607a9.1,9.1,0,0,1,3.548-3.59,10.3,10.3,0,0,1,5.159-1.286,9.874,9.874,0,0,1,6.05,1.866,8.963,8.963,0,0,1,3.364,5.089h-5.315a4.3,4.3,0,0,0-1.682-1.894,4.729,4.729,0,0,0-2.474-.65,4.618,4.618,0,0,0-3.619,1.554,6.927,6.927,0,0,0,0,8.312,4.617,4.617,0,0,0,3.619,1.555,4.727,4.727,0,0,0,2.474-.65,4.292,4.292,0,0,0,1.682-1.894h5.315a8.9,8.9,0,0,1-3.364,5.074,9.925,9.925,0,0,1-6.05,1.852,10.3,10.3,0,0,1-5.159-1.286,9.117,9.117,0,0,1-3.548-3.576,11.415,11.415,0,0,1,0-10.475Z" transform="translate(16176.488 -3586.994)" fill="#5b0791"/>
    <path id="Path_342" data-name="Path 342" d="M189.042,1422.733a6.851,6.851,0,0,1,2.5-2.827,6.533,6.533,0,0,1,3.534-.99,6.07,6.07,0,0,1,2.926.679,5,5,0,0,1,1.936,1.781v-2.234h4.835v15.775H199.94v-2.233a5.224,5.224,0,0,1-1.964,1.781,6.073,6.073,0,0,1-2.926.679,6.414,6.414,0,0,1-3.506-1,6.931,6.931,0,0,1-2.5-2.856,10.409,10.409,0,0,1,0-8.552Zm9.895,1.442a3.4,3.4,0,0,0-4.891-.014,3.9,3.9,0,0,0-1,2.841,4,4,0,0,0,1,2.87,3.366,3.366,0,0,0,4.891.014,4.565,4.565,0,0,0,0-5.711Z" transform="translate(16112.803 -3599.109)" fill="#5b0791"/>
    <path id="Path_343" data-name="Path 343" d="M293.069,1420.922a6.782,6.782,0,0,1,1.739,4.948v9.216H290v-8.566a3.26,3.26,0,0,0-.806-2.361,3.371,3.371,0,0,0-4.439,0,3.262,3.262,0,0,0-.805,2.361v8.566h-4.806v-8.566a3.26,3.26,0,0,0-.806-2.361,3.371,3.371,0,0,0-4.439,0,3.26,3.26,0,0,0-.806,2.361v8.566h-4.834v-15.775H273.1v1.979a5.18,5.18,0,0,1,1.923-1.569,6.046,6.046,0,0,1,2.686-.58,6.531,6.531,0,0,1,3.181.763,5.472,5.472,0,0,1,2.191,2.177,6.366,6.366,0,0,1,2.234-2.12,6.039,6.039,0,0,1,3.082-.82A6.239,6.239,0,0,1,293.069,1420.922Z" transform="translate(16052.821 -3599.278)" fill="#5b0791"/>
    <path id="Path_344" data-name="Path 344" d="M394.078,1419.595a5.987,5.987,0,0,1,2.912-.679,6.532,6.532,0,0,1,3.534.99,6.857,6.857,0,0,1,2.5,2.827,10.409,10.409,0,0,1,0,8.552,6.937,6.937,0,0,1-2.5,2.856,6.464,6.464,0,0,1-3.534,1,6.009,6.009,0,0,1-2.9-.679,5.306,5.306,0,0,1-1.965-1.753v9.725h-4.834v-23.3h4.834v2.234A5.242,5.242,0,0,1,394.078,1419.595Zm3.944,4.566a3.316,3.316,0,0,0-2.474-1.032,3.262,3.262,0,0,0-2.446,1.046,4.564,4.564,0,0,0,0,5.711,3.382,3.382,0,0,0,4.905-.014,3.97,3.97,0,0,0,1.018-2.87A3.9,3.9,0,0,0,398.022,1424.161Z" transform="translate(15963.728 -3599.109)" fill="#5b0791"/>
    <path id="Path_345" data-name="Path 345" d="M478.769,1419.815v15.775h-4.834v-2.149a5.309,5.309,0,0,1-1.993,1.682,6.082,6.082,0,0,1-2.784.636,6.236,6.236,0,0,1-3.195-.806,5.431,5.431,0,0,1-2.149-2.332,7.937,7.937,0,0,1-.763-3.59v-9.216h4.806v8.566a3.463,3.463,0,0,0,.82,2.46,2.875,2.875,0,0,0,2.205.876,2.911,2.911,0,0,0,2.234-.876,3.464,3.464,0,0,0,.82-2.46v-8.566Z" transform="translate(15907.025 -3599.782)" fill="#5b0791"/>
    <path id="Path_346" data-name="Path 346" d="M539.588,1434.437a6.275,6.275,0,0,1-2.544-1.937,5.09,5.09,0,0,1-1.046-2.756h4.778a1.836,1.836,0,0,0,.763,1.329,2.7,2.7,0,0,0,1.668.509,2.38,2.38,0,0,0,1.4-.354,1.083,1.083,0,0,0,.495-.919,1.06,1.06,0,0,0-.707-1,14.332,14.332,0,0,0-2.29-.721,21.4,21.4,0,0,1-2.827-.834,4.88,4.88,0,0,1-1.951-1.385,3.773,3.773,0,0,1-.82-2.558,4.345,4.345,0,0,1,.749-2.474,5.045,5.045,0,0,1,2.205-1.767,8.443,8.443,0,0,1,3.463-.65,6.945,6.945,0,0,1,4.679,1.47,5.721,5.721,0,0,1,1.965,3.9H545.1a1.929,1.929,0,0,0-.721-1.3,2.5,2.5,0,0,0-1.6-.48,2.208,2.208,0,0,0-1.3.325,1.038,1.038,0,0,0-.453.891,1.086,1.086,0,0,0,.721,1.018,11.541,11.541,0,0,0,2.247.679,24.614,24.614,0,0,1,2.855.891,4.925,4.925,0,0,1,1.937,1.414,4,4,0,0,1,.862,2.615,4.149,4.149,0,0,1-.777,2.474,5.14,5.14,0,0,1-2.234,1.71,8.546,8.546,0,0,1-3.378.622A9.063,9.063,0,0,1,539.588,1434.437Z" transform="translate(15852.427 -3599.109)" fill="#5b0791"/>
    <path id="Path_347" data-name="Path 347" d="M623.926,1407.607a9.1,9.1,0,0,1,3.548-3.59,10.3,10.3,0,0,1,5.159-1.286,9.874,9.874,0,0,1,6.05,1.866,8.963,8.963,0,0,1,3.364,5.089h-5.315a4.3,4.3,0,0,0-1.682-1.894,4.729,4.729,0,0,0-2.474-.65,4.618,4.618,0,0,0-3.619,1.554,6.927,6.927,0,0,0,0,8.312,4.617,4.617,0,0,0,3.619,1.555,4.727,4.727,0,0,0,2.474-.65,4.293,4.293,0,0,0,1.682-1.894h5.315a8.9,8.9,0,0,1-3.364,5.074,9.925,9.925,0,0,1-6.05,1.852,10.3,10.3,0,0,1-5.159-1.286,9.117,9.117,0,0,1-3.548-3.576,11.415,11.415,0,0,1,0-10.475Z" transform="translate(15787.565 -3586.994)" fill="#5b0791"/>
    <path id="Path_348" data-name="Path 348" d="M708.661,1422.733a6.853,6.853,0,0,1,2.5-2.827,6.533,6.533,0,0,1,3.534-.99,6.069,6.069,0,0,1,2.926.679,5,5,0,0,1,1.937,1.781v-2.234h4.834v15.775h-4.834v-2.233a5.227,5.227,0,0,1-1.965,1.781,6.073,6.073,0,0,1-2.926.679,6.415,6.415,0,0,1-3.506-1,6.933,6.933,0,0,1-2.5-2.856,10.41,10.41,0,0,1,0-8.552Zm9.895,1.442a3.4,3.4,0,0,0-4.891-.014,3.9,3.9,0,0,0-1,2.841,4,4,0,0,0,1,2.87,3.366,3.366,0,0,0,4.891.014,4.564,4.564,0,0,0,0-5.711Z" transform="translate(15723.879 -3599.109)" fill="#5b0791"/>
    <path id="Path_349" data-name="Path 349" d="M801.919,1420.936a7,7,0,0,1,1.654,4.934v9.216h-4.806v-8.566a3.462,3.462,0,0,0-.82-2.459,3.212,3.212,0,0,0-4.41,0,3.461,3.461,0,0,0-.82,2.459v8.566h-4.834v-15.775h4.834v2.092a5.108,5.108,0,0,1,1.979-1.654,6.3,6.3,0,0,1,2.8-.608A5.725,5.725,0,0,1,801.919,1420.936Z" transform="translate(15663.896 -3599.278)" fill="#5b0791"/>
    <path id="Path_350" data-name="Path 350" d="M931.1,1422.733a6.851,6.851,0,0,1,2.5-2.827,6.533,6.533,0,0,1,3.534-.99,6.07,6.07,0,0,1,2.926.679,5,5,0,0,1,1.936,1.781v-2.234h4.835v15.775H942v-2.233a5.224,5.224,0,0,1-1.965,1.781,6.072,6.072,0,0,1-2.926.679,6.415,6.415,0,0,1-3.506-1,6.93,6.93,0,0,1-2.5-2.856,10.406,10.406,0,0,1,0-8.552Zm9.895,1.442a3.4,3.4,0,0,0-4.891-.014,3.9,3.9,0,0,0-1,2.841,4,4,0,0,0,1,2.87,3.366,3.366,0,0,0,4.891.014,4.565,4.565,0,0,0,0-5.711Z" transform="translate(15557.391 -3599.109)" fill="#5b0791"/>
    <path id="Path_351" data-name="Path 351" d="M1010.538,1434.437a6.276,6.276,0,0,1-2.544-1.937,5.091,5.091,0,0,1-1.046-2.756h4.778a1.835,1.835,0,0,0,.763,1.329,2.7,2.7,0,0,0,1.668.509,2.379,2.379,0,0,0,1.4-.354,1.082,1.082,0,0,0,.495-.919,1.061,1.061,0,0,0-.707-1,14.338,14.338,0,0,0-2.29-.721,21.393,21.393,0,0,1-2.827-.834,4.878,4.878,0,0,1-1.951-1.385,3.773,3.773,0,0,1-.82-2.558,4.342,4.342,0,0,1,.749-2.474,5.045,5.045,0,0,1,2.205-1.767,8.444,8.444,0,0,1,3.463-.65,6.944,6.944,0,0,1,4.679,1.47,5.721,5.721,0,0,1,1.965,3.9h-4.467a1.929,1.929,0,0,0-.721-1.3,2.5,2.5,0,0,0-1.6-.48,2.209,2.209,0,0,0-1.3.325,1.038,1.038,0,0,0-.453.891,1.087,1.087,0,0,0,.721,1.018,11.546,11.546,0,0,0,2.247.679,24.6,24.6,0,0,1,2.856.891,4.925,4.925,0,0,1,1.937,1.414,4,4,0,0,1,.862,2.615,4.15,4.15,0,0,1-.777,2.474,5.14,5.14,0,0,1-2.233,1.71,8.547,8.547,0,0,1-3.378.622A9.064,9.064,0,0,1,1010.538,1434.437Z" transform="translate(15499.931 -3599.109)" fill="#5b0791"/>
    <path id="Path_352" data-name="Path 352" d="M867.711,1426.785l-7.674-9.33v6.848l7.675,9.331a.491.491,0,0,0,.744,0l7.649-9.292v-6.887l-7.649,9.329A.491.491,0,0,1,867.711,1426.785Z" transform="translate(15609.892 -3598.015)" fill="#ad2146"/>
  </g>
</svg>
