<svg xmlns="http://www.w3.org/2000/svg" width="20.125" height="22.032" viewBox="0 0 20.125 22.032">
  <g id="Icon_feather-package" data-name="Icon feather-package" transform="translate(-3.403 -1.972)">
    <path id="Path_18796" data-name="Path 18796" d="M20.215,11.485,11.25,6.315" transform="translate(-2.267 -1.113)" fill="none" stroke="#ad2146" stroke-linecap="round" stroke-linejoin="round" stroke-width="2"/>
    <path id="Path_18797" data-name="Path 18797" d="M22.43,16.947V8.978a1.992,1.992,0,0,0-1-1.723L14.461,3.27a1.992,1.992,0,0,0-1.992,0L5.5,7.254a1.992,1.992,0,0,0-1,1.723v7.969a1.992,1.992,0,0,0,1,1.723l6.973,3.984a1.992,1.992,0,0,0,1.992,0l6.973-3.984A1.992,1.992,0,0,0,22.43,16.947Z" fill="none" stroke="#ad2146" stroke-linecap="round" stroke-linejoin="round" stroke-width="2"/>
    <path id="Path_18798" data-name="Path 18798" d="M4.905,10.44l8.7,5.03,8.7-5.03" transform="translate(-0.136 -2.498)" fill="none" stroke="#ad2146" stroke-linecap="round" stroke-linejoin="round" stroke-width="2"/>
    <path id="Path_18799" data-name="Path 18799" d="M18,28.041V18" transform="translate(-4.535 -5.038)" fill="none" stroke="#ad2146" stroke-linecap="round" stroke-linejoin="round" stroke-width="2"/>
  </g>
</svg>
