<svg xmlns="http://www.w3.org/2000/svg" width="40" height="40" viewBox="0 0 40 40">
  <g id="Group_247" data-name="Group 247" transform="translate(-152 -388)">
    <g id="Group_198" data-name="Group 198" transform="translate(-1212 367)">
      <circle id="Ellipse_13" data-name="Ellipse 13" cx="20" cy="20" r="20" transform="translate(1364 21)" fill="#dee2e6"/>
    </g>
    <path id="Icon_awesome-address-card" data-name="Icon awesome-address-card" d="M22.366,2.25H2.033A2.034,2.034,0,0,0,0,4.283V19.194a2.034,2.034,0,0,0,2.033,2.033H22.366A2.034,2.034,0,0,0,24.4,19.194V4.283A2.034,2.034,0,0,0,22.366,2.25ZM7.455,6.317A2.711,2.711,0,1,1,4.744,9.028,2.714,2.714,0,0,1,7.455,6.317ZM12.2,16.347a.888.888,0,0,1-.949.813H3.66a.888.888,0,0,1-.949-.813v-.813a2.668,2.668,0,0,1,2.847-2.44h.212a4.363,4.363,0,0,0,3.372,0h.212a2.668,2.668,0,0,1,2.847,2.44Zm9.489-2.237a.34.34,0,0,1-.339.339h-6.1a.34.34,0,0,1-.339-.339v-.678a.34.34,0,0,1,.339-.339h6.1a.34.34,0,0,1,.339.339Zm0-2.711a.34.34,0,0,1-.339.339h-6.1a.34.34,0,0,1-.339-.339v-.678a.34.34,0,0,1,.339-.339h6.1a.34.34,0,0,1,.339.339Zm0-2.711a.34.34,0,0,1-.339.339h-6.1a.34.34,0,0,1-.339-.339V8.011a.34.34,0,0,1,.339-.339h6.1a.34.34,0,0,1,.339.339Z" transform="translate(160 396.75)" fill="#ad2146"/>
  </g>
</svg>
