<svg xmlns="http://www.w3.org/2000/svg" width="141.292" height="191.981" viewBox="0 0 141.292 191.981">
  <g id="Group_952" data-name="Group 952" transform="translate(-18087.955 8064.99)">
    <path id="Icon_awesome-sad-tear" data-name="Icon awesome-sad-tear" d="M70.646.563a70.646,70.646,0,1,0,70.646,70.646A70.634,70.634,0,0,0,70.646.563ZM93.435,48.419a9.116,9.116,0,1,1-9.116,9.116A9.106,9.106,0,0,1,93.435,48.419ZM43.3,116.787A13.527,13.527,0,0,1,29.626,103.4c0-5.7,8.119-17.206,11.85-22.162a2.268,2.268,0,0,1,3.646,0c3.732,4.957,11.85,16.465,11.85,22.162A13.527,13.527,0,0,1,43.3,116.787Zm4.558-50.136a9.116,9.116,0,1,1,9.116-9.116A9.106,9.106,0,0,1,47.857,66.651Zm48.484,43.926A33.422,33.422,0,0,0,70.646,98.555c-6.039,0-6.039-9.116,0-9.116a42.381,42.381,0,0,1,32.674,15.326C107.251,109.437,100.129,115.163,96.341,110.577Z" transform="translate(18087.955 -8014.863)" fill="#ffcc4d"/>
    <g id="Group_949" data-name="Group 949" transform="translate(18122.811 -8064.99)">
      <circle id="Ellipse_358" data-name="Ellipse 358" cx="12.766" cy="12.766" r="12.766" transform="translate(25.421 69.001)" fill="#ad2146"/>
      <path id="Path_3543" data-name="Path 3543" d="M407.961,262.037a9.152,9.152,0,0,1-8.361-5.429l-20.256-45.618a12.126,12.126,0,1,1,22.672-8.484l14.668,47.71a9.136,9.136,0,0,1-8.723,11.822Z" transform="translate(-378.299 -193.943)" fill="#ad2146"/>
    </g>
  </g>
</svg>
