<svg xmlns="http://www.w3.org/2000/svg" width="42" height="42" viewBox="0 0 42 42">
  <g id="Group_948" data-name="Group 948" transform="translate(-1072 -270)">
    <g id="Rectangle_475" data-name="Rectangle 475" transform="translate(1072 270)" fill="#dee2e6" stroke="#afabb9" stroke-width="1">
      <rect width="42" height="42" rx="5" stroke="none"/>
      <rect x="0.5" y="0.5" width="41" height="41" rx="4.5" fill="none"/>
    </g>
    <path id="Icon_awesome-pencil-alt" data-name="Icon awesome-pencil-alt" d="M26.121,7.456,23.7,9.875a.63.63,0,0,1-.892,0L16.988,4.051a.63.63,0,0,1,0-.892L19.406.741a2.524,2.524,0,0,1,3.562,0l3.153,3.153A2.514,2.514,0,0,1,26.121,7.456ZM14.91,5.237,1.134,19.014.021,25.388A1.261,1.261,0,0,0,1.48,26.846l6.374-1.117L21.631,11.952a.63.63,0,0,0,0-.892L15.807,5.237a.636.636,0,0,0-.9,0Zm-8.4,12.6a.731.731,0,0,1,0-1.039L14.59,8.715a.735.735,0,0,1,1.039,1.039L7.55,17.833a.731.731,0,0,1-1.039,0ZM4.617,22.245H7.135v1.9l-3.384.593L2.12,23.111l.593-3.384h1.9Z" transform="translate(1079.998 277.995)" fill="#ad2146"/>
  </g>
</svg>
