<svg xmlns="http://www.w3.org/2000/svg" width="40" height="40" viewBox="0 0 40 40">
  <g id="Group_249" data-name="Group 249" transform="translate(-188 -711)">
    <g id="Group_248" data-name="Group 248" transform="translate(-1176 690)">
      <circle id="Ellipse_13" data-name="Ellipse 13" cx="20" cy="20" r="20" transform="translate(1364 21)" fill="#dee2e6"/>
    </g>
    <path id="Icon_map-university" data-name="Icon map-university" d="M15.511,18.326A12.677,12.677,0,0,0,7.5,20.814v2.824H23.524V20.814A12.68,12.68,0,0,0,15.511,18.326Zm14.711-1.449-14.75-6.8L.729,16.877,3.186,18v1.73c-.616.128-.618.451-.618.834a1.03,1.03,0,0,0,.218.651l-.843,1.8H4.951l-.836-1.806a.992.992,0,0,0,.256-.62c0-.383-.568-.738-.568-.865v-1.44l3.081,1.384v-.123c1.849-1.608,5.1-2.628,8.627-2.628s6.78,1.021,8.629,2.628v.123Z" transform="translate(192.271 713.92)" fill="#ad2146"/>
  </g>
</svg>
