<svg xmlns="http://www.w3.org/2000/svg" width="13.186" height="13.186" viewBox="0 0 13.186 13.186">
  <g id="Group_1522" data-name="Group 1522" transform="translate(-1149 -415)">
    <circle id="Ellipse_479" data-name="Ellipse 479" cx="6.593" cy="6.593" r="6.593" transform="translate(1149 415)" fill="#ad2146"/>
    <path id="Icon_awesome-user-lock" data-name="Icon awesome-user-lock" d="M3.332,3.808a1.9,1.9,0,1,0-1.9-1.9A1.9,1.9,0,0,0,3.332,3.808ZM4.76,4.76a.938.938,0,0,1,.12-.454,2.036,2.036,0,0,0-.216-.022H4.416a2.589,2.589,0,0,1-2.169,0H2a2,2,0,0,0-2,2V6.9a.714.714,0,0,0,.714.714H4.892A.945.945,0,0,1,4.76,7.14Zm4.284-.476H8.568V3.094a1.19,1.19,0,0,0-2.38,0v1.19H5.712a.476.476,0,0,0-.476.476V7.14a.476.476,0,0,0,.476.476H9.044A.476.476,0,0,0,9.52,7.14V4.76A.476.476,0,0,0,9.044,4.284ZM7.378,6.426a.476.476,0,1,1,.476-.476A.476.476,0,0,1,7.378,6.426Zm.476-2.142H6.9V3.094a.476.476,0,1,1,.952,0Z" transform="translate(1151 417)" fill="#f5f5f5"/>
  </g>
</svg>
