<svg xmlns="http://www.w3.org/2000/svg" width="112.553" height="87.554" viewBox="0 0 112.553 87.554">
  <g id="Group_1464" data-name="Group 1464" transform="matrix(0.921, -0.391, 0.391, 0.921, 0, 39.033)">
    <path id="Path_3987" data-name="Path 3987" d="M99.86,27.825a2.041,2.041,0,0,0,.032-.515,4.7,4.7,0,0,0-.811-2.695c-1.459-2.412-4.513-3.989-6.878-5.3a98.011,98.011,0,0,0-14.728-6.289A264.391,264.391,0,0,0,32.717,1.471c-2.3-.387-25.383-4.189-26.4,2.216C4.081,9.212-3.333,23.1,1.74,28.738c7.828,8.7,24.57,11.927,35.137,14.921,15.784,4.47,33.721,10.262,50.391,8.83C98.02,51.566,98.348,35.662,99.86,27.825Zm-89-23.342a12.244,12.244,0,0,1,3.65-.614c11.181-.789,23.055,2.274,33.827,4.819,13.712,3.236,27.81,6.994,40.484,13.294,2.146,1.067,6,2.933,7.012,4.83.016.027.029.04.043.061a.482.482,0,0,0-.065.034,10.142,10.142,0,0,1-3.355.7c-5.052.456-10.271-.348-15.251-1.11A247.588,247.588,0,0,1,52.09,21.058C39.506,17.736,26.217,14.271,14.752,7.9a20.841,20.841,0,0,1-3.418-2.337,4.634,4.634,0,0,1-.8-.85c-.029-.038-.04-.056-.061-.088C10.552,4.586,10.637,4.571,10.86,4.483ZM84.721,48.711c-13.822.652-28.572-3.9-41.745-7.412C30.905,38.081,16.93,34.692,6.4,27.565,1.411,24.191,5.731,14.5,8.52,8.423c2.827,2.877,7.56,4.666,10.795,6.075,10.332,4.5,21.32,7.588,32.193,10.46C64.1,28.246,77.293,31.622,90.4,31.626a20.9,20.9,0,0,0,4.972-.609C94.321,38.735,93.329,48.3,84.721,48.711Z" transform="translate(0 0)" fill="#e63b69"/>
    <path id="Path_3988" data-name="Path 3988" d="M70.013,12.316c-3.866,1.767-9.442,1.148-13.534.89a135.56,135.56,0,0,1-19.614-3.068c-7.077-1.508-14.1-3.365-21.034-5.43C10.738,3.191,5.416.786.154,0A.136.136,0,0,0,.049.24C4.209,3.741,10.729,5.362,15.788,7c7.118,2.31,14.348,4.228,21.659,5.819a120.044,120.044,0,0,0,20.967,2.931c4.027.151,8.747-.029,11.867-2.944C70.5,12.608,70.33,12.17,70.013,12.316Z" transform="translate(19.217 29.772)" fill="#e63b69"/>
    <path id="Path_3989" data-name="Path 3989" d="M22.3,5.6c5.205.6,11.291,1.043,16.26-1.009.2-.083.135-.425-.092-.38C33.009,5.334,26.882,4.318,21.4,3.7,14.249,2.884,7.221,1.326.153,0A.135.135,0,0,0,.076.259C7.066,3.333,14.753,4.727,22.3,5.6Z" transform="translate(50.607 34.711)" fill="#e63b69"/>
    <path id="Path_3990" data-name="Path 3990" d="M3.846,1.913a5.579,5.579,0,0,0,3.659-.029c.171-.054.1-.268-.036-.308C6.069,1.171,4.729.713,3.3.364A4.754,4.754,0,0,0,.082.25.128.128,0,0,0,.048.468,11.642,11.642,0,0,0,3.846,1.913Z" transform="translate(40.87 32.457)" fill="#e63b69"/>
  </g>
</svg>
