<svg id="Group_1474" data-name="Group 1474" xmlns="http://www.w3.org/2000/svg" width="28.995" height="28.734" viewBox="0 0 28.995 28.734">
  <path id="Path_3941" data-name="Path 3941" d="M1073.483,221.438c-8.567-.864-15.33,6.04-15.84,14.176a1.169,1.169,0,0,0-.028.3,1.254,1.254,0,0,0,.025.294c1,18.076,26.895,18.731,28.877.665C1087.43,228.541,1081.491,222.245,1073.483,221.438Zm-13.609,14.477c.67-15.388,23.79-16.389,24.433-.458C1084.963,251.746,1060.515,252.209,1059.873,235.915Z" transform="translate(-1057.613 -221.365)" fill="#e63b69"/>
  <path id="Path_3942" data-name="Path 3942" d="M1063.2,238.714c-.108-.075-.21.064-.164.164,1.668,3.542,6.532,3.789,9.865,3.169,4.233-.788,7.526-3.568,7.848-7.976.01-.156-.222-.175-.264-.035C1078.336,241.053,1068.61,242.442,1063.2,238.714Z" transform="translate(-1056.051 -217.732)" fill="#e63b69"/>
  <path id="Path_3943" data-name="Path 3943" d="M1061.634,235.353a.2.2,0,0,0-.318.041,1.409,1.409,0,0,0,.133,1.244c.188.4.566,1,1.058.98a.28.28,0,0,0,.272-.272c.041-.393-.327-.705-.525-1.012A5.785,5.785,0,0,0,1061.634,235.353Z" transform="translate(-1056.572 -217.341)" fill="#e63b69"/>
  <path id="Path_3944" data-name="Path 3944" d="M1064.129,227.892a24.414,24.414,0,0,0,3.713-1.414c1.238-.439,2.565-.753,3.837-1.081a.115.115,0,0,0,.027-.207c-2.329-1.209-6.669.015-7.633,2.647C1064.059,227.872,1064.1,227.9,1064.129,227.892Z" transform="translate(-1055.748 -220.396)" fill="#e63b69"/>
</svg>
