<svg xmlns="http://www.w3.org/2000/svg" width="86.325" height="121.205" viewBox="0 0 86.325 121.205">
  <g id="Group_1469" data-name="Group 1469" transform="translate(-0.001)">
    <path id="Path_3829" data-name="Path 3829" d="M1192.314,346.93c-2.2-.373-4.423.251-6.576.7-1.71.359-4.239,1.557-5.211-.84a20.1,20.1,0,0,0-.858-2.758c-.712-1.216-2-1.328-3.267-1.27a10.324,10.324,0,0,0-2.412.688c-3.033.96-4.594-1.751-6.093-3.821-1.621-2.238-5.221-9.086-8.72-7.732-3.11,1.205-4.1,9.7-4.652,12.507-.96,4.837,2.406,9.137,4.91,13.046a6.015,6.015,0,0,0-2.921,2.909c-4.357.07-8.422,1.677-11.07,5.445-5.42,7.715-9.661,16.306-13.616,24.839-1.451,3.13-3.865,6.959-4.254,10.443-.458,4.1.881,7.731,2.62,11.381.117.244.251.477.385.711a5.042,5.042,0,0,0,.153,3.321c-4.291.47-8.807.754-12.9,1.927-4.573,1.311-7.414,8.755-9.107,12.6-.812,1.844-2.065,5.458,1.139,5.745,2.751.246,5.442-.689,8.033-1.478a28.653,28.653,0,0,1,4.836-1.259c1.833-.218,2.209,2.937,2.459,4.056.211.939.525,3.211,1.753,3.524,2.4.614,6.406-2.372,8.226.152,1.925,2.669,2.313,6.036,3.761,8.893.641,1.265,1.328,2.348,2.87,2.257,1.633-.1,2.7-2.431,3.356-3.575a44.151,44.151,0,0,0,4.158-9.225c1.39-4.862-1.065-10.586-2.849-15.2a7.173,7.173,0,0,0,3.331-2.861c4.94-.371,8.966-2.937,11.993-7.3,5.531-7.976,8.929-17.273,13.354-25.861,3.352-6.5,4.107-11.354.908-17.995a6.754,6.754,0,0,0,.057-4.727c2.435-.206,4.866-.434,7.3-.623,1.288-.1,2.877,0,4.032-.72,2.936-1.838,3.808-6.269,4.928-9.289C1192.933,354.038,1196.03,347.56,1192.314,346.93Zm-18.039,21.392a24.642,24.642,0,0,0-15.383-7.853C1162.354,355.829,1173.818,362.279,1174.275,368.321Zm-22.575-4.9a16.253,16.253,0,0,1,5.532-.652,9.556,9.556,0,0,0-4,3.116c-.075.113.076.266.189.188a21.17,21.17,0,0,1,5.1-2.6,15.5,15.5,0,0,1,2.309-.571l.157.006c.153,0,.313.029.471.045a34.727,34.727,0,0,0-8.745,8.475c-.288.416-.563.841-.842,1.264a18.147,18.147,0,0,0-7.948-.536c.163-.272.318-.548.482-.818C1146.3,368.227,1148.073,364.665,1151.7,363.418Zm14.062,21.127a62.931,62.931,0,0,1,3.291,11.914q-.626,1.329-1.253,2.655a110.239,110.239,0,0,0-7.125-19.26A55.152,55.152,0,0,1,1165.762,384.545Zm2.24,2.411c1.288,1.439,2.492,2.864,3.606,4.2q-.824,1.66-1.621,3.336A62.484,62.484,0,0,0,1168,386.956Zm-9.719-8.872c3.843,7.008,6.571,15.088,8.666,22.818q-1.077,2.253-2.206,4.478a96.254,96.254,0,0,0-4.527-14.69c-1.005-2.649-2.21-5.177-3.462-7.718-1.233-2.5-2.051-5.254-3.553-7.616A26.211,26.211,0,0,1,1158.283,378.084Zm-15.807-3.467a1.134,1.134,0,0,0,.277-.037,15.817,15.817,0,0,1,6.729-.281c-3,1.253-6.084,2.263-8.945,3.766Q1141.488,376.332,1142.477,374.618Zm-5.535,10.3a100.916,100.916,0,0,1,10.82-5.217q-.859,1.631-1.673,3.285a48.6,48.6,0,0,0-10.419,4.557C1136.09,386.663,1136.508,385.785,1136.942,384.915Zm-2.336,4.848a42.838,42.838,0,0,1,10.692-5.17q-.835,1.73-1.646,3.46a41.828,41.828,0,0,0-9.265,4.707q-.54-.09-1.092-.161Q1133.945,391.179,1134.605,389.763Zm8.264-.022q-1.133,2.44-2.2,4.915a26.771,26.771,0,0,0-4.467-1.526A40.571,40.571,0,0,1,1142.869,389.741Zm2.134.476a28.472,28.472,0,0,1,1.392,4.417c.395,1.411.855,2.79,1.245,4.191a37.365,37.365,0,0,0-5.043-3.239Q1143.772,392.887,1145,390.217Zm4.282,9.9c-.467-2.191-1.22-4.3-1.823-6.457a19.264,19.264,0,0,0-1.771-4.9q.8-1.706,1.644-3.4c2.084,6.03,4.087,12.086,5.867,18.213C1151.925,402.375,1150.624,401.212,1149.285,400.117Zm5.66,4.813c-2.017-7.137-4.369-14.166-6.8-21.17q.855-1.672,1.749-3.321a88.225,88.225,0,0,1,6.076,14.519,140.225,140.225,0,0,1,3.722,15c-1.582-1.559-3.152-3.149-4.744-4.7A.609.609,0,0,0,1154.945,404.93Zm-6.227-27.008a101.445,101.445,0,0,0-10.734,4.955c.455-.89.906-1.782,1.374-2.665,3.321-2.169,7.156-3.315,10.819-4.829Q1149.426,376.64,1148.718,377.923ZM1130.9,398c.484-1.141.989-2.273,1.5-3.4a1.141,1.141,0,0,0,.328.087,23.741,23.741,0,0,1,7.121,1.9q-1.793,4.281-3.382,8.641a26.3,26.3,0,0,0-1.939,8.462,17.129,17.129,0,0,1-1.091-2.126,13.286,13.286,0,0,1-.736-7.2c.006-.042-.044-.085-.08-.045-1.351,1.5-.945,4.417-.678,6.253q.07.476.19.959c-.026-.047-.059-.093-.082-.141C1129.705,406.861,1128.882,402.748,1130.9,398Zm16.628,40.234c-.032,2.794-2.377,6.323-3.571,8.785-.27.559-2.206,5.2-3.5,1.6-.448-1.238-.82-2.489-1.3-3.717-.712-1.82-2.086-5.65-4.376-6.191a7.028,7.028,0,0,0-4.147.26c-3.255,1.145-3.154-.536-3.738-3.094-.526-2.316-1.775-3.814-4.158-3.98-1.69-.119-13.344,4.179-12.692,1.664,1.03-3.972,5.335-12.868,9.758-13.421,4.016-.5,8.021-1.091,12.037-1.6a13.949,13.949,0,0,0,1.269,1.524c-4.061,1.08-8.608,2.843-11.088,6.11-.11.145.071.353.232.3a51.49,51.49,0,0,0,6.028-2.854,34.834,34.834,0,0,1,6.241-2.227,25.34,25.34,0,0,0,2.276,1.725c-3.605,2.442-6.63,6.183-7.441,10.5a.155.155,0,0,0,.282.119c2.422-3.865,4.7-7.316,8.654-9.691a12.466,12.466,0,0,0,1.937.874c.037.06.068.113.107.178a15.2,15.2,0,0,1,1.589,4.036c.656,2.468.477,5.016.976,7.482a.075.075,0,0,0,.136.018c1.314-2.3.949-5.448.424-7.923a17.939,17.939,0,0,0-1-3.277,8.865,8.865,0,0,0,1.922.031C1145.921,429.526,1147.581,433.848,1147.53,438.229Zm-9.523-16.858a14.369,14.369,0,0,1-5.065-5.193c3.32,3.155,8.254,4.988,12.5,5.686.552.091,1.09.15,1.623.193C1144.573,424.417,1140.821,423.082,1138.007,421.371Zm17.765-3.108c-2.164,1.471-5.389,1.553-8.094,1.559a7.462,7.462,0,0,0,4.105-2.449c.017-.025-.006-.07-.038-.065a27.958,27.958,0,0,0-3.64,1.065c-1.552.427-3.131.723-4.7,1.069a19.984,19.984,0,0,1-6.495-2.925c-.912-4.283.7-8.18,2.153-12.168.836-2.3,1.749-4.579,2.7-6.837,7.055,3.752,12.641,10.4,18.436,15.937A17.161,17.161,0,0,1,1155.771,418.263Zm5.592-6.674-.021-.02a170.818,170.818,0,0,0-4.508-18.105,81,81,0,0,0-6.215-14.374c.529-.953,1.076-1.9,1.627-2.837a40.565,40.565,0,0,1,2.379,5.21c1.372,3.235,3.078,6.28,4.344,9.569a87.422,87.422,0,0,1,4.812,16.192c-.272.514-.543,1.029-.825,1.537C1162.454,409.674,1161.925,410.633,1161.364,411.589Zm14.468-29.241a29.059,29.059,0,0,1-3.158,6.747c-4.868-5.776-11.233-12.678-18.654-15.664a37.52,37.52,0,0,1,10.051-9.7.919.919,0,0,0,.091-.077,18.817,18.817,0,0,1,2.91,1.466c.742,1.114,1.627,2.151,2.364,3.266,1.478,2.242,2.025,4.655,2.914,7.135a.142.142,0,0,0,.271,0c.931-2.295-.143-4.62-1.2-6.7-.12-.235-.249-.474-.38-.715a17.065,17.065,0,0,1,2.879,3.3C1175.734,374.977,1176.813,378.377,1175.832,382.348Zm15.418-30.033c-.912,2.774-2.257,9.6-5.219,10.8-2.984,1.205-7.716.761-10.887,1.008a12.645,12.645,0,0,0-.95-1.323c3.77-1.2,7.944-3.034,9.738-6.662a.068.068,0,0,0-.093-.092,48.748,48.748,0,0,1-10.871,5.421,17.794,17.794,0,0,0-5.1-3.415c.385-2.609,1.537-5.133,1.6-7.75a.106.106,0,0,0-.179-.074c-2.019,1.682-2.649,4.628-2.985,7.22-.182-.059-.36-.105-.541-.156a27.427,27.427,0,0,1-2.332-5.214c-.665-2.059-.836-4.232-1.363-6.324a.125.125,0,0,0-.239,0c-.883,3.806.186,7.7,1.907,11.135a9.754,9.754,0,0,0-2.137-.02c-2.014-3.214-5.114-7.007-5.119-10.9,0-2.281,1.025-4.835,1.622-7.028q.362-1.34.828-2.65c1.146-3.437,1.9-2.024,3.624-.125,2.592,2.858,4.317,7.068,7.654,9.178,2.151,1.359,7.3-1.58,7.953,1.044.458,1.843,1.144,3.124,2.9,3.853C1183.463,351.232,1193.119,346.624,1191.25,352.315Z" transform="translate(-1107.789 -331.726)" fill="#e63b69"/>
    <path id="Path_3830" data-name="Path 3830" d="M1136.056,394.229c-1.943.948-3.565,4.868-2.747,6.863a.155.155,0,0,0,.3,0c.458-1.141.6-2.368,1.025-3.529.419-1.139,1.113-2.115,1.574-3.219C1136.242,394.252,1136.126,394.194,1136.056,394.229Z" transform="translate(-1102.073 -317.609)" fill="#e63b69"/>
    <path id="Path_3831" data-name="Path 3831" d="M1140.809,399.819c-1.623.595-3.215,1.236-4.851,1.793-.027.01-.039.054-.008.069,1.607.761,3.908-.47,4.97-1.671C1140.989,399.932,1140.924,399.778,1140.809,399.819Z" transform="translate(-1101.432 -316.345)" fill="#e63b69"/>
    <path id="Path_3832" data-name="Path 3832" d="M1154.721,359.54a16.573,16.573,0,0,0,.872,3.475c.38,1.315.466,2.683.788,4.011a.135.135,0,0,0,.245.032c1.074-2.349-.206-5.669-1.785-7.567A.071.071,0,0,0,1154.721,359.54Z" transform="translate(-1097.187 -325.458)" fill="#e63b69"/>
    <path id="Path_3833" data-name="Path 3833" d="M1160.646,368.223a4.829,4.829,0,0,0-.066.8,1.572,1.572,0,0,0,.082.814.256.256,0,0,0,.4.052c.468-.413.181-1.333-.185-1.725A.138.138,0,0,0,1160.646,368.223Z" transform="translate(-1095.867 -323.504)" fill="#e63b69"/>
  </g>
</svg>
