<svg xmlns="http://www.w3.org/2000/svg" width="126.244" height="105.399" viewBox="0 0 126.244 105.399">
  <g id="Group_1472" data-name="Group 1472" transform="translate(2 2)">
    <path id="Path_288" data-name="Path 288" d="M1767.789,1347.841l-48.029-48.028a3.388,3.388,0,0,1,0-4.79l48.581-48.581h-24.39l-48.58,48.581a3.387,3.387,0,0,0,0,4.79l48.028,48.028Z" transform="translate(-1694.379 -1246.442)" fill="none" stroke="#e63b69" stroke-width="4"/>
    <path id="Path_289" data-name="Path 289" d="M1845.551,1297.595v-9.654l-34.193-34.192a3.387,3.387,0,0,0-4.79,0l-43.993,43.992a3.387,3.387,0,0,0,0,4.79l43.993,43.993a3.387,3.387,0,0,0,4.79,0l34.193-34.193v-9.654a1.017,1.017,0,0,0-1.017-1.016h-24.662a11,11,0,1,1-.016-3.049h24.678A1.017,1.017,0,0,0,1845.551,1297.595Z" transform="translate(-1723.307 -1249.16)" fill="none" stroke="#e63b69" stroke-width="4"/>
  </g>
</svg>
