<svg id="Group_1466" data-name="Group 1466" xmlns="http://www.w3.org/2000/svg" width="76.713" height="76.713" viewBox="0 0 76.713 76.713">
  <path id="Path_939" data-name="Path 939" d="M952.538,501.113a38.358,38.358,0,1,1,11.886-1.879A38.357,38.357,0,0,1,952.538,501.113Zm0-74.739a36.355,36.355,0,1,0,36.351,36.36v-.009a36.357,36.357,0,0,0-36.351-36.351Z" transform="translate(-914.213 -424.4)" fill="#e63b69"/>
  <path id="Path_1010" data-name="Path 1010" d="M926.188,446.032a8.1,8.1,0,0,1,2.306-6.168,8.3,8.3,0,0,1,5.948-2.174,8.219,8.219,0,0,1,5.928,2.174,9.521,9.521,0,0,1,0,12.341,8.219,8.219,0,0,1-5.928,2.174,8.31,8.31,0,0,1-5.948-2.168A8.1,8.1,0,0,1,926.188,446.032Zm33.542-7.793-19.016,34.766h-8.149l19.016-34.766Zm-25.338,4.391q-2.37,0-2.37,3.4,0,3.36,2.37,3.359a2.116,2.116,0,0,0,1.779-.839,4.112,4.112,0,0,0,.641-2.524Q936.812,442.631,934.392,442.63ZM949.7,465.2a7.676,7.676,0,1,1,2.272,6.174A8.137,8.137,0,0,1,949.7,465.2Zm8.149-3.407a2.046,2.046,0,0,0-1.757.839,4.338,4.338,0,0,0-.617,2.567q0,3.36,2.371,3.359a2.116,2.116,0,0,0,1.779-.839,4.122,4.122,0,0,0,.643-2.524,4.239,4.239,0,0,0-.643-2.544A2.087,2.087,0,0,0,957.853,461.794Z" transform="translate(-907.788 -417.263)" fill="#e63b69"/>
</svg>
