<svg xmlns="http://www.w3.org/2000/svg" width="115.333" height="52.819" viewBox="0 0 115.333 52.819">
  <path id="Icon_map-university" data-name="Icon map-university" d="M53.736,39.65c-11.946,0-22.1,3.474-28.726,8.919V58.7H82.466V48.569C75.837,43.124,65.685,39.65,53.736,39.65Zm52.751-5.2L53.6,10.08.729,34.452l8.813,4.033v6.2c-2.21.457-2.216,1.615-2.216,2.992a3.7,3.7,0,0,0,.782,2.336l-3.023,6.47H15.868l-3-6.475a3.556,3.556,0,0,0,.917-2.223c0-1.375-2.037-2.645-2.037-3.1V39.522L22.8,44.485v-.44c6.63-5.766,18.278-9.425,30.933-9.425s24.313,3.66,30.942,9.425v.44Z" transform="translate(4.063 -7.878)" fill="none" stroke="#e63b69" stroke-width="4"/>
</svg>
