<svg id="Group_1471" data-name="Group 1471" xmlns="http://www.w3.org/2000/svg" width="79.385" height="78.145" viewBox="0 0 79.385 78.145">
  <path id="Path_3949" data-name="Path 3949" d="M943.393,281.874c-.181-.456-.374-.911-.6-1.367-5.413-10.982-19.323-10.4-28.607-5.189.093-6.329-1.11-12.363-7.38-15.6-4.909-2.533-10.657-1.111-15.236,1.41-15.62,8.6-21.138,29.633-21.47,46.058a20.5,20.5,0,0,0,.5,4.862,1.1,1.1,0,0,0,.013.57c2.336,8.227,4.552,18.679,13.585,22.058,5.946,2.224,12.723,1.968,18.962,1.635a69.505,69.505,0,0,0,21.431-4.618c10.712-4.163,22.576-12.808,24.627-24.85C950.6,298.714,946.254,289.1,943.393,281.874Zm-3.386,32.344A10.221,10.221,0,0,0,937,310.8q.563-.47,1.105-.959c1.1.834,2.519,1.916,3.007,3.284C940.755,313.5,940.384,313.862,940.006,314.218Zm-19.748,4.752c-13.673,5.664-30.381,7.671-44.529,2.683-.54-1.394-1.011-2.834-1.444-4.276,3.814,2.5,9.508,2.485,13.79,2.778,14.987,1.026,30.707-2.038,43.1-10.806,6.227-4.4,11.989-11.067,13.195-18.447.391,1.17.76,2.345,1.092,3.529C943.987,306.85,930.823,314.595,920.258,318.97Zm25.982-21.5c.243,1.092.437,2.191.6,3.291a3.9,3.9,0,0,0-1.43-.843A21.035,21.035,0,0,0,946.24,297.473Zm-67.689,26.458a25.048,25.048,0,0,0,.816,4.219l-.162-.051a23.142,23.142,0,0,1-2.8-4.825C877.114,323.507,877.828,323.732,878.551,323.931Zm1.8,4.532a34.03,34.03,0,0,1-.892-4.3c.513.131,1.022.272,1.54.387a17.8,17.8,0,0,0,.6,4.267C881.185,328.7,880.768,328.588,880.353,328.463Zm2.247.607a16.351,16.351,0,0,1-.7-4.347c.668.136,1.337.274,2.01.383.065,1.463.286,2.909.447,4.364C883.767,329.346,883.183,329.213,882.6,329.07Zm2.671.579c-.157-1.474-.387-2.939-.462-4.42.662.1,1.321.2,1.987.269a24.4,24.4,0,0,0,.439,4.482Q886.247,329.833,885.27,329.649Zm2.893.465v0a22.28,22.28,0,0,1-.475-4.539c.6.056,1.192.115,1.79.15.237,1.519.011,3.086.384,4.584C889.294,330.25,888.729,330.188,888.164,330.114Zm2.628.279a.288.288,0,0,0-.005-.057c-.443-1.477-.219-3.051-.4-4.573.6.028,1.2.05,1.806.061.093.757.082,1.524.118,2.286.041.808.225,1.6.3,2.4Q891.7,330.467,890.791,330.393Zm2.718.159c-.066-.819-.234-1.622-.307-2.442-.069-.762-.053-1.52-.125-2.277.633,0,1.264-.009,1.9-.027a23.64,23.64,0,0,0,.675,4.78C894.935,330.588,894.222,330.577,893.509,330.552Zm3.076.033a21.481,21.481,0,0,1-.718-4.8q1.239-.052,2.479-.15c.271,1.615.318,3.258.635,4.864C898.181,330.54,897.383,330.572,896.585,330.585Zm3.3-.131c-.341-1.615-.389-3.272-.649-4.9.764-.07,1.526-.144,2.286-.239a24.443,24.443,0,0,1,.664,4.806.44.44,0,0,0,.031.127C901.44,330.327,900.662,330.4,899.883,330.454Zm2.523-5.268q1.386-.191,2.761-.434a25.652,25.652,0,0,1,.032,5.119c-.707.106-1.417.195-2.126.279a.274.274,0,0,0,0-.031A25.677,25.677,0,0,0,902.406,325.186Zm3.629-.6q1.335-.254,2.657-.556a16.249,16.249,0,0,1,.16,5.179q-1.369.281-2.752.509A26.371,26.371,0,0,0,906.035,324.588Zm3.526-.757q1.381-.332,2.743-.717a8.56,8.56,0,0,1,.44,5.157c0,.008,0,.013,0,.02q-1.48.4-2.984.723A16.659,16.659,0,0,0,909.561,323.83Zm3.605-.953c.664-.195,1.317-.407,1.973-.62a44.6,44.6,0,0,1,1.054,5.021q-1.237.4-2.5.756A9.562,9.562,0,0,0,913.167,322.877Zm3.879,4.109a43.652,43.652,0,0,0-1.054-5c.649-.219,1.287-.454,1.926-.69a18.915,18.915,0,0,1,1.445,4.858Q918.217,326.592,917.045,326.986Zm3.172-1.161A22.835,22.835,0,0,0,918.755,321c.542-.206,1.074-.429,1.609-.645a11.8,11.8,0,0,1,1.4,4.85c-.246.1-.491.206-.732.306C920.766,325.619,920.489,325.717,920.218,325.825Zm2.422-.993a13.348,13.348,0,0,0-1.451-4.813c.112-.047.228-.089.34-.138.81-.345,1.632-.712,2.459-1.1a15.045,15.045,0,0,1,1.716,4.668C924.659,323.946,923.634,324.406,922.64,324.832Zm3.893-1.776a15.71,15.71,0,0,0-1.735-4.65q1.064-.508,2.131-1.059a10.921,10.921,0,0,1,1.8,4.6Q927.626,322.529,926.533,323.056Zm3.017-1.54a11.774,11.774,0,0,0-1.82-4.592q.943-.5,1.878-1.039A7.773,7.773,0,0,1,931.7,320.3l0,.006Q930.63,320.934,929.55,321.516Zm2.974-1.7a8.775,8.775,0,0,0-2.13-4.385q.995-.592,1.968-1.221a11.081,11.081,0,0,1,2.608,4.026Q933.767,319.055,932.524,319.814Zm3.216-2.113a12.249,12.249,0,0,0-2.627-3.992c.5-.335.988-.673,1.47-1.023a8.362,8.362,0,0,1,2.859,3.74C936.885,316.861,936.318,317.289,935.739,317.7Zm2.43-1.864a9.376,9.376,0,0,0-2.848-3.7q.5-.376.98-.763c1.1.882,2.575,2.088,3.023,3.473Q938.76,315.352,938.169,315.837Zm3.608-3.429a9.711,9.711,0,0,0-3.009-3.176q.676-.638,1.314-1.3a10.315,10.315,0,0,1,2.667,3.343C942.438,311.657,942.112,312.035,941.777,312.408Zm1.57-1.92a11.853,11.853,0,0,0-2.662-3.217c.469-.521.918-1.051,1.344-1.6a6.252,6.252,0,0,1,2.406,3.2Q943.931,309.7,943.347,310.488Zm1.664-2.617a7.9,7.9,0,0,0-2.444-2.9q.657-.9,1.227-1.845a6.585,6.585,0,0,1,2,3.126C945.559,306.8,945.3,307.34,945.011,307.871Zm1.255-2.888a7.094,7.094,0,0,0-2.024-2.635c.29-.526.568-1.057.817-1.6a3.214,3.214,0,0,1,1.856,1.524A16.544,16.544,0,0,1,946.266,304.982ZM890.02,264.813c3.825-2.928,8.734-4.93,13.584-3.892,7.763,1.661,8.626,9.829,8.286,16.428a1.123,1.123,0,0,0,1.679.964c8.925-5.979,22.858-6.7,27.714,4.262q.285.724.571,1.456c3.828,11.331-7.982,21.436-16.5,26.417-10.264,6-22.6,7.809-34.311,7.6a49.225,49.225,0,0,1-13.728-1.727c-4.266-1.338-4.961-5.168-4.981-9.138C872.642,291.853,877.28,274.571,890.02,264.813ZM924,329.541c-10.823,4.52-24.529,6.2-36.085,3.948A13.907,13.907,0,0,1,881,330.05c13.743,3.8,29.208,1.5,42.126-3.974,5.46-2.314,12-5.722,17.072-10.286a.325.325,0,0,0,.059-.051,26.277,26.277,0,0,0,6.728-8.977C945.375,317.682,933.386,325.622,924,329.541Z" transform="translate(-870.1 -258.387)" fill="#9059b3"/>
  <path id="Path_3950" data-name="Path 3950" d="M874.987,292.118c2.289-4.21,3.624-8.906,5.94-13.137a43.775,43.775,0,0,1,6.492-9.047c4.745-5.027,11.815-8.8,18.6-5.3a.172.172,0,0,0,.207-.269c-5.31-5.727-13.92-.946-18.549,3.32a40.009,40.009,0,0,0-7.339,9.522c-2.522,4.374-5.144,9.765-5.616,14.841C874.713,292.187,874.923,292.234,874.987,292.118Z" transform="translate(-868.837 -257.473)" fill="#9059b3"/>
  <path id="Path_3951" data-name="Path 3951" d="M873.954,289.386c.454.113.51-.526.563-.82a15.365,15.365,0,0,0,.509-2.1.208.208,0,0,0-.351-.146,3.6,3.6,0,0,0-.96,2.826A.339.339,0,0,0,873.954,289.386Z" transform="translate(-869.125 -250.777)" fill="#9059b3"/>
  <path id="Path_3952" data-name="Path 3952" d="M899.274,308.4c7.754-1.091,14.7-4.77,20.886-9.462,5.033-3.819,10.791-9.265,11.885-15.8.014-.083-.1-.15-.146-.061-6,12.7-19.59,21.19-32.7,25.044C899.011,308.167,899.093,308.421,899.274,308.4Z" transform="translate(-862.185 -251.66)" fill="#9059b3"/>
  <path id="Path_3953" data-name="Path 3953" d="M925.255,282.936a.1.1,0,0,0,.122.017c.511-.331.429-.962.386-1.493-.041-.512-.087-1.323-.584-1.613a.08.08,0,0,0-.109.028c-.294.426-.135,1.1-.108,1.585C924.992,281.979,924.886,282.516,925.255,282.936Z" transform="translate(-855.141 -252.531)" fill="#9059b3"/>
</svg>
