<svg id="Group_1465" data-name="Group 1465" xmlns="http://www.w3.org/2000/svg" width="97.026" height="100.252" viewBox="0 0 97.026 100.252">
  <path id="Path_3748" data-name="Path 3748" d="M1093.03,344.264a50.421,50.421,0,0,0-20.943-2.443,3.8,3.8,0,0,0-.134-2.19,4.4,4.4,0,0,0-5.076-3.187,27.4,27.4,0,0,1-.274-9.884c.407-2.467,1.842-4.628,2.234-7.079.726-4.532-2.108-7.286-6.593-6.447-1.711.321-2.694,1.523-4.711.289-.776-.474-1.317-1.511-2.245-1.758a3.707,3.707,0,0,0-4.017,1c-1.66,1.768-2.517,3.965-3.8,5.99-1.657,2.619-5.425.93-7.6,2.848-2.275,2.009-.664,5.727-5.31,5.513-1.589-.074-3.3-.249-4.717.643-2.234,1.409-2.2,3.871-1.344,6.114,1.362,3.551,5.054,6.424,8.3,8.115a27.241,27.241,0,0,0,7.1,2.621c3.579.729,7.914.26,11.2,2.037a4.646,4.646,0,0,0-.127,1.966.809.809,0,0,0,.116.563.836.836,0,0,0,.279.423,4.267,4.267,0,0,0,4.055,2.149c-3.382,8.356-3.152,17.981-.52,26.834a.93.93,0,0,0,.135.441,50.364,50.364,0,0,0,7.216,14.606c4.82,6.665,9.873,15.912,18.678,17.788,8.48,1.807,16.177-2.727,22.575-7.847,5.87-4.7,13.081-10.756,16.35-17.679,2.621-5.551.226-11.547-2.74-16.4C1114.231,358.006,1105.634,348.738,1093.03,344.264Zm3.617,3.305a.957.957,0,0,0,.019.14,4.881,4.881,0,0,1,.147,2.479,1.441,1.441,0,0,1-1.6,1c-.756-.183-.973-.986-1.059-1.631a.962.962,0,0,0-.6-.745l-.039-.016a.949.949,0,0,0-.932.151c-.919.747-2.509.83-2.419-.763.056-.991,1.448-1.777,2.2-2.237A43.683,43.683,0,0,1,1096.647,347.57Zm-26.638-7.727c2.154,3.787-10.632,12.748-13.173,8.374-.757-2.426,3.721-5.878,5.206-7.21C1064.122,339.14,1068.049,336.395,1070.009,339.843Zm-26.753,2.467a22.221,22.221,0,0,1-11.378-6.806c-2.932-3.373-2.8-7.022,2.489-6.7,3.24.2,5.149-.812,6.066-4s3.534-2.5,5.907-3.05c.067-.015.128-.042.193-.062a15.7,15.7,0,0,1-3.293,4.731.06.06,0,0,0,.045.105c2.144-.178,3.34-1.864,4.277-3.621.682-1.279,1.316-2.616,1.911-3.97.949-1.528,1.659-3.169,2.743-4.623,2.059-2.76,4.308,1.356,6.291,1.493a7.538,7.538,0,0,0,3.361-.675c3.059-1.119,5.685,1.869,4.888,4.849-.324,1.215-.89,2.385-1.32,3.565-1.55,4.254-1.283,9.022-.4,13.378a12.7,12.7,0,0,0-2.294,1.152c-.067.042-.143.094-.213.14a42.863,42.863,0,0,1-3.813-18.934.1.1,0,0,0-.194-.047c-1.276,2.9-1.015,6.343-.58,9.4a36.5,36.5,0,0,0,3.319,10.459c-.256.187-.516.388-.782.6a55.478,55.478,0,0,1-8.411-14.126c-.028-.073-.13-.035-.125.036.417,5.352,4.237,10.727,7.582,14.878-.421.365-.837.751-1.24,1.154a55.886,55.886,0,0,0-10.54-6.079c-2.054-.895-4.187-1.637-6.3-2.389-1.437-.511-3.072-1.3-4.625-1.141-.076.008-.063.109,0,.123a28.815,28.815,0,0,1,5,1.9c1.863.787,3.732,1.58,5.56,2.445a61.554,61.554,0,0,1,10.018,6.067,13.209,13.209,0,0,0-1.554,2.142C1052.028,342.781,1047.353,343.319,1043.256,342.31Zm16.134,29.112a9.8,9.8,0,0,1,3.143,1.712,13.014,13.014,0,0,1-2.028,3.413q-.18-.645-.346-1.3C1059.847,373.984,1059.594,372.707,1059.39,371.421Zm13.3,23.162.037.02a.952.952,0,0,0,.933-.149c1.669-1.128,3,.569,1.857,2.022a6.746,6.746,0,0,1-3.471,1.792q-.7-.937-1.366-1.886c-.38-.539-.751-1.076-1.12-1.614a2.943,2.943,0,0,1,.524-2.532c1.162-1.11,1.973.718,2,1.6A.96.96,0,0,0,1072.693,394.583Zm48.91-20.375c3.692,7.96-.758,13.749-6.266,19.313-5.891,5.95-12.183,12.013-20.122,15.073-9.55,3.681-16.478-1.849-21.94-8.733,2.047-.675,4.075-1.792,4.595-4.012a3.2,3.2,0,0,0-1.477-3.269,3.138,3.138,0,0,0-2.65-.227A3.079,3.079,0,0,0,1070,390.2a2.935,2.935,0,0,0-2.094,2.081,58.387,58.387,0,0,1-6.772-13.66,14.292,14.292,0,0,0,3.418-5.406.925.925,0,0,0-.15-.934,11.91,11.91,0,0,0-5.289-2.9,34.952,34.952,0,0,1,2.639-18.435c.336-.139.672-.3,1.006-.47-1.085,3.3-1.942,7.218-.869,10.331.048.135.244.087.261-.041.237-1.741.218-3.485.535-5.228a35.893,35.893,0,0,1,1.674-5.969c.268-.166.535-.334.8-.5l.054-.036a18.863,18.863,0,0,0,1.932,7.306c.031.06.142.057.142-.023.02-2.738-.492-5.48-.679-8.218.622-.434,1.287-.93,1.94-1.477a25.594,25.594,0,0,1,7.131,1.069c1.734.453,3.535,1.318,5.318,1.459a.089.089,0,0,0,.079-.144c-1.367-1.485-3.641-2.19-5.508-2.789a22.783,22.783,0,0,0-5.463-1.052,10.753,10.753,0,0,0,1.1-1.378,53.762,53.762,0,0,1,18.856,1.48,3.869,3.869,0,0,0-1.568,4.287c.563,1.878,2.582,2.1,4.158,1.5.649,1.408,2.034,2.539,3.675,1.932,2.05-.759,2.623-2.517,2.427-4.417a33.9,33.9,0,0,1,9.037,6.633C1113.054,360.7,1118.381,367.263,1121.6,374.208Z" transform="translate(-1027.962 -311.368)" fill="#9059b3"/>
  <path id="Path_3749" data-name="Path 3749" d="M1098.33,389.21a.985.985,0,0,0,.988-.608c3.477-8.423,4.823-21.4.079-29.521-2.245-3.843-7.419-6.421-11.852-5.093a9.952,9.952,0,0,0-5.663,4.55,11.8,11.8,0,0,0-1.346,3.738,20.869,20.869,0,0,0,.066,3.74c-5.212-1.709-11.366-.321-13.662,5.192-1.994,4.788.88,9.632,4.75,12.3C1078.941,388.5,1089.757,389.311,1098.33,389.21Zm-29.921-13.195c-1.591-7.647,7.138-10.247,12.81-7.734a.8.8,0,0,0,.944-.159l.122-.1a.94.94,0,0,0,.341-.88c-1.421-6.8,3.06-13.115,10.32-11.016,4.849,1.4,6.493,6.828,7.092,11.255a45.315,45.315,0,0,1-.712,13.985,40.2,40.2,0,0,1-1.376,5.483.648.648,0,0,0-.015.492,3.971,3.971,0,0,0-.4-.023c-6.97-.076-14.2-.873-20.751-3.347C1073.075,382.568,1069.271,380.154,1068.409,376.015Z" transform="translate(-1024.783 -307.863)" fill="#9059b3"/>
  <path id="Path_3750" data-name="Path 3750" d="M1105.921,368.44a3.259,3.259,0,0,0-1.147,3.413,3.29,3.29,0,0,0-2.482,2.635c-.308,1.475.983,2.8,2.221,3.289,2.3.9,5.4-.011,7.609-.836a.929.929,0,0,0,.564-.771c.085-2.622-.777-5.955-2.894-7.647A3.389,3.389,0,0,0,1105.921,368.44Zm3.837,3.039a9.969,9.969,0,0,1,1.035,3.915,18.387,18.387,0,0,1-2.778.667,6.349,6.349,0,0,1-2.83-.06c-1.706-.514-.9-2.434.751-2.414a.778.778,0,0,0,.9-.392l.022-.036a.954.954,0,0,0,.1-.932c-.648-1.13-.486-2.529,1.082-2.432C1108.875,369.846,1109.43,370.84,1109.758,371.479Z" transform="translate(-1021.801 -306.682)" fill="#9059b3"/>
  <path id="Path_3751" data-name="Path 3751" d="M1074.406,361.533c1.258-1.972,2.629-4.586,2.431-6.991a3.252,3.252,0,0,0-2.436-3.058,3.051,3.051,0,0,0-3.438,1.829c-2.439-1.019-5.534.889-4.406,3.9.977,2.613,4.385,4.243,6.977,4.711A.93.93,0,0,0,1074.406,361.533Zm-6.112-5.13c-.446-1.813,1.649-1.74,2.582-.9a.951.951,0,0,0,.932.1l.04-.014a.778.778,0,0,0,.572-.8c.283-1.4,2.056-2.116,2.474-.493a5.079,5.079,0,0,1-.382,2.744,15.3,15.3,0,0,1-1.329,2.859,11.242,11.242,0,0,1-3.339-1.6A3.509,3.509,0,0,1,1068.293,356.4Z" transform="translate(-1024.781 -308.048)" fill="#9059b3"/>
  <path id="Path_3752" data-name="Path 3752" d="M1079.075,347.932c.245.068.511.106.75.183a.1.1,0,0,0,.135-.109,1.459,1.459,0,0,0-.654-1.158,2.706,2.706,0,0,0-1.48-.429.2.2,0,0,0-.2.272,2.437,2.437,0,0,0,.8.855A2.55,2.55,0,0,0,1079.075,347.932Z" transform="translate(-1023.844 -308.461)" fill="#9059b3"/>
  <path id="Path_3753" data-name="Path 3753" d="M1114.5,381.451c-5.646,4.78-10.984,9.989-17.194,14.022a3.253,3.253,0,0,0-2.112-3.144,3.163,3.163,0,0,0-3.754,1.418,3.077,3.077,0,0,0-4.293.82c-1.283,1.852.042,3.8,1.484,5.163a11.4,11.4,0,0,1-5.9,0,25.48,25.48,0,0,1-9.468-4.925.078.078,0,0,0-.116.094c1.584,3.255,5.279,5.048,8.566,6.1,3.959,1.273,7.123.561,10.825-1.122,8.59-3.9,16.416-10.823,22.152-18.249A.131.131,0,0,0,1114.5,381.451Zm-23.775,17.587c-.017-.016-.031-.034-.051-.05a6.289,6.289,0,0,1-2.014-2.257c-.8-1.742,1.492-1.9,2.366-.924a.952.952,0,0,0,.882.342l.04-.011a.957.957,0,0,0,.745-.6c.27-.918.947-1.918,2.044-1.308.928.517.749,1.637.558,2.485v.008c-.431.253-.865.5-1.306.743A30.782,30.782,0,0,1,1090.726,399.038Z" transform="translate(-1024.215 -305.558)" fill="#9059b3"/>
  <path id="Path_3754" data-name="Path 3754" d="M1113.59,377.693c-.316.6-.721,1.151-1.031,1.761-.194.383-.545.856-.388,1.306a.04.04,0,0,0,.033.024c.529.042.862-.546,1.1-.93a3.731,3.731,0,0,0,.463-2.118A.092.092,0,0,0,1113.59,377.693Z" transform="translate(-1020.98 -305.872)" fill="#9059b3"/>
  <path id="Path_3755" data-name="Path 3755" d="M1103.848,361.465c.082.231.155.465.246.692s.15.6.379.754a.27.27,0,0,0,.419-.188c.057-.251-.15-.578-.246-.806a1.471,1.471,0,0,0-.5-.7A.2.2,0,0,0,1103.848,361.465Z" transform="translate(-1021.669 -307.237)" fill="#9059b3"/>
  <path id="Path_3756" data-name="Path 3756" d="M1104.481,361.074a2.7,2.7,0,0,0,.526.786c.163.156.525.079.456-.2a1.015,1.015,0,0,0-.831-.791A.149.149,0,0,0,1104.481,361.074Z" transform="translate(-1021.616 -307.263)" fill="#9059b3"/>
  <path id="Path_3757" data-name="Path 3757" d="M1064.451,362.312a4.166,4.166,0,0,0-1.489-.538.134.134,0,0,0-.118.217,3.105,3.105,0,0,0,1.364.773C1064.475,362.827,1064.711,362.492,1064.451,362.312Z" transform="translate(-1025.071 -307.188)" fill="#9059b3"/>
  <path id="Path_3758" data-name="Path 3758" d="M1064.121,361.062a2.847,2.847,0,0,0-.981-.167.167.167,0,0,0-.127.231c.166.337.639.411.977.487C1064.305,361.685,1064.433,361.148,1064.121,361.062Z" transform="translate(-1025.056 -307.261)" fill="#9059b3"/>
  <path id="Path_3759" data-name="Path 3759" d="M1064.84,379.105a.294.294,0,0,0-.075-.018.307.307,0,0,0-.312.193,1.956,1.956,0,0,0-.03,1.238.068.068,0,0,0,.1.026,1.494,1.494,0,0,0,.5-1.126A.3.3,0,0,0,1064.84,379.105Z" transform="translate(-1024.945 -305.752)" fill="#9059b3"/>
  <path id="Path_3760" data-name="Path 3760" d="M1065.557,379.552c-.466.138-.557.759-.435,1.158a.1.1,0,0,0,.169.018c.221-.318.571-.722.379-1.132A.087.087,0,0,0,1065.557,379.552Z" transform="translate(-1024.884 -305.714)" fill="#9059b3"/>
  <path id="Path_3761" data-name="Path 3761" d="M1081.412,351.676c-.349-.145-.679-.326-1.024-.475a.153.153,0,0,0-.171.237,2.55,2.55,0,0,0,1.027.683A.238.238,0,0,0,1081.412,351.676Z" transform="translate(-1023.63 -308.066)" fill="#9059b3"/>
  <path id="Path_3762" data-name="Path 3762" d="M1081.624,351.171a.113.113,0,0,0,.092-.1c.11-.521-.6-.636-.927-.418a.167.167,0,0,0,.088.293C1081.158,350.97,1081.339,351.2,1081.624,351.171Z" transform="translate(-1023.585 -308.119)" fill="#9059b3"/>
  <path id="Path_3763" data-name="Path 3763" d="M1080.5,391.914a3.673,3.673,0,0,0,.124.752,2.555,2.555,0,0,0,.171.688.054.054,0,0,0,.07.028c.545-.242.37-1.215.106-1.606A.267.267,0,0,0,1080.5,391.914Z" transform="translate(-1023.604 -304.708)" fill="#9059b3"/>
  <path id="Path_3764" data-name="Path 3764" d="M1081.916,393.072a1.134,1.134,0,0,0,.014-1.04.1.1,0,0,0-.152-.037c-.377.237-.326.655-.222,1.039A.188.188,0,0,0,1081.916,393.072Z" transform="translate(-1023.523 -304.683)" fill="#9059b3"/>
  <path id="Path_3765" data-name="Path 3765" d="M1102.249,381.512a.163.163,0,0,0-.083.21,1.339,1.339,0,0,0,.428.4c.181.133.3.37.515.453a.265.265,0,0,0,.351-.285C1103.444,381.9,1102.612,381.3,1102.249,381.512Z" transform="translate(-1021.808 -305.554)" fill="#9059b3"/>
  <path id="Path_3766" data-name="Path 3766" d="M1103.53,381.511a.213.213,0,0,0,.031-.3,1.254,1.254,0,0,0-.926-.319.1.1,0,0,0-.11.09A.669.669,0,0,0,1103.53,381.511Z" transform="translate(-1021.777 -305.602)" fill="#9059b3"/>
  <path id="Path_3767" data-name="Path 3767" d="M1095.594,351.62a1.4,1.4,0,0,0,.65-1.019c.008-.261-.34-.442-.5-.192a3.679,3.679,0,0,0-.312,1.091A.107.107,0,0,0,1095.594,351.62Z" transform="translate(-1022.367 -308.14)" fill="#9059b3"/>
  <path id="Path_3768" data-name="Path 3768" d="M1096.588,350.8a1.192,1.192,0,0,0-.451.907.12.12,0,0,0,.165.121,1.225,1.225,0,0,0,.7-.8C1097.06,350.785,1096.749,350.686,1096.588,350.8Z" transform="translate(-1022.307 -308.102)" fill="#9059b3"/>
  <path id="Path_3769" data-name="Path 3769" d="M1102.036,368.223a.151.151,0,0,0-.027.257,1.832,1.832,0,0,0,.661.384.348.348,0,0,0,.246-.65A1.044,1.044,0,0,0,1102.036,368.223Z" transform="translate(-1021.825 -306.661)" fill="#9059b3"/>
  <path id="Path_3770" data-name="Path 3770" d="M1063.878,371.212a.263.263,0,0,0,.075-.3.306.306,0,0,0-.037-.058.253.253,0,0,0-.239-.093,1.891,1.891,0,0,0-.691.273.142.142,0,0,0,.006.259A.935.935,0,0,0,1063.878,371.212Z" transform="translate(-1025.063 -306.443)" fill="#9059b3"/>
  <path id="Path_3771" data-name="Path 3771" d="M1059.348,361.275a2.558,2.558,0,0,0-.754-.693.191.191,0,0,0-.255.207,2.559,2.559,0,0,0,.521.882A.314.314,0,0,0,1059.348,361.275Z" transform="translate(-1025.443 -307.288)" fill="#9059b3"/>
  <path id="Path_3772" data-name="Path 3772" d="M1068.943,349.621a1.361,1.361,0,0,0-1.123-.433.085.085,0,0,0-.064.116,1.924,1.924,0,0,0,.868.761A.273.273,0,0,0,1068.943,349.621Z" transform="translate(-1024.662 -308.234)" fill="#9059b3"/>
  <path id="Path_3773" data-name="Path 3773" d="M1068.908,348.791a.1.1,0,0,0-.032-.11.456.456,0,0,0-.335-.129c-.155,0-.285-.049-.435-.06a.123.123,0,0,0-.133.139C1067.988,349.092,1068.76,349.272,1068.908,348.791Z" transform="translate(-1024.643 -308.289)" fill="#9059b3"/>
  <path id="Path_3774" data-name="Path 3774" d="M1076.839,361.514a1.1,1.1,0,0,0,.686-.954.3.3,0,0,0-.591-.063,2.483,2.483,0,0,1-.272.847C1076.609,361.459,1076.739,361.545,1076.839,361.514Z" transform="translate(-1023.924 -307.315)" fill="#9059b3"/>
  <path id="Path_3775" data-name="Path 3775" d="M1076.609,359.995a.066.066,0,0,0-.1,0,1.616,1.616,0,0,0-.23.966.051.051,0,0,0,.07.039A.669.669,0,0,0,1076.609,359.995Z" transform="translate(-1023.955 -307.337)" fill="#9059b3"/>
  <path id="Path_3776" data-name="Path 3776" d="M1098.939,387.74a1.428,1.428,0,0,0,.5.975.255.255,0,0,0,.4-.241,1.176,1.176,0,0,0-.743-.852A.111.111,0,0,0,1098.939,387.74Z" transform="translate(-1022.075 -305.045)" fill="#9059b3"/>
  <path id="Path_3777" data-name="Path 3777" d="M1099.351,387.18c-.151.317.545.652.728.769.33.212.688-.277.357-.5C1100.271,387.34,1099.513,386.839,1099.351,387.18Z" transform="translate(-1022.042 -305.09)" fill="#9059b3"/>
  <path id="Path_3778" data-name="Path 3778" d="M1041.137,337.117c-.081.09-.01.217.079.261a.781.781,0,0,0,.72-.038.268.268,0,0,0-.147-.508A.978.978,0,0,0,1041.137,337.117Z" transform="translate(-1026.872 -309.257)" fill="#9059b3"/>
  <path id="Path_3779" data-name="Path 3779" d="M1041.221,335.949a.612.612,0,0,0-.387.8.088.088,0,0,0,.114.044,1.459,1.459,0,0,0,.591-.447C1041.712,336.133,1041.449,335.856,1041.221,335.949Z" transform="translate(-1026.898 -309.331)" fill="#9059b3"/>
  <path id="Path_3780" data-name="Path 3780" d="M1052.418,318.626c.413-.139.466-.992.4-1.348a.1.1,0,0,0-.153-.059,1.7,1.7,0,0,0-.382.563c-.093.183-.254.452-.2.659A.246.246,0,0,0,1052.418,318.626Z" transform="translate(-1025.962 -310.885)" fill="#9059b3"/>
  <path id="Path_3781" data-name="Path 3781" d="M1052.388,317.031c.218-.4-.411-.671-.521-.279a3.1,3.1,0,0,0-.114.578.1.1,0,0,0,.113.107A.677.677,0,0,0,1052.388,317.031Z" transform="translate(-1025.989 -310.938)" fill="#9059b3"/>
  <path id="Path_3782" data-name="Path 3782" d="M1059.684,322.977a1.224,1.224,0,0,0,.648.921.229.229,0,0,0,.306-.248c-.069-.315-.515-.841-.885-.745A.084.084,0,0,0,1059.684,322.977Z" transform="translate(-1025.331 -310.413)" fill="#9059b3"/>
  <path id="Path_3783" data-name="Path 3783" d="M1060.536,322.4a.49.49,0,0,0-.566,0,.094.094,0,0,0-.028.112.983.983,0,0,0,.349.347A.262.262,0,1,0,1060.536,322.4Z" transform="translate(-1025.31 -310.461)" fill="#9059b3"/>
  <path id="Path_3784" data-name="Path 3784" d="M1045.594,329.132a.349.349,0,0,0-.69.105,1.89,1.89,0,0,0,.439,1.045.045.045,0,0,0,.063-.011A1.71,1.71,0,0,0,1045.594,329.132Z" transform="translate(-1026.557 -309.919)" fill="#9059b3"/>
  <path id="Path_3785" data-name="Path 3785" d="M1045.841,330.007a.085.085,0,0,0,.128.031c.289-.183.465-.683.115-.895a.218.218,0,0,0-.255.008C1045.534,329.373,1045.69,329.744,1045.841,330.007Z" transform="translate(-1026.494 -309.897)" fill="#9059b3"/>
  <path id="Path_3786" data-name="Path 3786" d="M1033.456,331.418a1.347,1.347,0,0,0-.253.965.064.064,0,0,0,.087.064c.349-.115.763-.551.561-.932A.259.259,0,0,0,1033.456,331.418Z" transform="translate(-1027.527 -309.71)" fill="#9059b3"/>
  <path id="Path_3787" data-name="Path 3787" d="M1050.077,338.869a.325.325,0,0,0-.319-.034,1.01,1.01,0,0,0-.554.525.163.163,0,0,0,.094.21.846.846,0,0,0,.795-.185.321.321,0,0,0,.117-.3A.3.3,0,0,0,1050.077,338.869Z" transform="translate(-1026.201 -309.093)" fill="#9059b3"/>
  <path id="Path_3788" data-name="Path 3788" d="M1050.123,331.747l.034-.028a.306.306,0,0,0,.111-.289.639.639,0,0,0-.261-.406.193.193,0,0,0-.289.088.52.52,0,0,0,.09.645A.259.259,0,0,0,1050.123,331.747Z" transform="translate(-1026.163 -309.741)" fill="#9059b3"/>
  <path id="Path_3789" data-name="Path 3789" d="M1050.414,321.279a1.159,1.159,0,0,0-.916-.036.042.042,0,0,0-.016.064,1.842,1.842,0,0,0,.731.5C1050.534,321.972,1050.757,321.42,1050.414,321.279Z" transform="translate(-1026.177 -310.556)" fill="#9059b3"/>
  <path id="Path_3790" data-name="Path 3790" d="M1060.4,330.113c-.437.173-.4.625-.333,1.008a.052.052,0,0,0,.07.039c.349-.2.828-.664.359-1.036A.1.1,0,0,0,1060.4,330.113Z" transform="translate(-1025.302 -309.814)" fill="#9059b3"/>
  <path id="Path_3791" data-name="Path 3791" d="M1061.42,317.38a1.519,1.519,0,0,0,.47,0,.259.259,0,0,0,.11-.461.794.794,0,0,0-1.1.386.05.05,0,0,0,.042.067A3.189,3.189,0,0,0,1061.42,317.38Z" transform="translate(-1025.23 -310.917)" fill="#9059b3"/>
  <path id="Path_3792" data-name="Path 3792" d="M1082.961,365.04c.9-2.6,2.056-5.689,4.794-6.833,2.68-1.121,5.3,1.683,6.4,3.76,2.612,4.96,2.122,11.365,2.308,16.8.007.174.273.154.294-.007a43.285,43.285,0,0,0,.391-10.887c-.353-3.073-1.322-6.839-3.684-9.014-1.969-1.815-4.507-2.537-6.911-1.106a8.917,8.917,0,0,0-3.726,7.268C1082.828,365.1,1082.938,365.1,1082.961,365.04Z" transform="translate(-1023.412 -307.584)" fill="#9059b3"/>
  <path id="Path_3793" data-name="Path 3793" d="M1084.394,383.091a.1.1,0,0,0,.048-.2c-3.6-1.308-7.405-2.331-10.573-4.559a8.611,8.611,0,0,1-3.616-4.949c-.573-2.519,1.959-4.285,4.017-4.843.059-.016.066-.105,0-.112a4.482,4.482,0,0,0-4.256,2.589c-.958,1.718-.422,3.909.594,5.472C1073.412,380.8,1079.433,383.079,1084.394,383.091Z" transform="translate(-1024.516 -306.638)" fill="#9059b3"/>
</svg>
