<svg xmlns="http://www.w3.org/2000/svg" width="47.09" height="114.547" viewBox="0 0 47.09 114.547">
  <g id="Group_1468" data-name="Group 1468" transform="matrix(0.978, -0.208, 0.208, 0.978, 0, 5.063)">
    <path id="Path_5175" data-name="Path 5175" d="M.105,1.577A11.684,11.684,0,0,1,1.648.724C1.739.681,2.668.338,2.4.094c-.3-.272-.843.115-1.116.274A4.072,4.072,0,0,0,.011,1.482C-.03,1.539.05,1.614.105,1.577Z" transform="translate(15.579 25.996)" fill="#9059b3"/>
    <path id="Path_5176" data-name="Path 5176" d="M.438.2a2.6,2.6,0,0,0-.273.3C.093.6.067.7.007.788A.046.046,0,0,0,.069.851C.156.794.267.762.359.7.481.618.61.546.733.466.836.4,1.123.25,1.013.083.881-.116.555.091.438.2Z" transform="translate(16.279 27.265)" fill="#9059b3"/>
    <path id="Path_5177" data-name="Path 5177" d="M.071.6C.462.583,1,.532,1.16.1A.078.078,0,0,0,1.085,0,1.846,1.846,0,0,0,.034.467C-.023.5-.007.609.071.6Z" transform="translate(14.114 65.859)" fill="#9059b3"/>
    <path id="Path_5178" data-name="Path 5178" d="M1.076.038A1.034,1.034,0,0,0,.823,0a1.058,1.058,0,0,0-.3.114,2.372,2.372,0,0,0-.5.4c-.048.042.005.112.059.1.2-.043.4-.072.6-.132a1.028,1.028,0,0,0,.3-.148c.065-.049.087-.12.145-.177A.073.073,0,0,0,1.076.038Z" transform="translate(15.701 47.01)" fill="#9059b3"/>
    <path id="Path_5179" data-name="Path 5179" d="M.1,1.133c.5-.125.991-.264,1.485-.4A2.525,2.525,0,0,0,2.752.238.119.119,0,0,0,2.7.041C1.865-.184.718.565.038.988A.079.079,0,0,0,.1,1.133Z" transform="translate(14.896 45.951)" fill="#9059b3"/>
    <path id="Path_5180" data-name="Path 5180" d="M.08,1.028C.455.846.847.694,1.231.534A2.769,2.769,0,0,0,2.116.117.05.05,0,0,0,2.095.034a1.424,1.424,0,0,0-.988.2A3.4,3.4,0,0,0,.016.946.053.053,0,0,0,.08,1.028Z" transform="translate(13.343 5.007)" fill="#9059b3"/>
    <path id="Path_5181" data-name="Path 5181" d="M.673.094A4.113,4.113,0,0,0,.028.421C-.02.449,0,.538.057.532.273.509.479.485.692.442s.49-.06.565-.288A.074.074,0,0,0,1.238.081C1.077-.071.853.025.673.094Z" transform="translate(14.014 5.856)" fill="#9059b3"/>
    <path id="Path_5182" data-name="Path 5182" d="M2.778.1A.06.06,0,0,0,2.72,0c-.446.1-.9.195-1.348.271A4.5,4.5,0,0,0,.016.595.032.032,0,0,0,.024.653,3.19,3.19,0,0,0,2.778.1Z" transform="translate(13.928 66.443)" fill="#9059b3"/>
    <path id="Path_5183" data-name="Path 5183" d="M22.381,68.451c2.147-2.423,2.53-5.94,1.191-9.557a.586.586,0,0,0-.138-.217,6.3,6.3,0,0,0,.49-1.392c.521-2.217,0-5.207-1.855-6.705a4.538,4.538,0,0,0,1.855-2.96c.519-2.217,0-5.207-1.855-6.705a4.542,4.542,0,0,0,1.855-2.96c.519-2.216,0-5.205-1.855-6.7a4.542,4.542,0,0,0,1.855-2.961c.521-2.216,0-5.206-1.855-6.7a4.542,4.542,0,0,0,1.855-2.96c.534-2.276-.027-5.367-2-6.823a6.077,6.077,0,0,0,1.825-2.978c.656-2.2.238-5.624-1.76-7.06C19.777.176,16.838.03,14.211,0a14.635,14.635,0,0,0-6.98,1.349A10.263,10.263,0,0,0,2.319,6.488c-1.278,3.015-.313,6.695.6,9.665.005.016.013.03.019.046C.779,18.735.67,22.574,1.539,25.97A9.613,9.613,0,0,0,1.3,36.013a9.632,9.632,0,0,0,0,9.665,9.634,9.634,0,0,0,0,9.666,9.631,9.631,0,0,0,0,9.664,9.636,9.636,0,0,0,0,9.666.592.592,0,0,0,.1.129A7.517,7.517,0,0,0,.83,76.49a6.491,6.491,0,0,0,2.476,6.833A11.86,11.86,0,0,0,9.214,84.7c-.125,5.988-.486,11.972-.444,17.964.024,3.38-.352,9.36,4.518,9.263,4.315-.086,3.735-6.779,3.752-9.547.037-6.009-.379-12.012-.507-18.018a13.148,13.148,0,0,0,3.249-.981c5.483-2.541,4.077-10.311,2.652-14.81A.605.605,0,0,0,22.381,68.451Zm.267-10.626A3.05,3.05,0,0,1,20.163,59.9c-3.527.445-7.111.12-10.64.644A13.832,13.832,0,0,0,3.44,62.634c3.435-3.212,8.164-3.206,12.919-3.3C18.331,59.3,21.073,59.136,22.648,57.825ZM2.254,61.247c-.034.077-.151.034-.151-.042a7.293,7.293,0,0,1,4.816-7.037,15.808,15.808,0,0,1,4.409-.948,49.3,49.3,0,0,1,5.955-.536.071.071,0,0,1,.019.138c-3.027,1.209-6.384.784-9.436,1.835a8.063,8.063,0,0,0-3.783,2.485C3.13,58.353,2.858,59.86,2.254,61.247ZM20.163,50.232c-3.528.445-7.111.119-10.64.643A13.492,13.492,0,0,0,3.252,53.1C5.916,50.03,9.9,49.657,14.068,49.6c2.751-.04,6.412.323,8.622-1.547A3.08,3.08,0,0,1,20.163,50.232ZM22.84,37.9a3.225,3.225,0,0,1-2.677,2.664c-3.527.446-7.111.12-10.64.644-2.493.369-5.057,1.022-6.877,2.749,2.275-3.824,7.223-4.108,11.4-4.111C17.149,39.846,20.746,40.121,22.84,37.9ZM2.1,40.435c-.016.04-.068.014-.072-.019-.32-2.74,2.2-4.71,4.475-5.611,3.2-1.266,6.737-1.263,10.026-2.229.077-.022.11.08.052.123-2.578,1.88-5.9,1.53-8.824,2.455A9.012,9.012,0,0,0,4.118,37.08,9.487,9.487,0,0,0,2.1,40.435ZM20.163,30.9c-3.527.445-7.111.12-10.64.644-2.418.359-4.9.98-6.713,2.593,2.386-3.7,6.845-4.507,11.215-4.166,2.332.183,5.862,1.076,8.094-.191A2.861,2.861,0,0,1,20.163,30.9ZM22,17.579l0,0-.014.024Zm.506,1.9a2.971,2.971,0,0,1-2.346,1.757c-3.527.445-7.111.12-10.64.644a13.344,13.344,0,0,0-6.34,2.284c2.738-3.279,7.268-3.463,11.4-3.478C17.025,20.677,20.486,21.056,22.509,19.48ZM8.526,15.259a28.624,28.624,0,0,1,4.135-1.088c1.451-.278,2.931-.3,4.38-.58.067-.013.118.081.049.116-2.31,1.174-4.963,1.275-7.411,2.047a14.188,14.188,0,0,0-3.437,1.505c-1.052.675-1.973,1.517-2.95,2.29-.038.029-.107,0-.089-.052C3.985,17.246,6.407,16,8.526,15.259Zm-4.3-.236c2-3.348,7.6-3.52,10.936-3.748,2.133-.144,4.533-.033,6.546-.839-1.556,1.624-4.43,1.667-6.886,1.755A27.415,27.415,0,0,0,5.792,14.17,7.761,7.761,0,0,0,4.224,15.023ZM16.5,15.65l-.147.052-.016-.019ZM3.732,6.109A9.985,9.985,0,0,1,9.68,1.56a18.8,18.8,0,0,1,6.976-.324c3.864.3,6.4,2.047,6.185,6.246A5.3,5.3,0,0,1,22.453,9.3c-1.519,1-3.4,1.07-5.2,1.157-1.958.1-3.956.195-5.9.478-2.711.4-6.134,1.286-7.691,3.765C2.865,11.866,2.358,8.828,3.732,6.109ZM6.28,23.765c3.843-1.406,8.221-1.1,12.244-1.278a9.582,9.582,0,0,0,2.35-.352c1.739.952,2.5,3.793,1.992,5.992-1.2,1.888-3.881,1.7-5.88,1.508a43.247,43.247,0,0,0-6.038-.4c-3.937.166-7.3,1.868-9.125,5.277A7.971,7.971,0,0,1,6.28,23.765Zm0,19.33c3.843-1.406,8.221-1.1,12.244-1.277a9.549,9.549,0,0,0,2.351-.353c1.549.849,2.326,3.2,2.113,5.262-1.38,2.022-3.979,2.106-6.251,2.143-1.981.031-3.97.029-5.948.163C7.016,49.289,3.84,50.7,1.835,53.87A7.973,7.973,0,0,1,6.28,43.095ZM1.8,73.116A7.965,7.965,0,0,1,6.28,62.425c3.843-1.406,8.221-1.1,12.244-1.278a5.942,5.942,0,0,0,4.149-1.394,9.745,9.745,0,0,1,.426,4.758c-1.451,3.4-6.679,4.593-9.982,4.8C8.83,69.572,4.514,69.39,1.8,73.116Zm14.06,31.868c-.067,2.008.048,5.045-2.3,5.771-4.65,1.437-3.681-8.833-3.657-11.047.055-5,.33-9.991.435-14.987l.725,0c-.016,4.665-.183,9.331-.29,13.995-.051,2.228-.145,4.463-.128,6.692.013,1.656.127,4.2,2.095,4.687.424.1.6-.548.18-.652-2.282-.56-1.592-5.077-1.554-6.81q.066-2.983.131-5.966c.093-3.982.229-7.966.243-11.949a33.628,33.628,0,0,0,3.669-.194c.1,4.58.343,9.156.454,13.737C15.92,100.5,15.94,102.745,15.864,104.984Zm1.015-21.808a30.905,30.905,0,0,1-7.438.394c-2.68-.092-5.492-.473-6.864-2.71,3.416,2.192,8.583,1.68,12.323,1.479a20.23,20.23,0,0,0,5.373-.762A7.543,7.543,0,0,1,16.879,83.176ZM6.612,73.727a15.351,15.351,0,0,1,3.9-.671,45.1,45.1,0,0,0,5.966-.7c.063-.012.11.075.047.109a10.254,10.254,0,0,1-4.763,1.271,18.816,18.816,0,0,0-3.725.357,6.983,6.983,0,0,0-3.369,1.522A6.8,6.8,0,0,0,3.039,78.8a.069.069,0,0,1-.132,0C2.4,76.322,4.435,74.432,6.612,73.727Zm11.874-3.984C14.537,71.3,10.425,71.04,6.329,71.6a6.743,6.743,0,0,0-3.678,1.52c3.313-4.026,8.888-2.472,13.549-3.547a13.553,13.553,0,0,0,6.083-2.867A7.416,7.416,0,0,1,18.486,69.743Z" transform="translate(0 0)" fill="#9059b3"/>
  </g>
</svg>
