<svg id="Group_1476" data-name="Group 1476" xmlns="http://www.w3.org/2000/svg" width="33.675" height="28.021" viewBox="0 0 33.675 28.021">
  <path id="Path_3970" data-name="Path 3970" d="M942.141,331.756c-1.23-1.46-2.441-2.956-3.723-4.376a1.449,1.449,0,0,0-1.223-1.089c-3.989-.884-8.679-.228-12.671.324-3.175.438-4.293,1.964-6.059,4.479-2.137,3.046-4.318,6.067-6.28,9.229-1.308,2.109-1.433,3.511-.836,4.426a.958.958,0,0,0,.206.835c2.007,2.434,4.787,7.02,7.9,7.952,3.059.913,7.383-.239,10.469-.709,2.5-.381,4.331-.8,5.885-2.88,2.205-2.951,4.233-6.017,6.211-9.122,1.111-1.745,2.528-3.531,2.656-5.65C944.744,334.1,942.731,332.456,942.141,331.756Zm-29.327,11.6c.282-1.863,2.22-3.981,3.236-5.485,1.222-1.81,2.484-3.593,3.744-5.378,1.845-2.614,2.9-3.765,6.213-4.157a71.424,71.424,0,0,1,8.817-.433c2.894.018-.012,3.67-.643,4.667-1.473,2.328-2.99,4.628-4.57,6.883-1.94,2.766-3.069,3.7-6.391,4.248C922.421,343.818,912.492,345.48,912.815,343.352Zm22.422,4.2c-1.738,2.41-2.925,2.966-5.814,3.446-1.806.3-8.575,1.921-10.058.473-1.688-1.645-3.291-3.447-4.833-5.269,2.957.353,7.032-.349,9.193-.678,3.011-.5,4.54-1.078,6.371-3.528,2.543-3.4,4.827-7.007,7.068-10.614a12.409,12.409,0,0,0,.85-1.623c1.595,1.816,3.122,3.706,4.647,5.567C943.755,336.662,936.088,346.373,935.237,347.554Z" transform="translate(-911.006 -325.859)" fill="#9059b3"/>
  <path id="Path_3971" data-name="Path 3971" d="M935.3,340.865c-1.629,1.587-2.942,3.446-4.563,5.04-1.19,1.172-2.572,1.283-4.144,1.54a15.033,15.033,0,0,0-4.251,1.3.072.072,0,0,0,.036.133c1.833-.07,3.667-.394,5.5-.572a5.974,5.974,0,0,0,3.24-1.192,16.267,16.267,0,0,0,4.415-6.073A.146.146,0,0,0,935.3,340.865Z" transform="translate(-910.08 -324.632)" fill="#9059b3"/>
  <path id="Path_3972" data-name="Path 3972" d="M935.813,339.191c-.289.089-.39.253-.562.5a2.258,2.258,0,0,0-.425.767.063.063,0,0,0,.077.076c.5-.124,1.118-.747,1.01-1.283A.081.081,0,0,0,935.813,339.191Z" transform="translate(-909.054 -324.766)" fill="#9059b3"/>
  <path id="Path_3973" data-name="Path 3973" d="M922.12,338.573a.119.119,0,0,0-.052.2,1.264,1.264,0,0,0,.383.207c.2.069.337.213.544.24a.159.159,0,0,0,.177-.23A1.056,1.056,0,0,0,922.12,338.573Z" transform="translate(-910.102 -324.818)" fill="#9059b3"/>
  <path id="Path_3974" data-name="Path 3974" d="M922.381,338.086a.064.064,0,0,0,0,.068.628.628,0,0,0,.728.159c.332-.116.2-.639-.147-.532A1.03,1.03,0,0,0,922.381,338.086Z" transform="translate(-910.075 -324.882)" fill="#9059b3"/>
  <path id="Path_3975" data-name="Path 3975" d="M927.174,331.5a4.448,4.448,0,0,0-.28-1.1.074.074,0,0,0-.128,0,1.67,1.67,0,0,0,.034,1.2A.194.194,0,0,0,927.174,331.5Z" transform="translate(-909.723 -325.489)" fill="#9059b3"/>
  <path id="Path_3976" data-name="Path 3976" d="M927.7,331.05a.1.1,0,0,0,.1-.042c.189-.3-.118-.635-.377-.773a.036.036,0,0,0-.054.03C927.364,330.545,927.339,330.995,927.7,331.05Z" transform="translate(-909.665 -325.5)" fill="#9059b3"/>
  <path id="Path_3977" data-name="Path 3977" d="M922.868,333.285c.195-.143.088-.522-.177-.422a4.419,4.419,0,0,1-.973.269.083.083,0,0,0-.037.139A.941.941,0,0,0,922.868,333.285Z" transform="translate(-910.133 -325.286)" fill="#9059b3"/>
  <path id="Path_3978" data-name="Path 3978" d="M922.584,333.989c.109-.395-.8-.361-.984-.246a.038.038,0,0,0-.008.061C921.74,333.919,922.484,334.353,922.584,333.989Z" transform="translate(-910.139 -325.219)" fill="#9059b3"/>
  <path id="Path_3979" data-name="Path 3979" d="M916.086,339.942a2.06,2.06,0,0,0,.758-.459c.256-.2.517-.377.466-.722a.169.169,0,0,0-.165-.126c-.252,0-.359.148-.5.346a4.885,4.885,0,0,0-.627.869A.063.063,0,0,0,916.086,339.942Z" transform="translate(-910.596 -324.811)" fill="#9059b3"/>
  <path id="Path_3980" data-name="Path 3980" d="M916.416,340.273a.074.074,0,0,0,.043.108.783.783,0,0,0,.938-.7.1.1,0,0,0-.1-.094A1.167,1.167,0,0,0,916.416,340.273Z" transform="translate(-910.564 -324.733)" fill="#9059b3"/>
  <path id="Path_3981" data-name="Path 3981" d="M927.079,333.952c.167.273.648.868,1.008.731a.1.1,0,0,0,.073-.094c.042-.379-.651-.644-.926-.792A.114.114,0,0,0,927.079,333.952Z" transform="translate(-909.69 -325.209)" fill="#9059b3"/>
  <path id="Path_3982" data-name="Path 3982" d="M919.862,340.744a.984.984,0,0,0-.078.726c.045.111.184.211.3.124.014-.011.028-.022.041-.034a.2.2,0,0,0,.054-.2,3.5,3.5,0,0,0-.172-.617A.087.087,0,0,0,919.862,340.744Z" transform="translate(-910.29 -324.642)" fill="#9059b3"/>
  <path id="Path_3983" data-name="Path 3983" d="M919.828,336.471a.226.226,0,0,0,.12-.435,4.8,4.8,0,0,1-.989-.438c-.038-.021-.1.013-.078.06A1.3,1.3,0,0,0,919.828,336.471Z" transform="translate(-910.361 -325.061)" fill="#9059b3"/>
  <path id="Path_3984" data-name="Path 3984" d="M924.32,330.9a.078.078,0,0,0,.094-.053.72.72,0,0,0-.067-.5,5.406,5.406,0,0,0-.239-.7.1.1,0,0,0-.169,0C923.784,329.987,923.87,330.793,924.32,330.9Z" transform="translate(-909.952 -325.553)" fill="#9059b3"/>
  <path id="Path_3985" data-name="Path 3985" d="M926.842,337.2a.072.072,0,0,0-.042-.1,1.29,1.29,0,0,0-1.051.162.04.04,0,0,0-.009.062.674.674,0,0,0,.534.2A.584.584,0,0,0,926.842,337.2Z" transform="translate(-909.799 -324.941)" fill="#9059b3"/>
  <path id="Path_3986" data-name="Path 3986" d="M931.114,330.335a2.676,2.676,0,0,0,.863-.786c.132-.248-.122-.454-.356-.356a1.183,1.183,0,0,0-.587,1.1C931.034,330.327,931.082,330.36,931.114,330.335Z" transform="translate(-909.364 -325.587)" fill="#9059b3"/>
</svg>
