<svg xmlns="http://www.w3.org/2000/svg" width="24.47" height="31.02" viewBox="0 0 24.47 31.02">
  <path id="Path_19026" data-name="Path 19026" d="M1064.865,363.337c-1.768-1.991-4.947-2.554-6.915-4.517-2.721-2.713-3.35-6.564-4.369-10.091a.92.92,0,0,0-.855-.637l-.038,0-.038,0a.931.931,0,0,0-.86.637c-1.052,3.644-1.748,7.181-4.371,10.091-1.906,2.116-5.113,2.487-6.915,4.517a1.972,1.972,0,0,0,0,.527c1.766,1.991,4.944,2.554,6.915,4.52,2.721,2.71,3.353,6.559,4.371,10.086a.931.931,0,0,0,.86.637l.038,0,.038,0a.92.92,0,0,0,.855-.637c1.052-3.642,1.748-7.178,4.369-10.086,1.906-2.119,5.116-2.49,6.915-4.52a1.958,1.958,0,0,0,0-.527Zm-9,2.966a14.251,14.251,0,0,0-3.209,4.888,16.892,16.892,0,0,0-3.163-4.888,13.383,13.383,0,0,0-3.624-2.718,16.238,16.238,0,0,0,3.624-2.687,14.192,14.192,0,0,0,3.214-4.888,16.942,16.942,0,0,0,3.158,4.888,13.358,13.358,0,0,0,3.629,2.715A16.364,16.364,0,0,0,1055.869,366.3Z" transform="translate(-1040.448 -348.089)" fill="#9059b3"/>
</svg>
