<svg id="Group_1470" data-name="Group 1470" xmlns="http://www.w3.org/2000/svg" width="106.444" height="105.182" viewBox="0 0 106.444 105.182">
  <path id="Path_3834" data-name="Path 3834" d="M930.685,422.652c-1.343-3.3-5.784-5.635-8.739-7.185-4.45-2.334-9.583-1.191-14.313-.2a15.815,15.815,0,0,0-1.315-2.4c.241-.289.485-.578.725-.869,3.2-3.85,2.415-12.22-.494-16.055-3.523-4.644-8.127-8.7-12.178-12.875-5.036-5.186-10.03-10.479-15.376-15.35a1.176,1.176,0,0,0-.163-.122c-.015-.013-.027-.028-.043-.041-4.107-3.207-11-2.271-15.648-.252a12.654,12.654,0,0,0-3.342-1.292c1.277-3.906,2.758-8.821.15-12.29a28.514,28.514,0,0,0-9.791-8.348c-3.489-1.707-4.7.664-5.4,3.866-.322,1.474-.581,2.931-.985,4.39-.791,2.867-3.589,2.117-5.883,2.073-1.329-.026-3.334.473-3.843,1.894s.9,6.156-.7,6.777c-1.3.5-3.666-.021-5.081.139-3.653.413-4.91,3.2-2.916,6.145a29.082,29.082,0,0,0,12.817,9.788c2.791,1.071,6.972-.26,9.963-1.491a6.744,6.744,0,0,1-.058,2.368c0,.019,0,.037-.008.056q-.722.836-1.432,1.681c-2.709,3.239-3.9,12.112-1.058,15.6,3.755,4.6,7.923,8.9,11.985,13.234,5.628,6,14.769,17.634,24.111,19.365a1.14,1.14,0,0,0,.48.074,11.928,11.928,0,0,0,10.156-3.313c.492-.445.973-.9,1.455-1.359a1.239,1.239,0,0,0,.218.042c.707.063,1.392.191,2.068.288a42.372,42.372,0,0,0-1.434,11.067c0,4.382,4.975,7.033,8.173,9.12,2.9,1.894,7.482,5,9.541.464a10.271,10.271,0,0,0,.242-6.047c-.637-3.077,3.811-2.368,5.909-2.656,1.235-.169,1.86-1.44,2.165-2.476.923-3.15-2.219-6.307,1.751-8.177C924.317,427.373,932.1,426.134,930.685,422.652Zm-11.235-5.926c.35.29.561.284.338.53a8.323,8.323,0,0,1-2.171,1.468,2.307,2.307,0,0,1-.606.263,1.836,1.836,0,0,1-.082-.409,19.7,19.7,0,0,1-.085-2.4,11.743,11.743,0,0,1,2.515.452A.969.969,0,0,0,919.449,416.726ZM894,387.446a1.368,1.368,0,0,1-.213-.082,16.138,16.138,0,0,1-2.45-1.41,1.488,1.488,0,0,1-.343-.348l.041-.063a5.369,5.369,0,0,1,1.86-1.314q.567.59,1.134,1.18a.18.18,0,0,0,0,.027c.025.555.03,1.108.007,1.664C894.027,387.217,894.01,387.331,894,387.446Zm-55.249-8.97c-4.516-1.253-9.511-5.734-12.052-9.487-2.092-3.09,6.212-2.258,7.508-2.762,2.124-.824,1.888-3.861,1.795-5.648-.235-4.546,5.742-1.5,8.391-3.666,1.819-1.484,2.106-10.6,4.395-9.9,2.988.914,5.685,3.739,7.8,5.907,3.936,4.025,2.533,8.515.927,13.474a12.39,12.39,0,0,0-3.06,1.932c-.567-.557-1.156-1.092-1.772-1.589a2.526,2.526,0,0,0-1.97-.685c-1.535.26-1.882,2.207-2.165,3.456-.243,1.079-.474,2.365.255,3.307a1.711,1.711,0,0,0,.872.584,22.94,22.94,0,0,0-1.22,2.13,3.86,3.86,0,0,0-.373,1.229C845.427,377.9,841.481,379.235,838.747,378.476Zm12.391-7.071a3.826,3.826,0,0,1-.638.07.423.423,0,0,1-.106-.016c0-.053-.031-.148-.032-.213a4.53,4.53,0,0,1,.1-.924c.084-.445.2-.882.316-1.318a3.063,3.063,0,0,1,.295-.869.825.825,0,0,0,.114.041,4.79,4.79,0,0,1,.759.616c.317.274.613.571.915.862A14.986,14.986,0,0,0,851.138,371.405Zm.645,2.545c2.077-3.061,5.285-5.985,8.921-5.308-2.682,1.845-5.1,4.7-7.241,6.87q-1.756,1.784-3.438,3.648A8.054,8.054,0,0,1,851.783,373.95Zm7.906.171c.24.221.468.455.7.691q.227.237.438.491c.007.015.012.019.019.033a5.925,5.925,0,0,1-1.057.329c-.515.16-1.035.3-1.563.412a3.282,3.282,0,0,1-.828.073h0a4.709,4.709,0,0,1,.246-1.852h0c.363-.344.727-.687,1.1-1.026C859.058,373.546,859.377,373.834,859.689,374.121Zm-2.346,2.015c-.019-.011-.015-.013,0,0ZM855.8,404.352l.006.015a3.686,3.686,0,0,1-.036.762,9.489,9.489,0,0,1-.3,1.518q-.88-.952-1.753-1.911c.406-.119.815-.228,1.229-.316a3.559,3.559,0,0,1,.694-.082A.84.84,0,0,1,855.8,404.352Zm23,23.909c.253-.28.509-.556.774-.824.231-.233.478-.45.726-.664l.009,0c.009.02.024.04.033.062a8.642,8.642,0,0,1,.691,2.071q-.369-.082-.729-.17A14.015,14.015,0,0,1,878.8,428.262Zm10.725-.514c-1.8,1.568-4.114,1.788-6.387,1.521a12.082,12.082,0,0,0-.272-1.227,7.722,7.722,0,0,0-1.2-2.914c-1.462-1.833-3.774.987-4.823,2.248-5.838-3.066-10.831-9.6-15.028-13.983q-2.408-2.516-4.787-5.066c.651-1.493,1.432-4.059.314-5.363-1.2-1.4-3.717-.379-5.154.1-1.446-1.6-2.882-3.211-4.294-4.841-2.043-2.357-1.687-5.856-1.4-8.786.375-3.815,2.381-5.913,4.8-8.613q1.981-2.207,4.072-4.315a2.254,2.254,0,0,0,.3.784c.7,1.118,2.132.966,3.245.732,1.349-.282,3.6-.672,4.059-2.2.287-.962-.53-1.812-1.116-2.45a16.345,16.345,0,0,0-1.572-1.489c.185-.162.363-.329.549-.489,3.03-2.6,6.34-3.465,10.3-3.75a9.417,9.417,0,0,1,6.486,1.583c4.731,4.315,9.326,8.845,13.817,13.476a5.168,5.168,0,0,0-2.4,2.248,2.313,2.313,0,0,0,1.086,2.636,8.562,8.562,0,0,0,4.141,1.989c1.233.071,1.66-.934,1.793-2.034q4.192,4.441,8.287,8.926c2.489,2.72,2.722,7.408,2.426,10.871-.256,3-2.833,5.194-4.686,7.337-2.683,3.1-5.447,6.138-8.319,9.07Q891.72,425.832,889.52,427.748Zm15.39-13.2c.876,1.682.951,3.1-.543,4.683a31.832,31.832,0,0,1-2.653,2.338c-1.288,1.086-2.049,3.354-3.956,3.554a7.335,7.335,0,0,1-2.2-.22C898.845,421.623,901.923,418.1,904.91,414.549Zm-6.248,27.094a7.951,7.951,0,0,1-1.584-2.619c.3-.033.612-.043.92-.062.362-.022.723-.032,1.086-.036.338,0,1.12.237,1.189-.2a6.908,6.908,0,0,1-1.009,2.036A6.22,6.22,0,0,1,898.662,441.643Zm17.7-9.531a6.165,6.165,0,0,1-.157-1.495c-.03-.482-.037-.965-.032-1.449,0-.244.019-.486.04-.729,0-.012,0-.019,0-.03a.273.273,0,0,0,.026.013,7.832,7.832,0,0,1,1.813.93,4.389,4.389,0,0,0-.075,1.913,6.43,6.43,0,0,1-1.6.841C916.367,432.107,916.369,432.11,916.363,432.112Zm12.451-8.689c-2.809,2.052-6.644,2.221-9.5,4.3-1.064-.73-2.44-1.556-3.626-1.394-1.775.241-1.6,2.58-1.552,3.881s-.041,3.265,1.42,3.852a3.353,3.353,0,0,0,2.866-.643c.371,1.857.286,3.424-3.354,3.737-1.879.162-3.855.622-4.634,2.487-1.135,2.715,2.868,11.179-4.164,7.242a41.927,41.927,0,0,1-6.1-3.809,10.516,10.516,0,0,0,1.178-1.816c.506-.919,1.178-1.975.9-3.066-.309-1.2-1.746-1.273-2.743-1.311a14.223,14.223,0,0,0-2.786.094c0-.145-.019-.285-.013-.434a39.629,39.629,0,0,1,1.459-9.461,4.813,4.813,0,0,0,1.226-.282c1.822-.69,2.777-2.921,4.2-4.124a14.815,14.815,0,0,0,4.08-4.49,2.967,2.967,0,0,0,.271-.884,46.3,46.3,0,0,1,6.817-1.12,8.583,8.583,0,0,0,.506,3.929c.6,1.288,2.127.994,3.149.52,1.239-.574,2.864-1.638,3.353-2.866C923.994,419.19,929.429,422.974,928.814,423.423Z" transform="translate(-824.411 -344.803)" fill="#e63b69"/>
  <path id="Path_3835" data-name="Path 3835" d="M873.157,384.808a2.11,2.11,0,0,0,.349-2.379c-.555-1.422-1.8-3.825-3.525-4.039-1.9-.237-3.016,2.5-3.682,3.81a2.385,2.385,0,0,0-.081,2.6c.762.989,2.446.8,3.536.762C870.776,385.524,872.364,385.617,873.157,384.808Zm-5.168-1.326-.014,0a1.784,1.784,0,0,1,.083-.22,10.029,10.029,0,0,1,1.721-2.783.205.205,0,0,0,.044-.054c0,.02,0,.049.055.084a3.472,3.472,0,0,1,.782.99,15.206,15.206,0,0,1,.856,1.469,1.648,1.648,0,0,1,.144.365l-.16.043a10.913,10.913,0,0,1-2.42.151C868.715,383.53,868.352,383.507,867.99,383.482Z" transform="translate(-817.335 -339.072)" fill="#e63b69"/>
  <path id="Path_3836" data-name="Path 3836" d="M882.557,403.421c-.763-.988-2.446-.8-3.536-.761-1.022.035-2.609-.057-3.4.752a2.108,2.108,0,0,0-.349,2.378c.554,1.422,1.8,3.824,3.525,4.038,1.9.238,3.016-2.5,3.682-3.81A2.381,2.381,0,0,0,882.557,403.421ZM879,407.742a.234.234,0,0,0-.044.054c0-.02,0-.048-.055-.084a3.466,3.466,0,0,1-.782-.989,15.289,15.289,0,0,1-.857-1.469,1.654,1.654,0,0,1-.143-.364c.039-.011.088-.025.16-.042a10.844,10.844,0,0,1,2.42-.152c.364-.006.728.018,1.091.043l.014,0a2.162,2.162,0,0,1-.083.219A10.024,10.024,0,0,1,879,407.742Z" transform="translate(-815.765 -334.933)" fill="#e63b69"/>
  <path id="Path_3837" data-name="Path 3837" d="M865.3,394.44c.814-.286,1.964-.832,1.914-1.884-.063-1.323-1.274-2.292-2.186-3.12-.83-.753-1.865-1.87-3.106-1.66s-1.68,1.55-1.96,2.606c-.328,1.237-.972,3.37.241,4.357C861.593,395.871,863.833,394.922,865.3,394.44ZM861.58,393.2c.009.008,0,.02.028.068C861.564,393.2,861.58,393.25,861.58,393.2Zm-.124-.044.105.034Zm.124.04a1.148,1.148,0,0,0-.016-.126c.006.032.02-.38.031-.5a9.289,9.289,0,0,1,.28-1.392c.084-.343.18-.681.293-1.016a1.741,1.741,0,0,1,.152-.307c.023.012.047.026.081.044a10.382,10.382,0,0,1,2.017,1.784,7.121,7.121,0,0,1,.6.678c-.073.03-.146.059-.219.084a10.461,10.461,0,0,1-3.093.754C861.615,393.2,861.613,393.209,861.58,393.2Z" transform="translate(-818.422 -337.471)" fill="#e63b69"/>
  <path id="Path_3838" data-name="Path 3838" d="M876.4,394.356a2.11,2.11,0,0,0,2.379.349c1.422-.554,3.825-1.8,4.039-3.524.238-1.9-2.5-3.016-3.81-3.682a2.383,2.383,0,0,0-2.6-.082c-.989.762-.8,2.446-.761,3.537C875.681,391.975,875.587,393.563,876.4,394.356Zm1.283-4.076c0-.364.018-.728.043-1.092l0-.013a2.066,2.066,0,0,1,.22.083,10.014,10.014,0,0,1,2.783,1.722.23.23,0,0,0,.055.044c-.021,0-.049,0-.085.055a3.436,3.436,0,0,1-.99.782,15.42,15.42,0,0,1-1.469.856,1.644,1.644,0,0,1-.365.144l-.042-.16A10.918,10.918,0,0,1,877.679,390.28Z" transform="translate(-815.672 -337.589)" fill="#e63b69"/>
  <path id="Path_3839" data-name="Path 3839" d="M867.637,375.52c.989-.762.8-2.446.762-3.537-.035-1.021.057-2.61-.752-3.4a2.112,2.112,0,0,0-2.379-.349c-1.422.554-3.824,1.8-4.038,3.525-.238,1.9,2.5,3.015,3.81,3.681A2.379,2.379,0,0,0,867.637,375.52Zm-4.375-3.606c.021,0,.048,0,.083-.056a3.476,3.476,0,0,1,.992-.781,15.4,15.4,0,0,1,1.468-.857,1.658,1.658,0,0,1,.364-.143c.012.039.025.088.043.16a10.844,10.844,0,0,1,.152,2.42c.006.364-.018.728-.043,1.092l0,.012a1.857,1.857,0,0,1-.22-.083,10.021,10.021,0,0,1-2.782-1.72A.232.232,0,0,0,863.262,371.914Z" transform="translate(-818.128 -340.839)" fill="#e63b69"/>
  <path id="Path_3840" data-name="Path 3840" d="M886.208,401.8c1.237.328,3.37.973,4.357-.241,1.131-1.391.181-3.63-.3-5.1-.287-.812-.832-1.962-1.884-1.913-1.322.063-2.291,1.275-3.12,2.187-.753.829-1.87,1.864-1.659,3.1S885.152,401.517,886.208,401.8Zm2.819-1.619c.009-.009.02,0,.069-.028C889.027,400.2,889.076,400.179,889.027,400.179Zm-.043.124c.019-.059.028-.087.034-.1C889.01,400.22,889,400.25,888.984,400.3Zm-1.472-2.961a6.931,6.931,0,0,1,.677-.6c.03.071.058.145.084.217a10.435,10.435,0,0,1,.754,3.094.464.464,0,0,1,0,.131.862.862,0,0,0-.126.016c.032-.007-.38-.021-.5-.032a9.092,9.092,0,0,1-1.391-.281c-.343-.084-.682-.18-1.018-.292a1.712,1.712,0,0,1-.307-.153l.045-.082A10.412,10.412,0,0,1,887.512,397.342Z" transform="translate(-814.311 -336.311)" fill="#e63b69"/>
  <path id="Path_3841" data-name="Path 3841" d="M868.295,400.678c-1.236-.329-3.369-.974-4.356.24-1.132,1.391-.181,3.63.3,5.1.286.815.833,1.964,1.882,1.914,1.324-.062,2.294-1.273,3.121-2.187.753-.83,1.869-1.865,1.659-3.106S869.351,400.958,868.295,400.678Zm-2.819,1.618c-.009.009-.02,0-.069.029C865.476,402.28,865.428,402.3,865.476,402.3Zm.043-.124c-.019.06-.028.088-.034.105C865.492,402.256,865.5,402.225,865.519,402.172Zm1.473,2.962a6.809,6.809,0,0,1-.678.6c-.032-.071-.058-.144-.084-.218a10.423,10.423,0,0,1-.754-3.094c0-.095-.006-.1,0-.129a1.156,1.156,0,0,0,.126-.016c-.032.006.379.02.5.03a9.131,9.131,0,0,1,1.391.281c.343.084.681.18,1.017.293a1.7,1.7,0,0,1,.307.152c-.013.023-.026.048-.045.081A10.415,10.415,0,0,1,866.992,405.134Z" transform="translate(-817.754 -335.344)" fill="#e63b69"/>
  <path id="Path_3842" data-name="Path 3842" d="M836.733,363.55c-1.9-.236-3.016,2.5-3.682,3.81a2.381,2.381,0,0,0-.081,2.6c.762.989,2.446.8,3.535.762,1.022-.035,2.61.057,3.4-.752a2.108,2.108,0,0,0,.349-2.378C839.7,366.167,838.459,363.764,836.733,363.55Zm-.9,5.134c-.365,0-.728-.018-1.092-.043l-.013,0a1.848,1.848,0,0,1,.083-.22,9.987,9.987,0,0,1,1.721-2.782.175.175,0,0,0,.043-.054c0,.021,0,.048.056.084a3.493,3.493,0,0,1,.782.99,15.081,15.081,0,0,1,.856,1.469,1.641,1.641,0,0,1,.144.364c-.039.01-.088.025-.16.042A10.849,10.849,0,0,1,835.833,368.684Z" transform="translate(-823.011 -341.605)" fill="#e63b69"/>
  <path id="Path_3843" data-name="Path 3843" d="M855.107,382.2a2.381,2.381,0,0,0,.082-2.6c-.762-.989-2.446-.8-3.537-.762-1.022.035-2.608-.057-3.4.752a2.107,2.107,0,0,0-.349,2.378c.554,1.422,1.8,3.824,3.525,4.039C853.33,386.249,854.441,383.515,855.107,382.2Zm-3.481,1.724a.251.251,0,0,0-.043.054c0-.02,0-.048-.056-.083a3.474,3.474,0,0,1-.781-.992,15.087,15.087,0,0,1-.857-1.468,1.7,1.7,0,0,1-.144-.365c.04-.011.088-.025.161-.042a10.922,10.922,0,0,1,2.42-.152c.365-.006.729.018,1.092.043l.014,0a2.036,2.036,0,0,1-.083.22A10,10,0,0,1,851.627,383.926Z" transform="translate(-820.437 -338.999)" fill="#e63b69"/>
  <path id="Path_3844" data-name="Path 3844" d="M848.826,360.609c1.241-.21,1.68-1.55,1.961-2.606.328-1.237.972-3.369-.242-4.356-1.39-1.132-3.629-.183-5.1.3-.814.287-1.963.834-1.914,1.885.063,1.322,1.274,2.292,2.186,3.12C846.55,359.7,847.586,360.819,848.826,360.609Zm.342-5.425c-.011-.009,0-.02-.029-.069C849.184,355.184,849.168,355.136,849.168,355.184Zm.123.043-.105-.034Zm-.253-.043a.452.452,0,0,1,.13,0,1.142,1.142,0,0,0,.016.128c-.006-.033-.02.379-.03.5a9.247,9.247,0,0,1-.28,1.391c-.086.344-.182.683-.293,1.017a1.667,1.667,0,0,1-.153.307l-.082-.043a10.343,10.343,0,0,1-2.015-1.784,6.684,6.684,0,0,1-.6-.679c.072-.03.145-.059.218-.084A10.431,10.431,0,0,1,849.038,355.184Z" transform="translate(-821.147 -343.384)" fill="#e63b69"/>
  <path id="Path_3845" data-name="Path 3845" d="M896.47,414.761c-1.237-.328-3.371-.972-4.358.241-1.132,1.391-.181,3.629.3,5.1.286.814.832,1.964,1.882,1.914,1.323-.062,2.293-1.273,3.121-2.186.753-.83,1.868-1.866,1.659-3.106S897.525,415.041,896.47,414.761Zm-2.82,1.619c-.009.009-.02,0-.069.029C893.65,416.364,893.6,416.38,893.65,416.38Zm.043-.124c-.019.061-.028.089-.034.107C893.666,416.34,893.676,416.31,893.693,416.256Zm1.472,2.962a7.076,7.076,0,0,1-.676.6c-.032-.073-.06-.146-.085-.219a10.459,10.459,0,0,1-.754-3.092.5.5,0,0,1,0-.13,1.147,1.147,0,0,0,.128-.016c-.033,0,.379.02.5.03a9.087,9.087,0,0,1,1.391.28c.343.084.682.18,1.017.293a1.7,1.7,0,0,1,.307.152l-.045.081A10.361,10.361,0,0,1,895.165,419.218Z" transform="translate(-812.945 -332.94)" fill="#e63b69"/>
  <path id="Path_3846" data-name="Path 3846" d="M874.858,376.723a3.177,3.177,0,0,0-1.024-1.593.119.119,0,0,0-.176.131,12.251,12.251,0,0,0,.457,1.757C874.29,377.437,875,377.152,874.858,376.723Z" transform="translate(-816.005 -339.629)" fill="#e63b69"/>
  <path id="Path_3847" data-name="Path 3847" d="M875.2,375.741c.416-.234-.347-.873-.521-1.024a.156.156,0,0,0-.265.1C874.371,375.147,874.751,375.992,875.2,375.741Z" transform="translate(-815.876 -339.704)" fill="#e63b69"/>
  <path id="Path_3848" data-name="Path 3848" d="M873.745,398.421a4.069,4.069,0,0,0-.468-1.017c-.136-.238-.322-.654-.625-.707a.144.144,0,0,0-.176.1c-.081.3.14.679.236.959a2.656,2.656,0,0,0,.485.976A.328.328,0,0,0,873.745,398.421Z" transform="translate(-816.209 -335.945)" fill="#e63b69"/>
  <path id="Path_3849" data-name="Path 3849" d="M873.4,396.327a.169.169,0,0,0-.209.2,2.531,2.531,0,0,0,.548.924c.237.251.678-.068.488-.366A1.64,1.64,0,0,0,873.4,396.327Z" transform="translate(-816.086 -336.008)" fill="#e63b69"/>
  <path id="Path_3850" data-name="Path 3850" d="M855.508,388.245c-.38-.1-1.15-.5-1.5-.184a.069.069,0,0,0,0,.1,3.989,3.989,0,0,0,1.337.64A.29.29,0,0,0,855.508,388.245Z" transform="translate(-819.362 -337.438)" fill="#e63b69"/>
  <path id="Path_3851" data-name="Path 3851" d="M855.293,387.227a.808.808,0,0,0-.928.178.077.077,0,0,0,0,.108.661.661,0,0,0,.969-.122A.119.119,0,0,0,855.293,387.227Z" transform="translate(-819.302 -337.573)" fill="#e63b69"/>
  <path id="Path_3852" data-name="Path 3852" d="M860.647,378.556c.22-.273.093-.591.041-.918a2.887,2.887,0,0,0-.292-1.189.075.075,0,0,0-.136.015,4.413,4.413,0,0,0-.038,1.225c0,.32-.04.7.256.886A.136.136,0,0,0,860.647,378.556Z" transform="translate(-818.302 -339.407)" fill="#e63b69"/>
  <path id="Path_3853" data-name="Path 3853" d="M861.665,377.555c.2-.414-.1-.9-.377-1.21a.113.113,0,0,0-.188.047,1.152,1.152,0,0,0,.4,1.2A.121.121,0,0,0,861.665,377.555Z" transform="translate(-818.153 -339.424)" fill="#e63b69"/>
  <path id="Path_3854" data-name="Path 3854" d="M884.434,406.466a.064.064,0,0,0-.082.061,1.679,1.679,0,0,0,.231.663,4.3,4.3,0,0,0,.51.891.255.255,0,0,0,.427-.239A2.207,2.207,0,0,0,884.434,406.466Z" transform="translate(-814.179 -334.277)" fill="#e63b69"/>
  <path id="Path_3855" data-name="Path 3855" d="M885.05,406.055a.146.146,0,0,0-.13.215,1.949,1.949,0,0,0,.7.632c.369.229.728-.369.347-.577A1.784,1.784,0,0,0,885.05,406.055Z" transform="translate(-814.085 -334.347)" fill="#e63b69"/>
  <path id="Path_3856" data-name="Path 3856" d="M888.277,388.889a.3.3,0,0,0-.455-.362c-.211.187-.39.411-.591.61a1.369,1.369,0,0,0-.387.524.093.093,0,0,0,.087.119A1.838,1.838,0,0,0,888.277,388.889Z" transform="translate(-813.754 -337.353)" fill="#e63b69"/>
  <path id="Path_3857" data-name="Path 3857" d="M887.878,389.711a1.281,1.281,0,0,0-.395.522c-.023.056.032.105.081.111a1.266,1.266,0,0,0,.7-.121c.219-.1.23-.314.249-.509a.1.1,0,0,0-.094-.1A.621.621,0,0,0,887.878,389.711Z" transform="translate(-813.645 -337.156)" fill="#e63b69"/>
  <path id="Path_3858" data-name="Path 3858" d="M870.677,408.119a2.357,2.357,0,0,0-.252,1.289.251.251,0,0,0,.489.076,1.425,1.425,0,0,0-.111-1.379A.082.082,0,0,0,870.677,408.119Z" transform="translate(-816.556 -334)" fill="#e63b69"/>
  <path id="Path_3859" data-name="Path 3859" d="M871.467,407.791c-.049.287-.172.706.082.915a.131.131,0,0,0,.155.022l.07-.037a.238.238,0,0,0,.123-.206,1.024,1.024,0,0,0-.355-.713C871.521,407.751,871.473,407.755,871.467,407.791Z" transform="translate(-816.391 -334.055)" fill="#e63b69"/>
  <path id="Path_3860" data-name="Path 3860" d="M859.1,398.143c.418-.177.109-.736-.272-.685-.526.071-1.425.6-1.41,1.209a.076.076,0,0,0,.11.067c.255-.11.5-.238.762-.336S858.835,398.256,859.1,398.143Z" transform="translate(-818.777 -335.815)" fill="#e63b69"/>
  <path id="Path_3861" data-name="Path 3861" d="M858.792,398.407a.8.8,0,0,0-.779.734.041.041,0,0,0,.04.043,1.656,1.656,0,0,0,.877-.224C859.144,398.818,859.111,398.373,858.792,398.407Z" transform="translate(-818.675 -335.652)" fill="#e63b69"/>
  <path id="Path_3862" data-name="Path 3862" d="M862.673,366.566a.265.265,0,0,0,.142-.489,1.646,1.646,0,0,0-1.451-.043.087.087,0,0,0-.019.136A2.585,2.585,0,0,0,862.673,366.566Z" transform="translate(-818.111 -341.204)" fill="#e63b69"/>
  <path id="Path_3863" data-name="Path 3863" d="M861.733,367.256a2,2,0,0,0-1.019-.543.143.143,0,0,0-.126.211,2.819,2.819,0,0,0,.816.748C861.647,367.853,861.965,367.451,861.733,367.256Z" transform="translate(-818.238 -341.063)" fill="#e63b69"/>
  <path id="Path_3864" data-name="Path 3864" d="M847.375,386.378a3.277,3.277,0,0,0-1.474.534.075.075,0,0,0,.035.139c.483.006.94-.159,1.426-.156a.261.261,0,0,0,.255-.186.563.563,0,0,0,.01-.067A.26.26,0,0,0,847.375,386.378Z" transform="translate(-820.749 -337.706)" fill="#e63b69"/>
  <path id="Path_3865" data-name="Path 3865" d="M847.254,385.517a.087.087,0,0,0-.095-.129,1.708,1.708,0,0,0-1.264.731.122.122,0,0,0,.07.179A1.274,1.274,0,0,0,847.254,385.517Z" transform="translate(-820.746 -337.875)" fill="#e63b69"/>
  <path id="Path_3866" data-name="Path 3866" d="M840.061,360.2a2.551,2.551,0,0,0-1.658.04.139.139,0,0,0,.029.253,6.331,6.331,0,0,0,1.537.287A.3.3,0,0,0,840.061,360.2Z" transform="translate(-822.035 -342.194)" fill="#e63b69"/>
  <path id="Path_3867" data-name="Path 3867" d="M839.573,361.206a2.156,2.156,0,0,0-.864-.186.126.126,0,0,0-.092.212,1.373,1.373,0,0,0,.8.492A.27.27,0,0,0,839.573,361.206Z" transform="translate(-821.992 -342.035)" fill="#e63b69"/>
  <path id="Path_3868" data-name="Path 3868" d="M846.718,350.9a2.279,2.279,0,0,0-.218-.91,3.389,3.389,0,0,0-.358-.829c-.042-.061-.158-.07-.176.02a2.228,2.228,0,0,0,.033.782,3.234,3.234,0,0,0,.239,1.056A.258.258,0,0,0,846.718,350.9Z" transform="translate(-820.736 -344.067)" fill="#e63b69"/>
  <path id="Path_3869" data-name="Path 3869" d="M847.544,350.191a1.911,1.911,0,0,0-.395-1.023.219.219,0,0,0-.406.1,1.649,1.649,0,0,0,.345,1.1A.268.268,0,0,0,847.544,350.191Z" transform="translate(-820.599 -344.076)" fill="#e63b69"/>
  <path id="Path_3870" data-name="Path 3870" d="M850.97,360.748a1.87,1.87,0,0,0-1.062.549.078.078,0,0,0,.033.13,1.362,1.362,0,0,0,1.2-.243C851.281,361.037,851.2,360.734,850.97,360.748Z" transform="translate(-820.062 -342.081)" fill="#e63b69"/>
  <path id="Path_3871" data-name="Path 3871" d="M841.471,369.874c-.077.336-.083.686-.144,1.025a9.382,9.382,0,0,0-.2,1.175.26.26,0,0,0,.125.228.234.234,0,0,0,.2.029.258.258,0,0,0,.185-.178,2.656,2.656,0,0,0-.075-2.3A.055.055,0,0,0,841.471,369.874Z" transform="translate(-821.557 -340.53)" fill="#e63b69"/>
  <path id="Path_3872" data-name="Path 3872" d="M840.825,370.037a.11.11,0,0,0-.15.037,1.648,1.648,0,0,0-.222.967.042.042,0,0,0,.062.037C840.895,370.9,841.276,370.348,840.825,370.037Z" transform="translate(-821.673 -340.498)" fill="#e63b69"/>
  <path id="Path_3873" data-name="Path 3873" d="M830.789,365.7c-.408.014-.907-.121-1.275.095a.12.12,0,0,0,0,.2,2.5,2.5,0,0,0,1.332.2.25.25,0,0,0,.194-.241.333.333,0,0,0-.008-.068A.259.259,0,0,0,830.789,365.7Z" transform="translate(-823.55 -341.24)" fill="#e63b69"/>
  <path id="Path_3874" data-name="Path 3874" d="M829.585,365.093c-.125.1-.015.275.112.287.325.03.872.075,1.064-.242a.133.133,0,0,0-.019-.156C830.47,364.66,829.868,364.875,829.585,365.093Z" transform="translate(-823.537 -341.386)" fill="#e63b69"/>
  <path id="Path_3875" data-name="Path 3875" d="M843.014,361.78a2.841,2.841,0,0,0,.516.853.239.239,0,0,0,.227.064.206.206,0,0,0,.108-.06.233.233,0,0,0,.064-.228,1.2,1.2,0,0,0-.739-.8C843.1,361.584,842.975,361.676,843.014,361.78Z" transform="translate(-821.237 -341.934)" fill="#e63b69"/>
  <path id="Path_3876" data-name="Path 3876" d="M842,357.915c.275-.324.081-.99-.179-1.28a.071.071,0,0,0-.118.029c-.083.336-.141,1,.149,1.248A.105.105,0,0,0,842,357.915Z" transform="translate(-821.471 -342.787)" fill="#e63b69"/>
  <path id="Path_3877" data-name="Path 3877" d="M862.632,383.991c.181-.252-.29-.5-.457-.581-.345-.164-.709-.48-1.111-.453a.1.1,0,0,0-.1.121C861.08,383.538,862.182,384.614,862.632,383.991Z" transform="translate(-818.171 -338.29)" fill="#e63b69"/>
  <path id="Path_3878" data-name="Path 3878" d="M871.93,372.429a.284.284,0,0,0-.38-.391,2.4,2.4,0,0,0-.683.678.1.1,0,0,0,.043.173A.923.923,0,0,0,871.93,372.429Z" transform="translate(-816.486 -340.159)" fill="#e63b69"/>
  <path id="Path_3879" data-name="Path 3879" d="M868.3,368.621c.235-.358-.208-.74-.446-.962a.071.071,0,0,0-.119.066c.075.316.078.829.448.944A.106.106,0,0,0,868.3,368.621Z" transform="translate(-817.016 -340.905)" fill="#e63b69"/>
  <path id="Path_3880" data-name="Path 3880" d="M870.938,389.217c-.2-.682-1.3-.615-1.786-.254a.081.081,0,0,0-.018.125,1.285,1.285,0,0,0,.677.253,1.92,1.92,0,0,0,1.013.066A.158.158,0,0,0,870.938,389.217Z" transform="translate(-816.781 -337.31)" fill="#e63b69"/>
  <path id="Path_3881" data-name="Path 3881" d="M868.113,396.407a.068.068,0,0,0-.1.039c-.093.379-.246,1.076.006,1.407a.122.122,0,0,0,.15.021C868.673,397.621,868.5,396.693,868.113,396.407Z" transform="translate(-816.99 -335.995)" fill="#e63b69"/>
  <path id="Path_3882" data-name="Path 3882" d="M867.028,409.442a.865.865,0,0,0-.644.633.075.075,0,0,0,.089.092,3.328,3.328,0,0,1,.63-.047.356.356,0,0,0,.354-.336.2.2,0,0,0-.011-.091A.349.349,0,0,0,867.028,409.442Z" transform="translate(-817.246 -333.771)" fill="#e63b69"/>
  <path id="Path_3883" data-name="Path 3883" d="M860.438,403.041a1.459,1.459,0,0,0-.2.745.236.236,0,0,0,.4.173.613.613,0,0,0-.094-.945A.08.08,0,0,0,860.438,403.041Z" transform="translate(-818.294 -334.867)" fill="#e63b69"/>
  <path id="Path_3884" data-name="Path 3884" d="M855.538,394.38a.065.065,0,0,0,.088.025.947.947,0,0,0,.39-.887.3.3,0,0,0-.208-.286C855.258,393.064,855.4,394.127,855.538,394.38Z" transform="translate(-819.119 -336.539)" fill="#e63b69"/>
  <path id="Path_3885" data-name="Path 3885" d="M848.336,389.8a1.314,1.314,0,0,0,.565,1.257c.133.063.357,0,.34-.187a1.6,1.6,0,0,0-.825-1.1A.054.054,0,0,0,848.336,389.8Z" transform="translate(-820.33 -337.128)" fill="#e63b69"/>
  <path id="Path_3886" data-name="Path 3886" d="M850.908,376.389a1.867,1.867,0,0,0,.5-1c.017-.248-.344-.431-.513-.224a3.228,3.228,0,0,0-.4.827c-.1.231-.3.538-.24.8a.046.046,0,0,0,.042.034C850.56,376.834,850.757,376.567,850.908,376.389Z" transform="translate(-820 -339.634)" fill="#e63b69"/>
  <path id="Path_3887" data-name="Path 3887" d="M851.194,376.657a.114.114,0,0,0,.139.111.9.9,0,0,0,.769-.954.176.176,0,0,0-.213-.129A1.036,1.036,0,0,0,851.194,376.657Z" transform="translate(-819.839 -339.532)" fill="#e63b69"/>
  <path id="Path_3888" data-name="Path 3888" d="M879.478,396.908c-.135.187-.012.546.019.752.034.237-.006.638.179.81a.283.283,0,0,0,.336.049c.361-.214.155-.773.032-1.078C880.008,397.357,879.65,396.669,879.478,396.908Z" transform="translate(-815.021 -335.916)" fill="#e63b69"/>
  <path id="Path_3889" data-name="Path 3889" d="M878.124,382.67a.131.131,0,0,0-.092-.126c-.53-.2-1.278.635-1.513,1.031a.045.045,0,0,0,.049.067C877.026,383.521,878.105,383.26,878.124,382.67Z" transform="translate(-815.517 -338.365)" fill="#e63b69"/>
  <path id="Path_3890" data-name="Path 3890" d="M882.591,386.651a.157.157,0,0,0,.191-.1c.153-.521-.55-.972-.894-1.248a.042.042,0,0,0-.07.039C881.9,385.759,882.1,386.558,882.591,386.651Z" transform="translate(-814.612 -337.892)" fill="#e63b69"/>
  <path id="Path_3891" data-name="Path 3891" d="M893.086,395.455a1.511,1.511,0,0,0-1.2.589.053.053,0,0,0,.019.074,1.969,1.969,0,0,0,1.266.115C893.608,396.161,893.529,395.42,893.086,395.455Z" transform="translate(-812.894 -336.156)" fill="#e63b69"/>
  <path id="Path_3892" data-name="Path 3892" d="M879.138,412.27a1.429,1.429,0,0,0-1.091.452.055.055,0,0,0,.037.094c.289-.009,2.162.377,1.994-.3C879.988,412.152,879.4,412.26,879.138,412.27Z" transform="translate(-815.257 -333.289)" fill="#e63b69"/>
  <path id="Path_3893" data-name="Path 3893" d="M890.5,402.8a1.507,1.507,0,0,0-.693.3,2.037,2.037,0,0,0-.584.56.075.075,0,0,0,.042.109,1.262,1.262,0,0,0,1.385-.816A.126.126,0,0,0,890.5,402.8Z" transform="translate(-813.348 -334.903)" fill="#e63b69"/>
  <path id="Path_3894" data-name="Path 3894" d="M878.639,377.1a1.415,1.415,0,0,0,1.186-.843.3.3,0,0,0-.129-.33c-.255-.15-.465.142-.611.309-.206.232-.508.425-.549.755A.106.106,0,0,0,878.639,377.1Z" transform="translate(-815.172 -339.496)" fill="#e63b69"/>
  <path id="Path_3895" data-name="Path 3895" d="M889.261,419.617c.039.341.1.68.149,1.02a2.2,2.2,0,0,0,.191.849c.149.229.583.178.564-.14a6.785,6.785,0,0,0-.19-.972,1.609,1.609,0,0,0-.46-.9A.152.152,0,0,0,889.261,419.617Z" transform="translate(-813.341 -332.063)" fill="#e63b69"/>
  <path id="Path_3896" data-name="Path 3896" d="M890.122,419.4a2.168,2.168,0,0,0,.288,1.061c.131.225.557.162.53-.132a1.5,1.5,0,0,0-.59-1.055A.152.152,0,0,0,890.122,419.4Z" transform="translate(-813.194 -332.095)" fill="#e63b69"/>
  <path id="Path_3897" data-name="Path 3897" d="M898.423,409.378c-.025.372.026.757.035,1.131a2.417,2.417,0,0,0,.157,1.019c.116.231.414.1.445-.111a3.406,3.406,0,0,0-.138-1.109,1.849,1.849,0,0,0-.432-.955A.04.04,0,0,0,898.423,409.378Z" transform="translate(-811.778 -333.785)" fill="#e63b69"/>
  <path id="Path_3898" data-name="Path 3898" d="M899.273,409.336c-.079-.025-.18.057-.149.143.056.151.131.29.179.446a1.8,1.8,0,0,0,.136.458c.095.149.211.3.4.2s.163-.449.078-.617A1.152,1.152,0,0,0,899.273,409.336Z" transform="translate(-811.658 -333.787)" fill="#e63b69"/>
  <path id="Path_3899" data-name="Path 3899" d="M908.661,411.128a2.27,2.27,0,0,0-.665.6,2.421,2.421,0,0,0-.492.694.1.1,0,0,0,.115.122,2.479,2.479,0,0,0,1.419-1.116C909.134,411.2,908.844,411.04,908.661,411.128Z" transform="translate(-810.227 -333.485)" fill="#e63b69"/>
  <path id="Path_3900" data-name="Path 3900" d="M908.68,412.311a1.592,1.592,0,0,0-.732.779.052.052,0,0,0,.048.066,1.284,1.284,0,0,0,1.024-.39A.288.288,0,0,0,908.68,412.311Z" transform="translate(-810.151 -333.285)" fill="#e63b69"/>
  <path id="Path_3901" data-name="Path 3901" d="M895.148,423.912c-.112.342-.172.712-.254,1.062a2.377,2.377,0,0,0-.09,1.1c.074.3.465.214.506-.055.055-.362.049-.741.088-1.106a2.029,2.029,0,0,0-.08-1.019C895.285,423.814,895.171,423.842,895.148,423.912Z" transform="translate(-812.4 -331.309)" fill="#e63b69"/>
  <path id="Path_3902" data-name="Path 3902" d="M895.831,423.977A2.278,2.278,0,0,0,895.71,425a.28.28,0,0,0,.267.281.259.259,0,0,0,.074-.008.281.281,0,0,0,.2-.332,2.236,2.236,0,0,0-.274-.982A.081.081,0,0,0,895.831,423.977Z" transform="translate(-812.241 -331.297)" fill="#e63b69"/>
  <path id="Path_3903" data-name="Path 3903" d="M898.765,419.614a.067.067,0,0,0-.049.061c0,.211.165.364.279.528a2.491,2.491,0,0,0,.582.686c.271.188.6-.165.446-.433C899.842,420.137,899.176,419.477,898.765,419.614Z" transform="translate(-811.727 -332.035)" fill="#e63b69"/>
  <path id="Path_3904" data-name="Path 3904" d="M894.721,412.859c.33-.253.076-1.117-.217-1.332a.036.036,0,0,0-.047.006.778.778,0,0,0-.128.632c.014.262,0,.581.26.711A.114.114,0,0,0,894.721,412.859Z" transform="translate(-812.477 -333.413)" fill="#e63b69"/>
</svg>
