<svg xmlns="http://www.w3.org/2000/svg" width="222.876" height="57.208" viewBox="0 0 222.876 57.208">
  <g id="Group_566" data-name="Group 566" transform="translate(-50.308 -20)">
    <path id="Path_22" data-name="Path 22" d="M515.9,1215.23l-26.876-26.876a1.9,1.9,0,0,1,0-2.681l27.185-27.185H502.559l-27.185,27.185a1.9,1.9,0,0,0,0,2.681l26.876,26.876Z" transform="translate(-424.511 -1138.488)" fill="#ad2146"/>
    <path id="Path_23" data-name="Path 23" d="M589.01,1189.893v-5.4l-19.134-19.134a1.9,1.9,0,0,0-2.681,0l-24.617,24.618a1.9,1.9,0,0,0,0,2.681l24.617,24.618a1.9,1.9,0,0,0,2.681,0l19.134-19.134v-5.4a.569.569,0,0,0-.569-.568h-13.8a6.158,6.158,0,1,1-.009-1.706h13.81A.569.569,0,0,0,589.01,1189.893Z" transform="translate(-470.296 -1142.79)" fill="#5b0791"/>
    <g id="Group_49" data-name="Group 49" transform="translate(126.788 20)">
      <path id="Path_24" data-name="Path 24" d="M104.555,1408.556a10.864,10.864,0,0,1,4.238-4.289,12.306,12.306,0,0,1,6.163-1.537,11.8,11.8,0,0,1,7.227,2.229,10.706,10.706,0,0,1,4.019,6.079h-6.349a5.132,5.132,0,0,0-2.009-2.262,5.653,5.653,0,0,0-2.955-.777,5.517,5.517,0,0,0-4.323,1.857,8.275,8.275,0,0,0,0,9.929,5.515,5.515,0,0,0,4.323,1.858,5.646,5.646,0,0,0,2.955-.777,5.126,5.126,0,0,0,2.009-2.262H126.2a10.626,10.626,0,0,1-4.019,6.062,11.854,11.854,0,0,1-7.227,2.212,12.3,12.3,0,0,1-6.163-1.537,10.888,10.888,0,0,1-4.238-4.272,13.635,13.635,0,0,1,0-12.512Z" transform="translate(-103.035 -1402.73)" fill="#5b0791"/>
      <path id="Path_25" data-name="Path 25" d="M189.221,1423.475a8.184,8.184,0,0,1,2.989-3.377,7.8,7.8,0,0,1,4.221-1.182,7.248,7.248,0,0,1,3.5.811,5.967,5.967,0,0,1,2.313,2.127v-2.668h5.775v18.844h-5.775v-2.668a6.241,6.241,0,0,1-2.347,2.127,7.254,7.254,0,0,1-3.5.811,7.66,7.66,0,0,1-4.188-1.2,8.277,8.277,0,0,1-2.989-3.411,12.434,12.434,0,0,1,0-10.216Zm11.82,1.722a4.058,4.058,0,0,0-5.843-.017,4.66,4.66,0,0,0-1.2,3.394,4.78,4.78,0,0,0,1.2,3.428,4.021,4.021,0,0,0,5.843.017,5.453,5.453,0,0,0,0-6.822Z" transform="translate(-162.558 -1414.053)" fill="#5b0791"/>
      <path id="Path_26" data-name="Path 26" d="M297.895,1421.268a8.1,8.1,0,0,1,2.077,5.91v11.009h-5.741v-10.233a3.894,3.894,0,0,0-.963-2.82,4.026,4.026,0,0,0-5.3,0,3.9,3.9,0,0,0-.962,2.82v10.233h-5.741v-10.233a3.894,3.894,0,0,0-.962-2.82,4.026,4.026,0,0,0-5.3,0,3.894,3.894,0,0,0-.963,2.82v10.233h-5.775v-18.844h5.775v2.364a6.191,6.191,0,0,1,2.3-1.874,7.226,7.226,0,0,1,3.208-.692,7.8,7.8,0,0,1,3.8.912,6.534,6.534,0,0,1,2.617,2.6,7.6,7.6,0,0,1,2.668-2.533,7.211,7.211,0,0,1,3.681-.979A7.452,7.452,0,0,1,297.895,1421.268Z" transform="translate(-218.618 -1414.21)" fill="#5b0791"/>
      <path id="Path_27" data-name="Path 27" d="M395.4,1419.727a7.149,7.149,0,0,1,3.479-.811,7.8,7.8,0,0,1,4.221,1.182,8.191,8.191,0,0,1,2.989,3.377,12.435,12.435,0,0,1,0,10.216,8.284,8.284,0,0,1-2.989,3.411,7.72,7.72,0,0,1-4.221,1.2,7.178,7.178,0,0,1-3.461-.811,6.34,6.34,0,0,1-2.347-2.094v11.617h-5.775v-27.828h5.775v2.668A6.263,6.263,0,0,1,395.4,1419.727Zm4.711,5.454a3.961,3.961,0,0,0-2.955-1.233,3.9,3.9,0,0,0-2.921,1.25,5.452,5.452,0,0,0,0,6.822,4.04,4.04,0,0,0,5.859-.017,4.742,4.742,0,0,0,1.216-3.428A4.664,4.664,0,0,0,400.109,1425.181Z" transform="translate(-301.887 -1414.053)" fill="#5b0791"/>
      <path id="Path_28" data-name="Path 28" d="M481.826,1419.815v18.844h-5.775v-2.566a6.345,6.345,0,0,1-2.381,2.01,7.265,7.265,0,0,1-3.326.76,7.45,7.45,0,0,1-3.816-.962,6.487,6.487,0,0,1-2.567-2.786,9.48,9.48,0,0,1-.912-4.289v-11.009h5.741v10.232a4.137,4.137,0,0,0,.979,2.939,3.434,3.434,0,0,0,2.634,1.047,3.478,3.478,0,0,0,2.668-1.047,4.138,4.138,0,0,0,.979-2.939v-10.232Z" transform="translate(-354.883 -1414.682)" fill="#5b0791"/>
      <path id="Path_29" data-name="Path 29" d="M540.286,1437.457a7.5,7.5,0,0,1-3.039-2.314,6.079,6.079,0,0,1-1.25-3.292H541.7a2.194,2.194,0,0,0,.911,1.587,3.226,3.226,0,0,0,1.993.608,2.842,2.842,0,0,0,1.671-.422,1.293,1.293,0,0,0,.591-1.1,1.267,1.267,0,0,0-.844-1.2,17.11,17.11,0,0,0-2.735-.861,25.537,25.537,0,0,1-3.377-1,5.827,5.827,0,0,1-2.33-1.655,4.507,4.507,0,0,1-.979-3.056,5.19,5.19,0,0,1,.9-2.955,6.026,6.026,0,0,1,2.634-2.111,10.086,10.086,0,0,1,4.136-.776,8.3,8.3,0,0,1,5.589,1.756,6.834,6.834,0,0,1,2.347,4.66h-5.336a2.3,2.3,0,0,0-.861-1.554,2.991,2.991,0,0,0-1.908-.574,2.639,2.639,0,0,0-1.553.388,1.239,1.239,0,0,0-.54,1.064,1.3,1.3,0,0,0,.861,1.216,13.788,13.788,0,0,0,2.685.811,29.421,29.421,0,0,1,3.411,1.064,5.886,5.886,0,0,1,2.313,1.688,4.78,4.78,0,0,1,1.03,3.124,4.957,4.957,0,0,1-.929,2.955,6.141,6.141,0,0,1-2.668,2.043,10.209,10.209,0,0,1-4.035.743A10.828,10.828,0,0,1,540.286,1437.457Z" transform="translate(-405.913 -1414.053)" fill="#5b0791"/>
    </g>
    <path id="Path_30" data-name="Path 30" d="M624.174,1408.556a10.864,10.864,0,0,1,4.238-4.289,12.306,12.306,0,0,1,6.163-1.537,11.8,11.8,0,0,1,7.227,2.229,10.705,10.705,0,0,1,4.019,6.079h-6.349a5.132,5.132,0,0,0-2.009-2.262,5.653,5.653,0,0,0-2.955-.777,5.517,5.517,0,0,0-4.323,1.857,8.275,8.275,0,0,0,0,9.929,5.515,5.515,0,0,0,4.323,1.858,5.646,5.646,0,0,0,2.955-.777,5.126,5.126,0,0,0,2.009-2.262h6.349a10.625,10.625,0,0,1-4.019,6.062,11.854,11.854,0,0,1-7.227,2.212,12.3,12.3,0,0,1-6.163-1.537,10.889,10.889,0,0,1-4.238-4.272,13.634,13.634,0,0,1,0-12.512Z" transform="translate(-481.851 -1349.769)" fill="#5b0791"/>
    <path id="Path_31" data-name="Path 31" d="M708.839,1423.475a8.186,8.186,0,0,1,2.989-3.377,7.8,7.8,0,0,1,4.221-1.182,7.247,7.247,0,0,1,3.5.811,5.97,5.97,0,0,1,2.314,2.127v-2.668h5.775v18.844h-5.775v-2.668a6.245,6.245,0,0,1-2.347,2.127,7.253,7.253,0,0,1-3.5.811,7.661,7.661,0,0,1-4.188-1.2,8.28,8.28,0,0,1-2.989-3.411,12.435,12.435,0,0,1,0-10.216Zm11.82,1.722a4.058,4.058,0,0,0-5.842-.017,4.66,4.66,0,0,0-1.2,3.394,4.781,4.781,0,0,0,1.2,3.428,4.02,4.02,0,0,0,5.842.017,5.451,5.451,0,0,0,0-6.822Z" transform="translate(-541.374 -1361.092)" fill="#5b0791"/>
    <path id="Path_32" data-name="Path 32" d="M804.649,1421.285a8.364,8.364,0,0,1,1.976,5.893v11.009h-5.741v-10.233a4.134,4.134,0,0,0-.979-2.938,3.837,3.837,0,0,0-5.268,0,4.134,4.134,0,0,0-.979,2.938v10.233h-5.775v-18.844h5.775v2.5a6.1,6.1,0,0,1,2.364-1.976,7.522,7.522,0,0,1,3.344-.726A6.838,6.838,0,0,1,804.649,1421.285Z" transform="translate(-597.436 -1361.249)" fill="#5b0791"/>
    <path id="Path_33" data-name="Path 33" d="M931.277,1423.475a8.184,8.184,0,0,1,2.988-3.377,7.8,7.8,0,0,1,4.221-1.182,7.248,7.248,0,0,1,3.5.811,5.968,5.968,0,0,1,2.313,2.127v-2.668h5.775v18.844H944.3v-2.668a6.242,6.242,0,0,1-2.347,2.127,7.254,7.254,0,0,1-3.5.811,7.662,7.662,0,0,1-4.188-1.2,8.277,8.277,0,0,1-2.988-3.411,12.432,12.432,0,0,1,0-10.216Zm11.82,1.722a4.058,4.058,0,0,0-5.843-.017,4.66,4.66,0,0,0-1.2,3.394,4.78,4.78,0,0,0,1.2,3.428,4.02,4.02,0,0,0,5.843.017,5.453,5.453,0,0,0,0-6.822Z" transform="translate(-696.98 -1361.092)" fill="#5b0791"/>
    <path id="Path_34" data-name="Path 34" d="M1011.237,1437.457a7.5,7.5,0,0,1-3.039-2.314,6.08,6.08,0,0,1-1.249-3.292h5.707a2.193,2.193,0,0,0,.912,1.587,3.225,3.225,0,0,0,1.992.608,2.843,2.843,0,0,0,1.672-.422,1.293,1.293,0,0,0,.591-1.1,1.267,1.267,0,0,0-.844-1.2,17.12,17.12,0,0,0-2.736-.861,25.528,25.528,0,0,1-3.377-1,5.825,5.825,0,0,1-2.33-1.655,4.507,4.507,0,0,1-.979-3.056,5.188,5.188,0,0,1,.9-2.955,6.028,6.028,0,0,1,2.634-2.111,10.087,10.087,0,0,1,4.137-.776,8.3,8.3,0,0,1,5.589,1.756,6.834,6.834,0,0,1,2.347,4.66h-5.335a2.3,2.3,0,0,0-.861-1.554,2.991,2.991,0,0,0-1.908-.574,2.639,2.639,0,0,0-1.553.388,1.239,1.239,0,0,0-.541,1.064,1.3,1.3,0,0,0,.861,1.216,13.791,13.791,0,0,0,2.684.811,29.409,29.409,0,0,1,3.411,1.064,5.886,5.886,0,0,1,2.313,1.688,4.78,4.78,0,0,1,1.03,3.124,4.957,4.957,0,0,1-.928,2.955,6.139,6.139,0,0,1-2.668,2.043,10.21,10.21,0,0,1-4.035.743A10.83,10.83,0,0,1,1011.237,1437.457Z" transform="translate(-750.683 -1361.092)" fill="#5b0791"/>
    <path id="Path_35" data-name="Path 35" d="M869.2,1428.6l-9.167-11.145v8.179l9.168,11.146a.586.586,0,0,0,.889,0l9.136-11.1v-8.226l-9.137,11.144A.586.586,0,0,1,869.2,1428.6Z" transform="translate(-647.911 -1360.07)" fill="#ad2146"/>
  </g>
</svg>
