<svg xmlns="http://www.w3.org/2000/svg" width="83.798" height="94.724" xmlns:v="https://vecta.io/nano"><g transform="matrix(.839 -.545 .545 .839 -.852 24.954)" stroke="#707070"><path d="M8.673 0H4.449a.56.56 0 0 0-.56.56v1.854a.56.56 0 0 0 .56.56h.7v2.779h2.824V2.974h.7a.56.56 0 0 0 .56-.56V.56a.56.56 0 0 0-.56-.56z" fill="#e4baff"/><path d="M12.9 16.97A21.72 21.72 0 0 1 9.126 4.093a.46.46 0 0 0-.357-.458v-.8H4.307v.79h-.061a.46.46 0 0 0-.457.458q0 .017 0 .033a19.82 19.82 0 0 1-3.56 13.182 1.26 1.26 0 0 0-.229.765l.488 15.091c.024.701.598 1.258 1.3 1.261h10.087c.71-.004 1.287-.573 1.3-1.283l.188-14.652c.003-.539-.158-1.066-.463-1.51z" fill="#ff80a2"/><path d="M11.307 21.982H2.522a.9.9 0 0 0-.89 1.039l1.328 8.628h7.622l1.612-8.6a.9.9 0 0 0-.886-1.067z" fill="#fff"/></g><g transform="matrix(.978 .208 -.208 .978 22.941 21.364)" stroke="#707070"><path d="M16.161 21.418H0C1.13 15.309.87 7.933 0 0h16.161c-.847 7.933-1.1 15.309 0 21.418z" fill="#e4baff"/><circle cx="8.178" cy="10.125" r="3.894" fill="#fff"/></g><path d="M59.834 93.152H11.663a2.23 2.23 0 0 1-2.225-2.225V46.162a2.23 2.23 0 0 1 2.225-2.225h48.171a2.23 2.23 0 0 1 2.225 2.225v44.767a2.23 2.23 0 0 1-2.225 2.223z" fill="#9059b3"/><g fill="#5b0791"><path d="M39.151 94.723h-6.807a2.23 2.23 0 0 1-2.225-2.225V44.829a2.23 2.23 0 0 1 2.225-2.225h6.807a2.23 2.23 0 0 1 2.225 2.225v47.669a2.23 2.23 0 0 1-2.225 2.225zm33.481-55.221c-.281 4.618-6.52 8-6.52 8s-5.782-4.11-5.5-8.728 6.52-8 6.52-8 5.781 4.11 5.5 8.728z"/><path d="M72.914 53.911c-4.619-.267-8.016-6.495-8.016-6.495s4.092-5.795 8.711-5.528 8.016 6.495 8.016 6.495-4.092 5.795-8.711 5.528z"/></g><path d="M61.927 49.411v17.09l-17-22.436h12.948z" opacity=".1"/><path d="M76.359 78.665a2.22 2.22 0 0 1-1.776-.88L39.169 31.043c-.742-.979-.549-2.375.43-3.117l5.217-3.953c.979-.742 2.375-.549 3.117.43l35.414 46.741c.742.979.549 2.375-.43 3.117L77.7 78.214c-.386.293-.857.451-1.341.451z" fill="#9059b3"/><path d="M53.21 49.145l8.973-6.798 6.798 8.973-8.973 6.798z" fill="#5b0791"/><path d="M36.731 17.487l4.924-5.866a4.86 4.86 0 0 0 5.763-7.798 4.86 4.86 0 0 0-6.682 7.027l-4.924 5.866z" fill="#ff80a2" stroke="#707070"/><path d="M38.858 17.585l4.924-5.866a4.86 4.86 0 0 0 5.763-7.798 4.86 4.86 0 0 0-6.682 7.027l-4.924 5.866z" fill="none" stroke="#1e0230"/></svg>