<svg xmlns="http://www.w3.org/2000/svg" width="84.651" height="83.319" viewBox="0 0 84.651 83.319">
  <g id="Group_1121" data-name="Group 1121" transform="translate(-1059 -292.238)">
    <path id="Path_16460" data-name="Path 16460" d="M0,426.151c0,.128.065.231.147.231H84.5c.081,0,.147-.1.147-.231s-.065-.231-.147-.231H.147C.065,425.92,0,426.023,0,426.151Z" transform="translate(1059 -50.87)" fill="#1e0230"/>
    <path id="Path_16461" data-name="Path 16461" d="M98.983,83.217H57.456a3.011,3.011,0,0,1-3.008-3.008V3.008A3.011,3.011,0,0,1,57.456,0H98.983a3.011,3.011,0,0,1,3.008,3.008v77.2a3.011,3.011,0,0,1-3.008,3.008ZM57.456.389a2.622,2.622,0,0,0-2.619,2.619v77.2a2.622,2.622,0,0,0,2.619,2.619H98.983a2.622,2.622,0,0,0,2.619-2.619V3.008A2.622,2.622,0,0,0,98.983.389Z" transform="translate(1015.138 292.238)" fill="#1e0230"/>
    <rect id="Rectangle_526" data-name="Rectangle 526" width="47.773" height="12.409" transform="translate(1069.471 326.556)" fill="#ad2146"/>
    <rect id="Rectangle_527" data-name="Rectangle 527" width="12.409" height="82.828" transform="translate(1087.463 292.432)" fill="#ad2146"/>
    <path id="Path_16469" data-name="Path 16469" d="M110.418,145.565a4.955,4.955,0,0,0,.153-1.063l15.52-14.134-13.339-6.515-5.879,15.677a4.694,4.694,0,0,0-1.935-.115L99.1,123.854l-13.339,6.515,14.91,13.578c-.01.126-.019.253-.019.381a4.956,4.956,0,0,0,.162,1.237c-9.139,2.856-12.881,11.482-12.881,11.482l11.478,9.307c-.685-6.846,3.5-13.854,5.756-17.085.148.013.3.023.448.023s.3-.009.448-.023c2.26,3.23,6.441,10.239,5.756,17.085l11.478-9.307s-3.741-8.625-12.881-11.482h0Z" transform="translate(989.912 192.465)" opacity="0.2" style="isolation: isolate"/>
    <path id="Path_16470" data-name="Path 16470" d="M111.752,153.628a.933.933,0,0,1-.4-.089.913.913,0,0,1-.531-.818c-.094-6-3.516-11.892-5.548-14.869a.752.752,0,0,0-.627-.317h0a.757.757,0,0,0-.636.317c-2.031,2.977-5.454,8.867-5.548,14.869a.913.913,0,0,1-.531.818.923.923,0,0,1-.979-.119l-9.54-7.736a.933.933,0,0,1-.238-1.151c.964-1.857,4.677-8.117,11.963-10.691a.732.732,0,0,0,.48-.787,4.844,4.844,0,0,1-.036-.581.766.766,0,0,0-.239-.573L85.63,119.41a.928.928,0,0,1,.217-1.519l11.42-5.577a.928.928,0,0,1,1.276.508l5.295,14.12a.731.731,0,0,0,.708.474,4.791,4.791,0,0,1,.726.04.73.73,0,0,0,.785-.467l5.312-14.166a.927.927,0,0,1,1.276-.508l11.419,5.577a.928.928,0,0,1,.217,1.519L109.911,132.5a.727.727,0,0,0-.235.469c0,.039-.008.078-.013.117h0a.726.726,0,0,0,.484.761c7.288,2.573,11,8.834,11.966,10.691a.933.933,0,0,1-.238,1.151l-9.54,7.736a.924.924,0,0,1-.583.208Z" transform="translate(990.264 201.837)" fill="#ad2146"/>
    <path id="Path_16474" data-name="Path 16474" d="M357.729,137.179h-6.266v-2.063a6.269,6.269,0,0,1,6.266-6.266h0v8.329h0Z" transform="translate(775.872 188.44)" fill="#2f2e41"/>
    <path id="Path_16475" data-name="Path 16475" d="M354.855,148.626l1.077,4.846-6.313-1.048,2.573-4.583Z" transform="translate(777.358 173.143)" fill="#ffb6b6"/>
    <path id="Path_16476" data-name="Path 16476" d="M354.855,148.626l1.077,4.846-6.313-1.048,2.573-4.583Z" transform="translate(777.358 173.143)" opacity="0.1" style="isolation: isolate"/>
    <rect id="Rectangle_530" data-name="Rectangle 530" width="6.053" height="8.958" transform="translate(1126.16 332.119)" fill="#5b0791"/>
    <path id="Path_16477" data-name="Path 16477" d="M366.689,288.857,365.357,296a17.926,17.926,0,0,1-1.695,10.047l-1.695,5.205-2.542-.363S361,307.015,361,305.32s.363-8.231.363-8.231l-.182-7.459,5.508-.773Z" transform="translate(769.458 59.544)" fill="#ffb6b6"/>
    <path id="Path_16478" data-name="Path 16478" d="M354.739,400.024s2.905-1.089,3.147.484l-.121.726s1.089,3.268-.484,3.51-3.026.605-3.147-.121a4.11,4.11,0,0,1,.183-2.269,9.77,9.77,0,0,0,.423-2.331Z" transform="translate(773.781 -29.713)" fill="#1e0230"/>
    <path id="Path_16479" data-name="Path 16479" d="M340.753,283.159l-.707,7.231a17.926,17.926,0,0,0-1.166,10.122l.18,5.471,2.543.358s-.434-4.158.037-5.786,1.94-8.008,1.94-8.008l2.249-7.114-5.076-2.274Z" transform="translate(786.23 64.134)" fill="#ffb6b6"/>
    <path id="Path_16480" data-name="Path 16480" d="M338.344,398.33s-2.488-1.854-3.158-.41l-.086.731s-1.921,3.615-.477,4.285,2.7.645,3.022-.019a4.109,4.109,0,0,0,.456-2.23,9.769,9.769,0,0,1,.242-2.356Z" transform="translate(789.871 -27.87)" fill="#1e0230"/>
    <path id="Path_16481" data-name="Path 16481" d="M341.292,229.711l5.205,11.016s-10.471,5.266-16.645,5.266l3.065-16.281Z" transform="translate(793.281 107.19)" fill="#ad2146"/>
    <path id="Path_16482" data-name="Path 16482" d="M354.24,162.4l3.026.484-.242,7.626,3.389,6.779-4.358,2.179s-3.389-6.416-3.995-10.41a27.814,27.814,0,0,1-.242-6.9l2.421.242h0Z" transform="translate(775.673 161.607)" fill="#5b0791"/>
    <path id="Path_16483" data-name="Path 16483" d="M338.343,163.647l-3.026.484.242,7.626-.726,7.021,1.695,1.937s3.389-6.416,3.995-10.41a27.813,27.813,0,0,0,.242-6.9l-2.421.242Z" transform="translate(789.269 160.604)" fill="#5b0791"/>
    <path id="Path_16484" data-name="Path 16484" d="M376.194,165.891l.666-.182s2.361-.3,2.724.666.242,6.658.242,6.658.625,6.983-1.806,7.062-1.947-5.731-1.947-5.731l.121-8.474Z" transform="translate(756.079 158.784)" fill="#5b0791"/>
    <circle id="Ellipse_412" data-name="Ellipse 412" cx="3.133" cy="3.133" r="3.133" transform="translate(1128.023 316.832)" fill="#ffb6b6"/>
    <path id="Path_16485" data-name="Path 16485" d="M362.654,164.678c.672-.171,1.434.547,1.7,1.6a2.727,2.727,0,0,1,.031,1.287l.289,1.2h.021l2.278,5.368a4.345,4.345,0,0,1-.2,3.857c-.4.7-.929,1.17-1.549.69-1.028-.8-1.7-5.356-2.006-7.976l-.709-2.663a2.727,2.727,0,0,1-.587-1.147c-.268-1.056.059-2.05.732-2.221h0Z" transform="translate(767.522 159.599)" fill="#ffb6b6"/>
    <path id="Path_16486" data-name="Path 16486" d="M335.677,165.891l-.666-.182s-2.361-.3-2.724.666-.242,6.658-.242,6.658-.625,6.983,1.806,7.062,1.947-5.731,1.947-5.731l-.121-8.474Z" transform="translate(791.573 158.784)" fill="#5b0791"/>
    <path id="Path_16487" data-name="Path 16487" d="M342.428,164.678c-.672-.171-1.434.547-1.7,1.6a2.727,2.727,0,0,0-.031,1.287l-.289,1.2h-.021l-2.278,5.368a4.345,4.345,0,0,0,.2,3.857c.4.7.929,1.17,1.549.69,1.028-.8,1.7-5.356,2.006-7.976l.709-2.663a2.727,2.727,0,0,0,.587-1.147c.268-1.056-.059-2.05-.732-2.221h0Z" transform="translate(786.918 159.599)" fill="#ffb6b6"/>
    <path id="Path_16488" data-name="Path 16488" d="M339.788,127.044c.159-.485.474-.909.615-1.4.187-.651.585.793.624.117.074-1.285,2.035-4.591,3.155-5.226s1.763-.444,2.9.153a3.628,3.628,0,0,1,1.243.376,3.087,3.087,0,0,1,1.578,1.606,7.663,7.663,0,0,1,.26,1.8c.2,1.686,1.143,3.29.94,4.976a1.948,1.948,0,0,1-.693,1.379,1.015,1.015,0,0,1-1.408-.172c-.1-.153-.137-.334-.22-.495a.5.5,0,0,0-.413-.305c-.272.008-.41.372-.3.622a1.269,1.269,0,0,0,.6.535,1.73,1.73,0,0,1-2.42-1.831c.128-.86,1.381-.682,1.528-1.539a8.713,8.713,0,0,0,.382-2.292c-.1-.625-.6.132-.076-.229-.572.276-1.8-1.611-2.4-1.823a2.446,2.446,0,0,1-1.379-1.243c-.635.921-1.194.671-1.422,1.766s-.017,3.584.92,4.2a2.388,2.388,0,0,0-.85,1.04,2.577,2.577,0,0,1-.33.693,1.262,1.262,0,0,1-1.364.241,2.341,2.341,0,0,1-1.47-2.948Z" transform="translate(785.37 195.455)" fill="#1e0230"/>
  </g>
</svg>
