<svg xmlns="http://www.w3.org/2000/svg" width="250.232" height="123.409" xmlns:v="https://vecta.io/nano"><circle cx="34.26" cy="48.038" r="34.26" fill="#ad2146"/><path d="M49.573 41.974H18.947a4.85 4.85 0 0 0-4.847 4.847V77.45a4.85 4.85 0 0 0 4.847 4.847h30.628a4.85 4.85 0 0 0 4.847-4.847V46.821a4.85 4.85 0 0 0-4.847-4.847zM34.259 72.888c-4.35 0-8.271-2.62-9.935-6.639s-.743-8.644 2.333-11.719 7.702-3.994 11.72-2.328 6.637 5.588 6.635 9.938c0 2.852-1.133 5.587-3.149 7.604s-4.752 3.149-7.604 3.149zm12.1-21.505a2.69 2.69 0 0 1-1.901-4.589 2.69 2.69 0 0 1 4.589 1.901 2.69 2.69 0 0 1-2.688 2.688z" fill="#f5f5f5"/><circle cx="215.972" cy="34.26" r="34.26" fill="#ad2146"/><path d="M207.155 68.519a29.05 29.05 0 0 1-15.867-4.7l-2.376-1.544 2.816.312a24.75 24.75 0 0 0 2.361.142 19.73 19.73 0 0 0 10.7-3.146c-3.858-.836-6.986-3.651-8.223-7.4l-.352-1.087 1.121.22a9.36 9.36 0 0 0 1.545.174 10.9 10.9 0 0 1-5.912-9.665v-1.151l1 .443a9.23 9.23 0 0 0 1.877.8 11.05 11.05 0 0 1-1.324-12.868l.49-.845.614.758a28.06 28.06 0 0 0 17.935 10.152 1.35 1.35 0 0 0 1.084-.324c.303-.263.477-.645.477-1.047a10.82 10.82 0 0 1 18.483-7.717 19.95 19.95 0 0 0 5.892-2.314l1.543-.914-.562 1.7c-.521 1.579-1.395 3.019-2.556 4.21 1.03-.268 2.037-.617 3.011-1.045l2.09-.919-1.259 1.9a21.44 21.44 0 0 1-4.93 5.265v.971c0 14.568-11.081 29.636-29.625 29.636z" fill="#f5f5f5"/><circle cx="124.923" cy="89.149" r="34.26" fill="#ad2146"/><path d="M140.236 83.085h-30.628a4.85 4.85 0 0 0-4.847 4.847v30.628a4.85 4.85 0 0 0 4.847 4.847h30.628a4.85 4.85 0 0 0 4.847-4.847V87.932c0-1.286-.511-2.519-1.42-3.428s-2.142-1.42-3.428-1.419zm-5.751 10.34h-3.512c-2.4 0-2.865 1.135-2.865 2.812v3.555h5.719l-.743 5.581h-4.987v14.554a17.27 17.27 0 0 1-6.452-.015v-14.535h-4.574v-5.581h4.659v-4.128c0-4.934 3.427-7.63 7.842-7.63 2.122 0 4.393.159 4.913.233z" fill="#f5f5f5"/></svg>