<svg xmlns="http://www.w3.org/2000/svg" width="105.17" height="103.564" xmlns:v="https://vecta.io/nano"><ellipse cx="52.585" cy="51.782" rx="52.585" ry="51.782" fill="#005ef5"/><g fill="#fff"><path d="M96.156 51.782a42.2 42.2 0 0 1-3.993 17.966l-.248.52c-4.032 8.259-10.583 15.025-18.708 19.321l-.511.266c-6.223 3.19-13.117 4.847-20.11 4.834a44.6 44.6 0 0 1-7.241-.589l-.569-.1c-8.956-1.593-17.191-5.943-23.556-12.441l-.4-.413C14.724 74.782 10.756 66.68 9.465 57.962l-.078-.572a42.45 42.45 0 0 1 4.718-25.744l.277-.509a43.34 43.34 0 0 1 13.372-14.614l.477-.324c5.339-3.55 11.393-5.883 17.734-6.833l.572-.081a44.45 44.45 0 0 1 6.05-.41 43.96 43.96 0 0 1 18.46 4.031l.523.246a43.59 43.59 0 0 1 14.166 10.789 19.37 19.37 0 0 1 .376.439 42.41 42.41 0 0 1 9.321 19.569h0a15.21 15.21 0 0 1 .1.566 42.39 42.39 0 0 1 .623 7.267z"/><path d="M56.887 48.522c.6.743.989 1.634 1.127 2.579l20.993-3.96c-.829-4.463-2.805-8.633-5.735-12.1z"/></g><g fill="#ccc"><path d="M79.666 47.509l-.1-.566h0c-.846-4.559-2.864-8.819-5.854-12.363l-.378-.436c-2.41-2.746-5.343-4.986-8.627-6.588h0l-.52-.248a27.8 27.8 0 0 0-15.417-2.274c-.191.023-.381.052-.572.084a27.46 27.46 0 0 0-10.67 4.1c-.162.1-.324.211-.483.321-3.547 2.405-6.478 5.609-8.558 9.356q-.139.251-.277.511c-2.598 4.944-3.574 10.581-2.791 16.111q.035.29.087.572c.875 5.327 3.342 10.265 7.076 14.163.13.139.263.277.4.413a27.5 27.5 0 0 0 14.461 7.662 16.3 16.3 0 0 0 .572.1 27.83 27.83 0 0 0 17.136-2.629c.171-.087.338-.176.509-.269h0c4.998-2.674 9.042-6.835 11.572-11.907q.13-.26.251-.52c2.283-4.857 3.043-10.291 2.179-15.588zm-2.7 15.348q-.121.264-.251.52a26.8 26.8 0 0 1-11.32 11.638l-.511.266A27.19 27.19 0 0 1 48.12 77.85c-.191-.029-.384-.061-.572-.1a26.92 26.92 0 0 1-14.134-7.486c-.139-.136-.272-.274-.4-.413a26.21 26.21 0 0 1-6.926-13.84 17.72 17.72 0 0 1-.087-.569c-.766-5.411.188-10.925 2.727-15.764.087-.17.179-.341.274-.511 2.039-3.671 4.914-6.811 8.391-9.165.159-.11.318-.217.48-.318a26.9 26.9 0 0 1 10.416-4 11.4 11.4 0 0 1 .572-.084 27.2 27.2 0 0 1 15.088 2.228c.176.078.35.162.52.246 3.21 1.564 6.077 3.75 8.434 6.432a19.37 19.37 0 0 1 .376.439c2.93 3.467 4.906 7.637 5.735 12.1l.1.569a26.04 26.04 0 0 1-2.138 15.241z"/><path d="M50.576 47.472l-.471.335-12.722-17.8-.338-.471-9.295-13.008.477-.324 9.3 13.01.335.474zm-2.272 2.302l-.28.509-19.3-10.6-.509-.28-14.109-7.752.277-.509 14.108 7.749.506.28zm-.246 3.662l-21.979 2.577-.572.069-16.044 1.881-.078-.572 16.036-1.881.572-.066 22-2.58zm1.419 1.94L33.409 70.264l-.425.393-11.765 10.9-.4-.413 11.765-10.9.422-.393 16.079-14.9zm22.087-42.224l-6.856 14.4h0l-.248.523-9.373 19.687-.52-.248 9.373-19.685.248-.526 6.856-14.4.52.249zM86.109 24.38l-12.392 10.2-.448.37-16.94 13.938-.367-.445 16.931-13.932.445-.367 12.4-10.2.371.436zm9.423 20.139l-15.865 2.99-.566.107-21.71 4.094-.107-.566 21.722-4.1.566-.1h0l15.859-2.988.101.563zm-3.37 25.229l-.248.52-14.675-6.652-.526-.24-19.823-8.983.24-.526 19.835 8.989.526.24zM73.206 89.586l-.511.266-7.54-14.06-.275-.511-10.306-19.22.508-.272 10.309 19.225.272.509h0zM51.747 56.527L48.115 77.85l-.1.572-2.673 15.677-.569-.1 2.67-15.68.1-.569 3.632-21.323zm.165-9.389l-.572.081-3.06-21.537-.081-.572-2.236-15.747.572-.081 2.236 15.744.081.572z"/></g><ellipse cx="52.585" cy="51.782" rx="5.49" ry="5.406" fill="#ad2146"/><path d="M57.654 49.188l-5.836 2.723 6.5-1.362s4.779.195 4.779-1.751l7.781-4.28s6.614 3.5 8.559 1.556-1.556-5.836-1.556-5.836 2.344-1.293 2.145-1.814-3.312.257-3.312.257-7.392-4.28-7 3.113l-7.781 5.159s-3.891-.099-4.279 2.235z" fill="#3a86ff"/></svg>