<svg xmlns="http://www.w3.org/2000/svg" xmlns:xlink="http://www.w3.org/1999/xlink" width="119.142" height="90.898" xmlns:v="https://vecta.io/nano"><circle cx="17.019" cy="46.124" r="7.55" fill="#ff6584"/><path d="M32.479 88.767h-.008a1 1 0 0 1-1-1V28.901a1 1 0 0 1 1-1h49.544a1 1 0 0 1 1 1v45.77a1 1 0 0 1-.995 1z" fill="#f2f2f2"/><path d="M69.1 19.581h-23V6.252c.001-.586.476-1.061 1.062-1.062h20.879c.586.001 1.061.476 1.062 1.062zm-22.767-.236h22.531V6.252c-.001-.456-.37-.825-.826-.826H47.159c-.456.001-.825.37-.826.826z" fill="#3f3d56"/><path d="M52.644 10.263h9.909c.25 0 .49.099.668.276s.276.417.276.668v14.156h-11.8V11.207c0-.251.1-.491.278-.669s.419-.276.669-.275z" fill="#e6e6e6"/><path d="M54.589 5.426h-4.836V.59a.59.59 0 0 1 .173-.417.59.59 0 0 1 .417-.173H54a.59.59 0 0 1 .59.59zm-4.6-.236h4.365V.59a.35.35 0 0 0-.104-.25c-.067-.066-.156-.104-.25-.104h-3.657a.35.35 0 0 0-.25.104c-.066.067-.104.156-.104.25zm44.344 71.348h-.14c-2.918-.032-5.724-1.129-7.891-3.084q-.12-.109-.238-.222l-.036-.035V50.588l.011-.024.237-.492c2.454-4.982 5.315-7.725 8.058-7.725 3.955 0 7.023 5.426 8.5 8.66 2.053 4.5 3.487 10.07 3.487 13.552-.002 6.564-5.285 11.905-11.849 11.978zm-8.07-3.443c.065.062.131.123.2.183a11.74 11.74 0 0 0 7.737 3.023h.268a11.79 11.79 0 0 0 11.618-11.742c0-3.452-1.425-8.984-3.466-13.454-1.453-3.183-4.461-8.522-8.285-8.522-2.648 0-5.435 2.7-7.846 7.592l-.224.465z" fill="#3f3d56"/><g fill="#ccc"><path d="M94.332 90.842c-.075 0-.136-.061-.136-.136V63c-.004-.051.02-.1.064-.127s.099-.027.143 0 .069.076.064.127v27.706c0 .075-.06.135-.135.136zm-70.424 0c-.075 0-.136-.061-.136-.136V63c.006-.07.065-.124.135-.124s.129.054.136.124v27.706c0 .075-.06.135-.135.136z"/><path d="M94.332 68.177c-.039-.001-.075-.018-.1-.047l-6.826-7.872c-.035-.036-.048-.089-.032-.137s.056-.084.106-.092.1.011.131.051l6.826 7.872c.035.04.043.096.021.144s-.069.08-.121.081zm0 4.542c-.056.002-.107-.031-.129-.082s-.011-.11.029-.15l3.879-3.879c.034-.038.085-.054.134-.042s.087.05.099.099-.004.101-.042.134l-3.879 3.879c-.024.025-.057.039-.092.04z"/></g><g fill="#3f3d56"><path d="M106.888 90.897H96.743v-.118c-.026-1.829.935-3.531 2.515-4.453s3.534-.922 5.114 0 2.541 2.623 2.515 4.453zm-9.908-.236h9.671a4.84 4.84 0 0 0-4.836-4.717 4.84 4.84 0 0 0-4.836 4.717z"/><path d="M101.812 87.9c-.036 0-.07.014-.095.039s-.039.059-.039.095v1.422l-1.386-1.189c-.056-.036-.13-.025-.173.025s-.044.125-.001.175l1.56 1.339v.836c0 .074.06.134.134.134s.134-.06.134-.134v-2.611c-.002-.073-.061-.131-.134-.131zm-79.975 2.997H11.692v-.118c-.026-1.829.935-3.531 2.515-4.453s3.534-.922 5.114 0a5.07 5.07 0 0 1 2.515 4.453zm-9.908-.236H21.6a4.84 4.84 0 0 0-4.836-4.717 4.84 4.84 0 0 0-4.835 4.717z"/><path d="M16.761 87.9c-.036 0-.07.014-.095.039s-.039.059-.039.095v1.422l-1.386-1.189c-.056-.036-.13-.025-.173.025s-.044.125-.001.175l1.56 1.339v.836c0 .074.06.134.134.134s.134-.06.134-.134v-2.611c0-.036-.014-.07-.039-.095s-.059-.039-.095-.039zm7.265-11.361h-.14c-6.563-.074-11.846-5.414-11.848-11.978 0-3.482 1.434-9.055 3.487-13.552 1.477-3.234 4.544-8.66 8.5-8.66 1.629 0 3.27.929 4.877 2.76a8.28 8.28 0 0 1 .238.279l.027.033v29.961l-.067.032a5.71 5.71 0 0 1-.24.109 11.87 11.87 0 0 1-4.7 1.015zm0-33.954c-3.824 0-6.833 5.339-8.286 8.522-2.041 4.47-3.466 10-3.466 13.454A11.79 11.79 0 0 0 23.89 76.303h.268a11.64 11.64 0 0 0 4.608-1l.166-.074V45.505c-.068-.082-.137-.162-.206-.241-1.56-1.778-3.141-2.68-4.7-2.68z"/></g><path d="M24.026 68.177c-.039-.001-.075-.018-.1-.047L17.1 60.258c-.044-.057-.036-.138.019-.185s.136-.044.186.007l6.826 7.872c.035.04.043.096.021.144s-.069.08-.121.081zm0 4.542c-.056.002-.107-.031-.129-.082s-.011-.11.029-.15l3.879-3.879c.034-.038.085-.054.134-.042s.087.05.099.099-.004.101-.042.134l-3.878 3.879c-.025.025-.058.039-.093.04z" fill="#ccc"/><path d="M34.685 20.528l.087.172a.52.52 0 0 1 .059.241v4.66h4.13v-4.66a.52.52 0 0 1 .059-.241l.087-.172zm4.039.413v4.424h-3.657v-4.427a.74.74 0 0 0-.021-.177h3.7a.74.74 0 0 0-.021.177zm1.151-.413l.087.172a.52.52 0 0 1 .059.241v4.66h4.129v-4.66a.52.52 0 0 1 .059-.241l.087-.172zm4.039.413v4.424h-3.653v-4.427a.74.74 0 0 0-.021-.177h3.7a.74.74 0 0 0-.021.177zm1.151-.413l.087.172a.52.52 0 0 1 .059.241v4.66h4.129v-4.66a.52.52 0 0 1 .059-.241l.087-.172zm4.039.413v4.424h-3.657v-4.427c0-.06-.007-.119-.021-.177h3.7a.74.74 0 0 0-.021.177zm1.151-.413l.087.172a.52.52 0 0 1 .059.241v4.66h4.129v-4.66a.52.52 0 0 1 .059-.241l.087-.172zm4.039.413v4.424h-3.657v-4.427a.74.74 0 0 0-.021-.177h3.7a.74.74 0 0 0-.021.177zm1.151-.413l.087.172a.52.52 0 0 1 .059.241v4.66h4.129v-4.66a.52.52 0 0 1 .059-.241l.087-.172zm4.039.413v4.424h-3.657v-4.427a.74.74 0 0 0-.021-.177h3.7a.74.74 0 0 0-.021.177zm1.151-.413l.087.172a.52.52 0 0 1 .059.241v4.66h4.129v-4.66a.52.52 0 0 1 .059-.241l.087-.172zm4.039.413v4.424h-3.657v-4.427a.74.74 0 0 0-.021-.177h3.7a.74.74 0 0 0-.021.177zm1.151-.413l.087.172a.52.52 0 0 1 .059.241v4.66H70.1v-4.66a.52.52 0 0 1 .059-.241l.087-.172zm4.039.413v4.424h-3.657v-4.427a.74.74 0 0 0-.021-.177h3.7a.74.74 0 0 0-.021.177zm1.151-.413l.087.172a.52.52 0 0 1 .059.241v4.66h4.129v-4.66a.52.52 0 0 1 .059-.241l.087-.172zm4.039.413v4.424h-3.657v-4.427a.74.74 0 0 0-.021-.177h3.7a.74.74 0 0 0-.021.177zm1.151-.413l.087.172a.52.52 0 0 1 .059.241v4.66h4.129v-4.66a.52.52 0 0 1 .059-.241l.087-.172zm4.039.413v4.424h-3.657v-4.427a.74.74 0 0 0-.021-.177h3.7a.74.74 0 0 0-.021.177zm-4.039-.413l.087.172a.52.52 0 0 1 .059.241v4.66h4.129v-4.66a.52.52 0 0 1 .059-.241l.087-.172zm4.039.413v4.424h-3.657v-4.427a.74.74 0 0 0-.021-.177h3.7a.74.74 0 0 0-.021.177zm-9.229-.413l.087.172a.52.52 0 0 1 .059.241v4.66h4.129v-4.66a.52.52 0 0 1 .059-.241l.087-.172zm4.039.413v4.424h-3.657v-4.427a.74.74 0 0 0-.021-.177h3.7a.74.74 0 0 0-.021.177zm-9.229-.413l.087.172a.52.52 0 0 1 .059.241v4.66H70.1v-4.66a.52.52 0 0 1 .059-.241l.087-.172zm4.039.413v4.424h-3.657v-4.427a.74.74 0 0 0-.021-.177h3.7a.74.74 0 0 0-.021.177zm-9.229-.413l.087.172a.52.52 0 0 1 .059.241v4.66h4.129v-4.66a.52.52 0 0 1 .059-.241l.087-.172zm4.039.413v4.424h-3.657v-4.427a.74.74 0 0 0-.021-.177h3.7a.74.74 0 0 0-.021.177zm-9.229-.413l.087.172a.52.52 0 0 1 .059.241v4.66h4.129v-4.66a.52.52 0 0 1 .059-.241l.087-.172zm4.039.413v4.424h-3.657v-4.427a.74.74 0 0 0-.021-.177h3.7c-.014.058-.021.117-.021.177zm-9.229-.413l.087.172a.52.52 0 0 1 .059.241v4.66h4.129v-4.66a.52.52 0 0 1 .059-.241l.087-.172zm4.039.413v4.424h-3.657v-4.427a.74.74 0 0 0-.021-.177h3.7a.74.74 0 0 0-.021.177zm-9.233-.413l.087.172a.52.52 0 0 1 .059.241v4.66h4.129v-4.66a.52.52 0 0 1 .059-.241l.087-.172zm4.039.413v4.424h-3.657v-4.427a.74.74 0 0 0-.021-.177h3.7a.74.74 0 0 0-.021.177zm-9.229-.413l.087.172a.52.52 0 0 1 .059.241v4.66h4.129v-4.66a.52.52 0 0 1 .059-.241l.087-.172zm4.039.413v4.424h-3.649v-4.427a.74.74 0 0 0-.021-.177h3.7a.74.74 0 0 0-.021.177zm-9.229-.413l.087.172a.52.52 0 0 1 .059.241v4.66h4.134v-4.66a.52.52 0 0 1 .059-.241l.087-.172zm4.039.413v4.424h-3.657v-4.427a.74.74 0 0 0-.021-.177h3.7a.74.74 0 0 0-.021.177zm37.484-.413l.087.172a.52.52 0 0 1 .059.241v4.66h4.129v-4.66a.52.52 0 0 1 .059-.241l.087-.172zm4.039.413v4.424h-3.657v-4.427a.74.74 0 0 0-.021-.177h3.7a.74.74 0 0 0-.021.177zm-9.229-.413l.087.172a.52.52 0 0 1 .059.241v4.66h4.129v-4.66a.52.52 0 0 1 .059-.241l.087-.172zm4.039.413v4.424h-3.657v-4.427a.74.74 0 0 0-.021-.177h3.7a.74.74 0 0 0-.021.177zm-9.229-.413l.087.172a.52.52 0 0 1 .059.241v4.66h4.129v-4.66a.52.52 0 0 1 .059-.241l.087-.172zm4.039.413v4.424h-3.657v-4.427a.74.74 0 0 0-.021-.177h3.7a.74.74 0 0 0-.021.177zm-9.229-.413l.087.172a.52.52 0 0 1 .059.241v4.66h4.129v-4.66a.52.52 0 0 1 .059-.241l.087-.172zm4.039.413v4.424h-3.657v-4.427a.74.74 0 0 0-.021-.177h3.7a.74.74 0 0 0-.021.177zm-9.229-.413l.087.172a.52.52 0 0 1 .059.241v4.66h4.129v-4.66a.52.52 0 0 1 .059-.241l.087-.172zm4.039.413v4.424h-3.657v-4.427a.74.74 0 0 0-.021-.177h3.7a.74.74 0 0 0-.021.177zm-9.229-.413l.087.172a.52.52 0 0 1 .059.241v4.66h4.129v-4.66a.52.52 0 0 1 .059-.241l.087-.172zm4.039.413v4.424h-3.657v-4.427a.74.74 0 0 0-.021-.177h3.7a.74.74 0 0 0-.021.177zm-9.232-.413l.087.172a.52.52 0 0 1 .059.241v4.66h4.129v-4.66a.52.52 0 0 1 .059-.241l.087-.172zm4.039.413v4.424h-3.657v-4.427a.74.74 0 0 0-.021-.177h3.7a.74.74 0 0 0-.021.177zm-9.229-.413l.087.172a.52.52 0 0 1 .059.241v4.66h4.129v-4.66a.52.52 0 0 1 .059-.241l.087-.172zm4.039.413v4.424h-3.649v-4.427a.74.74 0 0 0-.021-.177h3.7a.74.74 0 0 0-.021.177zm-9.229-.413l.087.172a.52.52 0 0 1 .059.241v4.66h4.134v-4.66a.52.52 0 0 1 .059-.241l.087-.172zm4.039.413v4.424h-3.657v-4.427a.74.74 0 0 0-.021-.177h3.7a.74.74 0 0 0-.021.177zm37.484-.413l.087.172a.52.52 0 0 1 .059.241v4.66h4.129v-4.66a.52.52 0 0 1 .059-.241l.087-.172zm4.039.413v4.424h-3.657v-4.427a.74.74 0 0 0-.021-.177h3.7a.74.74 0 0 0-.021.177zm-9.229-.413l.087.172a.52.52 0 0 1 .059.241v4.66h4.129v-4.66a.52.52 0 0 1 .059-.241l.087-.172zm4.039.413v4.424h-3.657v-4.427a.74.74 0 0 0-.021-.177h3.7a.74.74 0 0 0-.021.177zm-9.229-.413l.087.172a.52.52 0 0 1 .059.241v4.66h4.129v-4.66a.52.52 0 0 1 .059-.241l.087-.172zm4.039.413v4.424h-3.657v-4.427a.74.74 0 0 0-.021-.177h3.7a.74.74 0 0 0-.021.177zm-9.229-.413l.087.172a.52.52 0 0 1 .059.241v4.66h4.129v-4.66a.52.52 0 0 1 .059-.241l.087-.172zm4.039.413v4.424h-3.657v-4.427a.74.74 0 0 0-.021-.177h3.7a.74.74 0 0 0-.021.177zm-9.229-.413l.087.172a.52.52 0 0 1 .059.241v4.66h4.129v-4.66a.52.52 0 0 1 .059-.241l.087-.172zm4.039.413v4.424h-3.657v-4.427a.74.74 0 0 0-.021-.177h3.7a.74.74 0 0 0-.021.177zm-9.229-.413l.087.172a.52.52 0 0 1 .059.241v4.66h4.129v-4.66a.52.52 0 0 1 .059-.241l.087-.172zm4.039.413v4.424h-3.657v-4.427c0-.06-.007-.119-.021-.177h3.7a.74.74 0 0 0-.021.177zm-9.232-.413l.087.172a.52.52 0 0 1 .059.241v4.66h4.129v-4.66a.52.52 0 0 1 .059-.241l.087-.172zm4.039.413v4.424h-3.657v-4.427a.74.74 0 0 0-.021-.177h3.7a.74.74 0 0 0-.021.177zm-9.229-.413l.087.172a.52.52 0 0 1 .059.241v4.66h4.129v-4.66a.52.52 0 0 1 .059-.241l.087-.172zm4.039.413v4.424h-3.649v-4.427a.74.74 0 0 0-.021-.177h3.7a.74.74 0 0 0-.021.177zm-9.229-.413l.087.172a.52.52 0 0 1 .059.241v4.66h4.134v-4.66a.52.52 0 0 1 .059-.241l.087-.172zm4.039.413v4.424h-3.657v-4.427a.74.74 0 0 0-.021-.177h3.7a.74.74 0 0 0-.021.177zm37.484-.413l.087.172a.52.52 0 0 1 .059.241v4.66h4.129v-4.66a.52.52 0 0 1 .059-.241l.087-.172zm4.039.413v4.424h-3.657v-4.427c0-.06-.007-.119-.021-.177h3.7a.74.74 0 0 0-.021.177zm-9.229-.413l.087.172a.52.52 0 0 1 .059.241v4.66h4.129v-4.66a.52.52 0 0 1 .059-.241l.087-.172zm4.039.413v4.424h-3.657v-4.427a.74.74 0 0 0-.021-.177h3.7a.74.74 0 0 0-.021.177zm-9.229-.413l.087.172a.52.52 0 0 1 .059.241v4.66h4.129v-4.66a.52.52 0 0 1 .059-.241l.087-.172zm4.039.413v4.424h-3.657v-4.427a.74.74 0 0 0-.021-.177h3.7a.74.74 0 0 0-.021.177zm-9.229-.413l.087.172a.52.52 0 0 1 .059.241v4.66h4.129v-4.66a.52.52 0 0 1 .059-.241l.087-.172zm4.039.413v4.424h-3.657v-4.427a.74.74 0 0 0-.021-.177h3.7a.74.74 0 0 0-.021.177zm-9.229-.413l.087.172a.52.52 0 0 1 .059.241v4.66h4.129v-4.66a.52.52 0 0 1 .059-.241l.087-.172zm4.039.413v4.424h-3.657v-4.427a.74.74 0 0 0-.021-.177h3.7a.74.74 0 0 0-.021.177zm-9.229-.413l.087.172a.52.52 0 0 1 .059.241v4.66h4.129v-4.66a.52.52 0 0 1 .059-.241l.087-.172zm4.039.413v4.424h-3.657v-4.427a.74.74 0 0 0-.021-.177h3.7a.74.74 0 0 0-.021.177zm-9.232-.413l.087.172a.52.52 0 0 1 .059.241v4.66h4.129v-4.66a.52.52 0 0 1 .059-.241l.087-.172zm4.039.413v4.424h-3.657v-4.427a.74.74 0 0 0-.021-.177h3.7a.74.74 0 0 0-.021.177zm-9.229-.413l.087.172a.52.52 0 0 1 .059.241v4.66h4.129v-4.66a.52.52 0 0 1 .059-.241l.087-.172zm4.039.413v4.424h-3.649v-4.427a.74.74 0 0 0-.021-.177h3.7a.74.74 0 0 0-.021.177zm-9.229-.413l.087.172a.52.52 0 0 1 .059.241v4.66h4.134v-4.66a.52.52 0 0 1 .059-.241l.087-.172zm4.039.413v4.424h-3.657v-4.427a.74.74 0 0 0-.021-.177h3.7a.74.74 0 0 0-.021.177zm37.484-.413l.087.172a.52.52 0 0 1 .059.241v4.66h4.129v-4.66a.52.52 0 0 1 .059-.241l.087-.172zm4.039.413v4.424h-3.657v-4.427a.74.74 0 0 0-.021-.177h3.7a.74.74 0 0 0-.021.177zm-9.142-.241a.52.52 0 0 1 .059.241v4.66h4.129v-4.66a.52.52 0 0 1 .059-.241l.087-.172h-4.421zm3.973.064a.74.74 0 0 0-.021.177v4.424h-3.657v-4.427a.74.74 0 0 0-.021-.177zm-9.163-.064a.52.52 0 0 1 .059.241v4.66h4.129v-4.66a.52.52 0 0 1 .059-.241l.087-.172h-4.421zm3.973.064a.74.74 0 0 0-.021.177v4.424h-3.657v-4.427a.74.74 0 0 0-.021-.177zm-9.163-.064a.52.52 0 0 1 .059.241v4.66h4.129v-4.66a.52.52 0 0 1 .059-.241l.087-.172h-4.421zm3.973.064a.74.74 0 0 0-.021.177v4.424h-3.657v-4.427c0-.06-.007-.119-.021-.177zm-9.163-.064a.52.52 0 0 1 .059.241v4.66h4.129v-4.66a.52.52 0 0 1 .059-.241l.087-.172h-4.421zm3.973.064a.74.74 0 0 0-.021.177v4.424h-3.657v-4.427a.74.74 0 0 0-.021-.177zm-9.163-.064a.52.52 0 0 1 .059.241v4.66h4.129v-4.66a.52.52 0 0 1 .059-.241l.087-.172h-4.421zm3.973.064a.74.74 0 0 0-.021.177v4.424h-3.657v-4.427a.74.74 0 0 0-.021-.177zm-9.163-.064a.52.52 0 0 1 .059.241v4.66h4.129v-4.66a.52.52 0 0 1 .059-.241l.087-.172h-4.424zm3.973.064a.74.74 0 0 0-.021.177v4.424h-3.657v-4.427a.74.74 0 0 0-.021-.177zm-9.163-.064a.52.52 0 0 1 .059.241v4.66h4.129v-4.66a.52.52 0 0 1 .059-.241l.087-.172h-4.421zm3.973.064a.74.74 0 0 0-.021.177v4.424h-3.652v-4.427a.74.74 0 0 0-.021-.177zm-9.163-.064a.52.52 0 0 1 .059.241v4.66h4.131v-4.66a.52.52 0 0 1 .059-.241l.087-.172h-4.421zm3.973.064a.74.74 0 0 0-.021.177v4.424h-3.657v-4.427a.74.74 0 0 0-.021-.177zm37.55-.064a.52.52 0 0 1 .059.241v4.66h4.129v-4.66a.52.52 0 0 1 .059-.241l.087-.172h-4.421zm3.973.064a.74.74 0 0 0-.021.177v4.424h-3.657v-4.427a.74.74 0 0 0-.021-.177zm-9.163-.064a.52.52 0 0 1 .059.241v4.66h4.129v-4.66a.52.52 0 0 1 .059-.241l.087-.172h-4.421zm3.973.064a.74.74 0 0 0-.021.177v4.424h-3.657v-4.427a.74.74 0 0 0-.021-.177zm-9.163-.064a.52.52 0 0 1 .059.241v4.66h4.129v-4.66a.52.52 0 0 1 .059-.241l.087-.172h-4.421zm3.973.064a.74.74 0 0 0-.021.177v4.424h-3.657v-4.427a.74.74 0 0 0-.021-.177zm-9.163-.064a.52.52 0 0 1 .059.241v4.66h4.129v-4.66a.52.52 0 0 1 .059-.241l.087-.172h-4.421zm3.973.064a.74.74 0 0 0-.021.177v4.424h-3.657v-4.427a.74.74 0 0 0-.021-.177zm-9.163-.064a.52.52 0 0 1 .059.241v4.66h4.129v-4.66a.52.52 0 0 1 .059-.241l.087-.172h-4.421zm3.973.064a.74.74 0 0 0-.021.177v4.424h-3.657v-4.427a.74.74 0 0 0-.021-.177zm-9.163-.064a.52.52 0 0 1 .059.241v4.66h4.129v-4.66a.52.52 0 0 1 .059-.241l.087-.172h-4.421zm3.973.064a.74.74 0 0 0-.021.177v4.424h-3.657v-4.427a.74.74 0 0 0-.021-.177zm-9.163-.064a.52.52 0 0 1 .059.241v4.66h4.129v-4.66a.52.52 0 0 1 .059-.241l.087-.172h-4.427zm3.973.064a.74.74 0 0 0-.021.177v4.424h-3.657v-4.427a.74.74 0 0 0-.021-.177zm-9.163-.064a.52.52 0 0 1 .059.241v4.66h4.129v-4.66a.52.52 0 0 1 .059-.241l.087-.172h-4.421zm3.973.064a.74.74 0 0 0-.021.177v4.424h-3.655v-4.427a.74.74 0 0 0-.021-.177zm-9.163-.064a.52.52 0 0 1 .059.241v4.66h4.128v-4.66a.52.52 0 0 1 .059-.241l.087-.172h-4.421zm3.973.064a.74.74 0 0 0-.021.177v4.424h-3.657v-4.427a.74.74 0 0 0-.021-.177zm46.456 5.544h-1.406a1.3 1.3 0 0 0-1.248-.944h-.767v-4.426c0-.095-.018-.189-.053-.277.275-.161.408-.488.324-.795s-.365-.521-.684-.52H33.946c-.319-.001-.6.212-.684.52s.048.634.324.795a.74.74 0 0 0-.053.277v4.424h-.767a1.3 1.3 0 0 0-1.248.944h-1.524c-.586.001-1.061.476-1.062 1.062v62.284c.001.586.476 1.061 1.062 1.062h55.207c.586-.001 1.061-.476 1.062-1.062V27.367c-.001-.586-.476-1.061-1.062-1.062zm.826 63.346c0 .345-.215.654-.539.774-.092.035-.189.053-.287.052H29.995c-.098.001-.195-.017-.287-.052-.324-.12-.539-.429-.539-.774V27.367c.001-.456.37-.825.826-.826h1.713l.019-.094c.102-.493.536-.848 1.04-.849h1v-4.66a.53.53 0 0 1 .076-.272l.073-.122-.133-.05a.47.47 0 0 1 .162-.913h47.421a.47.47 0 0 1 .162.913l-.133.05.073.122a.53.53 0 0 1 .076.272v4.66h1c.504.001.938.356 1.04.849l.019.094h1.595c.456.001.825.37.826.826zM34.685 20.528l.087.172a.52.52 0 0 1 .059.241v4.66h4.13v-4.66a.52.52 0 0 1 .059-.241l.087-.172zm4.039.413v4.424h-3.657v-4.427a.74.74 0 0 0-.021-.177h3.7a.74.74 0 0 0-.022.177zm1.151-.413l.087.172a.52.52 0 0 1 .059.241v4.66h4.129v-4.66a.52.52 0 0 1 .059-.241l.087-.172zm4.039.413v4.424h-3.653v-4.427a.74.74 0 0 0-.021-.177h3.7a.74.74 0 0 0-.026.177zm1.151-.413l.087.172a.52.52 0 0 1 .059.241v4.66h4.129v-4.66a.52.52 0 0 1 .059-.241l.087-.172zm4.039.413v4.424h-3.657v-4.427a.74.74 0 0 0-.021-.177h3.7a.74.74 0 0 0-.021.177zm1.151-.413l.087.172a.52.52 0 0 1 .059.241v4.66h4.129v-4.66a.52.52 0 0 1 .059-.241l.087-.172zm4.039.413v4.424h-3.657v-4.427a.74.74 0 0 0-.021-.177h3.7a.74.74 0 0 0-.021.177zm1.151-.413l.087.172a.52.52 0 0 1 .059.241v4.66h4.129v-4.66a.52.52 0 0 1 .059-.241l.087-.172zm4.039.413v4.424h-3.657v-4.427a.74.74 0 0 0-.021-.177h3.7a.74.74 0 0 0-.021.177zm1.151-.413l.087.172a.52.52 0 0 1 .059.241v4.66h4.129v-4.66a.52.52 0 0 1 .059-.241l.087-.172zm4.039.413v4.424h-3.657v-4.427a.74.74 0 0 0-.021-.177h3.7a.74.74 0 0 0-.021.177zm1.151-.413l.087.172a.52.52 0 0 1 .059.241v4.66H70.1v-4.66a.52.52 0 0 1 .059-.241l.087-.172zm4.039.413v4.424h-3.657v-4.427a.74.74 0 0 0-.021-.177h3.7a.74.74 0 0 0-.021.177zm1.151-.413l.087.172a.52.52 0 0 1 .059.241v4.66h4.129v-4.66a.52.52 0 0 1 .059-.241l.087-.172zm4.039.413v4.424h-3.657v-4.427a.74.74 0 0 0-.021-.177h3.7a.74.74 0 0 0-.021.177zm1.151-.413l.087.172a.52.52 0 0 1 .059.241v4.66h4.129v-4.66a.52.52 0 0 1 .059-.241l.087-.172zm4.039.413v4.424h-3.657v-4.427a.74.74 0 0 0-.021-.177h3.7a.74.74 0 0 0-.021.177zm-45.562-.413l.087.172a.52.52 0 0 1 .059.241v4.66h4.133v-4.66a.52.52 0 0 1 .059-.241l.087-.172zm4.039.413v4.424h-3.657v-4.427a.74.74 0 0 0-.021-.177h3.7a.74.74 0 0 0-.021.177zm1.151-.413l.087.172a.52.52 0 0 1 .059.241v4.66h4.129v-4.66a.52.52 0 0 1 .059-.241l.087-.172zm4.039.413v4.424h-3.65v-4.427a.74.74 0 0 0-.021-.177h3.7a.74.74 0 0 0-.026.177zm1.151-.413l.087.172a.52.52 0 0 1 .059.241v4.66h4.129v-4.66a.52.52 0 0 1 .059-.241l.087-.172zm4.039.413v4.424h-3.657v-4.427a.74.74 0 0 0-.021-.177h3.7a.74.74 0 0 0-.018.177zm1.151-.413l.087.172a.52.52 0 0 1 .059.241v4.66h4.129v-4.66a.52.52 0 0 1 .059-.241l.087-.172zm4.039.413v4.424h-3.657v-4.427a.74.74 0 0 0-.021-.177h3.7a.74.74 0 0 0-.021.177zm1.151-.413l.087.172a.52.52 0 0 1 .059.241v4.66h4.129v-4.66a.52.52 0 0 1 .059-.241l.087-.172zm4.039.413v4.424h-3.657v-4.427a.74.74 0 0 0-.021-.177h3.7a.74.74 0 0 0-.018.177zm1.151-.413l.087.172a.52.52 0 0 1 .059.241v4.66h4.129v-4.66a.52.52 0 0 1 .059-.241l.087-.172zm4.039.413v4.424h-3.657v-4.427a.74.74 0 0 0-.021-.177h3.7a.74.74 0 0 0-.021.177zm1.151-.413l.087.172a.52.52 0 0 1 .059.241v4.66h4.129v-4.66a.52.52 0 0 1 .059-.241l.087-.172zm4.039.413v4.424h-3.657v-4.427a.74.74 0 0 0-.021-.177h3.7a.74.74 0 0 0-.021.177zm1.151-.413l.087.172a.52.52 0 0 1 .059.241v4.66h4.129v-4.66a.52.52 0 0 1 .059-.241l.087-.172zm4.039.413v4.424h-3.657v-4.427a.74.74 0 0 0-.021-.177h3.7a.74.74 0 0 0-.021.177zm1.151-.413l.087.172a.52.52 0 0 1 .059.241v4.66h4.129v-4.66a.52.52 0 0 1 .059-.241l.087-.172zm4.039.413v4.424h-3.657v-4.427a.74.74 0 0 0-.021-.177h3.7a.74.74 0 0 0-.021.177zm-45.562-.413l.087.172a.52.52 0 0 1 .059.241v4.66h4.136v-4.66a.52.52 0 0 1 .059-.241l.087-.172zm4.039.413v4.424h-3.657v-4.427a.74.74 0 0 0-.021-.177h3.7a.74.74 0 0 0-.021.177zm1.151-.413l.087.172a.52.52 0 0 1 .059.241v4.66h4.129v-4.66a.52.52 0 0 1 .059-.241l.087-.172zm4.039.413v4.424h-3.647v-4.427a.74.74 0 0 0-.021-.177h3.7a.74.74 0 0 0-.021.177zm1.151-.413l.087.172a.52.52 0 0 1 .059.241v4.66h4.129v-4.66a.52.52 0 0 1 .059-.241l.087-.172zm4.039.413v4.424h-3.657v-4.427a.74.74 0 0 0-.021-.177h3.7a.74.74 0 0 0-.021.177zm1.151-.413l.087.172a.52.52 0 0 1 .059.241v4.66h4.129v-4.66a.52.52 0 0 1 .059-.241l.087-.172zm4.039.413v4.424h-3.657v-4.427a.74.74 0 0 0-.021-.177h3.7a.74.74 0 0 0-.021.177zm1.151-.413l.087.172a.52.52 0 0 1 .059.241v4.66h4.129v-4.66a.52.52 0 0 1 .059-.241l.087-.172zm4.039.413v4.424h-3.657v-4.427a.74.74 0 0 0-.021-.177h3.7a.74.74 0 0 0-.015.177zm1.151-.413l.087.172a.52.52 0 0 1 .059.241v4.66h4.129v-4.66a.52.52 0 0 1 .059-.241l.087-.172zm4.039.413v4.424h-3.657v-4.427c0-.06-.007-.119-.021-.177h3.7a.74.74 0 0 0-.021.177zm1.151-.413l.087.172a.52.52 0 0 1 .059.241v4.66h4.129v-4.66a.52.52 0 0 1 .059-.241l.087-.172zm4.039.413v4.424h-3.657v-4.427a.74.74 0 0 0-.021-.177h3.7a.74.74 0 0 0-.021.177zm1.151-.413l.087.172a.52.52 0 0 1 .059.241v4.66h4.129v-4.66a.52.52 0 0 1 .059-.241l.087-.172zm4.039.413v4.424h-3.657v-4.427a.74.74 0 0 0-.021-.177h3.7a.74.74 0 0 0-.021.177zm1.151-.413l.087.172a.52.52 0 0 1 .059.241v4.66h4.129v-4.66a.52.52 0 0 1 .059-.241l.087-.172zm4.039.413v4.424h-3.657v-4.427c0-.06-.007-.119-.021-.177h3.7a.74.74 0 0 0-.021.177zm-45.562-.413l.087.172a.52.52 0 0 1 .059.241v4.66h4.139v-4.66a.52.52 0 0 1 .059-.241l.087-.172zm4.039.413v4.424h-3.657v-4.427a.74.74 0 0 0-.021-.177h3.7a.74.74 0 0 0-.021.177zm1.151-.413l.087.172a.52.52 0 0 1 .059.241v4.66h4.129v-4.66a.52.52 0 0 1 .059-.241l.087-.172zm4.039.413v4.424h-3.644v-4.427a.74.74 0 0 0-.021-.177h3.7a.74.74 0 0 0-.021.177zm1.151-.413l.087.172a.52.52 0 0 1 .059.241v4.66h4.129v-4.66a.52.52 0 0 1 .059-.241l.087-.172zm4.039.413v4.424h-3.657v-4.427a.74.74 0 0 0-.021-.177h3.7a.74.74 0 0 0-.021.177zm1.151-.413l.087.172a.52.52 0 0 1 .059.241v4.66h4.129v-4.66a.52.52 0 0 1 .059-.241l.087-.172zm4.039.413v4.424h-3.657v-4.427a.74.74 0 0 0-.021-.177h3.7a.74.74 0 0 0-.021.177zm1.151-.413l.087.172a.52.52 0 0 1 .059.241v4.66h4.129v-4.66a.52.52 0 0 1 .059-.241l.087-.172zm4.039.413v4.424h-3.657v-4.427a.74.74 0 0 0-.021-.177h3.7a.74.74 0 0 0-.021.177zm1.151-.413l.087.172a.52.52 0 0 1 .059.241v4.66h4.129v-4.66a.52.52 0 0 1 .059-.241l.087-.172zm4.039.413v4.424h-3.657v-4.427a.74.74 0 0 0-.021-.177h3.7a.74.74 0 0 0-.021.177zm1.151-.413l.087.172a.52.52 0 0 1 .059.241v4.66h4.129v-4.66a.52.52 0 0 1 .059-.241l.087-.172zm4.039.413v4.424h-3.657v-4.427a.74.74 0 0 0-.021-.177h3.7a.74.74 0 0 0-.021.177zm1.151-.413l.087.172a.52.52 0 0 1 .059.241v4.66h4.129v-4.66a.52.52 0 0 1 .059-.241l.087-.172zm4.039.413v4.424h-3.657v-4.427a.74.74 0 0 0-.021-.177h3.7a.74.74 0 0 0-.021.177zm1.151-.413l.087.172a.52.52 0 0 1 .059.241v4.66h4.129v-4.66a.52.52 0 0 1 .059-.241l.087-.172zm4.039.413v4.424h-3.657v-4.427a.74.74 0 0 0-.021-.177h3.7a.74.74 0 0 0-.021.177z" fill="#3f3d56"/><g fill="#5b0791"><use xlink:href="#B"/><use xlink:href="#B" x="13.237"/><use xlink:href="#B" x="26.475"/><use xlink:href="#B" y="15.453"/><use xlink:href="#B" x="13.237" y="15.453"/><use xlink:href="#B" x="26.475" y="15.453"/><use xlink:href="#C"/><use xlink:href="#C" x="13.237"/><use xlink:href="#C" x="26.475"/></g><g fill="#3f3d56"><use xlink:href="#D"/><use xlink:href="#E"/><use xlink:href="#F"/><use xlink:href="#D" y="15.453"/><use xlink:href="#E" y="15.453"/><use xlink:href="#F" y="15.453"/><use xlink:href="#D" y="30.906"/><use xlink:href="#E" y="30.906"/><use xlink:href="#F" y="30.906"/><path d="M119.024 90.89H.118c-.065 0-.118-.053-.118-.118s.053-.118.118-.118h118.906c.042 0 .081.022.102.059s.021.081 0 .118-.06.059-.102.059z"/><path d="M63.555 79.472c.007-.559-.441-1.019-1-1.027h-4.954v12.209h5.957z"/><path d="M57.716 90.536h-6.193v-11.03a1.12 1.12 0 0 1 1.121-1.121h5.072zm-5.957-.236h5.721V78.622h-4.836c-.489.001-.884.396-.885.885z"/><circle cx="52.29" cy="84.933" r=".354"/></g><defs ><path id="B" d="M48.71 41.169h-8.7a.69.69 0 0 1-.691-.691v-4.634a.69.69 0 0 1 .691-.691h8.7a.69.69 0 0 1 .691.691v4.634a.69.69 0 0 1-.691.691z"/><path id="C" d="M48.71 72.075h-8.7a.69.69 0 0 1-.691-.691V66.75a.69.69 0 0 1 .691-.691h8.7a.69.69 0 0 1 .691.691v4.634a.69.69 0 0 1-.691.691z"/><path id="D" d="M47.301 41.764H37.224a.92.92 0 0 1-.918-.919v-5.364a.92.92 0 0 1 .918-.919h10.077a.92.92 0 0 1 .919.919v5.368a.92.92 0 0 1-.919.915zm-10.077-6.969c-.377 0-.683.306-.683.683v5.368c0 .377.306.683.683.683h10.077c.377 0 .683-.306.683-.683v-5.365c0-.377-.306-.683-.683-.683z"/><path id="E" d="M62.636 41.764H52.559a.92.92 0 0 1-.919-.919v-5.364a.92.92 0 0 1 .919-.919h10.077a.92.92 0 0 1 .919.919v5.368a.92.92 0 0 1-.919.915zm-10.077-6.969c-.377 0-.683.306-.683.683v5.368c0 .377.306.683.683.683h10.077c.377 0 .683-.306.683-.683v-5.365c0-.377-.306-.683-.683-.683z"/><path id="F" d="M77.971 41.764H67.894a.92.92 0 0 1-.919-.919v-5.364a.92.92 0 0 1 .919-.919h10.077a.92.92 0 0 1 .918.919v5.368a.92.92 0 0 1-.918.915zm-10.077-6.969c-.377 0-.683.306-.683.683v5.368c0 .377.306.683.683.683h10.077c.377 0 .683-.306.683-.683v-5.365c0-.377-.306-.683-.683-.683z"/></defs></svg>