<svg xmlns="http://www.w3.org/2000/svg" width="133.3" height="87.014" xmlns:v="https://vecta.io/nano"><path d="M109.79 45.432c-.041 21.558-16.523 39.523-37.997 41.418S30.945 73.943 27.13 52.725s9.186-41.841 29.975-47.547 42.497 5.392 50.047 25.584l.266.736h0q.577 1.629 1.016 3.318a41.95 41.95 0 0 1 1.356 10.615z" fill="#005ef5"/><path d="M63.262 17.14a14.07 14.07 0 0 0-12.354-.505c-2.029.753-3.566 2.444-4.122 4.535 2.33-1.375 5.347.8 5.947 4.284l-.14.039c-.342 2.329.295 4.696 1.759 6.54a4.6 4.6 0 0 1 2.208-3.275 8.75 8.75 0 0 0 2.886-2.278c.91-1.347 1.141-3.316 1.5-5.113s1.051-3.727 2.316-4.227zM50.214 37.688a14.85 14.85 0 0 1-2.281 2.335 5.25 5.25 0 0 0-1.659 3.1c-.1.843.054 1.7.033 2.554s-.305 1.813-.885 2.025c-.916.331-1.615-1.37-2.556-1.489-.748-.093-1.421 1.083-1.2 2.1s1.235 1.473 1.82.806c.529.888.156 2.5-.638 2.77l-.249 1.675c-2.131-1.359-4.064-3.005-5.746-4.891a14.85 14.85 0 0 1-3.383-8c-.221-2.365.107-5.07-.979-6.89-.792-1.243-2.242-1.904-3.7-1.687l-.736.075a41.47 41.47 0 0 1 3-6.873 2.95 2.95 0 0 0 .753-.468c1.249-1.06 1.8-3.206 2.817-4.69q.1-.143.2-.28c1.018-1.192 2.311-2.119 3.767-2.7 2.971-1.442 6.028-2.9 9.164-2.7l-.892.086q-1.562 4.376-3.127 8.751-.238.671-.48 1.344c-.714 1.671-1.091 3.465-1.111 5.282-.053 1.018.378 2.002 1.163 2.652.678.349 1.419-.079 2.074-.5l.83-.534c.995-.641 2.1-1.3 3.148-.869 1.097.656 1.78 1.83 1.808 3.108a6.21 6.21 0 0 1-.955 3.908zm5.921 19.914l-8.717-5.367.049-.127c-1.807.688-2.557 3.9-2.258 6.526s1.311 4.974 1.822 7.533c.69 3.502.429 7.125-.754 10.492a85.88 85.88 0 0 0 10.094-13.908 7.44 7.44 0 0 0 .913-2.024 3.22 3.22 0 0 0-.214-2.291 2.55 2.55 0 0 0-.936-.832zM44.667 25.054c-.341.733-.394 1.567-.147 2.337a2.59 2.59 0 0 0 1.447 1.34l1.606.8c.482.334 1.083.448 1.654.314.757-.478 1.149-1.366.994-2.248a4 4 0 0 0-1.359-2.313l-2.489-2.5-.468.573a6.25 6.25 0 0 0-1.238 1.697zm56.517 10.873l2.167.51c-.126 2.44-1.335 4.7-2.957 5.515a5.52 5.52 0 0 0-1.988 1.1 6.05 6.05 0 0 0-1 2.337l-1.237 4.5c-.443 1.617-1.011 3.413-2.162 4-.988.5-2.118-.112-2.877-1.139a13.71 13.71 0 0 1-1.673-3.756c.093 1.344-.521 2.639-1.619 3.418a2.12 2.12 0 0 1-2.8-1.09c-.466-.818-.659-1.9-1.116-2.726s-1.414-1.3-1.913-.527c-.243.63-.395 1.293-.45 1.966-.168.894-.885 1.584-1.785 1.717-.816-.019-1.589-.371-2.137-.976a9.68 9.68 0 0 1-2.654-5.352c-.202-.968-.176-1.97.075-2.926.287-.906.979-1.605 1.666-1.433.452-.955-.44-2.223-1.244-2.111s-1.438.976-2.1 1.64-1.582 1.146-2.246.487a.91.91 0 0 1-.853.965h-.072a3.3 3.3 0 0 1-1.2-.638c-1.521-.948-3.453-.319-4.534 1.475.676-2.875 1.666-6.174 3.742-6.85.848-.277 1.773-.049 2.575-.529 1.419-.85 1.706-4.063.48-5.389a5.17 5.17 0 0 1-.536 3.574c-.338.387-.894.499-1.356.271a1.13 1.13 0 0 1-.61-1.24.85.85 0 0 1-1.58.336 3.05 3.05 0 0 1-.091-2.57c.322-.726.783-1.381 1.358-1.929 1.016-1.205 2.198-2.259 3.511-3.131a3.98 3.98 0 0 1 4.052-.256c.678.391 1.275 1.044 1.966 1.389.328.204.724.269 1.101.181s.702-.322.906-.651h0l.023-.038c.515-.9.273-2.246.464-3.376.343-2 2.339-2.931 3.446-1.612-.827-.212-1.682.767-1.785 1.953-.138 1.089.369 2.159 1.3 2.742 1.347.6 2.666-.9 3.684-2.293q1.594-2.181 3.192-4.359c.17-.247.361-.479.571-.694.693-.675 1.79-.697 2.509-.051 1.076.878 1.582 2.68 2.465 3.919 1.281 1.8 3.2 2.239 4.984 2.589q2 .388 3.994.781a41.37 41.37 0 0 1 2.318 5.119 14.03 14.03 0 0 0-5.974 5.158zm4.301 28.034a41.77 41.77 0 0 1-3.472 5.809c-.839-.359-1.74.282-2.526.883-.82.629-1.806 1.242-2.647.669-.86-.587-1.137-2.23-.864-3.532a9.41 9.41 0 0 1 1.612-3.318c.559-1.049 1.396-1.926 2.418-2.533.541-.194 1.14-.131 1.629.171a1.88 1.88 0 0 1 .88 1.381l.69-.023c-.387-.531-.184-1.631.336-1.824.6-.226 1.118.6 1.473 1.323l.471.994zM79.07 54.12c-1.482.093-2.657-1.732-3.437-3.527s-1.492-3.848-2.83-4.762c-.772-.411-1.604-.697-2.465-.847a3.05 3.05 0 0 1-2.093-1.843l-.94-.38c-1.315.658-2.52 1.517-3.57 2.546a7.98 7.98 0 0 0-2.127 4.651c-.18 1.882.484 3.981 1.723 4.688.979.559 2.12.207 3.112.718 1.239.639 1.975 2.5 2.254 4.328s.208 3.738.407 5.591.748 3.782 1.885 4.732c1.422 1.189 3.509.2 4.148-1.963.313-1.061.3-2.259.536-3.361.412-1.94 1.525-3.38 2.407-4.972s1.577-3.752.99-5.599zM64.423 35.053a3.94 3.94 0 0 1 .386.41c.25.432.241.967-.024 1.39.361-.021.697-.192.926-.471a6 6 0 0 0 .71-1 1.09 1.09 0 0 0 .209-.873c-.07-.2-.236-.285-.352-.435a2.96 2.96 0 0 1-.325-.944 1.7 1.7 0 0 0-1.233-1.3l.074.014a.7.7 0 0 0-.33.751c.045.291.232.532.213.829-.027.426-.453.627-.479 1.053a.81.81 0 0 0 .225.576z" fill="#49a73d"/><path d="M61.883 27.807h.007c.046-.042.088-.087.127-.135z" fill="#6c63ff"/><path d="M62.327 29.808c.362-.319.516-.814.4-1.282-.108-.485-.489-.811-.84-.721-.208.211-.511.3-.8.234-.217-.056-.456-.2-.645-.036a.97.97 0 0 0-.22.429l-.209.643c-.033.076-.042.161-.025.243.027.067.087.114.158.126l1.256.37a1.08 1.08 0 0 0 .925-.006zm31.604 27.634l-.581-.951a3.17 3.17 0 0 0-.765-.96.68.68 0 0 0-.955.084h0l-.01.012.024.181a4.09 4.09 0 0 1 1.02 1.99c.044.324.029.659.067.984.009.304.138.591.359.8.3.2.662-.1.879-.463a1.59 1.59 0 0 0 .247-1.014 1.78 1.78 0 0 0-.285-.663zm3.036.415c.037-.297.013-.598-.071-.885a1.94 1.94 0 0 1 .3-1.1 3.58 3.58 0 0 0 .461-1.009.85.85 0 0 0-.022-.494c-.064-.144-.219-.209-.308-.1l.19.123a1.74 1.74 0 0 0-.773.037c-.291.111-.51.358-.586.66a4.08 4.08 0 0 1-.154.685c-.114.233-.333.311-.472.516-.191.369-.184.809.019 1.172a1.37 1.37 0 0 0 .774.609c.233.086.533.086.642-.214zm5.406 1.628a2.66 2.66 0 0 0 .335.615c.259.261.611.1.924.037a1.6 1.6 0 0 1 1.521.61 3.87 3.87 0 0 0-2.226-2.777 6.54 6.54 0 0 0-2.289-.358l-.133.034c.338.986 1.402.964 1.868 1.839z" fill="#49a73d"/><path d="M79.476 61.502h0l.039-.074z" fill="#6c63ff"/><g fill="#49a73d"><path d="M78.656 63.09a7.26 7.26 0 0 0-.46 1.011 8.8 8.8 0 0 0-.333 1.729c-.042.333-.054.759.154.921a.3.3 0 0 0 .387-.053 1.53 1.53 0 0 0 .281-.418 9.62 9.62 0 0 0 .948-2.251 3.92 3.92 0 0 0-.155-2.524zm-7.912-42.293c.265.261.661.34 1.006.2.349-.153.669-.364.947-.625a2.23 2.23 0 0 0 .574-.626 1.27 1.27 0 0 0 .117-.967c-.131-.313-.414-.537-.749-.592l-1.394-.413.336-.3c-.346-.186-.728.159-.945.585a3.15 3.15 0 0 0-.287.883c-.149.649-.005 1.33.394 1.863zm8.204-2.754a.77.77 0 0 0 1.046.085 1.17 1.17 0 0 0 .463-.833c.033-.366-.148-.772-.406-.8l.059-.342c-.5-.09-1.109-.108-1.376.5a1.42 1.42 0 0 0 .214 1.39z"/><ellipse cx="45.145" cy="38.5" rx="3.102" ry="4.159"/></g><path d="M6.223 81.512c-2.967 0-4.9-.737-5.75-2.2-1.684-2.891 1.136-7.962 8.382-15.075l.609.62c-6.73 6.607-9.657 11.585-8.24 14.018.9 1.539 3.565 2.09 7.718 1.594a78.23 78.23 0 0 0 16.239-4.36c13.7-4.943 30.88-13.281 48.385-23.478S106.8 31.6 117.856 22.124c2.124-1.82 4.051-3.572 5.728-5.2a57.04 57.04 0 0 0 6.075-6.77c2.48-3.367 3.317-5.961 2.421-7.5-1.5-2.57-7.787-2.329-17.712.681l-.252-.832c10.648-3.229 16.945-3.326 18.715-.287 1.1 1.888.268 4.732-2.472 8.452a57.9 57.9 0 0 1-6.168 6.878c-1.69 1.646-3.632 3.41-5.769 5.242-11.1 9.509-26.87 20.376-44.418 30.6S39.221 71.972 25.477 76.932c-5.303 2.055-10.811 3.532-16.431 4.405a23.94 23.94 0 0 1-2.823.175z" fill="#ad2146"/></svg>