<svg xmlns="http://www.w3.org/2000/svg" width="170.541" height="90.731" xmlns:v="https://vecta.io/nano"><style><![CDATA[.B{fill:#5b0791}.C{fill:#2f2e41}]]></style><path d="M0 72.401l118.437-70.18 3.562 6.011L3.562 78.412zm25.742 5.884l118.437-70.18 3.562 6.011-118.437 70.18zm22.8 6.436l118.437-70.18 3.562 6.011-118.437 70.18z" fill="#f2f2f2"/><circle cx="77.144" cy="47.408" r="37.081" fill="#fff"/><path d="M39.788 47.408c0-20.631 16.725-37.357 37.356-37.357s37.357 16.724 37.358 37.356-16.724 37.357-37.355 37.358c-20.623-.023-37.335-16.734-37.359-37.357zm.552 0c-.001 20.327 16.478 36.806 36.805 36.807s36.806-16.478 36.807-36.805-16.478-36.806-36.805-36.807c-20.318.022-36.784 16.487-36.807 36.805zm30.195.159h0a6.61 6.61 0 1 1 1.936 4.674 6.61 6.61 0 0 1-1.936-4.674zm6.61-6.288a6.3 6.3 0 0 0-6.292 6.288h0a6.29 6.29 0 0 0 6.288 6.288 6.29 6.29 0 0 0 6.288-6.288 6.29 6.29 0 0 0-6.288-6.288z" fill="#3f3d56"/><path d="M64.569 47.569h0c0-5.086 3.064-9.671 7.763-11.618s10.108-.871 13.704 2.726 4.672 9.005 2.726 13.704-6.532 7.763-11.618 7.763c-6.945 0-12.575-5.63-12.575-12.575zm12.575-12.253c-4.956-.002-9.425 2.983-11.323 7.561s-.85 9.849 2.654 13.355 8.775 4.554 13.354 2.658 7.565-6.364 7.565-11.321c0-6.766-5.483-12.251-12.249-12.253zM52.639 47.569a24.51 24.51 0 0 1 24.506-24.506 24.51 24.51 0 0 1 24.506 24.506 24.51 24.51 0 0 1-24.506 24.506 24.51 24.51 0 0 1-24.506-24.506zm24.506-24.183c-9.781 0-18.599 5.892-22.342 14.929s-1.674 19.438 5.242 26.354 17.318 8.985 26.354 5.242 14.929-12.561 14.929-22.342c0-13.356-10.827-24.183-24.183-24.183z" fill="#ccc"/><g class="B"><circle cx="77.144" cy="47.408" r="3.063"/><circle cx="69.245" cy="56.275" r="3.063"/><circle cx="100.065" cy="54.985" r="3.063"/></g><g class="C"><circle cx="77.145" cy="47.408" r="1.451"/><circle cx="100.065" cy="54.986" r="1.451"/><circle cx="69.245" cy="56.437" r="1.451"/></g><circle cx="9.431" cy="31.124" r="1.451" class="B"/><g class="C"><path d="M77.064 31.205H13.381v-.323h64.006v16.606h-.323z"/><path d="M5.24 31.124c0-2.315 1.877-4.192 4.192-4.192s4.192 1.877 4.192 4.192-1.877 4.192-4.192 4.192a4.19 4.19 0 0 1-4.192-4.192zm4.192-3.869a3.87 3.87 0 0 0-3.869 3.869 3.87 3.87 0 0 0 3.869 3.869 3.87 3.87 0 0 0 2.735-6.605 3.87 3.87 0 0 0-2.736-1.133z"/></g><circle cx="19.104" cy="72.881" r="1.451" class="B"/><path d="M14.913 72.881h0c0-2.315 1.877-4.192 4.192-4.192s4.192 1.877 4.192 4.192-1.877 4.192-4.192 4.192a4.19 4.19 0 0 1-4.192-4.192zm4.192-3.869a3.87 3.87 0 0 0-3.869 3.869 3.87 3.87 0 0 0 3.869 3.869 3.87 3.87 0 0 0 3.869-3.869 3.87 3.87 0 0 0-3.869-3.869z" class="C"/><circle cx="145.046" cy="37.896" r="1.451" class="B"/><g class="C"><path d="M140.855 37.896c0-2.315 1.877-4.192 4.192-4.192s4.192 1.877 4.192 4.192-1.877 4.192-4.192 4.192a4.19 4.19 0 0 1-4.192-4.192zm4.192-3.869c-2.136.003-3.866 1.733-3.869 3.869h0a3.87 3.87 0 0 0 3.869 3.869 3.87 3.87 0 0 0 3.869-3.869 3.87 3.87 0 0 0-3.869-3.869z"/><path d="M99.907 38.382l41.109-.647.005.322-40.792.643v16.286h-.322zM23.138 72.721h45.949V56.437h.322v16.606H23.138z"/></g><path d="M.564 38.702h17.735v1.129H.564zm0 3.224h17.735v1.129H.564zm0 3.225h17.735v1.129H.564zm9.673 35.308h17.735v1.129H10.237zm0 3.224h17.735v1.129H10.237zm0 3.225h17.735v1.129H10.237zm125.942-41.273h17.735v1.129h-17.735zm0 3.224h17.735v1.129h-17.735zm0 3.225h17.735v1.129h-17.735z" fill="#ccc"/><circle cx="90.705" cy="70.567" r="2.722" class="B"/><path d="M90.706 78.432c-4.344 0-7.865-3.521-7.865-7.865s3.521-7.865 7.865-7.865 7.865 3.521 7.865 7.865c0 2.086-.829 4.086-2.304 5.561s-3.475 2.304-5.561 2.304zm0-15.124a7.26 7.26 0 0 0-5.134 12.394 7.26 7.26 0 0 0 12.394-5.134 7.26 7.26 0 0 0-7.26-7.26z" class="C"/><circle cx="34.581" cy="14.662" r="1.807" class="B"/><path d="M34.581 19.88a5.22 5.22 0 1 1 0-10.442 5.22 5.22 0 0 1 3.692 8.913 5.22 5.22 0 0 1-3.692 1.529zm0-10.041a4.82 4.82 0 0 0 0 9.64 4.82 4.82 0 0 0 4.82-4.82 4.82 4.82 0 0 0-4.82-4.816z" class="C"/><circle cx="75.794" cy="9.53" r="3.299" class="B"/><path d="M75.794 19.06a9.53 9.53 0 0 1-6.739-16.269A9.53 9.53 0 0 1 85.324 9.53a9.53 9.53 0 0 1-9.53 9.53zm0-18.327a8.8 8.8 0 0 0-6.223 15.023 8.8 8.8 0 0 0 15.023-6.223 8.8 8.8 0 0 0-8.8-8.8z" class="C"/><circle cx="128.881" cy="62.617" r="3.299" class="B"/><path d="M128.881 72.147a9.53 9.53 0 0 1-6.739-16.269 9.53 9.53 0 0 1 16.269 6.739 9.53 9.53 0 0 1-9.53 9.53zm0-18.327a8.8 8.8 0 0 0-6.223 15.023 8.8 8.8 0 0 0 15.023-6.223 8.8 8.8 0 0 0-8.8-8.8z" class="C"/></svg>