<svg xmlns="http://www.w3.org/2000/svg" xmlns:xlink="http://www.w3.org/1999/xlink" width="119.432" height="82.005" xmlns:v="https://vecta.io/nano"><g fill="#3f3d56"><path d="M117.763 0H1.669A1.67 1.67 0 0 0 0 1.669v78.668a1.67 1.67 0 0 0 1.669 1.669h116.094a1.67 1.67 0 0 0 1.669-1.669V1.669A1.67 1.67 0 0 0 117.763 0zm1.192 80.337a1.19 1.19 0 0 1-1.192 1.192H1.669a1.19 1.19 0 0 1-1.192-1.192V1.669A1.19 1.19 0 0 1 1.669.477h116.094a1.19 1.19 0 0 1 1.192 1.192z"/><path d="M.238 6.685h118.955v.477H.238z"/><circle cx="4.291" cy="3.575" r="1.43"/><circle cx="8.403" cy="3.575" r="1.43"/><circle cx="12.515" cy="3.575" r="1.43"/></g><path d="M29.29 17.76H9.266a1.67 1.67 0 0 1-1.628-1.668 1.67 1.67 0 0 1 1.628-1.668h20.025a1.67 1.67 0 0 1 1.628 1.668 1.67 1.67 0 0 1-1.628 1.668zm27.415 8.105H9.266a1.67 1.67 0 0 1-1.628-1.668 1.67 1.67 0 0 1 1.628-1.668h47.439a1.67 1.67 0 0 1 1.628 1.668 1.67 1.67 0 0 1-1.628 1.668z" fill="#afabb9"/><path d="M72.015 29.085c-4.554 6.64-5.057 15.256-1.304 22.381S81.852 63.05 89.904 63.05V44.115z" fill="#5b0791"/><path d="M89.904 19.667a21.67 21.67 0 0 0-17.89 9.422l17.89 15.027z" fill="#dee2e6"/><path d="M89.903 63.291h-.238V19.428h.238c7.871-.053 15.166 4.115 19.117 10.923s3.951 15.21 0 22.017-11.246 10.976-19.117 10.923zm.238-43.385v42.907c11.849 0 21.455-9.606 21.455-21.454s-9.606-21.454-21.455-21.454z" fill="#3f3d56"/><path d="M23.092 72.231h-4.048c-.592-.001-1.072-.481-1.073-1.073v-11.68c.001-.592.481-1.072 1.073-1.073h4.053c.592.001 1.072.481 1.073 1.073v11.681c-.001.285-.114.558-.317.76s-.476.314-.761.312z" fill="#dee2e6"/><path d="M35.011 72.231h-4.048c-.592-.001-1.072-.481-1.073-1.073V53.995c.001-.592.481-1.072 1.073-1.073h4.052c.592.001 1.072.481 1.073 1.073v17.164c-.001.285-.114.558-.316.759s-.476.314-.761.313z" fill="#ad2146"/><path d="M46.931 72.231h-4.048c-.592-.001-1.072-.481-1.073-1.073V49.227c.001-.592.481-1.072 1.073-1.073h4.053c.592.001 1.072.481 1.073 1.073v21.932c-.001.285-.114.558-.317.76s-.476.314-.761.312z" fill="#5b0791"/><g fill="#3f3d56"><path d="M23.093 72.349H19.04c-.658-.001-1.191-.534-1.192-1.192V44.935c.001-.658.534-1.191 1.192-1.192h4.053c.658.001 1.191.534 1.192 1.192v26.223c-.001.658-.534 1.19-1.192 1.191zm-4.053-28.13c-.395.001-.714.32-.715.715v26.223c.001.395.32.714.715.715h4.053c.395-.001.714-.32.715-.715V44.935c-.001-.395-.32-.714-.715-.715z"/><use xlink:href="#B"/><use xlink:href="#B" x="11.918"/></g><defs ><path id="B" d="M35.012 72.349h-4.053c-.658-.001-1.191-.534-1.192-1.192V44.935c.001-.658.534-1.191 1.192-1.192h4.053c.658.001 1.191.534 1.192 1.192v26.223c-.001.658-.534 1.19-1.192 1.191zm-4.053-28.13c-.395.001-.714.32-.715.715v26.223c.001.395.32.714.715.715h4.053c.395-.001.714-.32.715-.715V44.935c-.001-.395-.32-.714-.715-.715z"/></defs></svg>