<?xml version="1.0" standalone="no"?>
<!DOCTYPE svg PUBLIC "-//W3C//DTD SVG 20010904//EN"
 "http://www.w3.org/TR/2001/REC-SVG-20010904/DTD/svg10.dtd">
<svg version="1.0" xmlns="http://www.w3.org/2000/svg"
 width="215.000000pt" height="215.000000pt" viewBox="0 0 215.000000 215.000000"
 preserveAspectRatio="xMidYMid meet">
<metadata>
Created by potrace 1.11, written by Peter Selinger 2001-2013
</metadata>
<g transform="translate(0.000000,215.000000) scale(0.100000,-0.100000)"
fill="#000000" stroke="none">
<path d="M436 1536 c-349 -348 -436 -440 -436 -460 0 -21 86 -112 430 -456
l431 -430 209 0 c116 0 210 2 210 4 0 2 -191 195 -425 428 -360 359 -425 429
-425 453 0 24 65 93 420 448 231 231 425 426 431 433 10 12 -21 14 -199 14
l-210 0 -436 -434z"/>
<path d="M1082 1508 c-354 -353 -427 -434 -411 -453 31 -36 790 -792 806 -802
12 -8 30 -12 40 -9 10 3 155 143 323 311 l305 305 1 90 c1 74 -2 90 -15 94 -9
2 -109 4 -223 4 l-208 -1 -24 -53 c-34 -75 -88 -109 -171 -109 -50 0 -70 5
-102 27 -63 42 -88 90 -87 169 0 57 4 70 30 103 16 20 45 47 64 59 48 30 131
29 186 -2 42 -23 94 -91 94 -122 0 -15 20 -17 225 -17 124 0 226 3 227 7 0 3
2 45 3 93 l1 87 -306 306 c-202 202 -314 307 -331 310 -22 4 -75 -45 -427
-397z"/>
</g>
</svg>
