<svg xmlns="http://www.w3.org/2000/svg" viewBox="0 0 280.3 206.6"><g data-name="Group 1572" transform="translate(-642 -314.5)"><path data-name="Path 22058" d="M61.8 433.3c4.5 17.2 13.9 32 28.7 39.2 30.8 15 100.4 7.2 152.3-1.6a122.3 122.3 0 0 0 67.6-35Z" transform="translate(583.2 -19.5)" fill="#5b0791" opacity=".1"/><path data-name="Path 22059" d="M354.9 63h-28.5a2.2 2.2 0 1 1 0-4.5h5a2.2 2.2 0 1 1 0-4.5h-3.6a2.2 2.2 0 1 1 0-4.4h14.9a42.6 42.6 0 0 0-11.6-2.9c-40.5-4.7-55-1.6-60.1 1.6a60 60 0 0 1-20.8 8.3c-25 4.6-71.8 10.3-114.2-1.8-21-6-36.7 4.1-46.1 21h270a36.6 36.6 0 0 0-3.4-13.4 2.6 2.6 0 0 1-1.6.6Z" transform="translate(562.3 270.2)" fill="#5b0791" opacity=".1"/><path data-name="Path 22060" d="M50.6 293.2a102.8 102.8 0 0 0 1 30l250.1 8.2a106 106 0 0 0 17.4-24Zm98.9 21.3h-5a2.2 2.2 0 1 1 0 4.5h-28.4a2.2 2.2 0 1 1 0-4.5h5a2.2 2.2 0 1 1 0-4.4h-3.6a2.2 2.2 0 1 1 0-4.5H146a2.2 2.2 0 1 1 0 4.5h3.5a2.2 2.2 0 1 1 0 4.4Z" transform="translate(592 84.9)" fill="#5b0791" opacity=".1"/><path data-name="Path 22061" d="m332 168.5-273 6a90.6 90.6 0 0 0-6.5 25.5h274.7a96.9 96.9 0 0 0 4-16.3 69.6 69.6 0 0 0 .8-15.2Zm-224 19.7h-5a2.2 2.2 0 1 1 0 4.4H74.5a2.2 2.2 0 1 1 0-4.4h5a2.2 2.2 0 1 1 0-4.5H76a2.2 2.2 0 1 1 0-4.4h28.4a2.2 2.2 0 1 1 0 4.4h3.5a2.2 2.2 0 1 1 0 4.5Z" transform="translate(590.1 177.7)" fill="#5b0791" opacity=".1"/><ellipse data-name="Ellipse 488" cx="114.2" cy="10.5" rx="114.2" ry="10.5" transform="translate(667 493)" fill="#5b0791" opacity=".1"/><path data-name="Path 22089" d="m889 495.2-.7 3.6a9 9 0 0 1 .8-3.6Z" transform="translate(-32.1 -65.6)" opacity=".1"/><ellipse data-name="Ellipse 491" cx="2.3" cy="1.6" rx="2.3" ry="1.6" transform="translate(847.2 421.1)" fill="#575a89"/><path data-name="Path 22110" d="M821.5 113.4s-21.6-1.3-19 13.8a3.7 3.7 0 0 0 1.9 3.9s0-1.1 2.2-.7a10 10 0 0 0 2.3 0 4.9 4.9 0 0 0 2.9-1.1s6-2.5 8.4-12.4c0 0 1.7-2.2 1.7-2.7l-3.7 1.5s1.3 2.7.3 4.8c0 0-.1-4.7-.8-4.6l-2 1s2.2 4.5.6 7.8c0 0 .6-5.6-1.2-7.5l-2.6 1.5s2.5 4.7.8 8.5c0 0 .5-5.9-1.3-8.2l-2.3 1.8s2.3 4.7 1 7.9c0 0-.3-6.9-1.5-7.4a14.2 14.2 0 0 0-2.3 2.5s1.6 3.4.6 5.2c0 0-.6-4.6-1.1-4.6 0 0-2 3-2.3 5a11 11 0 0 1 1.8-5.3 6 6 0 0 0-3.1 1.6s.3-2.2 3.6-2.4a14 14 0 0 1 2-2.4 13.3 13.3 0 0 0-5.2.6s1.8-2 5.9-1.1l2.3-1.9s-4.3-.5-6.1.1c0 0 2-1.8 6.7-.5l2.5-1.5a22.8 22.8 0 0 0-5.9-.5s2.3-1.2 6.6.1l1.8-.8-3.5-.6c-.8 0-.8-.3-.8-.3a9.3 9.3 0 0 1 5 .6s3.8-1.4 3.8-1.7Z" transform="translate(32 218.7)" fill="#5b0791"/><path data-name="Path 22111" d="M765.7 87.3s-9.7-.6-8.5 6.2a1.7 1.7 0 0 0 .8 1.7s0-.5 1-.3a4.6 4.6 0 0 0 1 0 2.2 2.2 0 0 0 1.4-.5s2.7-1.1 3.8-5.6c0 0 .8-1 .7-1.2l-1.6.7a3 3 0 0 1 .1 2.2s0-2.2-.3-2.1l-.9.4s1 2 .2 3.6c0 0 .3-2.6-.5-3.5l-1.2.7a5.1 5.1 0 0 1 .4 3.9s.2-2.7-.6-3.7l-1 .8s1 2.1.4 3.5c0 0-.1-3-.7-3.3a6.4 6.4 0 0 0-1 1.1s.7 1.6.3 2.4c0 0-.3-2.1-.6-2.1a6.9 6.9 0 0 0-1 2.3 5 5 0 0 1 .8-2.4 2.7 2.7 0 0 0-1.4.7s.2-1 1.6-1a6.4 6.4 0 0 1 1-1.2 6 6 0 0 0-2.4.3 2.7 2.7 0 0 1 2.7-.5l1-.9a8.9 8.9 0 0 0-2.8 0s1-.7 3-.1l1.2-.7a10.2 10.2 0 0 0-2.6-.2 4 4 0 0 1 3 0l.7-.4-1.5-.2c-.3 0-.4-.2-.4-.2a4.2 4.2 0 0 1 2.3.3 10.3 10.3 0 0 0 1.6-.7Z" transform="translate(65.6 238.2)" fill="#5b0791"/><ellipse data-name="Ellipse 496" cx="10.3" cy="1.7" rx="10.3" ry="1.7" transform="translate(890.8 510.5)" fill="#ad2146"/><path data-name="Path 22112" d="M1053 793.6a3 3 0 0 0 1-1.5 1.3 1.3 0 0 0-.6-1.5c-.7-.2-1.3.2-1.8.7a2.4 2.4 0 0 1-1.8.8 2.7 2.7 0 0 0 .8-2.5 1 1 0 0 0-.2-.5c-.3-.4-1-.2-1.4 0-1.3 1-1.7 2.8-1.7 4.4a8.2 8.2 0 0 1 0-1.8 1.8 1.8 0 0 0-.7-1.5 2 2 0 0 0-1-.3 2.1 2.1 0 0 0-1.7.5 1.6 1.6 0 0 0 0 2 6.6 6.6 0 0 0 1.8 1.4 3.8 3.8 0 0 1 1.2 1.2 1.2 1.2 0 0 1 .1.2h3.8a10.4 10.4 0 0 0 2.3-1.6Z" transform="translate(-147.7 -284.2)" fill="#ad2146"/><path data-name="Path 22113" d="M98 723.5s1.5 1.9-.6 4.6-3.7 5.2-3 6.9c0 0 3-5.2 5.6-5.2s.8-3.2-2-6.3Z" transform="translate(559.1 -235.6)" fill="#ad2146"/><path data-name="Path 22114" d="M98.3 723.5a2.3 2.3 0 0 1 .3.6c2.4 3 3.8 5.6 1.4 5.7-2.2 0-4.9 4-5.5 5a2.4 2.4 0 0 0 0 .2s3.2-5.2 5.7-5.2.9-3.2-1.9-6.3Z" transform="translate(558.9 -235.6)" fill="#ad2146" opacity=".1"/><path data-name="Path 22115" d="M118.6 731.5c0 .6 0 1.2-.2 1.2s-.1-.6-.1-1.2 0-.4.1-.4.2-.3.2.4Z" transform="translate(541.2 -241.2)" fill="#ad2146"/><path data-name="Path 22116" d="M119.8 734.4c-.6.3-1 .5-1.1.4s.4-.3 1-.7.3 0 .3 0 .4 0-.2.3Z" transform="translate(540.9 -243.3)" fill="#ad2146"/><path data-name="Path 22117" d="M71.1 723.5s-1.4 1.9.7 4.6 3.7 5.2 3 6.9c0 0-3-5.2-5.6-5.2s-.9-3.2 2-6.3Z" transform="translate(578.6 -235.6)" fill="#ad2146"/><path data-name="Path 22118" d="M71.1 723.5a2.2 2.2 0 0 0-.3.6c-2.4 3-3.7 5.6-1.4 5.7 2.2 0 4.9 4 5.5 5a2.4 2.4 0 0 1 0 .2s-3.2-5.2-5.7-5.2-.9-3.2 2-6.3Z" transform="translate(578.6 -235.6)" fill="#ad2146" opacity=".1"/><path data-name="Path 22119" d="M70.1 731.5c0 .6 0 1.2.2 1.2s.1-.6.1-1.2 0-.4-.2-.4-.1-.3-.1.4Z" transform="translate(577 -241.2)" fill="#ad2146"/><path data-name="Path 22120" d="M65.6 734.4c.6.3 1 .5 1.1.4s-.4-.3-1-.7-.3 0-.3 0-.4 0 .2.3Z" transform="translate(580.7 -243.3)" fill="#ad2146"/><path data-name="Path 22121" d="M71.8 761.2s4-.1 5.2-1 6-1.8 6.3-.5 5.9 6.8 1.5 6.8-10.3-.7-11.5-1.4-1.5-3.9-1.5-3.9Z" transform="translate(575.7 -262)" fill="#afabb9"/><path data-name="Path 22122" d="M84.8 772.2c-4.4 0-10.3-.7-11.4-1.4-1-.5-1.3-2.5-1.4-3.4h-.1s.2 3.1 1.4 3.9 7 1.4 11.5 1.4c1.2 0 1.7-.5 1.7-1.2-.2.4-.7.7-1.7.7Z" transform="translate(575.7 -268.2)" opacity=".2"/><g data-name="Group 1569" transform="translate(789.5 480.5)"><g data-name="Group 532"><path data-name="Path 945" d="M.2 0a.2.2 0 0 0-.2.1 2 2 0 0 0 .8 0Z" transform="translate(5.8 -7.5) rotate(-79 38 2.4)" fill="#2f2e41"/><path data-name="Path 949" d="M9.5 5.9.9 3.3c-.4 0-.8-.9-.9-1.8S.1-.1.5 0l8.6 2.5c.4.1.7 1 .9 1.9S9.9 6 9.5 5.9Z" transform="translate(5.8 -7.5) rotate(-79 26.6 7)" fill="#e6e6e6"/><path data-name="Path 950" d="M12.3 6.7.9 3.3c-.4 0-.8-.9-.9-1.8S.1-.1.5 0L12 3.4c.3 0 .7 1 .9 1.8s-.1 1.6-.5 1.5Z" transform="translate(5.8 -7.5) rotate(-79 29.7 3.7)" fill="#e6e6e6"/><path data-name="Path 957" d="M32.8 38.7a6.9 6.9 0 0 0-1-3.3L5 .5c-.7-1-1.4-.5-1.5 1L0 42.8a7.2 7.2 0 0 0 1 4.3l26.8 35c.7.8 1.4.4 1.5-1l3.5-41.5a6.2 6.2 0 0 0 0-1Z" transform="translate(5.8 -7.5) rotate(-79 19.5 16.1)" fill="#f5f5f5"/><path data-name="Path 958" d="M32.8 38.7a6.9 6.9 0 0 0-1-3.3L5 .5c-.7-1-1.4-.5-1.5 1L0 42.8a7.2 7.2 0 0 0 1 4.3l26.8 35c.7.8 1.4.4 1.5-1l3.5-41.5a6.2 6.2 0 0 0 0-1ZM29.2 81c-.1 1.3-.7 1.6-1.4.8l-26.7-35a6.4 6.4 0 0 1-1-3.7L3.7 1.6C3.8.4 4.4 0 5 .8l26.7 35a6.4 6.4 0 0 1 1 3.7Z" transform="translate(5.8 -7.5) rotate(-79 19.5 16.1)" fill="#3b055e"/><path data-name="Path 959" d="m27.4 33.1-2.4 29c0 .4-.2.5-.4.2L.3 30.5a2 2 0 0 1-.3-1.2L2.4.4c0-.4.3-.5.5-.3L27 32a2 2 0 0 1 .3 1.2Z" transform="translate(5.8 -7.5) rotate(-79 22.2 10.8)" fill="#dee2e6"/><path data-name="Path 961" d="M5.3 11.6 0 4.7 3.2.5l.3-.3V0l.3 1.1Z" transform="translate(5.8 -7.5) rotate(-79 40.8 -15.4)" opacity=".2"/><path data-name="Path 962" d="M13.4 27.7 0 10.2l3.2-4.3.3-.3L7.7.1c.3-.4.8.3 1 1.2v.2Z" transform="translate(5.8 -7.5) rotate(-79 37.7 -13.3)" fill="#1e0230"/><g data-name="Group 531" fill="#5b0791"><path data-name="Path 998" d="M2 4a2.3 2.3 0 0 1-1-1.1L0 .5C0 .1 0 0 .5.1a2.3 2.3 0 0 1 .9 1l1 2.4c0 .5 0 .7-.4.5Z" transform="translate(5.8 -7.5) rotate(-53 37.3 -10.1)"/><path data-name="Path 999" d="M2 4a2.3 2.3 0 0 1-1-1.1L0 .5C0 .1 0 0 .5.1a2.3 2.3 0 0 1 .9 1l1 2.4c0 .5 0 .7-.4.5Z" transform="translate(5.8 -7.5) rotate(-53 37.3 -10.1) translate(1.6 .8)"/><path data-name="Path 1000" d="M2 4a2.3 2.3 0 0 1-1-1.1L0 .5C0 .1 0 0 .5.1a2.3 2.3 0 0 1 .9 1l1 2.4c0 .5 0 .7-.4.5Z" transform="translate(5.8 -7.5) rotate(-53 37.3 -10.1) translate(3.3 1.6)"/><path data-name="Path 1001" d="M2 4a2.3 2.3 0 0 1-1-1.1L0 .5C0 .1 0 0 .5.1a2.3 2.3 0 0 1 .9 1l1 2.4c0 .5 0 .7-.4.5Z" transform="translate(5.8 -7.5) rotate(-53 37.3 -10.1) translate(5.8 2.9)"/><path data-name="Path 1002" d="M2 4a2.3 2.3 0 0 1-1-1.1L0 .5C0 .1 0 0 .5.1a2.3 2.3 0 0 1 .9 1l1 2.4c0 .5 0 .7-.4.5Z" transform="translate(5.8 -7.5) rotate(-53 37.3 -10.1) translate(7.4 3.7)"/><path data-name="Path 1003" d="M2 4a2.3 2.3 0 0 1-1-1.1L0 .5C0 .1 0 0 .5.1a2.3 2.3 0 0 1 .9 1l1 2.4c0 .5 0 .7-.4.5Z" transform="translate(5.8 -7.5) rotate(-53 37.3 -10.1) translate(9 4.5)"/><path data-name="Path 1004" d="M2 4a2.3 2.3 0 0 1-1-1.1L0 .5C0 .1 0 0 .5.1a2.3 2.3 0 0 1 .9 1l1 2.4c0 .5 0 .7-.4.5Z" transform="translate(5.8 -7.5) rotate(-53 37.3 -10.1) translate(11.6 5.8)"/><path data-name="Path 1005" d="M2 4a2.3 2.3 0 0 1-1-1.1L0 .5C0 .1 0 0 .5.1a2.3 2.3 0 0 1 .9 1l1 2.4c0 .5 0 .7-.4.5Z" transform="translate(5.8 -7.5) rotate(-53 37.3 -10.1) translate(13.2 6.6)"/><path data-name="Path 1006" d="M2 4a2.3 2.3 0 0 1-1-1.1L0 .5C0 .1 0 0 .5.1a2.3 2.3 0 0 1 .9 1l1 2.4c0 .5 0 .7-.4.5Z" transform="translate(5.8 -7.5) rotate(-53 37.3 -10.1) translate(14.9 7.4)"/><path data-name="Path 1007" d="M2 4a2.3 2.3 0 0 1-1-1.1L0 .5C0 .1 0 0 .5.1a2.3 2.3 0 0 1 .9 1l1 2.4c0 .5 0 .7-.4.5Z" transform="translate(5.8 -7.5) rotate(-53 37.3 -10.1) translate(17.4 8.7)"/><path data-name="Path 1008" d="M2 4a2.3 2.3 0 0 1-1-1.1L0 .5C0 .1 0 0 .5.1a2.3 2.3 0 0 1 .9 1l1 2.4c0 .5 0 .7-.4.5Z" transform="translate(5.8 -7.5) rotate(-53 37.3 -10.1) translate(19 9.5)"/><path data-name="Path 1009" d="M2 4a2.3 2.3 0 0 1-1-1.1L0 .5C0 .1 0 0 .5.1a2.3 2.3 0 0 1 .9 1l1 2.4c0 .5 0 .7-.4.5Z" transform="translate(5.8 -7.5) rotate(-53 37.3 -10.1) translate(20.6 10.3)"/></g><path data-name="Path 960" d="M15.6 36.6 0 16.3a.8.8 0 0 1-.1 0L9.5 0c.1-.2.3-.1.5.1a2.6 2.6 0 0 1 .4 1.1L13.9 25 14 26Z" transform="translate(5.8 -7.5) rotate(-79 30.8 3.3)" fill="#1e0230"/></g><path data-name="Path 922" d="m278.4 107.4-66.8 10.7a3.6 3.6 0 0 1-2.4-.4l-17.6-15.4c-.3-.2 0-.6.7-.7L260 90.8a2.7 2.7 0 0 1 1.8.3l17.6 15.4c.4.3 0 .8-1 1Z" transform="translate(-174.7 -81.7)" fill="#dee2e6"/><path data-name="Path 923" d="m305.7 143.8-62.2 10a3.4 3.4 0 0 1-2.4-.3L225.8 140c-.3-.2 0-.5.7-.6l63.1-10.1a2.6 2.6 0 0 1 1.8.2l15.3 13.4c.4.4 0 .7-1 .9Z" transform="translate(-205 -118.5)" fill="#f5f5f5"/><path data-name="Path 924" d="M259.1 83 189 94.2l-.4-.3c-.4-.3 0-.8 1-1l66.8-10.6a3.6 3.6 0 0 1 2.5.4Z" transform="translate(-172 -73.5)" fill="#5b0791"/><path data-name="Path 925" d="m371.1 325.2-8.3 1.3a3.6 3.6 0 0 1-2.4-.3l-4.6-4c-.4-.4 0-.8 1-1l8.3-1.3a3.6 3.6 0 0 1 2.4.4l4.6 4c.4.3 0 .8-1 1Z" transform="translate(-320.3 -301)" fill="#dee2e6"/><path data-name="Path 926" d="m495 272.2-8.3 1.3a3.6 3.6 0 0 1-2.4-.3l-4.6-4c-.4-.4 0-.8 1-1l8.3-1.3a3.6 3.6 0 0 1 2.4.4l4.6 4c.4.3 0 .7-1 .9Z" transform="translate(-430.1 -250.3)" fill="#dee2e6"/><path data-name="Path 927" d="m619 219.2-8.4 1.3a3.6 3.6 0 0 1-2.4-.3l-4.6-4c-.4-.4 0-.8 1-1l8.3-1.3a3.6 3.6 0 0 1 2.4.4l4.6 4c.4.3 0 .7-1 .9Z" transform="translate(-540 -199.5)" fill="#dee2e6"/><path data-name="Path 928" d="m433.7 471.4-8.3 1.3a3.6 3.6 0 0 1-2.5-.3l-4.6-4c-.4-.4 0-.8 1-1l8.3-1.3a3.6 3.6 0 0 1 2.5.4l4.5 4c.4.3 0 .7-1 .9Z" transform="translate(-375.7 -441)" fill="#f2f2f2"/><path data-name="Path 929" d="m557.6 418.4-8.3 1.3a3.6 3.6 0 0 1-2.5-.4l-4.6-4c-.4-.3 0-.7 1-.9l8.3-1.3a3.6 3.6 0 0 1 2.5.3l4.5 4c.5.4 0 .8-1 1Z" transform="translate(-485.6 -390.3)" fill="#f2f2f2"/><path data-name="Path 930" d="m681.5 365.4-8.3 1.3a3.6 3.6 0 0 1-2.5-.4l-4.6-4c-.4-.3 0-.7 1-.9l8.3-1.3a3.6 3.6 0 0 1 2.5.3l4.6 4c.4.4 0 .8-1 1Z" transform="translate(-595.5 -339.5)" fill="#dee2e6"/><path data-name="Path 931" d="M412.3 412h-72.6c-1 0-2-.3-2-.7v-16.8c0-.2.7-.5 1.5-.5h73.6c.7 0 1.4.3 1.4.6v16.7c0 .4-.9.7-2 .7Z" transform="translate(-304.5 -372)" fill="#dee2e6"/><path data-name="Path 932" d="M430.8 442.7H363c-1 0-1.8-.3-1.8-.7v-14.6c0-.3.6-.5 1.3-.5h68.6c.8 0 1.4.3 1.4.5V442c0 .4-.8.7-1.8.7Z" transform="translate(-325.3 -403.6)" fill="#f5f5f5"/><path data-name="Path 933" d="M414 384.3h-76.4v-.4c0-.4.8-.7 1.8-.7h72.7c1 0 1.8.3 1.8.7Z" transform="translate(-304.2 -361.7)" fill="#5b0791"/><rect data-name="Rectangle 304" width="36.7" height="1.7" rx=".9" transform="translate(67.4 27.4)" fill="#dee2e6"/><rect data-name="Rectangle 305" width="36.7" height="1.7" rx=".9" transform="translate(67.4 30.3)" fill="#dee2e6"/><rect data-name="Rectangle 306" width="36.7" height="1.7" rx=".9" transform="translate(67.4 33.2)" fill="#dee2e6"/><path data-name="Path 934" d="M417 506.6c0 2.6-5.7 4.7-12.6 4.7s-12.4-2.1-12.4-4.7 5.6-4.7 12.4-4.7 12.5 2.1 12.5 4.7Z" transform="translate(-352.5 -475.4)" fill="#f5f5f5"/><path data-name="Path 939" d="M402 508.7c-6.7 0-12.3-2-12.8-4.4s4.2-4.7 10.8-5.1 12.8 1.2 14.4 3.6-2.1 4.9-8.5 5.7a32.8 32.8 0 0 1-4 .2Zm0-9.3c-6.8 0-12.2 2-12.2 4.5s5.4 4.6 12.1 4.6 12.2-2 12.2-4.6-5.5-4.5-12.2-4.5Z" transform="translate(-350 -472.7)" fill="#ad2146"/><path data-name="Path 1010" d="M4.4-64.7v-.5L7.6-67h2v1.7h.8v.6h-.8v.5H7.8v-.5ZM8-66.2l-1.8 1H8Zm3.3.6a1.2 1.2 0 0 1 .7-1 4.7 4.7 0 0 1 2.1-.5 4.7 4.7 0 0 1 2.2.4 1.2 1.2 0 0 1 .7 1 1.2 1.2 0 0 1-.7 1.1 4.7 4.7 0 0 1-2.2.4 4.7 4.7 0 0 1-2.1-.4 1.2 1.2 0 0 1-.7-1Zm4 0a.8.8 0 0 0-.2-.6 1.4 1.4 0 0 0-1-.2 1.4 1.4 0 0 0-.9.2.8.8 0 0 0-.2.6 1 1 0 0 0 0 .4.6.6 0 0 0 .4.3 2 2 0 0 0 .7 0 2 2 0 0 0 .8 0 .6.6 0 0 0 .3-.3 1 1 0 0 0 .1-.4Zm2.5-.7q0-.3.5-.5a3.7 3.7 0 0 1 1.2-.1 3.7 3.7 0 0 1 1.2.1q.5.2.5.5t-.5.5a3.7 3.7 0 0 1-1.2.2 3.7 3.7 0 0 1-1.2-.2q-.5-.2-.5-.5Zm7-.6-4 2.7H19l4-2.7Zm-5.3.3q-.5 0-.5.3t.5.3a.8.8 0 0 0 .3 0 .2.2 0 0 0 .2-.3q0-.3-.5-.3Zm3.1 1.8q0-.3.5-.5a3.7 3.7 0 0 1 1.2-.1 3.7 3.7 0 0 1 1.3.1q.4.2.4.5t-.4.5a3.7 3.7 0 0 1-1.3.1 3.7 3.7 0 0 1-1.2-.1q-.5-.2-.5-.5Zm1.7-.3a.8.8 0 0 0-.3.1.2.2 0 0 0-.2.2q0 .3.5.3a.8.8 0 0 0 .4-.1.2.2 0 0 0 .1-.2.2.2 0 0 0-.1-.2.8.8 0 0 0-.4 0Z" transform="translate(36.9 96.7)" fill="#3b055e"/></g><g data-name="Group 1570"><circle data-name="Ellipse 492" cx="78.8" cy="78.8" transform="translate(695.8 351.8)" fill="#5b0791" r="78.8"/><path data-name="Path 22107" d="M489.8 555.4c0 12.5-19.5 1-40.5 1s-42.2 11-42.2-1.5c0-7 6.8-17 16.5-24a43.8 43.8 0 0 1 25.3-9.3c9.2 0 18.3 4.1 25.6 9.9 9 7.2 15.3 17 15.3 24Z" transform="translate(326.1 -85.2)" fill="#9059b3"/><path data-name="Path 22108" d="M522.4 531.5a176.3 176.3 0 0 0-50.9-.7 43.8 43.8 0 0 1 25.3-9.3c9.3 0 18.4 4.2 25.6 10Z" transform="translate(278.2 -85.2)" fill="#f5f5f5"/><path data-name="Path 22109" d="M338.5 281.3s-23.8 15.2-23.6 39 23.6-39 23.6-39Z" transform="translate(394.8 93.7)" fill="#e4baff" opacity=".3"/><path data-name="Path 22123" d="M405.6 444.3c1.5-.1 8.5-.6 13-3.2a5 5 0 0 1 2.4-.7c1.4 0 3 .6 2 3.9-1.7 5.4-11.6 11.6-17.7 11.2a20.3 20.3 0 0 1-17.5-11 5.1 5.1 0 0 1-.6-2.6c0-1.7.6-3.8 3.8-1.5a30.5 30.5 0 0 0 14 3.9 5.4 5.4 0 0 0 .6 0Z" transform="translate(341 -24)" fill="#9059b3"/><path data-name="Path 22124" d="M627.6 444.3c1.5-.1 8.5-.6 13-3.2a5 5 0 0 1 2.4-.7c1.4 0 3 .6 2 3.9-1.7 5.4-11.6 11.6-17.7 11.2a20.3 20.3 0 0 1-17.5-11 5.1 5.1 0 0 1-.6-2.6c0-1.7.6-3.8 3.8-1.5a30.5 30.5 0 0 0 14 3.9 5.4 5.4 0 0 0 .6 0Z" transform="translate(175.7 -24)" fill="#9059b3"/></g></g></svg>