<svg xmlns="http://www.w3.org/2000/svg" viewBox="0 0 150 150"><g data-name="Group 1328"><path data-name="Icon awesome-sad-tear" d="M75 .6a75 75 0 1 0 75 75 75 75 0 0 0-75-75Zm24.2 50.8a9.7 9.7 0 1 1-9.7 9.6 9.7 9.7 0 0 1 9.7-9.6ZM46 124a14.4 14.4 0 0 1-14.5-14.3c0-6 8.6-18.2 12.5-23.5a2.4 2.4 0 0 1 3.9 0c4 5.3 12.6 17.5 12.6 23.5A14.4 14.4 0 0 1 46 124Zm4.8-53.3a9.7 9.7 0 1 1 9.7-9.7 9.7 9.7 0 0 1-9.7 9.7Zm51.5 46.7A35.5 35.5 0 0 0 75 104.6c-6.4 0-6.4-9.7 0-9.7a45 45 0 0 1 34.7 16.3c4.2 5-3.4 11-7.4 6.2Z" transform="translate(-18088 8014.3) translate(18088 -8014.9)" fill="#ffcc4d"/></g></svg>