<svg xmlns="http://www.w3.org/2000/svg" width="636.665" height="500.372" viewBox="0 0 636.665 500.372">
  <g id="Group_631" data-name="Group 631" transform="translate(-365.82 -326.259)">
    <circle id="Ellipse_275" data-name="Ellipse 275" cx="37.544" cy="37.544" r="37.544" transform="translate(530.602 408.821)" fill="#e63b69"/>
    <g id="Group_630" data-name="Group 630" transform="translate(421.143 383.661)">
      <path id="Path_1564" data-name="Path 1564" d="M1024.6,349.912c0,72.512-43.108,97.831-96.284,97.831s-96.284-25.319-96.284-97.831,96.282-164.76,96.282-164.76S1024.6,277.4,1024.6,349.912Z" transform="translate(-832.036 -185.152)" fill="#57b894"/>
      <path id="Path_1565" data-name="Path 1565" d="M923.212,375.608l.985-60.686,41.039-75.078L924.353,305.4l.443-27.287L953.082,223.8l-28.169,47.1h0l.8-49.077L956,178.573,925.836,214.1l.5-89.99L923.2,243.24l.258-4.914-30.793-47.133,30.3,56.567L920.1,302.57l-.086-1.455-35.5-49.6,35.391,54.74-.359,6.855-.064.1.029.563-7.279,139.059h9.726l1.167-71.827,35.3-54.606Z" transform="translate(-830.438 -124.11)" fill="#1e0230"/>
    </g>
    <g id="Group_629" data-name="Group 629" transform="translate(808.085 326.259)">
      <path id="Path_1562" data-name="Path 1562" d="M357.049,239.021c0,78.33-43.518,105.681-97.2,105.681s-97.2-27.35-97.2-105.681,97.2-177.979,97.2-177.979S357.049,160.691,357.049,239.021Z" transform="translate(-162.649 -61.042)" fill="#57b894"/>
      <path id="Path_1563" data-name="Path 1563" d="M277.368,271.678l1.065-65.556,44.331-81.1L278.6,195.838l.479-29.476,30.553-58.676-30.426,50.876h0l.861-53.015,32.717-46.714L280.2,97.21,280.741,0l-3.382,128.689.278-5.309L244.374,72.465l32.73,61.106L274,192.779l-.092-1.571-38.347-53.58L273.8,196.76l-.388,7.4-.07.111.032.608L265.507,355.1h10.506l1.26-77.59,38.136-58.987Z" transform="translate(-183.732)" fill="#1e0230"/>
    </g>
    <g id="Group_628" data-name="Group 628" transform="translate(366 483.908)">
      <ellipse id="Ellipse_261" data-name="Ellipse 261" cx="309.443" cy="20.486" rx="309.443" ry="20.486" transform="translate(7.71 301.751)" fill="#afabb9"/>
      <path id="Path_1521" data-name="Path 1521" d="M522.444,324.894c-50.417,0-86.615,32.346-86.615,107.82,0,85.537,36.2,108.18,86.615,108.18s88.772-24.8,88.772-108.18C611.216,343.583,572.861,324.894,522.444,324.894Zm.331,187.606c-34.92,0-53.163-20.487-53.163-79.731,0-52.275,18.99-79.842,53.91-79.842s53.91,18.108,53.91,79.842c0,57.752-19.737,79.732-54.657,79.732Z" transform="translate(-217.151 -226.923)" fill="#9059b3"/>
      <path id="Path_1522" data-name="Path 1522" d="M274.2,487.214H253.352V425.83a12.293,12.293,0,0,0-12.293-12.293h-4.884a12.293,12.293,0,0,0-12.293,12.293v61.384h-58.8a7.018,7.018,0,0,1-6.205-10.3l62.23-117.782a12.293,12.293,0,0,0-5.62-16.859l-3.674-1.735a12.293,12.293,0,0,0-16.091,5.321l-75.9,141.982a16.669,16.669,0,0,0-1.969,7.858h0a16.669,16.669,0,0,0,16.669,16.669h89.354v38.815a14.735,14.735,0,0,0,14.735,14.735h0a14.735,14.735,0,0,0,14.735-14.735V512.372H274.2a12.579,12.579,0,0,0,12.579-12.579h0A12.579,12.579,0,0,0,274.2,487.214Z" transform="translate(-85.709 -232.903)" fill="#5b0791"/>
      <path id="Path_1523" data-name="Path 1523" d="M932.193,487.214H911.348V425.83a12.293,12.293,0,0,0-12.292-12.293h-4.884a12.293,12.293,0,0,0-12.293,12.293v61.384h-58.8a7.018,7.018,0,0,1-6.205-10.3l62.23-117.782a12.293,12.293,0,0,0-5.62-16.859l-3.674-1.735a12.293,12.293,0,0,0-16.091,5.321l-75.9,141.982a16.668,16.668,0,0,0-1.969,7.858h0a16.669,16.669,0,0,0,16.669,16.669h89.353v38.815a14.735,14.735,0,0,0,14.735,14.735h0a14.735,14.735,0,0,0,14.735-14.735V512.372h20.845a12.579,12.579,0,0,0,12.579-12.579h0a12.579,12.579,0,0,0-12.58-12.579Z" transform="translate(-357.71 -232.903)" fill="#5b0791"/>
      <path id="Path_1524" data-name="Path 1524" d="M284,474.961H263.155V413.577a12.293,12.293,0,0,0-12.293-12.293h-4.884a12.293,12.293,0,0,0-12.293,12.293v61.384h-58.8a7.018,7.018,0,0,1-6.205-10.3l62.23-117.782a12.293,12.293,0,0,0-5.62-16.859l-3.674-1.735a12.293,12.293,0,0,0-16.091,5.321l-75.9,141.981a16.669,16.669,0,0,0-1.969,7.858h0a16.669,16.669,0,0,0,16.669,16.669h89.353v38.815a14.735,14.735,0,0,0,14.735,14.735h0a14.735,14.735,0,0,0,14.735-14.735V500.119H284a12.579,12.579,0,0,0,12.579-12.579h0A12.579,12.579,0,0,0,284,474.961Z" transform="translate(-89.761 -227.838)" fill="none" stroke="#3f3d56" stroke-miterlimit="10" stroke-width="1"/>
      <path id="Path_1525" data-name="Path 1525" d="M950.572,474.961H929.727V413.577a12.293,12.293,0,0,0-12.293-12.293H912.55a12.293,12.293,0,0,0-12.293,12.293v61.384h-58.8a7.018,7.018,0,0,1-6.205-10.3l62.23-117.782a12.293,12.293,0,0,0-5.62-16.859l-3.674-1.735a12.293,12.293,0,0,0-16.091,5.321L796.2,475.591a16.668,16.668,0,0,0-1.969,7.858h0A16.669,16.669,0,0,0,810.9,500.119h89.354v38.815a14.735,14.735,0,0,0,14.735,14.735h0a14.735,14.735,0,0,0,14.735-14.735V500.119h20.845a12.579,12.579,0,0,0,12.579-12.579h0a12.579,12.579,0,0,0-12.58-12.579Z" transform="translate(-365.308 -227.838)" fill="none" stroke="#3f3d56" stroke-miterlimit="10" stroke-width="1"/>
      <path id="Path_1526" data-name="Path 1526" d="M542.049,313.866c-50.417,0-86.615,32.346-86.615,107.82,0,85.537,36.2,108.18,86.615,108.18s88.772-24.8,88.772-108.18C630.821,332.555,592.466,313.866,542.049,313.866Zm.331,187.607c-34.92,0-53.163-20.487-53.163-79.731,0-52.275,18.99-79.842,53.91-79.842s53.91,18.108,53.91,79.842c0,57.752-19.737,79.732-54.657,79.732Z" transform="translate(-225.255 -222.364)" fill="none" stroke="#3f3d56" stroke-miterlimit="10" stroke-width="1"/>
      <circle id="Ellipse_262" data-name="Ellipse 262" cx="7.568" cy="7.568" r="7.568" transform="translate(268.813 3.138)" fill="#2f2e41"/>
      <ellipse id="Ellipse_263" data-name="Ellipse 263" cx="21.228" cy="27.504" rx="21.228" ry="27.504" transform="translate(273.613 0)" fill="#2f2e41"/>
      <path id="Path_1527" data-name="Path 1527" d="M550.7,221.04c-10.634,0-19.441-10.131-20.987-23.35a35.774,35.774,0,0,0-.241,4.153c0,15.19,9.5,27.5,21.228,27.5s21.228-12.314,21.228-27.5a35.774,35.774,0,0,0-.241-4.153C570.144,210.909,561.337,221.04,550.7,221.04Z" transform="translate(-255.862 -174.339)" opacity="0.1"/>
      <path id="Path_1528" data-name="Path 1528" d="M616.661,336.694c-.456,1.873-2.422,3.374-4.6,4.422-4.577,2.2-10.222,2.861-15.7,3.082a26.5,26.5,0,0,1-4.191-.077,12.046,12.046,0,0,1-7.186-3.3.986.986,0,0,1,.026-1.668c2.915-3.2,7.78-5.166,12.68-6.58,3.716-1.072,10.2-3.849,14.249-3.474C615.868,329.459,617.236,334.329,616.661,336.694Z" transform="translate(-278.625 -228.645)" fill="#3f3d56"/>
      <path id="Path_1529" data-name="Path 1529" d="M616.661,336.694c-.456,1.873-2.422,3.374-4.6,4.422-4.577,2.2-10.222,2.861-15.7,3.082a26.5,26.5,0,0,1-4.191-.077,12.046,12.046,0,0,1-7.186-3.3.986.986,0,0,1,.026-1.668c2.915-3.2,7.78-5.166,12.68-6.58,3.716-1.072,10.2-3.849,14.249-3.474C615.868,329.459,617.236,334.329,616.661,336.694Z" transform="translate(-278.625 -228.645)" opacity="0.1"/>
      <path id="Path_1530" data-name="Path 1530" d="M539.205,296.649a11.6,11.6,0,0,0-.7,8.843,15.451,15.451,0,0,0,5.18,7.331c5.922,4.747,14.072,5.4,21.661,5.334a166.972,166.972,0,0,0,19.89-1.363,23.777,23.777,0,0,0,6.454-1.5,9.892,9.892,0,0,0,5.535-5.588,6.808,6.808,0,0,0-1.838-7.376c-1.84-1.5-4.378-1.7-6.745-1.844l-13.544-.814a22.975,22.975,0,0,1,4.749-3.1c2.162-1.306,3.6-3.5,5.17-5.476a75.669,75.669,0,0,1,7.883-8.105,11.638,11.638,0,0,0,3.923,6.35c1.883,1.745,4.053,3.149,6.009,4.81,4.739,4.023,8.152,9.484,13.136,13.2a25.711,25.711,0,0,0,9.414-4.7l-1.937-3.509a2.311,2.311,0,0,0-.73-.911c-.548-.337-1.255-.163-1.892-.259-1.7-.255-2.445-2.22-3.113-3.806-1.833-4.354-5.343-7.732-8.34-11.383a57.5,57.5,0,0,1-5.864-8.637,29.546,29.546,0,0,0-3.3-5.281,7.433,7.433,0,0,0-5.361-2.8,10.324,10.324,0,0,0-5.112,1.867,135.2,135.2,0,0,0-13.862,9.444,32.075,32.075,0,0,1-7.326,4.795c-1.142.464-2.347.781-3.443,1.345-1.92.988-3.377,2.66-4.946,4.144A32.875,32.875,0,0,1,539.205,296.649Z" transform="translate(-259.361 -202.601)" fill="#3f3d56"/>
      <path id="Path_1531" data-name="Path 1531" d="M576.09,237.007a13.947,13.947,0,0,1-1.017,4.713,5.893,5.893,0,0,1-3.383,3.269,7.26,7.26,0,0,1-3.3.107,6.384,6.384,0,0,1-2.688-.916,5.73,5.73,0,0,1-2.134-3.956c-.231-1.523-.127-3.079-.275-4.613a25.189,25.189,0,0,0-.705-3.67c-.1-.4-.2-.8-.3-1.2s-.194-.8-.282-1.2c-.081-.375-.157-.751-.222-1.13-.053-.319-.1-.641-.137-.964a10.807,10.807,0,0,0-.474-2.822,8.571,8.571,0,0,0-.989-1.674c-.168-.24-.33-.48-.48-.729a3.455,3.455,0,0,1-.57-2.2,1.92,1.92,0,0,1,.087-.353c.015-.044.031-.089.05-.131a1.057,1.057,0,0,0,.721-.674,2.014,2.014,0,0,0-.087-1.043,6.648,6.648,0,0,0-.563-1.342c-.155-.281-.681-.786-.685-1.108-.007-.646,1.255-1.167,1.767-1.421a9.853,9.853,0,0,1,5.043-1.023,3.719,3.719,0,0,1,2.944,1.355,8.882,8.882,0,0,1,.716,2.917.863.863,0,0,0,.175.389.787.787,0,0,0,.434.2,2.669,2.669,0,0,0,.831.033h0a1.719,1.719,0,0,0,.218-.031,2.908,2.908,0,0,0,1.192-.515q.343-.091.692-.15l.028-.006c.925,2.918,1.045,6.047,1.8,9.019a23.138,23.138,0,0,1,.988,4.46c.006.066.007.135.009.2.011.489-.028.982-.007,1.469a4.1,4.1,0,0,0,.074.653,9.128,9.128,0,0,0,.308,1.023l.006.017c.035.107.068.216.1.325.02.079.039.157.054.236l0,.006A8.761,8.761,0,0,1,576.09,237.007Z" transform="translate(-267.925 -180.633)" fill="#fbbebe"/>
      <circle id="Ellipse_264" data-name="Ellipse 264" cx="10.891" cy="10.891" r="10.891" transform="translate(284.319 15.505)" fill="#fbbebe"/>
      <path id="Path_1532" data-name="Path 1532" d="M639.636,269.273A17.861,17.861,0,0,0,636.565,261q.424,2.52.849,5.037a1.885,1.885,0,0,1-1.975-.607,6.063,6.063,0,0,1-1.036-1.922,39.574,39.574,0,0,0-4.816-8.644c-6.933-.578-13.787-3.452-19.884-6.8S597.9,240.7,591.88,237.208a25.561,25.561,0,0,0-3.253-1.661c-1.883-.755-4-1.146-5.781-2.034-.12-.059-.24-.122-.358-.186a7.378,7.378,0,0,1-1.141-.766,6.077,6.077,0,0,1-.546-.5,11.94,11.94,0,0,1-2.088-3.492c-.958-2.119-1.3-4.676-2.256-6.795a6.57,6.57,0,0,1,1.467-1.036h0c.078-.041.155-.079.234-.116a7,7,0,0,1,1.176-.43q.343-.091.692-.15l.028-.006a6.785,6.785,0,0,1,3.221.255,14.9,14.9,0,0,1,4.072,2.507,66.883,66.883,0,0,1,5.953,4.722c1.052,1.008,2.012,2.115,3.144,3.031a24.727,24.727,0,0,0,2.966,1.966l18.37,10.941c2.073,1.235,4.148,2.47,6.174,3.777,3.079,1.986,6.047,4.138,9.013,6.289q2.622,1.9,5.242,3.8a5.705,5.705,0,0,1,1.486,1.373,4.971,4.971,0,0,1,.659,2.014A18.412,18.412,0,0,1,639.636,269.273Z" transform="translate(-275.284 -183.539)" fill="#fbbebe"/>
      <path id="Path_1533" data-name="Path 1533" d="M568.635,248.169c-.735,3.295-4.065,5.287-5.805,8.181-2.163,3.592-1.281,7.767-.469,11.882l-4.454,3.838c-.82.7-1.639,1.41-2.522,2.032a33.637,33.637,0,0,1-4.024,2.311l-3.943,2.029a18.846,18.846,0,0,1-3.86,1.635,14.874,14.874,0,0,1-7.9-.57,3.572,3.572,0,0,1-.864-.353,1.405,1.405,0,0,1-.41-.371,2.294,2.294,0,0,1-.26-1.49,70.022,70.022,0,0,1,2.365-12.724,37.505,37.505,0,0,1,5.434-13.333,40.109,40.109,0,0,1,4.652-6.754,10.841,10.841,0,0,0,2.156-2.78c.655-1.5.4-3.21.535-4.838a10.06,10.06,0,0,1,.958-3.524v0a10.029,10.029,0,0,1,1.023-1.691l.537,1.25q.177.41.351.818.227.526.45,1.048l1.288,3a12.664,12.664,0,0,0,1.957,3.487,3.813,3.813,0,0,0,6.525-.5,12.473,12.473,0,0,0,1.333-3.527,11.272,11.272,0,0,0,.148-4.6,54.337,54.337,0,0,0-2.6-8.67,8.765,8.765,0,0,1-.633-2.857,1.972,1.972,0,0,1,.033-.329l.017-.085a7.009,7.009,0,0,1,1.176-.43q.343-.091.692-.15,1.2,6.49,2.4,12.98c.018.1.039.2.057.306.114.62.231,1.24.36,1.859.116.561.242,1.12.382,1.676l.006.017c.048.188.1.375.15.561l0,.006c.142.509.3,1.015.48,1.514C567.439,242.027,569.332,245.051,568.635,248.169Z" transform="translate(-257.771 -183.605)" fill="#ad2146"/>
      <path id="Path_1534" data-name="Path 1534" d="M668.317,339.55a3.861,3.861,0,0,0,.358,1.844c.682,1.246,2.317,1.529,3.732,1.645a110.507,110.507,0,0,0,24.794-.755,2.866,2.866,0,0,0,1.262-.392c1.167-.818.448-2.813-.827-3.451s-2.787-.485-4.186-.761a13.187,13.187,0,0,1-3.917-1.7q-4.254-2.444-8.385-5.1c-1.639-1.053-3.574-2.176-5.42-1.552C670.727,331.024,668.284,334.156,668.317,339.55Z" transform="translate(-313.254 -228.683)" fill="#3f3d56"/>
      <path id="Path_1535" data-name="Path 1535" d="M540.212,234.235v0c-.013.078-.026.153-.042.229-.02.126-.044.253-.068.378-.229,1.172-.509,2.339-.832,3.5-.886,3.2-2.073,6.354-3.251,9.458q-4.74,12.487-9.482,24.977c-.8,2.1-1.593,4.2-2.5,6.25-.3.685-.615,1.375-.925,2.073a28.843,28.843,0,0,0-2.532,7.734,16.1,16.1,0,0,0-.113,5.3,5.441,5.441,0,0,0,3.068,4.089c.808.316,1.966.738,1.744,1.578-.12.461-.644.687-1.115.764a4.29,4.29,0,0,1-3.5-1.008c-.884-.785-1.563-2-2.739-2.136a4.633,4.633,0,0,0-2.309.74c-3.042,1.39-6.586.417-9.781-.57a3.432,3.432,0,0,1,2.841-2.405,22.982,22.982,0,0,1,3.941-.111,2.059,2.059,0,0,0,1.2-.308,2.174,2.174,0,0,0,.646-1.1,46.315,46.315,0,0,0,1.885-7.712c.424-2.737.6-5.517,1.207-8.222.471-2.11,1.2-4.153,1.822-6.224a131.8,131.8,0,0,0,2.968-12.951,45.77,45.77,0,0,0,.836-5.5c.105-1.532.055-3.072.2-4.6a35.724,35.724,0,0,1,1.239-5.864q.847-3.137,1.693-6.27c.836-3.092,1.733-6.3,3.852-8.707a8.19,8.19,0,0,1,5.883-2.809,5.8,5.8,0,0,1,1.25.135c.068.017.137.033.2.052a5.067,5.067,0,0,1,1.276.528c.653-.415.986-.27,1.419.371a4.09,4.09,0,0,1,.517,2.226,30.754,30.754,0,0,1-.5,6.11Z" transform="translate(-246.09 -185.552)" fill="#fbbebe"/>
      <path id="Path_1536" data-name="Path 1536" d="M562.22,236.529l-.028.028-.15.15-1.484,1.482-.727-3.055-2.494-10.474a5.8,5.8,0,0,1,1.25.135,1.925,1.925,0,0,1,.087-.353l.118.4.845,2.876,1.6,5.46.264.9v0Z" transform="translate(-267.38 -185.398)" fill="#ad2146"/>
      <path id="Path_1537" data-name="Path 1537" d="M565.063,182.885a7.38,7.38,0,0,1-2.171,5.219,7.221,7.221,0,0,1-.8.69,7.349,7.349,0,0,1-4.421,1.481h-8.856a7.386,7.386,0,1,1,0-14.771h8.856A7.409,7.409,0,0,1,565.063,182.885Z" transform="translate(-260.805 -165.168)" fill="#2f2e41"/>
      <circle id="Ellipse_265" data-name="Ellipse 265" cx="7.568" cy="7.568" r="7.568" transform="translate(304.993 3.138)" fill="#2f2e41"/>
      <path id="Path_1538" data-name="Path 1538" d="M595.359,163.234c-.093,0-.185,0-.277.007a7.566,7.566,0,0,1,0,15.122c.092,0,.184.007.277.007a7.568,7.568,0,1,0,0-15.136Z" transform="translate(-282.983 -160.096)" opacity="0.1"/>
      <path id="Path_1539" data-name="Path 1539" d="M528.862,163.234c.093,0,.185,0,.277.007a7.566,7.566,0,0,0,0,15.122c-.092,0-.184.007-.277.007a7.568,7.568,0,0,1,0-15.136Z" transform="translate(-252.48 -160.096)" opacity="0.1"/>
      <path id="Path_1540" data-name="Path 1540" d="M564.184,198.159a7.35,7.35,0,0,1-4.421,1.481h-8.856a7.35,7.35,0,0,1-4.421-1.481Z" transform="translate(-262.895 -174.533)" opacity="0.1"/>
      <path id="Path_1541" data-name="Path 1541" d="M674.14,289.419s1.908,5.5,3.654,4.034l-1.392-7.186Z" transform="translate(-315.663 -210.955)" fill="#fbbebe"/>
      <path id="Path_1542" data-name="Path 1542" d="M1064.253,560.744a12.209,12.209,0,1,0,1.626-23.415l.306,6.284-2.973-5.385a12.164,12.164,0,0,0-6.267,6.877,11.982,11.982,0,0,0-.7,3.3,12.207,12.207,0,0,0,8.011,12.337Z" transform="translate(-473.603 -314.627)" fill="#57b894"/>
      <path id="Path_1543" data-name="Path 1543" d="M1093.379,626.234c-1.049-5.344,3.5-10.082,7.99-13.162s9.741-6.105,11.274-11.332c2.2-7.511-4.359-14.39-9.466-20.322a73.516,73.516,0,0,1-9.693-14.406,19.832,19.832,0,0,1-2.318-6.55c-.4-3.329.667-6.642,1.744-9.818q5.385-15.869,11.515-31.472" transform="translate(-488.017 -307.233)" fill="none" stroke="#3f3d56" stroke-miterlimit="10" stroke-width="1"/>
      <path id="Path_1544" data-name="Path 1544" d="M1065.1,557.986a12.209,12.209,0,1,0,1.626-23.415l.306,6.284-2.973-5.385a12.163,12.163,0,0,0-6.267,6.877,11.974,11.974,0,0,0-.7,3.3A12.207,12.207,0,0,0,1065.1,557.986Z" transform="translate(-473.954 -313.487)" fill="none" stroke="#3f3d56" stroke-miterlimit="10" stroke-width="1"/>
      <path id="Path_1545" data-name="Path 1545" d="M1091.933,509.806a12.194,12.194,0,0,1,8.787-7.742l1.005,5.974,1.864-6.274a12.208,12.208,0,1,1-11.656,8.042Z" transform="translate(-488.067 -300.036)" fill="#57b894"/>
      <path id="Path_1546" data-name="Path 1546" d="M1093.073,506.128a12.2,12.2,0,0,1,8.787-7.742l1.005,5.974,1.864-6.274a12.208,12.208,0,1,1-11.656,8.042Z" transform="translate(-488.538 -298.516)" fill="none" stroke="#3f3d56" stroke-miterlimit="10" stroke-width="1"/>
      <path id="Path_1547" data-name="Path 1547" d="M1102.369,608.8a12.208,12.208,0,0,0,10.8-21.718l-1.432,4.822-1.016-6.044-.031-.012a12.208,12.208,0,1,0-8.326,22.953Z" transform="translate(-489.357 -334.489)" fill="#57b894"/>
      <path id="Path_1548" data-name="Path 1548" d="M1103.368,605.072a12.208,12.208,0,0,0,10.805-21.718l-1.432,4.821-1.016-6.044-.031-.012a12.208,12.208,0,1,0-8.326,22.953Z" transform="translate(-489.77 -332.949)" fill="none" stroke="#3f3d56" stroke-miterlimit="10" stroke-width="1"/>
      <path id="Path_1549" data-name="Path 1549" d="M1086.248,649.963a12.2,12.2,0,1,0,2.353-9.56l5.439,8.187-7.432-4.346A12.092,12.092,0,0,0,1086.248,649.963Z" transform="translate(-485.942 -355.381)" fill="#57b894"/>
      <path id="Path_1550" data-name="Path 1550" d="M1087.1,647.206a12.2,12.2,0,1,0,2.353-9.56l5.44,8.187-7.432-4.346A12.1,12.1,0,0,0,1087.1,647.206Z" transform="translate(-486.294 -354.241)" fill="none" stroke="#3f3d56" stroke-miterlimit="10" stroke-width="1"/>
      <path id="Path_1551" data-name="Path 1551" d="M68.338,617.168a8.022,8.022,0,1,0,1.068-15.384l.2,4.129-1.953-3.538a7.991,7.991,0,0,0-4.118,4.518,7.866,7.866,0,0,0-.461,2.17A8.02,8.02,0,0,0,68.338,617.168Z" transform="translate(-63.055 -341.309)" fill="#57b894"/>
      <path id="Path_1552" data-name="Path 1552" d="M87.473,660.2c-.69-3.511,2.3-6.624,5.25-8.648s6.4-4.011,7.407-7.445c1.447-4.935-2.864-9.454-6.219-13.352a48.29,48.29,0,0,1-6.368-9.464,13.029,13.029,0,0,1-1.523-4.3,14.853,14.853,0,0,1,1.146-6.451q3.538-10.426,7.565-20.678" transform="translate(-72.524 -336.451)" fill="none" stroke="#3f3d56" stroke-miterlimit="10" stroke-width="1"/>
      <path id="Path_1553" data-name="Path 1553" d="M68.9,615.356a8.022,8.022,0,1,0,1.068-15.384l.2,4.129-1.953-3.538A7.991,7.991,0,0,0,64.1,605.08a7.866,7.866,0,0,0-.461,2.17A8.02,8.02,0,0,0,68.9,615.356Z" transform="translate(-63.287 -340.56)" fill="none" stroke="#3f3d56" stroke-miterlimit="10" stroke-width="1"/>
      <path id="Path_1554" data-name="Path 1554" d="M86.527,583.7a8.012,8.012,0,0,1,5.774-5.087l.66,3.925,1.225-4.122a8.021,8.021,0,1,1-7.659,5.284Z" transform="translate(-72.559 -331.723)" fill="#57b894"/>
      <path id="Path_1555" data-name="Path 1555" d="M87.278,581.284a8.012,8.012,0,0,1,5.774-5.087l.66,3.925L94.937,576a8.021,8.021,0,1,1-7.659,5.284Z" transform="translate(-72.869 -330.724)" fill="none" stroke="#3f3d56" stroke-miterlimit="10" stroke-width="1"/>
      <path id="Path_1556" data-name="Path 1556" d="M93.385,648.739a8.021,8.021,0,0,0,7.1-14.269l-.941,3.168-.667-3.971-.02-.008a8.021,8.021,0,0,0-5.471,15.081Z" transform="translate(-73.407 -354.359)" fill="#57b894"/>
      <path id="Path_1557" data-name="Path 1557" d="M94.036,646.292a8.021,8.021,0,0,0,7.1-14.269l-.941,3.168-.667-3.971-.02-.008a8.021,8.021,0,1,0-5.471,15.081Z" transform="translate(-73.676 -353.347)" fill="none" stroke="#3f3d56" stroke-miterlimit="10" stroke-width="1"/>
      <path id="Path_1558" data-name="Path 1558" d="M82.789,675.786a8.017,8.017,0,1,0,1.546-6.281l3.574,5.379-4.883-2.855a7.946,7.946,0,0,0-.236,3.757Z" transform="translate(-71.161 -368.085)" fill="#57b894"/>
      <path id="Path_1559" data-name="Path 1559" d="M83.352,673.974a8.017,8.017,0,1,0,1.546-6.281l3.574,5.379-4.883-2.855A7.946,7.946,0,0,0,83.352,673.974Z" transform="translate(-71.394 -367.336)" fill="none" stroke="#3f3d56" stroke-miterlimit="10" stroke-width="1"/>
      <ellipse id="Ellipse_266" data-name="Ellipse 266" cx="9.973" cy="12.906" rx="9.973" ry="12.906" transform="translate(272.161 174.295)" fill="#2f2e41"/>
      <ellipse id="Ellipse_267" data-name="Ellipse 267" cx="9.973" cy="12.906" rx="9.973" ry="12.906" transform="translate(326.423 174.588)" fill="#2f2e41"/>
      <path id="Path_1560" data-name="Path 1560" d="M597.871,535.059c0,5.831-8.142,10.559-18.185,10.559S561.5,540.89,561.5,535.059c0-5.051,6.107-9.275,14.267-10.307a29.4,29.4,0,0,1,3.919-.252,29.743,29.743,0,0,1,6.529.7C593.031,526.723,597.871,530.566,597.871,535.059Z" transform="translate(-269.101 -309.435)" fill="#2f2e41"/>
      <ellipse id="Ellipse_268" data-name="Ellipse 268" cx="9.973" cy="12.906" rx="9.973" ry="12.906" transform="translate(274.507 171.362)" fill="none" stroke="#3f3d56" stroke-miterlimit="10" stroke-width="1"/>
      <ellipse id="Ellipse_269" data-name="Ellipse 269" cx="9.973" cy="12.906" rx="9.973" ry="12.906" transform="translate(328.77 171.655)" fill="none" stroke="#3f3d56" stroke-miterlimit="10" stroke-width="1"/>
      <ellipse id="Ellipse_270" data-name="Ellipse 270" cx="18.185" cy="10.559" rx="18.185" ry="10.559" transform="translate(294.746 212.132)" fill="none" stroke="#3f3d56" stroke-miterlimit="10" stroke-width="1"/>
      <path id="Path_1561" data-name="Path 1561" d="M596.145,525.877a2.9,2.9,0,0,1-.774,1.99,2.545,2.545,0,0,1-1.865.826h-5.866a2.736,2.736,0,0,1-2.64-2.816,2.877,2.877,0,0,1,.481-1.608A27.612,27.612,0,0,1,589.4,524a27.968,27.968,0,0,1,6.529.751A2.972,2.972,0,0,1,596.145,525.877Z" transform="translate(-278.814 -309.228)" fill="#fff"/>
      <circle id="Ellipse_271" data-name="Ellipse 271" cx="2.933" cy="2.933" r="2.933" transform="translate(281.547 177.815)" fill="#fff"/>
      <circle id="Ellipse_272" data-name="Ellipse 272" cx="2.933" cy="2.933" r="2.933" transform="translate(336.103 177.815)" fill="#fff"/>
      <circle id="Ellipse_273" data-name="Ellipse 273" cx="2.933" cy="2.933" r="2.933" transform="translate(339.036 205.386)" fill="#6c63ff" opacity="0.3"/>
      <circle id="Ellipse_274" data-name="Ellipse 274" cx="2.933" cy="2.933" r="2.933" transform="translate(267.468 205.386)" fill="#6c63ff" opacity="0.3"/>
    </g>
  </g>
</svg>
